<svg width="60" height="48" viewBox="0 0 60 48" fill="none" xmlns="http://www.w3.org/2000/svg">
<path d="M48.3211 14.0495C48.3211 14.2079 48.3211 14.3663 48.3211 14.5248C48.2319 17.9604 46.7349 21.2178 44.3059 23.6535L42.105 25.8614L39.3092 28.6535L19.9273 9.29703V48H0V0H33.9457C41.7679 0 48.2716 6.23762 48.3211 14.0495Z" fill="#1261FC"/>
<path d="M48.3211 14.0495C48.3211 14.2079 48.3211 14.3663 48.3211 14.5248C48.2319 17.9604 46.7349 21.2178 44.3059 23.6535L42.105 25.8614L39.3092 28.6535L19.9273 9.29703V48H0V0H33.9457C41.7679 0 48.2716 6.23762 48.3211 14.0495Z" fill="#1261FC"/>
<path d="M60 47.9999H21.2459L40.618 28.6435L60 47.9999Z" fill="#1261FC"/>
</svg>
