<svg width="129" height="35" viewBox="0 0 129 35" fill="none" xmlns="http://www.w3.org/2000/svg">
<path fill-rule="evenodd" clip-rule="evenodd" d="M29.5772 27.3107C29.2729 27.6092 28.9132 27.8745 28.5259 28.1011C25.7314 29.7093 21.6366 32.0746 18.8421 33.6801C16.9607 34.7688 14.6364 34.7688 12.7273 33.6801C9.96049 32.0746 5.83812 29.7093 3.07131 28.1011C1.16222 27.0123 0 25.0034 0 22.8287C0 19.615 0 14.8844 0 11.6679C0 9.49322 1.16222 7.4843 3.07131 6.39557C5.83812 4.78735 9.96049 2.42201 12.7273 0.816546C14.6364 -0.272182 16.9607 -0.272182 18.8421 0.816546C21.6366 2.42201 25.7314 4.78735 28.5259 6.39557C30.4073 7.4843 31.5694 9.49322 31.5694 11.6679V20.3584C31.3757 20.3556 31.1542 20.4054 30.9882 20.5076C30.3242 20.8945 29.1899 21.541 28.5259 21.9279C28.1939 22.1269 27.9725 22.4944 27.9725 22.8923V25.7329C27.9725 26.1308 28.1939 26.4984 28.5259 26.6973L29.5772 27.3107ZM31.2373 22.2291C31.431 22.1186 31.6524 22.1186 31.8461 22.2291C32.2334 22.4419 32.8419 22.7955 33.2016 23.0056C33.3953 23.1161 33.5061 23.3178 33.5061 23.5361V25.0918C33.5061 25.3101 33.3953 25.5119 33.2016 25.6197C32.8419 25.8324 32.2334 26.1861 31.8461 26.3989C31.6524 26.5066 31.431 26.5066 31.2373 26.3989C30.8776 26.1861 30.2688 25.8324 29.8815 25.6197C29.7155 25.5119 29.5772 25.3101 29.5772 25.0918V23.5361C29.5772 23.3178 29.7155 23.1161 29.8815 23.0056C30.2688 22.7955 30.8776 22.4419 31.2373 22.2291ZM16.4071 15.6747C16.4071 15.6747 23.6563 15.6747 25.012 15.6747C25.178 15.6747 25.3162 15.7547 25.3992 15.8874C25.4822 16.0228 25.51 16.1886 25.427 16.3323C25.095 17.0728 24.5416 18.2362 24.3203 18.7557C24.2373 18.9187 24.0713 19.0237 23.9053 19.0265C23.4073 19.0292 22.0515 19.032 22.0515 19.032C22.6878 20.4053 23.5455 22.2788 23.8499 22.9392C23.9329 23.0746 23.9053 23.2432 23.8223 23.3814C23.7393 23.5196 23.6009 23.6052 23.4349 23.6052C22.6878 23.6108 21.5812 23.6162 20.9172 23.6218C20.3362 23.6245 20.1976 23.2349 20.1423 23.1078C19.7549 22.3065 18.8973 20.4441 18.2609 19.0514L15.0237 19.0734C14.747 19.0734 14.5535 18.7032 14.6919 18.4269C15.1069 17.4625 15.3559 16.8877 15.6603 16.1775C15.8263 15.7934 16.0751 15.6747 16.4071 15.6747ZM16.4349 14.6163L15.7986 13.3259L11.7314 22.3728L11.4547 22.9586C11.344 23.2045 11.095 23.362 10.8184 23.362C10.3203 23.362 9.29662 23.362 8.60492 23.362C8.35591 23.362 8.1344 23.2405 8.02373 23.0415C7.88539 22.8398 7.88533 22.5884 7.96834 22.3728C8.90905 20.3418 11.6759 14.2736 13.419 10.5073C13.5573 10.1757 13.8893 9.9657 14.249 9.9657C14.9961 9.9657 16.4625 9.9657 17.2096 9.9657C17.5693 9.9657 17.9013 10.1757 18.0396 10.5045C18.51 11.4827 19.3954 13.4115 19.9488 14.6163H16.4349Z" fill="#A4B0C2"/>
<path d="M120.936 19.7978V18.0141C120.936 15.6377 122.736 14.3778 124.96 14.3778C127.178 14.3778 129.003 15.7219 129.003 17.6819C129.003 17.6819 129.003 18.4453 129.003 18.9682C129.003 19.2326 128.789 19.4468 128.52 19.4468C127.154 19.4468 123.314 19.4468 123.314 19.4468V19.7978C123.314 20.4935 123.499 21.0035 123.843 21.3441C124.187 21.6842 124.695 21.8625 125.378 21.8625C126.027 21.8625 127.059 21.6802 127.642 21.5667C127.887 21.5204 128.126 21.6688 128.191 21.9083C128.251 22.1145 128.32 22.3625 128.38 22.5751C128.415 22.7021 128.395 22.838 128.325 22.9511C128.26 23.0636 128.146 23.1433 128.016 23.1712C127.378 23.3076 126.246 23.5218 125.378 23.5218C123.783 23.5218 122.492 23.0601 121.724 22.1518C121.215 21.5542 120.936 20.7649 120.936 19.7978ZM77.3715 19.9029C77.3715 19.9029 77.3715 16.3991 77.3715 15.0904C77.3715 14.962 77.4262 14.8384 77.516 14.7473C77.6057 14.6562 77.7304 14.6054 77.86 14.6054C78.2689 14.6054 78.8523 14.6054 79.2662 14.6054C79.3909 14.6054 79.5154 14.6562 79.6102 14.7473C79.6999 14.8384 79.7498 14.962 79.7498 15.0904C79.7498 16.3837 79.7498 19.8153 79.7498 19.8153C79.7498 20.6255 79.9941 21.1902 80.383 21.5169C80.6573 21.744 81.0064 21.8625 81.4152 21.8625C81.8341 21.8625 82.1831 21.7435 82.4574 21.5164C82.8463 21.1897 83.0806 20.6255 83.0806 19.8153C83.0806 19.8153 83.0806 16.3837 83.0806 15.0904C83.0806 14.962 83.1304 14.8384 83.2252 14.7473C83.3149 14.6562 83.4396 14.6054 83.5692 14.6054C83.9831 14.6054 84.5764 14.6054 84.9903 14.6054C85.1199 14.6054 85.2446 14.6562 85.3344 14.7473C85.4291 14.8384 85.479 14.962 85.479 15.0904C85.479 16.3991 85.479 19.9029 85.479 19.9029C85.479 22.2798 83.6191 23.5218 81.4152 23.5218C79.1914 23.5218 77.3715 22.2798 77.3715 19.9029ZM87.5233 23.1622C87.2092 23.1284 87.0446 22.7977 87.1244 22.5124C87.1244 22.5124 87.2142 22.1857 87.294 21.9003C87.3588 21.6678 87.5931 21.5239 87.8324 21.5702C88.3909 21.6827 89.3832 21.8625 89.9865 21.8625C90.4802 21.8625 90.8939 21.732 91.1482 21.5358C91.3626 21.3725 91.4723 21.1628 91.4723 20.9347C91.4723 20.6484 91.3377 20.4188 91.0984 20.2266C90.8092 19.998 90.3454 19.8218 89.8319 19.6285C88.685 19.1993 87.2241 18.6729 87.2241 16.8951C87.2241 15.4106 88.6502 14.3778 90.8441 14.3778C91.5621 14.3778 92.2403 14.4555 92.9284 14.6173C93.053 14.6472 93.1577 14.7284 93.2225 14.8404C93.2873 14.953 93.2973 15.0864 93.2574 15.2089C93.1926 15.437 93.1128 15.7079 93.048 15.9295C92.9782 16.1631 92.7388 16.302 92.4995 16.2462C91.961 16.1193 91.4375 16.0366 90.8441 16.0366C90.2906 16.0366 89.9914 16.192 89.8319 16.3842C89.7072 16.5311 89.6574 16.7084 89.6574 16.8951C89.6574 17.1775 89.797 17.4016 90.0413 17.5873C90.3256 17.8049 90.7892 17.9703 91.2978 18.1545C92.4397 18.5638 93.8906 19.0837 93.8906 20.8994C93.8906 22.2594 92.5843 23.5218 89.9865 23.5218C89.2535 23.5218 88.1566 23.3022 87.5233 23.1622ZM102.826 23.4864C102.143 23.4864 101.569 22.9092 101.569 22.2285C101.569 21.5353 102.163 21.0234 102.826 21.0234C103.489 21.0234 104.082 21.5353 104.082 22.2285C104.082 22.9092 103.509 23.4864 102.826 23.4864ZM97.1716 23.2942C96.8525 23.2942 96.5882 23.0328 96.5882 22.7101C96.5882 21.0259 96.5882 16.2796 96.5882 16.2796H95.7306C95.4613 16.2796 95.227 16.0844 95.1771 15.8165C95.1472 15.6472 95.1123 15.4525 95.0774 15.2692C95.0475 15.1049 95.0924 14.9355 95.2021 14.8076C95.3068 14.6791 95.4663 14.6054 95.6309 14.6054C96.0796 14.6054 96.5882 14.6054 96.5882 14.6054V12.6159C96.5882 12.3301 96.8026 12.0896 97.0868 12.0562C97.4558 12.0134 97.9594 11.9546 98.3533 11.9088C98.5178 11.8899 98.6774 11.9407 98.7971 12.0473C98.9168 12.1543 98.9866 12.3077 98.9866 12.4685C98.9866 13.2862 98.9866 14.6054 98.9866 14.6054C98.9866 14.6054 99.6098 14.6054 100.098 14.6054C100.408 14.6054 100.662 14.8574 100.662 15.1686C100.662 15.3454 100.662 15.5396 100.662 15.7159C100.662 16.0271 100.408 16.2796 100.098 16.2796C99.6098 16.2796 98.9866 16.2796 98.9866 16.2796V22.7101C98.9866 23.0328 98.7223 23.2942 98.3982 23.2942C98.0292 23.2942 97.5456 23.2942 97.1716 23.2942ZM57.0626 23.2942C56.7535 23.2942 56.5042 23.0437 56.5042 22.735C56.5042 20.7191 56.5042 13.8544 56.5042 12.1623C56.5042 11.9332 56.6438 11.7271 56.8582 11.6424C57.287 11.4711 58.015 11.1823 58.4787 10.999C58.5735 10.9611 58.6782 10.9731 58.7629 11.0304C58.8477 11.0876 58.9026 11.1832 58.9026 11.2858C58.9026 13.2031 58.9026 20.6295 58.9026 22.735C58.9026 23.0437 58.6482 23.2942 58.3391 23.2942C57.9552 23.2942 57.4466 23.2942 57.0626 23.2942ZM52.3856 23.2942C52.0764 23.2942 51.8222 23.0437 51.8222 22.735C51.8222 20.7191 51.8222 13.8544 51.8222 12.1623C51.8222 11.9332 51.9618 11.7271 52.1762 11.6424C52.61 11.4711 53.338 11.1823 53.7967 10.999C53.8914 10.9611 54.0012 10.9731 54.0859 11.0304C54.1707 11.0876 54.2205 11.1832 54.2205 11.2858C54.2205 13.2031 54.2205 20.6295 54.2205 22.735C54.2205 23.0437 53.9712 23.2942 53.6621 23.2942C53.2732 23.2942 52.7695 23.2942 52.3856 23.2942ZM39.8154 23.2942C39.6658 23.2942 39.5312 23.224 39.4464 23.1055C39.3616 22.9869 39.3417 22.8351 39.3866 22.6976C40.0896 20.6529 42.3783 13.965 42.9468 12.3052C43.0265 12.0806 43.2359 11.9297 43.4753 11.9297C44.0636 11.9297 45.1705 11.9297 45.7539 11.9297C45.9584 11.9297 46.1429 12.0408 46.2426 12.2191C46.7562 13.7185 49.1196 20.6106 49.8327 22.6951C49.8825 22.8331 49.8576 22.9854 49.7729 23.1045C49.6881 23.2235 49.5535 23.2942 49.4039 23.2942C48.9451 23.2942 48.3318 23.2942 47.9379 23.2942C47.7534 23.2942 47.5839 23.2071 47.4742 23.0592C47.2598 22.3704 46.6514 20.4437 46.6514 20.4437H42.5678C42.5678 20.4437 42.0443 22.1 41.795 22.8873C41.7202 23.1294 41.4957 23.2942 41.2414 23.2942C40.8475 23.2942 40.2592 23.2942 39.8154 23.2942ZM64.6765 23.2942C64.5269 23.2942 64.3823 23.2354 64.2776 23.1304C64.1729 23.0248 64.1131 22.8824 64.1131 22.734C64.1131 20.6768 64.1131 13.6587 64.1131 13.6587C64.1131 13.6587 62.338 13.6587 61.4006 13.6587C61.251 13.6587 61.1114 13.5995 61.0067 13.4944C60.897 13.3893 60.8422 13.2469 60.8422 13.098C60.8422 12.9033 60.8422 12.6847 60.8422 12.49C60.8422 12.1802 61.0915 11.9297 61.4006 11.9297C63.0211 11.9297 67.6832 11.9297 69.3038 11.9297C69.4484 11.9297 69.593 11.9885 69.6977 12.0936C69.8024 12.1986 69.8622 12.3411 69.8622 12.49C69.8622 12.6847 69.8622 12.9033 69.8622 13.098C69.8622 13.2469 69.8024 13.3893 69.6977 13.4944C69.593 13.5995 69.4484 13.6587 69.3038 13.6587C68.3663 13.6587 66.5912 13.6587 66.5912 13.6587C66.5912 13.6587 66.5912 20.6768 66.5912 22.734C66.5912 22.8824 66.5315 23.0248 66.4268 23.1304C66.322 23.2354 66.1774 23.2942 66.0279 23.2942C65.624 23.2942 65.0804 23.2942 64.6765 23.2942ZM70.7547 23.2942C70.6251 23.2942 70.5004 23.2424 70.4057 23.1498C70.3159 23.0576 70.2611 22.9327 70.2611 22.8017C70.2611 21.4327 70.2611 17.6819 70.2611 17.6819C70.2611 15.6895 72.0312 14.3778 74.265 14.3778C74.6539 14.3778 75.0628 14.4157 75.4567 14.4829C75.6063 14.5103 75.736 14.6064 75.8058 14.7428C75.8756 14.8788 75.8756 15.0401 75.8107 15.1786C75.7509 15.3753 75.696 15.5939 75.6461 15.7762C75.5714 16.0017 75.3421 16.1402 75.1077 16.1033C74.8335 16.0635 74.5592 16.0366 74.285 16.0366C73.7664 16.0366 73.3575 16.2154 73.0733 16.5072C72.7941 16.798 72.6395 17.2059 72.6395 17.6819C72.6395 17.6819 72.6395 21.4327 72.6395 22.8017C72.6395 22.9327 72.5897 23.0576 72.4949 23.1498C72.4052 23.2424 72.2755 23.2942 72.1459 23.2942C71.737 23.2942 71.1636 23.2942 70.7547 23.2942ZM112.908 23.2698H112.923C113.048 23.2698 113.172 23.2185 113.267 23.1274C113.357 23.0362 113.407 22.9127 113.407 22.7843C113.407 21.491 113.407 18.0594 113.407 18.0594C113.407 17.2492 113.651 16.6845 114.04 16.3578C114.314 16.1307 114.663 16.0122 115.072 16.0122C115.491 16.0122 115.84 16.1312 116.114 16.3583C116.503 16.685 116.737 17.2492 116.737 18.0594C116.737 18.0594 116.737 21.491 116.737 22.7843C116.737 22.9127 116.792 23.0362 116.882 23.1274C116.972 23.2185 117.096 23.2698 117.226 23.2698C117.64 23.2698 118.233 23.2698 118.647 23.2698C118.777 23.2698 118.901 23.2185 118.991 23.1274C119.086 23.0362 119.136 22.9127 119.136 22.7843C119.136 21.4756 119.136 17.9718 119.136 17.9718C119.136 15.5949 117.276 14.3529 115.072 14.3529C113.955 14.3529 112.938 14.6681 112.205 15.2841C111.462 14.6681 110.44 14.3529 109.328 14.3529C107.109 14.3529 105.289 15.5954 105.289 17.9718C105.289 17.9718 105.289 21.4756 105.289 22.7843C105.289 22.9127 105.339 23.0362 105.429 23.1274C105.523 23.2185 105.643 23.2693 105.773 23.2693C106.182 23.2698 106.77 23.2698 107.179 23.2698C107.308 23.2698 107.428 23.2185 107.523 23.1274C107.613 23.0362 107.663 22.9127 107.663 22.7843C107.663 21.491 107.663 18.0594 107.663 18.0594C107.663 17.2492 107.907 16.6845 108.296 16.3578C108.57 16.1307 108.919 16.0122 109.328 16.0122C109.747 16.0122 110.101 16.1312 110.37 16.3583C110.759 16.685 110.993 17.2492 110.993 18.0594C110.993 18.0594 110.993 21.491 110.993 22.7843C110.993 22.9127 111.048 23.0362 111.138 23.1274C111.228 23.2185 111.352 23.2698 111.482 23.2698H112.908ZM44.5423 14.2932L43.0813 18.8198H46.1379L44.6769 14.2932H44.5423ZM123.314 17.6819V18.155H126.605V17.6819C126.605 16.7676 126.002 16.0366 124.96 16.0366C123.987 16.0366 123.314 16.7477 123.314 17.6819Z" fill="#A4B0C2"/>
</svg>
