<svg xmlns="http://www.w3.org/2000/svg" width="65" height="24" fill="none"><path fill="#090C21" d="M2.613.062 2.693 0c1.684 2.07 6.479 7.696 9.236 7.696 2.13 0 3.357-3.294 3.524-3.77l.097.035s-1.53 4.367-.092 5.518c1.414 1.132 7.364-.779 7.873-.943l.03.099s-6.838 2.123-7.273 4.146c-.31 1.446 1.47 3.488 1.946 4.012l-.072.07s-2.07-2.368-3.61-1.706c-2.29.985-3.599 7.873-3.757 8.843l-.101-.02s1.437-7.761-2.162-9.502c-2.022-.979-7.011.27-7.803.472L.5 14.85s6.979-1.786 6.979-5.712c0-3.178-4.866-9.075-4.866-9.075m40.235 10.395c-.563-.388-1.332-.585-2.285-.585-1.226 0-2.244.44-2.957 1.278V10.08h-2.159v8.059h2.159v-4.327c0-1.726 1.441-2.187 2.293-2.187 1.642 0 1.832.985 1.832 1.726v4.788h2.16v-5.442c0-1.007-.352-1.76-1.044-2.239m7.477 6.08-1.385.028c-.578 0-.635-.379-.635-1.31v-3.512h2.076V10.08h-2.076V7.577l-.128.076-1.99 1.19-.042.026v1.211H44.56v1.663h1.585v4.107c0 1.49.188 2.467 2.694 2.467.631 0 1.036-.05 1.54-.12l.073-.01v-1.655l-.088.003zm1.365-6.457h-.085v8.058h2.16V10.08H51.69m0-2.915h-.085v1.841h2.16V7.165H51.69m12.686 10.828L60.98 13.99l3.166-3.764.122-.146h-2.792l-.027.033-1.936 2.472-1.894-2.472-.026-.033H54.8l.121.145 3.138 3.765-3.382 4.003-.123.145h2.793l.026-.032 2.138-2.711 2.082 2.71.026.033H64.5zM33.191 7.165H30.67l-.025.03-8.911 10.799-.12.144h2.706l.025-.03 2.135-2.588h5.095v2.618h2.16V7.164h-.544m-5.18 6.5 3.564-4.318v4.318z"/></svg>