<svg width="112" height="21" viewBox="0 0 112 21" fill="none" xmlns="http://www.w3.org/2000/svg">
<path d="M0 20.3984L9.06085 0.200545H12.4145L21.4754 20.3984H17.651L15.5623 15.5566H5.82483L3.70671 20.3984H0ZM7.14866 12.4338H14.2385L10.6789 4.412L7.14866 12.4338Z" fill="#090C21"/>
<path d="M51.9556 18.4789L49.6315 21L47.1604 18.8513C45.356 20.1119 43.2673 20.7422 40.8943 20.7422C37.7759 20.7422 35.2067 19.7394 33.1866 17.734C31.1666 15.7285 30.1566 13.2933 30.1566 10.4284V10.3711C30.1566 7.50614 31.1764 5.06139 33.2161 3.03683C35.2753 1.01228 37.8544 0 40.9531 0C44.0714 0 46.6406 1.00273 48.6607 3.00818C50.6808 5.01364 51.6908 7.44884 51.6908 10.3138V10.3711C51.6908 12.6439 50.9946 14.6971 49.6021 16.5307L51.9556 18.4789ZM40.9531 17.4761C42.2867 17.4761 43.4635 17.1801 44.4833 16.588L40.9531 13.6085L43.2771 11.03L46.8956 14.2387C47.5624 13.131 47.8958 11.8608 47.8958 10.4284V10.3711C47.8958 8.38472 47.229 6.70396 45.8954 5.32879C44.5814 3.95361 42.9143 3.26603 40.8943 3.26603C38.8742 3.26603 37.2072 3.94406 35.8931 5.30014C34.5987 6.65621 33.9515 8.32742 33.9515 10.3138V10.3711C33.9515 12.3574 34.6085 14.0382 35.9226 15.4134C37.2562 16.7885 38.933 17.4761 40.9531 17.4761Z" fill="#090C21"/>
<path d="M71.8603 20.7135C69.1342 20.7135 66.9866 19.9591 65.4177 18.4502C63.8683 16.9222 63.0936 14.7353 63.0936 11.8895V0.343792H66.7121V11.7462C66.7121 13.5989 67.1631 15.0123 68.0653 15.9864C68.9871 16.9604 70.2717 17.4475 71.9191 17.4475C73.5469 17.4475 74.8119 16.9795 75.7141 16.0437C76.6359 15.0887 77.0967 13.704 77.0967 11.8895V0.343792H80.7152V11.7176C80.7152 14.6398 79.9307 16.8745 78.3617 18.4216C76.7928 19.9495 74.6256 20.7135 71.8603 20.7135Z" fill="#090C21"/>
<path d="M90.5246 20.3984L99.5855 0.200545H102.939L112 20.3984H108.176L106.087 15.5566H96.3494L94.2313 20.3984H90.5246ZM97.6733 12.4338H104.763L101.203 4.412L97.6733 12.4338Z" fill="#090C21"/>
</svg>
