<svg width="207" height="40" viewBox="0 0 207 40" fill="none" xmlns="http://www.w3.org/2000/svg">
<path d="M0 38.854L16.7464 0.38199H22.9447L39.6911 38.854H32.6228L28.7625 29.6316H10.7655L6.8508 38.854H0ZM13.2122 23.6835H26.3158L19.7368 8.40382L13.2122 23.6835Z" fill="white"/>
<path d="M96.025 35.1978L91.7297 40L87.1625 35.9072C83.8277 38.3083 79.9673 39.5089 75.5813 39.5089C69.818 39.5089 65.0695 37.5989 61.336 33.779C57.6025 29.9591 55.7358 25.3206 55.7358 19.8636V19.7544C55.7358 14.2974 57.6207 9.64075 61.3904 5.78445C65.1964 1.92815 69.963 0 75.6901 0C81.4535 0 86.2019 1.90996 89.9354 5.72987C93.6689 9.54979 95.5357 14.1883 95.5357 19.6453V19.7544C95.5357 24.0837 94.2489 27.9945 91.6753 31.487L96.025 35.1978ZM75.6901 33.2879C78.1549 33.2879 80.3298 32.724 82.2147 31.5962L75.6901 25.9209L79.9854 21.0095L86.6731 27.1214C87.9055 25.0114 88.5217 22.5921 88.5217 19.8636V19.7544C88.5217 15.9709 87.2893 12.7694 84.8245 10.1501C82.3959 7.53069 79.3148 6.22101 75.5813 6.22101C71.8478 6.22101 68.7668 7.5125 66.3382 10.0955C63.9459 12.6785 62.7497 15.8618 62.7497 19.6453V19.7544C62.7497 23.538 63.964 26.7394 66.3926 29.3588C68.8574 31.9782 71.9566 33.2879 75.6901 33.2879Z" fill="white"/>
<path d="M132.813 39.4543C127.775 39.4543 123.806 38.0173 120.906 35.1432C118.042 32.2328 116.611 28.0673 116.611 22.6467V0.654841H123.298V22.3738C123.298 25.9027 124.132 28.5948 125.799 30.4502C127.503 32.3056 129.877 33.2333 132.922 33.2333C135.93 33.2333 138.268 32.342 139.936 30.5593C141.639 28.7403 142.491 26.1028 142.491 22.6467V0.654841H149.179V22.3192C149.179 27.8854 147.729 32.1419 144.829 35.0887C141.929 37.9991 137.924 39.4543 132.813 39.4543Z" fill="white"/>
<path d="M167.309 38.854L184.055 0.38199H190.254L207 38.854H199.932L196.071 29.6316H178.074L174.16 38.854H167.309ZM180.521 23.6835H193.625L187.046 8.40382L180.521 23.6835Z" fill="white"/>
</svg>
