<svg xmlns="http://www.w3.org/2000/svg" width="91" height="24" fill="none"><path fill="#090C21" d="M10.83.045C9.307.23 8.02.62 6.694 1.291 3.84 2.745 1.632 5.361.69 8.405c-.143.464-.14.706.012 1.012.173.34.306.423 1.09.713 4.51 1.646 12.351 1.971 18.03.748 1.518-.325 3.081-.812 3.47-1.076.208-.14.378-.408.434-.669.053-.256.02-.434-.204-1.064A12.04 12.04 0 0 0 17.33 1.14C16.232.62 15.171.298 13.888.094c-.635-.098-2.417-.128-3.059-.049m60.695 14.82h1.246v-1.691c0-1.84.015-1.986.216-2.356.124-.23.302-.39.577-.518.185-.087.257-.098.623-.098.378 0 .434.008.63.106.284.14.465.355.56.66.071.227.075.355.075 2.07v1.827h1.246V12.94c0-2.16-.011-2.284-.253-2.794a2.1 2.1 0 0 0-.88-.898c-.641-.314-1.559-.306-2.163.019a2.3 2.3 0 0 0-.412.324l-.219.223V6.898h-1.246zm12.838 0h1.246v-.79l.192.205c.386.408.835.623 1.458.698 1.344.163 2.617-.683 3.028-2.016a3.4 3.4 0 0 0 .117-1.321c-.083-.76-.332-1.273-.883-1.82-.291-.287-.404-.374-.703-.521-1.046-.518-2.393-.314-3.058.46l-.151.178v-3.04h-1.246zm3.53-4.599c.646.166 1.17.77 1.265 1.461.132.956-.396 1.79-1.295 2.028a2.2 2.2 0 0 1-.951-.004c-.82-.215-1.356-1-1.292-1.888.083-1.155 1.133-1.891 2.273-1.597M45.17 7.744c-.28.087-.54.17-.574.181-.06.027-.068.09-.068.635v.604h-1.02v1.208h1.012l.015 1.612c.016 1.53.02 1.627.099 1.862.17.51.441.789.932.951.234.076.34.087.887.087.344 0 .654-.011.691-.027.057-.026.065-.09.065-.577v-.548h-.48c-.393 0-.513-.015-.642-.071-.294-.136-.294-.125-.306-1.805l-.011-1.484.71-.008.71-.011.022-1.19h-1.438v-.792c0-.612-.011-.793-.046-.79a8 8 0 0 0-.558.163M33.71 9.07a2.76 2.76 0 0 0-1.46.849c-.59.645-.813 1.287-.779 2.246.015.42.034.54.136.835.453 1.34 1.658 2.133 3.013 1.978.6-.068 1.024-.264 1.424-.664l.215-.22v.771h1.246V9.164h-1.246V9.9l-.257-.246q-.675-.65-1.733-.638a3.4 3.4 0 0 0-.559.053m1.057 1.15a1.77 1.77 0 0 1 1.458 1.364c.064.29.023.834-.08 1.102-.248.654-.826 1.069-1.547 1.11-1.076.069-1.892-.702-1.888-1.778.004-.544.136-.902.48-1.269.309-.332.74-.524 1.257-.562.03 0 .177.015.32.034m5.381-1.147c-.51.106-1.031.464-1.265.857-.287.495-.276 1.223.026 1.654.31.438.786.683 1.9.978.562.147.925.415.925.676a1 1 0 0 1-.072.253c-.053.117-.113.177-.253.245-.166.08-.234.09-.638.09-.385 0-.48-.014-.63-.082a1.23 1.23 0 0 1-.537-.521 2 2 0 0 0-.083-.167c-.015-.018-1.03.563-1.057.605-.038.064.192.396.453.657.476.472 1.023.668 1.854.668.566 0 .932-.08 1.314-.28.31-.162.645-.498.774-.774.094-.2.102-.256.102-.69 0-.556-.053-.707-.34-1.016-.317-.34-.695-.533-1.39-.706-.57-.144-.951-.302-1.125-.465-.132-.132-.147-.162-.147-.336 0-.162.019-.215.117-.328.344-.39 1.25-.299 1.601.155.068.094.132.188.14.207.015.042 1.05-.52 1.05-.57 0-.072-.356-.502-.537-.646-.26-.207-.668-.4-.993-.468a3.4 3.4 0 0 0-1.19.004m9.814-.003q-.793.156-1.439.845c-.48.514-.706 1.004-.789 1.73-.15 1.287.499 2.53 1.609 3.084.37.185.713.26 1.208.26.744 0 1.265-.196 1.73-.656l.252-.253v.785h1.246V9.164h-1.246v.766l-.253-.253a2.33 2.33 0 0 0-1.125-.608 3.5 3.5 0 0 0-1.193 0m1.325 1.215c.827.227 1.36 1.114 1.212 2.02-.083.536-.434 1.054-.868 1.291-.382.208-.937.268-1.382.155-1.069-.28-1.605-1.521-1.103-2.56.386-.796 1.235-1.159 2.141-.906m6.23-1.211c-.434.094-.834.34-1.087.672l-.083.11v-.691H55.1v5.701h1.246v-1.654c0-1.02.015-1.74.041-1.873.087-.479.359-.853.744-1.034.193-.09.26-.102.63-.102.378 0 .435.008.631.106q.362.179.536.551c.076.166.08.242.099 2.08l.018 1.907.616.011.611.008v-1.94c0-2.194-.007-2.281-.264-2.802a2.06 2.06 0 0 0-.834-.869c-.45-.226-1.114-.302-1.658-.18m5.947-.004c-.725.158-1.336.588-1.774 1.245-.352.529-.491 1.095-.461 1.828.038.944.37 1.63 1.072 2.231.555.476 1.333.702 2.088.608.605-.075 1.031-.283 1.416-.68l.189-.192.038.736.615.011.612.008V9.164h-1.246V9.9l-.264-.253a2.16 2.16 0 0 0-1.103-.574 3.4 3.4 0 0 0-1.182-.004m1.057 1.15c.382.057.699.22.978.5.363.365.51.736.514 1.275.004 1.05-.744 1.813-1.775 1.813s-1.774-.763-1.774-1.812c.004-1.012.698-1.737 1.737-1.81.03 0 .177.016.32.035m13.367 3.04.102.302c.317.937 1.034 1.431 2.069 1.428.68 0 1.083-.155 1.502-.563l.234-.234v.672h1.246V9.164h-1.246v1.657c0 .948-.015 1.74-.037 1.858-.057.302-.242.65-.438.823-.306.268-.778.385-1.224.306-.438-.08-.683-.264-.864-.642l-.099-.208-.022-3.794h-1.246zm-67.983-.85c-3.111.182-6.003.692-8.061 1.424-.272.095-.57.212-.665.26-.343.17-.6.575-.6.94 0 .36.453 1.59.899 2.455a12.03 12.03 0 0 0 8.73 6.358c1.411.238 3.092.197 4.53-.117 1.714-.37 3.5-1.215 4.912-2.337.506-.4 1.518-1.412 1.918-1.918.922-1.163 1.802-2.854 2.122-4.081.072-.284.08-.344.038-.533a1.16 1.16 0 0 0-.419-.672c-.272-.196-1.427-.585-2.643-.89-1.574-.394-3.323-.662-5.437-.835-.846-.068-4.418-.106-5.324-.053"/></svg>