<svg xmlns="http://www.w3.org/2000/svg" width="34" height="34" fill="none"><g clip-path="url(#a)"><path fill="#00247D" d="M30.222 4.722H3.778a4 4 0 0 0-.57.042l-.004 1.657-2.579-.004A3.76 3.76 0 0 0 0 8.499v17a3.777 3.777 0 0 0 3.778 3.778h26.444A3.78 3.78 0 0 0 34 25.5v-17a3.78 3.78 0 0 0-3.778-3.778"/><path fill="#fff" d="m8.5 24.577-1.154 1.067.114-1.568-1.553-.237 1.296-.888-.782-1.363 1.502.461.577-1.463.578 1.463 1.503-.46-.784 1.362 1.298.888-1.554.237.114 1.568zM26.397 9.031l-.754.697.074-1.026-1.017-.155.85-.58-.513-.892.983.301.377-.957.38.957.982-.301-.512.891.848.581-1.017.155.075 1.026zm-3.777 5.666-.755.698.075-1.025-1.018-.155.85-.582-.512-.891.982.3.378-.956.378.957.983-.301-.512.891.848.582-1.016.155.074 1.025zm8.5-1.888-.755.698.075-1.026-1.018-.155.85-.582-.512-.891.982.3.378-.956.378.957.983-.301-.512.891.848.582-1.016.155.074 1.026zM26.397 26.03l-.754.698.074-1.026-1.017-.155.85-.582-.513-.891.983.301.377-.957.38.957.982-.301-.512.891.848.582-1.017.155.075 1.026zm2.881-10.92.278.563.62.09-.448.437.105.619-.555-.292-.555.292.105-.619-.448-.437.62-.09z"/><path fill="#00247D" d="M17.944 17V4.722H3.778c-.302 0-.57.042-.57.042l-.004 1.657-2.579-.004s-.04.056-.12.194A3.77 3.77 0 0 0 0 8.499V17z"/><path fill="#EEE" d="M17.944 4.722h-2.201l-4.41 3.087V4.722H6.611v2.426L3.207 4.764c-.567.085-1.108.3-1.579.628L6.07 8.5H4.43L.913 6.035a4 4 0 0 0-.288.382l2.976 2.082H0v4.723h3.67L0 15.834V17h3.147l3.464-2.426V17h4.722v-3.088L15.742 17h2.202v-1.917l-2.658-1.861h2.658V8.499h-2.657l2.657-1.861z"/><path fill="#CF1B2B" d="M10.389 4.722H7.556v4.722H0v2.833h7.556V17h2.833v-4.723h7.555V9.444H10.39z"/><path fill="#CF1B2B" d="M17.945 4.722h-1.38l-5.232 3.663V8.5h1.484l5.128-3.59zm-16.317.67q-.397.277-.715.643L4.43 8.5h1.638zm4.452 7.83L.693 17h1.631l4.287-3.002v-.776zm11.865 3.59V15.66l-3.483-2.438h-1.646z"/></g><defs><clipPath id="a"><path fill="#fff" d="M0 0h34v34H0z"/></clipPath></defs></svg>