<svg xmlns="http://www.w3.org/2000/svg" width="117" height="24" fill="none"><path fill="#090C21" d="M12.667.11c-.02.063-.042 2.028-.035 4.373 0 4.656.021 4.954.38 5.618.188.353 1.025 1.245 1.163 1.245.035 0 .235.083.45.187l.387.194 3.383.02c2.692.014 3.397 0 3.446-.069a1 1 0 0 0 .055-.346c0-.228-.035-.283-.284-.436a2.3 2.3 0 0 0-.394-.22 5 5 0 0 1-.45-.243c-.18-.104-.36-.194-.394-.194s-.221-.097-.415-.207c-.194-.118-.38-.208-.422-.208s-.208-.097-.374-.207c-.166-.118-.339-.208-.387-.208-.042 0-.235-.097-.422-.207-.18-.118-.367-.208-.401-.208s-.174-.09-.298-.208c-.131-.117-.256-.207-.284-.207-.117 0-1.356-1.218-1.356-1.342 0-.028-.09-.166-.207-.298-.11-.124-.208-.277-.208-.332 0-.048-.027-.104-.055-.118-.076-.034-.36-.532-.36-.636 0-.055-.076-.228-.166-.394a3.3 3.3 0 0 1-.277-.692c-.055-.215-.18-.65-.283-.969-.104-.318-.277-.892-.395-1.273a84 84 0 0 0-.726-2.234C13.24.02 13.22 0 12.97 0q-.262-.001-.304.11m-1.335 2.581c-.117.187-.228.395-.242.464-.014.076-.042.145-.07.166-.02.02-.241.422-.49.9-.242.477-.498.975-.568 1.106s-.159.305-.193.38c-.305.617-.976 1.627-1.073 1.627-.027 0-.104.097-.166.207-.062.118-.166.208-.214.208a.16.16 0 0 0-.139.097c-.034.09-.837.733-.92.733-.02 0-.173.09-.339.208-.166.11-.332.207-.36.207-.034 0-.249.09-.47.208-.221.11-.45.207-.505.207-.048 0-.36.09-.685.208-.318.11-.636.207-.692.207-.062 0-.36.09-.67.2-.312.112-.886.298-1.288.423-1.785.547-1.882.602-1.854.996l.02.284 4.595.02 4.587.014.532-.235c.29-.131.616-.318.727-.415s.221-.18.256-.18c.034 0 .09-.062.131-.131a1 1 0 0 1 .16-.229c.186-.193.36-.525.511-.947.16-.443.16-.492.16-3.778 0-2.497-.021-3.348-.084-3.41-.186-.187-.428-.09-.657.255m47.751 4.324c-.54.125-1.273.374-1.467.498l-.408.243c-.36.2-.858.615-.858.712 0 .042-.07.11-.152.146-.374.166-1.045 1.432-1.21 2.283-.215 1.114-.084 2.712.283 3.417.097.173.187.38.207.457.021.076.132.242.25.367.11.124.2.242.193.262-.007.07.533.616.816.83.153.104.326.25.395.319.069.07.166.125.228.125.055 0 .215.076.36.166s.54.235.878.325c.858.228 2.429.235 3.224.014a5.15 5.15 0 0 0 1.938-1.045c.553-.505.546-.574-.16-1.26-.31-.304-.601-.553-.643-.553-.104 0-.38.298-.38.408 0 .049-.042.077-.097.056-.049-.021-.208.062-.346.187-.132.124-.256.214-.277.2-.062-.062-.318.062-.277.132.028.048.014.055-.027.027-.042-.027-.256.007-.478.07-.526.152-1.446.096-1.965-.111-.588-.242-.837-.374-.871-.47-.021-.042-.07-.084-.118-.084-.041 0-.194-.131-.346-.283-.733-.782-1.024-1.806-.83-2.92.062-.387.166-.713.27-.885.097-.146.173-.291.173-.319 0-.034.152-.214.332-.401.173-.194.318-.367.304-.394-.007-.028.035-.035.09-.014.056.027.104.007.104-.035 0-.076.512-.332 1.072-.54.332-.117 1.543-.138 1.944-.027.146.041.367.138.478.214.117.076.249.139.29.139.09 0 .208.083.644.463.311.277.366.277.546.049.083-.104.146-.16.146-.125 0 .028.138-.083.311-.256.318-.304.519-.602.519-.76 0-.146-.733-.796-1.156-1.032a8.5 8.5 0 0 0-1.023-.429c-.547-.18-.74-.214-1.557-.235-.63-.014-1.065.007-1.35.07m-29.229 5.126v5.085h2.006v-4.29h4.912v1.986c0 1.1.02 2.062.041 2.152.042.145.07.152 1.004.152h.961V7.05l-.982.02c-.733.014-.99.042-.996.104-.007.049-.014.962-.021 2.028l-.007 1.937h-4.912V7.057h-2.006zm11.415 0v5.085h2.006V14.32l1.3.014c.997.014 1.294.041 1.294.11 0 .05.035.111.077.14.034.027.145.172.235.317.09.153.256.38.366.505.111.125.18.229.16.229-.021 0 .069.138.2.311.132.173.29.408.36.519.062.117.145.207.173.207s.055.049.055.104c0 .049.055.132.125.166.062.042.09.076.062.076-.035 0-.014.049.048.104.083.083.312.104 1.142.104.962 0 1.045-.007 1.045-.125 0-.145-.395-.705-.498-.705-.035 0-.056-.042-.035-.09.014-.042-.076-.208-.2-.353s-.215-.298-.194-.325c.02-.035.007-.062-.035-.062-.035 0-.125-.09-.187-.201-.069-.118-.145-.194-.18-.173-.027.02-.041-.007-.02-.055.02-.049-.077-.215-.208-.36-.131-.152-.221-.298-.2-.325.013-.028-.014-.076-.063-.111a.8.8 0 0 1-.214-.242c-.125-.187-.125-.194.076-.277.311-.131.92-.616.871-.699-.02-.034-.007-.048.028-.027.118.076.533-.623.699-1.163.2-.664.249-1.155.159-1.778-.07-.49-.131-.692-.415-1.293-.304-.644-1.508-1.502-2.166-1.543-.166-.014-.31-.042-.332-.07-.096-.124-1.183-.193-3.265-.193h-2.27zm4.552-3.217c.567.076 1.148.311 1.39.58.09.098.194.16.222.14.035-.021.062.027.062.11s.049.242.11.36c.167.311.146.934-.04 1.342-.167.36-.582.782-.776.789-.062 0-.13.027-.159.062-.096.166-1.023.284-2.172.284h-1.183V8.856h1.024c.56 0 1.245.034 1.522.069m22.776-1.647c-.055.125-.104.25-.104.27 0 .048-.56 1.26-.775 1.667-.09.187-.152.36-.124.395a.08.08 0 0 1-.028.104c-.062.041-.263.45-.664 1.355a81 81 0 0 1-1.218 2.65c-.11.222-.2.436-.2.478s-.111.311-.25.602c-.138.29-.318.678-.408.871-.09.187-.256.547-.373.796-.118.249-.215.519-.215.602 0 .159.007.159 1.004.159h1.003l.152-.29c.09-.167.159-.347.166-.402 0-.055.083-.27.187-.463.103-.201.249-.533.332-.748l.138-.38h2.456c2.048 0 2.45.014 2.45.097 0 .055.096.283.207.512.117.235.207.45.207.484 0 .076.215.519.277.567.02.021.083.166.139.325l.09.298h1.03c.99 0 1.024-.007 1.024-.145a.7.7 0 0 0-.083-.29.7.7 0 0 1-.09-.222c-.007-.063-.228-.554-.657-1.46-.076-.16-.138-.311-.138-.346s-.07-.173-.152-.304c-.084-.132-.16-.291-.167-.346-.013-.056-.055-.111-.096-.125-.035-.014-.056-.055-.035-.083.02-.035-.055-.249-.173-.477-.11-.229-.208-.457-.208-.498 0-.042-.069-.194-.152-.332a3 3 0 0 1-.166-.284c-.014-.083-.214-.533-.747-1.667-.138-.284-.249-.547-.249-.582s-.09-.249-.2-.484a15 15 0 0 1-.416-.886l-.415-.899a7 7 0 0 1-.249-.588c-.041-.145-.07-.152-1.024-.152H68.7zm1.314 2.615c.09.173.166.346.166.388.007.041.09.27.201.505.104.228.263.602.353.816l.415.941c.138.298.25.568.25.602 0 .042-.644.07-1.661.07h-1.66l.13-.298c.43-.941.561-1.246.561-1.3 0-.029.097-.27.215-.527.318-.705.595-1.342.691-1.605.09-.235.09-.235.132-.069.028.09.124.304.207.477m6.365 2.249v5.085h1.938v-2.823l1.563-.027c.886-.014 1.578-.056 1.605-.09.028-.042.222-.077.43-.09.442-.028 1.314-.408 1.597-.7.097-.103.215-.172.256-.158.049.014.083-.021.083-.07 0-.055.076-.172.173-.262.187-.173.575-.879.644-1.17.02-.096.041-.65.041-1.217l-.007-1.038-.249-.47c-.228-.43-.67-1.045-.67-.92 0 .027-.077-.035-.167-.146-.18-.214-1.045-.699-1.26-.712-.345-.014-.497-.042-.47-.077.077-.124-1.21-.2-3.258-.2h-2.249zm4.622-3.196c.429.048 1.26.428 1.26.574 0 .055.047.117.103.145.228.083.332.45.339 1.107v.643l-.277.326c-.546.657-1.273.85-3.155.85h-.954V8.857l1.127-.014c.616-.014 1.135 0 1.156.02.02.021.2.063.4.084m5.48 3.195v5.085h1.937V7.057h-1.937zm3.252-4.186v.9h3.252v8.371h2.006V8.856h3.252v-1.8h-8.51zm12.267-.747c-.035.09-.159.346-.27.574-.104.229-.194.464-.2.526a.4.4 0 0 1-.077.208 3 3 0 0 0-.228.442c-.09.187-.242.533-.353.761l-.449 1.004c-.139.325-.298.67-.353.774a.75.75 0 0 0-.097.291c0 .062-.028.11-.07.11-.034 0-.069.042-.069.098 0 .048-.09.262-.207.477-.11.214-.208.429-.208.47 0 .042-.11.305-.249.575a7 7 0 0 0-.262.601c-.007.056-.084.208-.167.34-.083.131-.152.283-.152.325 0 .048-.09.27-.194.484-.4.816-.594 1.238-.615 1.37a.45.45 0 0 1-.09.2c-.042.042-.07.139-.07.229 0 .159 0 .159 1.038.159.872 0 1.038-.014 1.038-.104 0-.055.09-.297.2-.533.284-.615.617-1.383.658-1.528.035-.111.215-.118 2.463-.118h2.421l.132.29c.069.166.221.512.339.782.111.263.277.65.367.851l.152.36h1.031c1.017 0 1.024 0 1.024-.16 0-.082-.09-.338-.201-.567a95 95 0 0 1-.803-1.764c-.138-.325-.345-.775-.449-1.003a89 89 0 0 0-.415-.9 78 78 0 0 1-.796-1.764 17 17 0 0 0-.457-.975c-.11-.214-.2-.429-.2-.477 0-.042-.063-.166-.132-.263a1.4 1.4 0 0 1-.145-.256c-.069-.284-.367-.934-.429-.934-.028 0-.055-.056-.055-.125 0-.062-.09-.311-.208-.553l-.2-.43h-.962c-.927 0-.962.008-1.031.153m1.19 2.477c.062.194.194.491.284.664s.166.346.166.394c0 .042.076.236.166.43a54 54 0 0 1 .775 1.75c.055.124.096.242.096.256 0 .02-.747.034-1.66.034s-1.66-.014-1.66-.034.096-.222.207-.45c.118-.228.208-.45.208-.498 0-.049.09-.27.2-.505.332-.692.492-1.073.492-1.176 0-.056.027-.104.062-.104.034 0 .083-.07.111-.16.041-.158.394-.947.422-.947.006 0 .069.159.131.346m6.399 2.456v5.085h7.126v-1.799h-5.119V7.057h-2.007zm-106.474.097c-.146.041-.18.097-.194.332-.02.27-.007.29.311.477.18.104.678.367 1.093.582.422.214.837.435.934.484.263.138.395.207 1.107.574.36.187.789.436.955.553.54.402.879.685.94.796.035.062.153.187.264.277.104.09.194.207.194.263 0 .055.027.097.062.097.055 0 .616.816.692 1.003.013.034.117.256.228.477.11.228.228.519.256.657.035.139.145.498.249.803.097.304.27.83.374 1.176 1.01 3.259 1.003 3.238 1.349 3.203l.214-.02.02-4.58.015-4.587-.173-.492c-.145-.428-.595-1.162-.747-1.231a.9.9 0 0 1-.208-.18c-.083-.09-.38-.277-.664-.422l-.519-.27-3.286-.014c-1.813-.007-3.37.014-3.466.042m12.176.007c-.215.027-.478.097-.588.159-.118.062-.305.159-.415.214-.34.16-.893.754-1.156 1.232-.36.65-.401 1.08-.401 4.407 0 3.162.014 3.328.346 3.328.104 0 .221-.042.263-.09.097-.118.67-1.197 1.785-3.356.166-.318.484-.837.712-1.141.388-.533.976-1.156 1.094-1.156.034 0 .152-.097.276-.207.125-.118.25-.208.277-.208s.131-.062.228-.138c.194-.16 1.294-.692 1.412-.692.048 0 .283-.076.532-.18.242-.097.568-.2.72-.228.152-.035.512-.138.796-.235.283-.09.844-.27 1.245-.395.401-.124 1.01-.325 1.349-.45l.623-.22.02-.298c.014-.194-.007-.319-.069-.353-.11-.07-8.51-.062-9.05.007"/></svg>