<svg width="194" height="41" viewBox="0 0 194 41" fill="none" xmlns="http://www.w3.org/2000/svg">
<mask id="mask0_4878_42923" style="mask-type:luminance" maskUnits="userSpaceOnUse" x="0" y="0" width="194" height="41">
<path d="M193.504 0H0V40.0785H193.504V0Z" fill="white"/>
</mask>
<g mask="url(#mask0_4878_42923)">
<path d="M27.8634 21.533C27.8535 20.307 28.3065 19.1224 29.1321 18.216C29.9575 17.3095 31.0947 16.748 32.3163 16.6436H52.7472L46.1115 21.0637H34.9902C34.2732 21.0666 33.5865 21.3527 33.0795 21.8596C32.5725 22.3666 32.2864 23.0534 32.2835 23.7704V34.8262L27.918 40.0757L27.8634 21.533Z" fill="white"/>
<path d="M26.3225 15.6069C25.1834 15.6342 24.0789 15.215 23.2447 14.4391L8.5 0L16.5217 1.5716L24.5544 9.45145C25.0686 9.95606 25.7602 10.2387 26.4807 10.2387C27.2011 10.2387 27.8928 9.95606 28.407 9.45145L36.4614 1.58252L44.4614 0L30.0441 14.1881C29.0266 15.113 27.6975 15.6198 26.3225 15.6069Z" fill="white"/>
<path d="M20.4527 34.814V23.7691C20.4527 23.0502 20.1679 22.3606 19.6606 21.8513C19.1533 21.3419 18.4649 21.0544 17.746 21.0515H6.61383L0 16.6313H19.9834C21.2459 16.6499 22.4577 17.1315 23.3885 17.9847C23.8407 18.3696 24.2066 18.8457 24.4623 19.3816C24.7182 19.9176 24.858 20.5015 24.8728 21.0952V40.0744L20.4527 34.814Z" fill="white"/>
<path d="M90.024 10.0587H65.8711V30.0311H90.024C90.9458 30.0927 91.8714 29.9668 92.7437 29.6611C93.6154 29.3553 94.417 28.8761 95.0989 28.2522C95.697 27.5826 96.1504 26.7972 96.4322 25.9448C96.714 25.0925 96.8173 24.1913 96.7359 23.2973V17.0108C96.7359 14.6425 96.2011 12.9509 95.0989 11.8376C94.417 11.2138 93.6154 10.7345 92.7437 10.4288C91.8714 10.123 90.9458 9.9971 90.024 10.0587ZM70.2591 26.1349V13.955H88.987C89.4579 13.9219 89.9307 13.982 90.3785 14.1318C90.8256 14.2817 91.2395 14.5183 91.5952 14.8281C91.9046 15.1779 92.1413 15.5858 92.2916 16.028C92.4412 16.4703 92.5014 16.9379 92.4688 17.4037V22.6861C92.5014 23.1519 92.4412 23.6196 92.2916 24.0618C92.1413 24.5041 91.9046 24.912 91.5952 25.2617C91.2401 25.5726 90.8262 25.8099 90.3785 25.9597C89.9307 26.1096 89.4579 26.1691 88.987 26.1349H70.2591Z" fill="white"/>
<path d="M164.527 10.0552L151.354 19.9869L164.516 30.0277H157.892L147.545 22.1369L138.312 30.0277H131.578L143.911 19.9869L131.611 10.0552H138.312L147.338 17.8695L157.771 10.0879L164.527 10.0552Z" fill="white"/>
<path d="M104.773 16.5621V18.1447H124.057V21.9427H104.773V23.5252C104.749 23.877 104.795 24.23 104.91 24.5636C105.024 24.8972 105.203 25.2046 105.438 25.4679C106.19 25.9166 107.067 26.1081 107.937 26.0136H123.894L130.628 30.0299H106.366C105.572 30.0786 104.775 29.9664 104.025 29.7002C103.275 29.4338 102.586 29.0189 102 28.4801C101.472 27.8885 101.066 27.1981 100.805 26.4489C100.545 25.6996 100.436 24.9063 100.483 24.1145V16.0383C100.436 15.2465 100.545 14.4532 100.805 13.7039C101.066 12.9547 101.472 12.2643 102 11.6727C102.586 11.1339 103.275 10.719 104.025 10.4527C104.775 10.1864 105.572 10.0742 106.366 10.1229H130.693L124.025 14.1065H107.425C107.073 14.0821 106.719 14.1285 106.386 14.2428C106.052 14.3572 105.745 14.5372 105.482 14.7722C105.243 15.003 105.056 15.282 104.934 15.5907C104.812 15.8993 104.757 16.2305 104.773 16.5621Z" fill="white"/>
<path d="M188.81 26.0136L195.543 30.0299H171.194C170.4 30.0786 169.604 29.9664 168.854 29.7002C168.103 29.4338 167.414 29.0189 166.829 28.4801C166.3 27.8885 165.895 27.1981 165.634 26.4489C165.374 25.6996 165.264 24.9063 165.312 24.1145V16.0383C165.264 15.2465 165.374 14.4532 165.634 13.7039C165.895 12.9547 166.3 12.2643 166.829 11.6727C167.414 11.1339 168.103 10.719 168.854 10.4527C169.604 10.1864 170.4 10.0742 171.194 10.1229H195.521L188.81 14.041H172.21C171.858 14.0166 171.504 14.063 171.171 14.1773C170.837 14.2917 170.529 14.4717 170.266 14.7067C170.031 14.9451 169.85 15.2312 169.735 15.5456C169.621 15.8601 169.575 16.1956 169.601 16.5294V18.1119H188.886V21.9427H169.644V23.5252C169.618 23.8772 169.664 24.2309 169.778 24.5648C169.892 24.8988 170.073 25.206 170.31 25.4679C171.062 25.9166 171.939 26.1081 172.809 26.0136H188.81Z" fill="white"/>
</g>
</svg>
