<svg width="29" height="20" viewBox="0 0 29 20" fill="none" xmlns="http://www.w3.org/2000/svg">
<path d="M23.5087 15.9017L30.2425 19.918H5.89361C5.09893 19.9668 4.30299 19.8546 3.55277 19.5883C2.80255 19.322 2.1137 18.9071 1.52818 18.3683C0.999643 17.7767 0.593855 17.0863 0.333345 16.3371C0.0728348 15.5878 -0.0367639 14.7945 0.0108293 14.0027V5.92646C-0.0367639 5.13466 0.0728348 4.34136 0.333345 3.59208C0.593855 2.84286 0.999643 2.15251 1.52818 1.56085C2.1137 1.02211 2.80255 0.60717 3.55277 0.340836C4.30299 0.0745644 5.09893 -0.0375927 5.89361 0.0110651H30.2206L23.5087 3.92918H6.90872C6.55678 3.90482 6.20359 3.95116 5.86981 4.0655C5.53603 4.17985 5.22856 4.35989 4.96554 4.59492C4.73071 4.83326 4.54971 5.11938 4.43449 5.43381C4.31989 5.7483 4.27418 6.08377 4.29985 6.41755V8.00008H23.5851V11.8308H4.34369V13.4134C4.31739 13.7654 4.36311 14.1191 4.47709 14.453C4.59169 14.7869 4.77265 15.0942 5.00936 15.356C5.76084 15.8047 6.63818 15.9963 7.50863 15.9017H23.5087Z" fill="white"/>
</svg>
