<svg xmlns="http://www.w3.org/2000/svg" width="61" height="24" fill="none"><path fill="#090C21" d="M52.719 10.437c-1.032.226-3.755.352-3.755.352l-.335 1.022s1.349-.109 2.336-.017c0 0 .317-.025.352.336.018.368-.026.754-.026.754s-.027.226-.353.285c-.379.059-2.934.167-2.934.167l-.415 1.325s-.15.301.194.218c.318-.084 2.997-.57 3.35-.503.37.084.792.57.669 1.005-.141.528-2.82 2.154-4.442 2.045 0 0-.855.05-1.568-1.047-.688-1.048.237-3.017.237-3.017s-.414-.922-.105-1.257c0 0 .176-.143.705-.185l.66-1.29s-.748.041-1.189-.478c-.405-.503-.44-.72-.123-.855.335-.167 3.437-.695 5.57-.628 0 0 .749-.084 1.41 1.148 0 0 .3.503-.23.62m-8.046 4.961c-.264.612-.996 1.257-1.877.863-.899-.402-2.318-3.15-2.318-3.15s-.529-1.023-.634-.99c0 0-.115-.2-.177.922-.088 1.115.018 3.285-.467 3.629-.44.335-.97.193-1.269-.201-.247-.394-.352-1.341-.211-2.992.158-1.651.555-3.41 1.057-3.956.529-.553.952-.15 1.11 0 0 0 .68.587 1.825 2.322l.194.318s1.04 1.651 1.145 1.643c0 0 .089.084.16.017.105-.026.07-.562.07-.562s-.194-1.785-1.164-4.802c0 0-.14-.385-.044-.754.088-.335.467-.168.467-.168s1.463.67 2.177 2.933c.705 2.263.23 4.316-.035 4.928M37.507 9.59c-.14.235-.202.562-.81.654 0 0-5.905.394-6.196.788 0 0-.194.235.123.293.335.067 1.675.235 2.31.268.687 0 2.996.017 3.842 1.006 0 0 .485.47.467 1.534-.018 1.09-.22 1.475-.67 1.869-.467.368-4.468 2.078-7.05-.537 0 0-1.181-1.257.414-2.212 0 0 1.146-.67 4.08.109 0 0 .882.301.846.611-.052.336-.731.67-1.718.654-.952-.025-1.657-.46-1.516-.385.132.041-1.031-.537-1.392-.143-.353.369-.265.587.088.813.881.486 4.345.31 5.376-.788 0 0 .414-.444-.212-.804-.617-.335-2.415-.545-3.11-.57-.662-.034-3.138 0-3.508-.612 0 0-.353-.436.035-1.626.405-1.257 3.287-1.743 4.539-1.843 0 0 3.437-.134 4.08.536 0 0 .088.15-.018.377m-9.747 7.375c-.414.293-1.295.167-1.55-.168-.248-.293-.336-1.45-.292-3.268.062-1.86.088-4.14.53-4.509.44-.36.704-.042.88.201.177.252.406.528.441 1.107.053.586.203 3.603.203 3.603s.194 2.749-.203 3.034m.873-9.805c-1.217.394-2.045.268-2.75-.025-.309.528-.494.687-.723.72-.352.034-.66-.502-.705-.67-.07-.126-.238-.352-.035-.863-.687-.587-.74-1.375-.617-1.903.159-.62 1.322-2.95 4.847-3.226 0 0 1.728-.117 2.027.754h.053s1.674 0 1.64 1.425c0 1.425-1.851 3.201-3.737 3.813m1.568-4.081c-1.11.167-2.82 1.575-3.64 2.74 1.26.218 3.464.134 4.451-1.76 0 0 .467-1.19-.81-.98m-4.873.922c-.353.544-.37.871-.203 1.089.414-.587 1.146-1.509 2.247-2.23-.846.085-1.56.42-2.044 1.14m30.025 12.88c-.81 1.894-1.498 3.813-1.894 6.688 0 0-.088.561-.573.377-.485-.168-1.278-.922-1.454-1.986-.177-1.392.476-3.738 1.806-6.437-.387-.586-.66-1.458-.44-2.681 0 0 .352-2.263 2.732-4.308 0 0 .282-.226.44-.15.194.083.115.804-.044 1.173-.14.352-1.198 2.095-1.198 2.095s-.661 1.19-.476 2.12c1.251-1.827 4.098-5.531 5.86-4.358 1.12.755 1.12 3.185.282 4.593-.66 1.114-2.529 3.419-5.023 2.883m3.666-5.7c-.652.671-1.815 1.945-2.732 3.672.97-.101 1.913-.612 2.203-.872.468-.394 1.543-1.458 1.375-2.866 0 0-.105-.738-.846.067m-39.482 6.68c-3.12.905-6.063.486-7.667.084-.044.62-.115.88-.22.98-.124.134-1.146.688-1.71-.1-.247-.377-.37-1.056-.44-1.676-3.614-1.559-5.289-3.855-5.342-3.94-.088-.083-.907-.896-.088-1.901.767-.905 3.305-1.819 5.579-2.18.088-1.843.3-3.268.573-3.896.326-.754.74-.084 1.11.419.3.377.485 1.994.503 3.285 1.48-.067 2.38.033 4.027.335 2.168.352 3.613 1.408 3.499 2.598-.106 1.173-1.234 1.66-1.675 1.693-.44.033-1.145-.277-1.145-.277-.494-.217-.044-.419.528-.653.635-.294.494-.587.494-.587-.23-.67-3.04-1.114-5.834-1.114 0 1.466.062 3.896.106 5.313 1.956.352 3.419.276 3.419.276s7.138-.193 7.341-4.525c.22-4.341-7.138-8.498-12.558-9.805-5.411-1.35-8.478-.394-8.743-.268-.29.134-.026.184-.026.184s.29.042.82.21c.528.167.105.418.105.418-.925.302-1.956.126-2.159-.276-.203-.394.132-.754.529-1.282.37-.545.793-.528.793-.528 6.698-2.221 14.876 1.76 14.876 1.76 7.65 3.67 8.954 7.986 8.813 9.662-.123 1.651-.793 4.442-5.508 5.8m-14.718-6c-.757.334-.229.87-.229.87 1.428 1.45 3.173 2.364 4.847 2.934.194-2.514.177-3.411.177-4.676-2.591.167-4.09.57-4.795.871"/></svg>