<svg width="148" height="35" viewBox="0 0 148 35" fill="none" xmlns="http://www.w3.org/2000/svg">
<path d="M56.5674 11.4028L55.8871 11.9567C55.5667 12.2869 55.4092 12.5891 55.4092 12.8688V13.2606C55.3868 13.3221 55.3699 13.5739 55.3699 14.0215C54.4646 12.88 53.1434 12.3037 51.4117 12.3037C49.8205 12.3037 48.5386 12.7122 47.5659 13.5347C46.5313 14.4076 46.0085 15.6219 46.0085 17.1718C46.0085 18.5763 46.3964 19.7681 47.1667 20.7361C48.0157 21.8049 49.157 22.3421 50.5964 22.3421C51.5129 22.3421 52.3169 22.1406 53.0085 21.7322C53.8743 21.2174 54.3072 20.641 54.3072 19.9976C54.3072 19.8744 54.2903 19.6898 54.2566 19.4492C54.2229 19.2086 54.206 19.0239 54.206 18.9008C54.206 18.7498 54.2229 18.6154 54.251 18.4868C54.0711 18.5539 53.818 18.5875 53.4976 18.5875C53.2727 18.5875 52.9409 18.5259 52.5024 18.4028C52.0638 18.2797 51.7321 18.2182 51.5073 18.2182C51.2036 18.2182 50.8832 18.2741 50.5458 18.386L49.3594 18.9008C49.753 18.3636 50.0454 18.0055 50.2365 17.8321C50.6526 17.4572 51.1305 17.2669 51.6703 17.2669C51.9345 17.2669 52.4069 17.3565 53.0815 17.5411C53.149 17.5579 53.2671 17.5859 53.4301 17.6139C53.4919 17.6251 53.6269 17.6307 53.8237 17.6307C54.2229 17.6307 54.6108 17.5243 54.9819 17.3117C55.0438 17.2725 55.3474 17.0543 55.8984 16.6458L55.8421 16.741L55.9377 16.685C55.8646 16.741 55.7185 16.9368 55.5048 17.2781C55.3417 17.6418 55.2574 18.1174 55.2574 18.705C55.2574 19.2197 55.3811 20.1654 55.6229 21.5587C54.3297 22.6778 52.5755 23.2374 50.3546 23.2374C48.3868 23.2374 46.8406 22.7169 45.7161 21.6818C44.5579 20.6131 43.9844 19.1079 43.9844 17.1718C43.9844 15.2638 44.7715 13.7921 46.3514 12.7457C47.7008 11.8505 49.3876 11.4028 51.4004 11.4028H56.5674Z" fill="#090C21"/>
<path d="M66.3241 20.5974C65.6382 21.7333 65.2952 22.7236 65.2952 23.5686C64.7049 23.1657 63.5073 22.9866 61.7025 23.0146L58.121 23.0818C58.4921 22.6173 58.7057 22.2928 58.7619 22.0969L58.8182 21.3304V13.7988C58.8182 13.3903 58.717 12.993 58.5089 12.5958C58.2278 12.0642 57.8005 11.6725 57.2383 11.4263H60.5443V21.9571C60.5611 21.9739 60.6342 22.0018 60.7523 22.041C60.9828 22.1137 61.2808 22.1529 61.6407 22.1529C63.3892 22.1529 64.9523 21.6325 66.3241 20.5974Z" fill="#090C21"/>
<path d="M75.1113 22.6617C74.9988 22.8688 74.8525 22.9695 74.678 22.9695H67.3464L66.9978 22.6393L67.7793 22.2085C67.948 22.035 68.0548 21.8952 68.0998 21.7888C68.0998 21.7049 68.111 21.5818 68.1279 21.4139L68.1392 21.3971V12.9367C68.1392 12.6681 68.0154 12.4107 67.7737 12.1702L66.9922 11.7393L67.3408 11.4092H74.6724C74.8468 11.4092 74.9931 11.5098 75.1057 11.7169C74.8187 12.1813 74.6724 12.4947 74.6724 12.6625L74.7568 13.3004L74.1892 13.1214C73.604 12.6737 72.8676 12.3716 71.9736 12.2149L71.5016 12.1757H71.0233H70.242L69.8652 12.2317V15.8799H74.7005L74.0035 17.0494L73.0533 17.9503C72.48 17.1838 71.6085 16.7696 70.4332 16.7193C70.3994 16.7193 70.3319 16.7137 70.2138 16.7081C69.9665 16.6969 69.854 16.7249 69.8652 16.8032V22.1414L70.242 22.1805H71.0233H71.5073L71.9792 22.1414C72.8732 21.9847 73.6152 21.6881 74.2004 21.2517L74.7681 21.0726L74.6837 21.7105C74.678 21.8784 74.8243 22.1973 75.1113 22.6617Z" fill="#090C21"/>
<path d="M87.5858 22.3207C87.5858 22.7067 87.4958 22.9306 87.3108 22.9977L87.142 22.9586C87.1645 22.9697 87.2095 23.0033 87.2714 23.0537C87.052 22.9474 86.7931 22.7291 86.5012 22.399L78.7979 13.67V20.0545C78.7979 20.6252 78.9611 21.1568 79.2875 21.6548C79.5062 21.9905 79.8945 22.4158 80.4452 22.9306H77.2688C77.6908 22.2255 77.8983 21.582 77.8983 21.0057V12.6684L77.1169 12.1984C76.903 12.1424 76.6449 12.0584 76.3467 11.9465C76.2623 11.9018 76.071 11.7563 75.7734 11.5045L76.5718 11.4038H79.1187L86.6862 20.1943V13.8154C86.6862 13.5469 86.6637 13.3678 86.6187 13.2727C86.5793 13.144 86.4956 12.9649 86.3549 12.7355L85.3259 11.941V11.4038H87.5802V22.3207H87.5858Z" fill="#090C21"/>
<path d="M98.8526 18.8344C98.8526 20.4851 97.8974 21.6545 95.9801 22.3428C95.1423 22.6449 94.1696 22.8296 93.0505 22.9079L93.0674 22.9359H92.618C92.5223 22.9359 92.3816 22.9359 92.1847 22.9359C91.9877 22.9359 91.8471 22.9359 91.7521 22.9359H91.3188H90.9868H90.1885C90.5093 22.6114 90.6893 22.3651 90.7287 22.1973L90.8019 21.3356V13.7033C90.8019 13.2333 90.6612 12.8304 90.3855 12.4834C90.0591 12.0862 89.8404 11.8847 89.7278 11.8847L89.7109 11.4371L90.0035 11.4203C90.8581 11.3643 91.5102 11.549 91.9652 11.9855L92.1622 12.3044C93.1068 11.5546 94.1246 11.1797 95.2155 11.1797C95.9688 11.1797 96.5983 11.3587 97.1097 11.7225C97.6892 12.1309 97.9755 12.6961 97.9755 13.4179C97.9755 14.2628 97.6442 15.0294 96.9866 15.7232C98.2287 16.3948 98.8526 17.4355 98.8526 18.8344ZM95.9519 13.5634C95.9519 12.7073 95.468 12.2764 94.4953 12.2764C94.0796 12.2764 93.6913 12.3492 93.3319 12.4946C92.8536 12.6849 92.5955 12.9423 92.5448 13.2724V13.3955V14.9231C93.028 14.9287 93.8207 14.9847 94.9285 15.0798C95.0411 15.0909 95.238 15.1245 95.513 15.1805C95.8056 14.7273 95.9519 14.1901 95.9519 13.5634ZM96.8403 18.8679C96.8403 17.8384 96.3732 17.0158 95.4455 16.4115C94.6866 15.9191 93.8826 15.6729 93.0449 15.6729C92.7185 15.6729 92.5504 15.7009 92.5448 15.7568V21.9063C92.5448 22.007 92.5617 22.1021 92.5898 22.1973C92.6123 22.2029 92.6405 22.2029 92.6742 22.1973C92.8198 22.1749 92.9492 22.1581 93.0618 22.1581C93.9389 22.1581 94.7372 21.9287 95.4455 21.4643C96.3732 20.86 96.8403 19.9982 96.8403 18.8679Z" fill="#090C21"/>
<path d="M113.738 17.1615C113.738 19.0808 113.046 20.6028 111.663 21.7219C110.404 22.7346 108.891 23.2438 107.109 23.2438C105.304 23.2438 103.786 22.7346 102.555 21.7219C101.172 20.5916 100.48 19.0696 100.48 17.1615C100.48 15.2478 101.172 13.7314 102.555 12.6123C103.803 11.5995 105.321 11.0903 107.109 11.0903C108.908 11.0903 110.42 11.5995 111.663 12.6123C113.046 13.7482 113.738 15.2646 113.738 17.1615ZM111.725 17.1615C111.725 15.5164 111.247 14.2182 110.285 13.267C109.425 12.4109 108.369 11.98 107.12 11.98C105.636 11.98 104.483 12.4892 103.663 13.502C102.898 14.4365 102.515 15.6563 102.515 17.1615C102.515 18.6555 102.904 19.8753 103.674 20.8154C104.5 21.8337 105.653 22.343 107.12 22.343C108.587 22.343 109.74 21.8337 110.567 20.8154C111.337 19.8697 111.725 18.6555 111.725 17.1615Z" fill="#090C21"/>
<path d="M148 20.5974C147.314 21.7333 146.971 22.7236 146.971 23.5686C146.38 23.1657 145.183 22.9866 143.378 23.0146L139.797 23.0818C140.167 22.6173 140.381 22.2928 140.438 22.0969L140.494 21.3304V13.7988C140.494 13.3903 140.393 12.993 140.184 12.5958C139.904 12.0642 139.476 11.6725 138.914 11.4263H142.22V21.9571C142.237 21.9739 142.31 22.0018 142.428 22.041C142.659 22.1137 142.956 22.1529 143.316 22.1529C145.065 22.1529 146.628 21.6325 148 20.5974Z" fill="#090C21"/>
<path d="M113.68 11.3755L114.506 11.9574C114.809 12.1701 115.034 12.5058 115.192 12.9702L115.389 13.8151C115.906 13.2332 116.283 12.8695 116.53 12.7184C116.89 12.5002 117.396 12.3882 118.06 12.3882H119.29H119.307V21.3243L119.251 22.0909C119.189 22.3091 119.027 22.5889 118.762 22.9247H121.59C121.315 22.6057 121.152 22.3595 121.101 22.1916C121.056 22.0461 121.033 21.7552 121.033 21.3187V12.3882H122.271C122.928 12.3882 123.44 12.5002 123.8 12.7184C124.047 12.8695 124.424 13.2332 124.941 13.8151L125.138 12.9702C125.295 12.5058 125.526 12.1701 125.824 11.9574L126.651 11.3755H113.68Z" fill="#090C21"/>
<path d="M137.873 21.9176C137.564 21.5539 137.232 21.0224 136.872 20.3229C136.417 19.4332 135.765 18.0119 134.899 16.0479C134.078 14.1846 133.409 12.7633 132.892 11.7897C132.734 11.4988 132.38 11.3701 131.835 11.4037L130.019 11.5323C130.232 11.6722 130.446 11.8065 130.671 11.9352C131.07 12.243 131.273 12.5843 131.273 12.9592C131.273 13.0207 131.267 13.0823 131.256 13.1495C129.957 15.7402 129.001 17.6147 128.399 18.7841C127.128 21.2573 126.291 22.6394 125.875 22.9304C125.875 22.9304 128 22.9304 128.129 22.9304C127.646 22.6842 127.866 21.9792 127.866 21.9792L129.395 19.0359H134.331L135.022 20.4628C135.506 21.4644 135.843 22.2869 136.04 22.936H139.217C138.688 22.6898 138.239 22.3485 137.873 21.9176ZM131.863 14.2853L133.696 17.7769L133.904 18.1798H129.833L131.863 14.2853Z" fill="#090C21"/>
<path d="M17.5814 35C7.88828 35 0 27.1495 0 17.4972C0 7.8449 7.88828 0 17.5814 0C27.2745 0 35.1628 7.8505 35.1628 17.4972C35.1628 27.1439 27.2801 35 17.5814 35ZM17.5814 1.24221C8.5742 1.24221 1.24256 8.53874 1.24256 17.5028C1.24256 26.4669 8.5742 33.7634 17.5814 33.7634C26.5886 33.7634 33.9202 26.4669 33.9202 17.5028C33.9202 8.53314 26.5941 1.24221 17.5814 1.24221Z" fill="#090C21"/>
<path d="M7.40625 31.5533V30.6244C13.2704 30.6244 15.1427 27.6923 17.313 24.3015C20.0342 20.0433 23.1266 15.2144 34.6414 15.2144V16.1432C29.7105 16.1432 25.9715 17.0497 23.2222 18.9242C20.8101 20.5637 19.4327 22.7179 18.1001 24.7995C15.8792 28.2743 13.7821 31.5533 7.40625 31.5533Z" fill="#090C21"/>
<path d="M20.977 34.2782L20.2461 33.6963C23.1529 30.076 26.7738 25.5772 32.8853 24.2007L33.0934 25.1072C27.2967 26.4109 23.7939 30.7698 20.977 34.2782Z" fill="#090C21"/>
<path d="M18.7947 23.2711C14.6678 19.8691 10.4004 16.3439 0.527344 16.3439V15.415C10.7321 15.415 15.3313 19.2088 19.3907 22.555L18.7947 23.2711Z" fill="#090C21"/>
<path d="M12.3596 30.4171C12.0784 30.2324 11.8086 30.0478 11.5387 29.8631C8.94676 28.1061 6.89456 26.7185 2.49219 26.0918L2.6215 25.1685C7.2375 25.8232 9.47527 27.3396 12.0616 29.0909C12.3259 29.27 12.5957 29.4546 12.8768 29.6393L12.3596 30.4171Z" fill="#090C21"/>
<path d="M16.0753 27.2894L16.0134 27.2391C12.1171 24.1896 8.75488 21.5541 0.574219 21.2687L0.607953 20.3398C9.09222 20.6364 12.7356 23.4901 16.5926 26.5061L16.6544 26.5564L16.0753 27.2894Z" fill="#090C21"/>
<path d="M13.5463 34.1605L13.2539 33.2764C16.8748 32.0958 18.6852 29.6225 20.6025 27.0094C23.335 23.2884 26.163 19.4331 34.3662 19.4331V20.3619C26.6354 20.3619 24.0715 23.8535 21.3559 27.5522C19.433 30.1765 17.4482 32.8847 13.5463 34.1605Z" fill="#090C21"/>
<path d="M26.7868 17.0609H25.5386C25.5386 15.3934 25.4543 14.4198 23.7057 13.7707C21.4511 12.9369 20.3153 12.5173 20.3153 11.4653C20.3153 11.0569 20.2929 8.84664 20.2817 7.52609C20.276 6.93296 20.2704 6.5077 20.2704 6.46854C20.2704 6.08804 20.5178 5.86981 20.7371 5.73552C20.7371 5.72433 20.7371 5.71314 20.7371 5.70195H14.4286C14.4286 5.71314 14.4286 5.72433 14.4286 5.73552C14.648 5.86422 14.8953 6.08804 14.8953 6.46854C14.8953 6.50211 14.8897 6.93296 14.8841 7.52609C14.8728 8.84664 14.8504 11.0625 14.8504 11.4653C14.8504 12.5173 13.7202 12.9369 11.46 13.7707C9.71144 14.4142 9.6271 15.3934 9.6271 17.0609H8.37891C8.37891 15.5109 8.37891 13.5861 11.0215 12.6124C12.0392 12.2375 13.4279 11.7227 13.5966 11.4541C13.5966 11.0121 13.6191 8.82424 13.6303 7.51489C13.6359 7.19037 13.6359 6.92177 13.6359 6.73152C12.905 6.35103 13.248 5.08084 13.2536 5.06965C13.3604 4.72273 13.664 4.53808 13.917 4.48213L13.9845 4.46533H21.17L21.2375 4.48213C21.4848 4.53808 21.7941 4.72273 21.9009 5.07525C21.9065 5.08643 22.2495 6.35662 21.5186 6.73712C21.5186 6.92177 21.5242 7.19597 21.5242 7.52049C21.5355 8.82984 21.5579 11.0177 21.5579 11.4597C21.7266 11.7283 23.1154 12.2431 24.133 12.618C26.7868 13.5861 26.7868 15.5109 26.7868 17.0609Z" fill="#090C21"/>
</svg>
