<svg xmlns="http://www.w3.org/2000/svg" width="43" height="28" fill="none"><path fill="#090C21" d="M6.321 19.727H4.106l-.01-2.157H2.053v6.33l.187 1.794h2.018l.01-2.47h-.965v-1.947h2.495l.685.436.141 6.19-.583.047-1.167-.028-.283-.628-1.247.696-2.14-.03-1.116-1.207L0 17.411l.46-1.231.954-.708 3.877-.028.848 1.05.258 1.802s-.081 1.628-.081 1.43zm6.861-3.258-.881-1.075H8.9l-1.032.975-.341.476-.141 1.232-.162 2.938v2.96l.121 2.045.462.616.665.755s.664.776 2.495.576c1.085-.12 1.79-.755 1.79-.755l.765-1.47.142-4.131v-3.614l-.483-1.53zm-1.75 8.203-.058 1.204-1.806.052-.186-.72V23.26l.06-3.397.053-2.306 2.066-.017-.126 7.128zm9.599 2.542V23.54l-.361-1.111-.624-.536v-.26l.887-1.313-.15-3.839-1.393-1.06-3.208.013-1.368.08v2.642l-.182.22.04 9.534h2.415v-1.967l.08-1.231-.04-1.668h.826l.36.26.163.595v3.178l.222.815 2.462-.02-.126-.655zm-2.447-7.727-.131.953-.394.356h-1.253v-2.682l.03-.835 1.672.02.076 2.186zm3.89-4.037-.08 1.243-.215.132v1.855l.053 4.078v3.47l.052.423v1.192h2.549v-2.279l-.053-.264.08-7.388v-2.463s-2.414.08-2.389 0zm3.888-.133-.08 3.998v7.309l.027 1.244h1.207l.672.104h2.094v-1.139l-.028-.98s.106-.211 0-.211h-1.45l-.053-.212.243-10.115H28l-.376-.028-1.26.028zm4.776.025L31.03 19.5l-.027.371.027 7.999 1.88.105h2.093s.08-2.33-.028-2.33-1.556-.028-1.556-.028l-.093-.172.255-4.57.134-5.56h-.993l-.376-.028-1.207.053zm10.708 5.88-.187-1.032-.684-4.88H37.38l-.336 2.949-.296 1.747-.696 4.581-.457 3.258 2.502.005.326-1.436.05-.805 1.95-.02.293 2.229H43l-.616-3.946-.535-2.647zm-3.568 1.747.161-2.781.349-2.543h.563l.376 3.682.106 1.615zM9.754 0l-.482 4.689-.04 2.727-.362.239-1.086-1.787-.048 2.674-.995-.394.662 2.867-.599.09.826 2.22 2.786-.171 6.957-.953 7.788-.15 6.094 1.272 3.308.122.503-1.86-.475-.134 1.02-3.263-.93.394.064-2.595-1.77 3.019.242-3.602-.194-4.763-5.278 6.578-1.37-3.139L23.8 7.14l-2.738-3.06S18.73 7.575 18.69 7.418c-.04-.16-2.857-2.939-2.857-2.939l-1.449 2.702z"/></svg>