<svg xmlns="http://www.w3.org/2000/svg" width="1200" height="320" fill="none"><path fill="#1261FC" d="M431.729 305.428c-17.193-9.715-30.631-23.172-40.314-40.304-9.618-17.132-14.492-36.562-14.492-58.224s4.94-41.091 14.821-58.223 23.582-30.523 41.039-40.172c17.456-9.584 37.02-14.441 58.758-14.441s40.841 4.857 58.034 14.572 30.63 23.171 40.314 40.303c9.617 17.133 14.492 36.563 14.492 58.224 0 21.662-4.941 41.091-14.822 58.224s-23.582 30.523-41.038 40.172C531.064 315.143 511.5 320 489.762 320s-40.841-4.857-58.033-14.572m90.443-44.111c8.892-5.12 15.743-12.341 20.486-21.727q7.114-14.08 7.114-32.296c0-18.51-5.401-33.477-16.139-44.898s-25.163-17.132-43.212-17.132-22.397 2.56-31.289 7.68-15.744 12.34-20.487 21.727q-7.114 14.08-7.114 32.295t7.114 32.296c4.743 9.386 11.66 16.672 20.684 21.924s19.564 7.811 31.487 7.811 22.397-2.56 31.29-7.68zM641.73 98.527h53.489v46.737h3.688c1.977-6.105 4.414-11.553 7.312-16.411a77 77 0 0 1 9.881-13.128c6.588-7.286 14.492-12.734 23.648-16.213 9.157-3.545 18.642-5.317 28.392-5.317 22.726 0 40.84 6.958 54.41 20.808s20.355 33.214 20.355 58.027v142.703h-54.543V189.834c0-14.376-3.03-25.338-9.156-33.018s-16.732-11.487-31.882-11.487-16.271 1.51-23.78 4.595c-7.575 3.02-13.965 8.73-19.235 17.001s-7.905 19.692-7.905 34.33v114.61h-54.542V98.527zm252.951-40.303c-6.719-6.696-10.079-14.77-10.079-24.288 0-9.517 3.36-17.197 10.079-23.893C901.4 3.348 909.502 0 919.054 0c9.551 0 17.258 3.348 23.977 10.043s10.079 14.638 10.079 23.893-3.36 17.592-10.079 24.288c-6.719 6.695-14.689 10.043-23.977 10.043s-17.654-3.348-24.373-10.043m-2.438 40.303h54.543v217.141h-54.543zm106.582 0h53.485v46.737h3.69c1.98-6.105 4.42-11.553 7.31-16.411a77 77 0 0 1 9.89-13.128c6.58-7.286 14.49-12.734 23.64-16.213 9.16-3.545 18.65-5.317 28.39-5.317 22.73 0 40.85 6.958 54.42 20.808S1200 148.217 1200 173.03v142.703h-54.54V189.834c0-14.376-3.03-25.338-9.16-33.018-6.12-7.68-16.73-11.487-31.88-11.487s-16.27 1.51-23.78 4.595c-7.58 3.02-13.97 8.73-19.24 17.001s-7.9 19.692-7.9 34.33v114.61h-54.543V98.527zm-677.762-5.382v3.15c-.593 22.778-10.54 44.374-26.679 60.521l-14.623 14.638-18.576 18.511L132.404 61.637v256.591H0V0h225.548c51.973 0 95.185 41.354 95.515 93.145"/><path fill="#1261FC" d="M389.9 318.228H132.404l128.715-128.329z"/></svg>