<svg xmlns="http://www.w3.org/2000/svg" width="101" height="24" fill="none"><path fill="#090C21" fill-rule="evenodd" d="M5.881.093a6.77 6.77 0 0 0-3.446 1.754Q.83 3.39.473 5.504C.397 5.956.386 6.8.386 12.002s.011 6.047.087 6.499q.356 2.113 1.962 3.657a6.5 6.5 0 0 0 2.519 1.51c1.007.338.882.332 7.46.332 6.577 0 6.453.006 7.46-.33 2.377-.795 3.983-2.636 4.497-5.153.092-.453.1-.922.1-6.515 0-5.592-.008-6.061-.1-6.514-.298-1.46-.847-2.508-1.846-3.523-.943-.96-2.252-1.637-3.621-1.875C18.203-.032 6.56-.03 5.88.093m55.696 3.768c-1.5.165-2.675.569-3.567 1.224-.699.514-1.25 1.386-1.425 2.255-.12.592-.12 1.86 0 2.433.204.986.65 1.76 1.323 2.299.44.353 1.313.774 1.96.945.662.176 2.293.523 3.474.74 1.711.315 2.15.583 2.244 1.37.074.625-.206 1.223-.684 1.462-.472.236-.796.284-1.918.284-.94 0-1.09-.013-1.45-.126-.455-.142-.806-.414-.939-.727-.045-.106-.097-.39-.115-.633l-.034-.44-3.943-.03-.034.138c-.05.195.07 1.482.174 1.87.123.46.413 1.01.744 1.405.722.865 2.03 1.49 3.651 1.747.863.135 3.186.134 3.987-.004q3.558-.608 4.303-2.96c.25-.79.304-2.02.13-2.963-.248-1.338-.881-2.2-2.07-2.818-.784-.407-1.744-.664-4.073-1.092-1.004-.185-1.7-.346-1.945-.452-.259-.11-.6-.36-.697-.508-.152-.231-.216-.704-.142-1.057.173-.833 1.03-1.17 2.804-1.102 1.1.042 1.67.217 1.955.602.192.26.218.347.254.867l.033.468h3.973l.018-.248c.031-.433-.098-1.472-.239-1.913a3.37 3.37 0 0 0-.97-1.52c-.52-.486-1.098-.819-1.893-1.089-.962-.326-1.724-.437-3.179-.46-.682-.01-1.452.005-1.71.033m-22.686.911c-1.78.89-1.973 1.03-2.271 1.66l-.176.37-.028 4.155c-.028 4.137-.028 4.156-.15 4.458-.165.404-.384.657-.74.855l-.296.163-5.271.031.03 3.546 3.089-.002c3.394-.001 3.516-.01 4.527-.354.709-.24 1.154-.513 1.667-1.022.383-.38.494-.534.7-.968.537-1.138.534-1.081.515-7.897l-.015-5.785zm3.066-.73c-.016.041-.02 2.4-.009 5.242.022 5.614.024 5.654.344 6.758.377 1.297 1.158 2.426 2.152 3.111.987.68 2.3 1.012 4.028 1.016q3.49.01 5.054-1.924c.627-.774.88-1.244 1.124-2.085.339-1.166.327-.944.347-6.813l.018-5.38h-4.028l-.016 5.407c-.016 5.352-.017 5.411-.134 5.75-.163.474-.35.774-.67 1.072-.374.35-.76.532-1.284.608-1.103.16-2.078-.316-2.531-1.236-.337-.686-.333-.602-.334-6.359l-.001-5.242H44c-1.646 0-2.02.014-2.044.075m33.948-.033c-.04.066-.891 2.187-3.1 7.718-1.141 2.86-2.347 5.874-2.68 6.696-.331.823-.603 1.523-.603 1.555 0 .041.647.06 2.144.06h2.145l.861-2.202h6.744l.885 2.174 2.135.014c1.227.009 2.136-.006 2.136-.034 0-.086-.242-.7-2.233-5.676l-2.982-7.457a150 150 0 0 0-1.11-2.738l-.078-.152h-2.12c-1.166 0-2.13.019-2.144.042m11.66 16.029h4.027l.029-8.944.391.716c.216.393.634 1.149.93 1.678l1.12 2.01 1.228 2.2c.355.636.791 1.423.97 1.749l.326.592 4.029-.029V3.995l-4.056-.03v4.473c0 3.934-.01 4.454-.08 4.32a64 64 0 0 0-.49-.88c-.227-.401-.727-1.298-1.114-1.994-.386-.697-.958-1.724-1.27-2.284s-.892-1.6-1.287-2.312l-.72-1.293-4.033-.03zm-71.77-15.17c-.99.497-1.628.85-1.754.971-.11.106-.278.353-.375.549l-.176.356-.015 5.078c-.008 2.793.002 5.079.023 5.079.07 0 3.025-1.502 3.182-1.618.215-.158.557-.681.637-.975.05-.182.063-1.479.051-5.23l-.015-4.99zm61.732 5.86c-.286.716-.724 1.81-.975 2.43l-.569 1.417-.114.29h4.353l-.082-.233a423 423 0 0 0-2.058-5.143c-.019-.035-.269.522-.555 1.238M9.804 13.331c-1.692.844-1.88.98-2.167 1.563l-.161.327-.032 4.708 1.543-.77c1.558-.777 1.846-.961 2.079-1.329.287-.454.302-.617.287-3.031l-.015-2.234z" clip-rule="evenodd"/></svg>