<svg xmlns="http://www.w3.org/2000/svg" width="34" height="24" fill="none"><g clip-path="url(#a)"><path fill="#00ABC2" d="M0 .667h34v22.666H0z"/><path fill="#FFEC2D" d="M18.825 13.236a3.05 3.05 0 1 0 0-6.1 3.05 3.05 0 0 0 0 6.1m-.001-6.516c.182-.001.25-.115.25-.25 0-.182-.25-1.046-.25-1.046s-.249.864-.249 1.045c0 .136.068.252.25.252m3.465 3.465c.002.182.116.25.252.25.18 0 1.044-.25 1.044-.25s-.863-.249-1.044-.249c-.137 0-.252.068-.252.25m-3.466 3.466c-.181.002-.25.115-.25.251 0 .182.25 1.045.25 1.045s.25-.863.25-1.045c0-.136-.069-.251-.25-.251m-3.465-3.466c-.003-.182-.116-.25-.252-.25-.181 0-1.045.25-1.045.25s.864.249 1.045.249c.136 0 .252-.068.252-.25m4.791-3.201c.169.067.275-.011.327-.137.07-.167.17-1.06.17-1.06s-.561.702-.63.87c-.053.125-.034.258.134.327m1.875 4.529c-.067.168.012.274.137.326.168.07 1.06.17 1.06.17s-.701-.561-.87-.63c-.125-.053-.258-.034-.327.133m-4.528 1.876c-.169-.067-.275.011-.327.137-.07.167-.17 1.06-.17 1.06s.561-.702.63-.87c.053-.125.034-.258-.133-.327m-1.876-4.528c.067-.168-.011-.275-.137-.327-.167-.069-1.06-.17-1.06-.17s.702.562.87.631c.125.052.258.034.327-.134m5.653-1.125c.13.127.258.095.354-.001.128-.129.563-.916.563-.916s-.787.435-.916.563c-.096.096-.13.226-.001.354m0 4.901c-.127.13-.095.258.001.355.129.128.916.562.916.562s-.435-.787-.563-.915c-.096-.096-.226-.13-.354-.002m-4.901 0c-.13-.127-.258-.095-.355.002-.128.128-.562.915-.562.915s.787-.435.915-.563c.096-.096.13-.226.002-.354m0-4.9c.126-.13.094-.258-.002-.355-.128-.128-.915-.562-.915-.562s.434.787.562.915c.097.096.226.13.355.002m5.652 1.123c.072.167.203.186.328.134.168-.069.87-.63.87-.63s-.893.1-1.06.17c-.126.052-.207.159-.138.326m-1.876 4.529c-.166.071-.186.202-.134.328.07.167.63.87.63.87s-.1-.894-.169-1.061c-.052-.126-.159-.207-.327-.137m-4.528-1.876c-.071-.166-.202-.186-.328-.134-.167.07-.87.63-.87.63s.894-.1 1.061-.17c.126-.051.207-.158.137-.326m1.876-4.528c.167-.072.186-.202.134-.328-.07-.168-.63-.87-.63-.87s.1.893.17 1.06c.051.126.159.207.326.138m2.002-.197c.179.033.267-.065.294-.199.035-.177-.04-1.073-.04-1.073s-.414.798-.45.976c-.026.134.019.26.196.296m2.724 4.075c-.034.178.064.267.198.294.178.035 1.073-.04 1.073-.04s-.798-.414-.976-.45c-.133-.026-.26.018-.295.196m-4.075 2.724c-.179-.034-.268.064-.294.198-.035.177.04 1.073.04 1.073s.414-.798.449-.976c.026-.133-.018-.26-.196-.296M15.425 9.51c.033-.177-.065-.266-.198-.293-.178-.035-1.073.04-1.073.04s.798.414.976.45c.133.026.26-.018.295-.196m5.325-2.206c.152.099.271.042.347-.07.1-.152.373-1.008.373-1.008s-.687.58-.788.73c-.075.113-.083.247.068.348"/><path fill="#FFEC2D" d="M21.706 12.112c-.099.152-.042.271.07.347.151.1 1.008.373 1.008.373s-.58-.687-.73-.788c-.113-.075-.247-.083-.348.068m-4.807.957c-.152-.1-.271-.043-.347.07-.1.151-.373 1.008-.373 1.008s.687-.58.788-.73c.075-.114.083-.248-.068-.348m-.956-4.807c.099-.152.042-.272-.07-.348-.152-.1-1.008-.373-1.008-.373s.58.687.73.788c.113.076.247.083.348-.067m5.763-.001c.103.15.235.143.348.068.15-.101.73-.788.73-.788s-.857.272-1.007.373c-.113.076-.172.196-.071.347m-.956 4.808c-.15.102-.143.234-.068.347.101.151.788.73.788.73s-.272-.856-.373-1.007c-.076-.113-.196-.17-.347-.07m-4.807-.957c-.103-.15-.235-.143-.348-.067-.15.1-.73.788-.73.788s.856-.273 1.007-.373c.113-.076.171-.197.07-.348m.957-4.806c.15-.103.143-.235.067-.348-.1-.15-.788-.73-.788-.73s.273.856.374 1.007c.075.113.196.171.347.07m5.324 2.207c.038.177.162.222.296.195.178-.035.976-.448.976-.448s-.896-.076-1.074-.041c-.133.027-.233.116-.198.294M19.5 13.587c-.177.037-.222.162-.195.295.035.178.448.976.448.976s.076-.895.04-1.073c-.026-.134-.115-.234-.293-.198m-4.075-2.724c-.038-.177-.162-.222-.295-.195-.178.035-.977.448-.977.448s.896.076 1.074.041c.133-.027.233-.116.198-.294m2.723-4.075c.178-.037.222-.162.196-.295-.036-.178-.449-.976-.449-.976s-.076.895-.04 1.073c.026.134.115.234.293.198m.132 10.006a1 1 0 0 0-.238.04c-.107.014-.209.05-.315.068l-.042.007-.07.007q.007.03.007.059a.2.2 0 0 1-.008.056.14.14 0 0 1-.03.048.2.2 0 0 1-.05.04.2.2 0 0 1-.059.015q-.03.002-.061-.008a.2.2 0 0 1-.057-.035l-.063.011a.3.3 0 0 1-.06 0l-.063-.02a.4.4 0 0 1-.06-.032c-.076.046-.163.089-.21.168-.026.036-.031.078-.037.121a.33.33 0 0 0 .032.158c.009.014.015-.052.041-.061a.4.4 0 0 1 .151-.076c.046-.023.04.002.021.038-.004.019-.03.09.005.054.153-.068.323-.081.489-.094.24-.025.481-.03.722-.033q.34.003.68.014c.108.003.217.027.323.009.026-.007.066-.008.081-.023-.048-.028-.105-.03-.158-.036h-.433c-.12-.012-.245-.014-.358-.059-.03-.012-.059-.04-.087-.01a.5.5 0 0 1-.135.03.5.5 0 0 1-.232-.041c.053-.073.117-.137.175-.206a2 2 0 0 1-.14-.028c.083-.057.16-.121.24-.181"/><path fill="#FFEC2D" d="M21.81 17.576c-.164.099-.29-.076-.427-.128-.098.053-.107.231-.199.315-.11.125-.244-.034-.233-.158-.131.111-.198.361-.41.328-.1-.082-.175-.254-.252-.058-.062.096-.229.232-.315.087-.027-.127-.09-.277-.16-.075-.048.144-.2.25-.349.186-.08-.066.065-.31-.038-.293-.154.101-.244.354-.459.334-.083-.094.051-.252-.04-.356-.109.138-.229.342-.416.356-.09-.073.004-.283-.054-.314-.192.115-.394.32-.636.256.094-.36.487-.486.818-.514.569-.07 1.167.058 1.714-.147.088-.054.303-.13.227-.255-.068-.098.175-.06.199-.175-.015-.146.111-.126.235-.138.552-.024 1.098.092 1.649.112.041.268-.256.457-.496.374-.115.018-.286-.263-.253-.058-.023.107-.007.25-.105.321m-4.701-.55c.128.118.218-.021.337-.072.401-.138.751-.38 1.096-.62.209-.173.39-.397.67-.453.548-.166 1.13-.146 1.68-.299.419-.573 1.13-.777 1.725-1.106.134-.042.185-.152.228-.273.227-.36.537-.677.903-.894.173-.095.38-.15.576-.106-.014.233-.148.44-.31.602.133-.003.247-.087.38-.082.046.24-.213.365-.35.515.076.018.37.04.21.117-.204.141-.437.239-.626.403.174.031.194.068.017.131-.095.065-.28.088-.297.214.131.08-.06.16-.135.187-.141.033-.29.095-.102.202-.071.107-.224.13-.348.12.038.121.092.258-.066.311-.354.268-.77.463-1.214.507.556.043 1.128-.06 1.604-.363.063-.074.391-.153.207-.216-.086-.036-.272-.076-.285-.142.258-.159.582-.102.86-.197.006-.09-.212-.064-.293-.085-.193-.016-.182-.065.005-.083.236-.063.503-.075.702-.23-.162-.074-.365-.008-.538-.07.293-.128.638-.14.9-.333.12-.133-.152-.091-.232-.088-.162.028-.237-.05-.053-.117.315-.232.713-.382.934-.718.052-.075.123-.302-.044-.22-.22.072-.413.32-.663.243.493-.382.962-.817 1.298-1.345.018-.152-.221-.169-.284-.05-.316.306-.603.666-1.008.857.388-.375.71-.818.989-1.278.06-.137.221-.301.134-.453-.141-.117-.318-.01-.391.13-.246.321-.433.696-.75.958.278-.529.564-1.092.571-1.701 0-.126-.026-.31-.196-.287-.135.024-.103.226-.159.329-.123.416-.18.867-.432 1.232.057-.339.156-.691.08-1.033-.036-.153-.282-.087-.25.064-.295 1.493-1.297 2.798-2.607 3.553-.6.34-1.27.559-1.951.658-.184.04-.382.016-.557.079-.425.326-.682.87-1.22 1.041-.24.12-.555.144-.727.368a.2.2 0 0 0-.018.094"/><path fill="#FFEC2D" d="M18.718 15.512c-.08.144-.126.31-.228.439-.307-.28-.752-.27-1.141-.289-.321-.017-.67-.046-.92-.276-.261-.214-.475-.492-.767-.666-.267-.072-.536-.163-.75-.346-.458-.374-.72-.928-1.169-1.313-.085-.084-.186-.15-.281-.22-.091.021-.05.218-.161.118-.06-.043-.212-.048-.226.013.137.18.274.386.293.617-.093.01-.26-.02-.306.015.124.186.283.35.464.482-.087.014-.257.006-.29.041.179.146.37.295.606.333.048.063-.07.186.029.24.058.023.248.063.117.128-.09.06-.057.202.058.2.073.036.237.045.25.11-.065.065-.266.143-.095.205.16.088.341.146.524.152-.092.077-.204.12-.299.193.42.246.887.408 1.348.565.183.06.368.118.559.154-.553-.032-1.087-.195-1.59-.42q-.39-.173-.79-.322c.117-.061.253-.076.374-.13-.252-.05-.528-.066-.75-.205.034-.06.163-.063.235-.094.133-.032.217-.071.028-.083-.19-.052-.41-.029-.577-.143.01-.07.186-.045.258-.075.09-.016.19-.029.262-.09-.294-.121-.68-.035-.91-.295-.053-.099.165-.02.227-.036.158 0 .328.05.479-.013-.43-.188-.89-.365-1.217-.713-.036-.056-.145-.21-.057-.229.255.034.44.312.712.269.036-.049-.159-.129-.207-.198-.398-.341-.783-.712-1.062-1.158-.019-.15.216-.171.277-.056.304.292.579.634.957.834.134.065-.077-.078-.105-.129-.35-.406-.683-.835-.927-1.313-.044-.086-.116-.242.015-.288.13-.066.26.024.327.136.257.324.446.71.766.98-.273-.53-.564-1.087-.571-1.696.006-.118.014-.297.174-.292.135-.02.113.151.157.234.133.447.19.932.457 1.327-.06-.332-.146-.674-.088-1.012.013-.11.138-.144.22-.077.065.161.079.36.139.532a5.38 5.38 0 0 0 2.107 2.884 5.55 5.55 0 0 0 2.795.96c.09.008.18.01.27.016m-1.265 1.548a.054.054 0 1 0 0-.106.054.054 0 0 0 0 .107"/><path fill="#FFEC2D" stroke="#00ABC2" stroke-width=".009" d="M17.449 17.02a.022.022 0 1 0 0-.044.022.022 0 0 0 0 .044Z"/><path fill="#FFEC2D" d="M2.72 2.32s-.218-.183-.292-.091c-.119.147.366.883.366 1.142 0 .425-.284.54-.634.601-.235.041-.618-.017-.618-.017.072-.096.12-.125.24-.133a.51.51 0 0 1-.272-.46c0-.365.15-.516.15-.928 0-.23-.187-.52-.187-.52.331.033.496.34.402.585q.08.014.142-.043c.024.068-.014.147-.065.215.04.022.071.009.137-.005-.006.07-.048.145-.15.215.297-.078.48.13.48.348 0 .164-.115.282-.227.282a.23.23 0 0 1-.12-.038c-.021.045-.01.106.012.151-.083-.022-.135-.07-.098-.173a.2.2 0 0 1-.148-.068.18.18 0 0 1 .148-.068c-.046-.095.005-.148.08-.191 0 0-.047.191.074.191.055 0 .105-.018.105-.098 0-.07-.062-.168-.203-.161-.142.006-.257.097-.257.324 0 .209.168.313.39.32.2.006.352-.103.352-.31 0-.274-.397-.901-.397-1.146 0-.184.165-.286.327-.286.21 0 .386.207.386.207z"/><path fill="#FFEC2D" d="M2.766 7.288c0 .46-.413.696-.737.696-.436 0-.669-.261-.669-.603 0-.194.036-.315.125-.5 0 0 .72-1.499 1-2.078a.6.6 0 0 0 .047-.275c0-.186-.18-.339-.37-.343-.173-.005-.36.16-.36.349 0 .229.118.33.24.33.15 0 .21-.06.21-.166 0-.074-.036-.105-.087-.105-.129 0-.093.173-.093.173a.118.118 0 0 1-.086-.16.23.23 0 0 1-.125-.075.23.23 0 0 1 .125-.068c-.03-.1.01-.148.097-.169a.17.17 0 0 0-.012.107c.137-.039.347.023.347.26 0 .235-.163.433-.469.383.073.035.11.106.117.186-.055-.022-.117-.025-.117-.025.036.063.086.117.083.241-.056-.026-.109-.074-.182-.043.114.224-.026.533-.382.606a.74.74 0 0 0 .194-.483c0-.532-.148-.622-.148-.992 0-.155.08-.322.238-.436v.006a.32.32 0 0 1-.21-.149c.239-.067.585-.066.771.007a.57.57 0 0 1 .407.272.82.82 0 0 1 0 .655c-.142.297-.81 1.713-1.018 2.158a.7.7 0 0 0-.07.303c0 .273.25.368.391.368.17 0 .342-.13.342-.29 0-.103-.055-.164-.135-.164-.192 0-.18.163-.142.266-.12-.054-.189-.15-.17-.25a.3.3 0 0 1-.19-.11c.046-.058.103-.103.19-.104-.038-.157.067-.223.17-.26-.033.115-.054.247.142.247.143 0 .255.025.32.118l.016-.612c.008-.184-.246-.178-.407-.124.06-.211.186-.326.475-.297a.23.23 0 0 1-.145-.222c0-.172.14-.363.231-.42z"/><path fill="#FFEC2D" d="M2.766 8.666c0-.46-.413-.695-.737-.695-.436 0-.669.26-.669.602 0 .194.036.316.125.501l1 2.078a.6.6 0 0 1 .047.275c0 .186-.18.338-.37.343-.173.004-.36-.161-.36-.35 0-.228.118-.33.24-.33.15 0 .21.062.21.167 0 .073-.036.105-.087.105-.129 0-.093-.173-.093-.173a.118.118 0 0 0-.086.16.23.23 0 0 0-.125.075.24.24 0 0 0 .125.068c-.03.1.01.148.097.168a.17.17 0 0 1-.012-.107c.137.04.347-.023.347-.26 0-.234-.163-.432-.469-.382.073-.035.11-.106.117-.186a.4.4 0 0 1-.117.025c.036-.063.086-.118.083-.241-.056.025-.109.073-.182.043.114-.224-.026-.533-.382-.606a.74.74 0 0 1 .194.482c0 .533-.148.622-.148.993 0 .155.08.322.238.436v-.007a.32.32 0 0 0-.21.15c.239.067.585.066.771-.007a.57.57 0 0 0 .407-.273.82.82 0 0 0 0-.655c-.142-.296-.81-1.713-1.018-2.158a.7.7 0 0 1-.07-.303c0-.272.25-.368.391-.368.17 0 .342.13.342.291 0 .102-.055.164-.135.164-.192 0-.18-.163-.142-.266-.12.054-.189.15-.17.25a.3.3 0 0 0-.19.109c.046.059.103.103.19.105-.038.156.067.223.17.26-.033-.116-.054-.248.142-.248.143 0 .255-.025.32-.117l.016.612c.008.183-.246.178-.407.123.06.212.186.326.475.297a.23.23 0 0 0-.145.223c0 .172.14.363.231.419zM2.72 2.32s.218-.183.292-.091c.119.147-.366.883-.366 1.142 0 .425.284.54.634.601.235.041.618-.017.618-.017-.072-.096-.12-.125-.24-.133a.51.51 0 0 0 .272-.46c0-.365-.15-.516-.15-.928 0-.23.187-.52.187-.52-.331.033-.496.34-.402.585a.16.16 0 0 1-.142-.043c-.024.068.014.147.065.215-.041.022-.071.009-.137-.005.006.07.048.145.15.215-.297-.078-.48.13-.48.348 0 .164.114.282.227.282a.23.23 0 0 0 .12-.038c.021.045.01.106-.012.151.083-.022.135-.07.098-.173a.2.2 0 0 0 .148-.068.18.18 0 0 0-.148-.068c.046-.095-.005-.148-.08-.191 0 0 .047.191-.074.191-.055 0-.105-.018-.105-.098 0-.07.062-.168.203-.161.142.006.257.097.257.324 0 .209-.168.313-.39.32-.2.006-.352-.103-.352-.31 0-.274.397-.901.397-1.146 0-.184-.165-.286-.327-.286-.21 0-.386.207-.386.207z"/><path fill="#FFEC2D" d="M2.674 7.288c0 .46.413.696.737.696.437 0 .67-.261.67-.603 0-.194-.036-.315-.126-.5 0 0-.72-1.499-1-2.078a.6.6 0 0 1-.047-.275c0-.186.18-.339.37-.343.173-.005.361.16.361.349 0 .229-.119.33-.24.33-.15 0-.21-.06-.21-.166 0-.074.035-.105.086-.105.129 0 .093.173.093.173a.118.118 0 0 0 .086-.16.23.23 0 0 0 .125-.075.23.23 0 0 0-.125-.068c.03-.1-.01-.148-.097-.169a.17.17 0 0 1 .012.107c-.137-.039-.347.023-.347.26 0 .235.163.433.47.383-.074.035-.11.106-.118.186.055-.022.117-.025.117-.025-.036.063-.085.117-.083.241.056-.026.11-.074.182-.043-.114.224.026.533.382.606a.74.74 0 0 1-.194-.483c0-.532.148-.622.148-.992a.55.55 0 0 0-.238-.436v.006a.32.32 0 0 0 .21-.149c-.238-.067-.585-.066-.77.007a.57.57 0 0 0-.408.272.82.82 0 0 0 0 .655c.142.297.81 1.713 1.018 2.158.044.095.07.195.07.303 0 .273-.249.368-.39.368-.17 0-.343-.13-.343-.29 0-.103.055-.164.135-.164.192 0 .18.163.142.266.12-.054.189-.15.17-.25a.3.3 0 0 0 .191-.11c-.047-.058-.104-.103-.191-.104.038-.157-.067-.223-.17-.26.033.115.054.247-.142.247-.142 0-.255.025-.32.118l-.016-.612c-.008-.184.246-.178.407-.124-.06-.211-.185-.326-.475-.297a.23.23 0 0 0 .145-.222.58.58 0 0 0-.23-.42z"/><path fill="#FFEC2D" d="M2.674 8.666c0-.46.413-.695.737-.695.437 0 .67.26.67.602 0 .194-.036.316-.126.501l-1 2.078a.6.6 0 0 0-.047.275c0 .186.18.338.37.343.173.004.361-.161.361-.35 0-.228-.119-.33-.24-.33-.15 0-.21.062-.21.167 0 .073.035.105.086.105.129 0 .093-.173.093-.173a.117.117 0 0 1 .086.16q.074.017.125.075a.23.23 0 0 1-.125.068c.03.1-.01.148-.097.168a.17.17 0 0 0 .012-.107c-.137.04-.347-.023-.347-.26 0-.234.163-.432.47-.382-.074-.035-.11-.106-.118-.186a.4.4 0 0 0 .117.025c-.036-.063-.085-.118-.083-.241.056.025.11.073.182.043-.114-.224.026-.533.382-.606a.74.74 0 0 0-.194.482c0 .533.148.622.148.993 0 .155-.08.322-.238.436v-.007c.105.028.172.08.21.15-.238.067-.585.066-.77-.007a.57.57 0 0 1-.408-.273.82.82 0 0 1 0-.655c.142-.296.81-1.713 1.018-2.158a.7.7 0 0 0 .07-.303c0-.272-.249-.368-.39-.368-.17 0-.343.13-.343.291 0 .102.055.164.135.164.192 0 .18-.163.142-.266.12.054.189.15.17.25a.3.3 0 0 1 .191.109c-.047.059-.104.103-.191.105.038.156-.067.223-.17.26.033-.116.054-.248-.142-.248-.142 0-.255-.025-.32-.117l-.016.612c-.008.183.246.178.407.123-.06.212-.185.326-.475.297a.23.23 0 0 1 .145.223c0 .172-.14.363-.23.419zM2.72 21.68s-.218.184-.292.092c-.119-.148.366-.883.366-1.142 0-.426-.284-.541-.634-.602-.235-.04-.618.017-.618.017.072.097.12.125.24.133a.51.51 0 0 0-.272.46c0 .366.15.516.15.929 0 .229-.187.52-.187.52.331-.033.496-.34.402-.586q.08-.012.142.044c.024-.068-.014-.147-.065-.215.04-.022.071-.01.137.004-.006-.07-.048-.144-.15-.214.297.077.48-.13.48-.348 0-.164-.115-.282-.227-.282a.23.23 0 0 0-.12.037c-.021-.045-.01-.105.012-.15-.083.021-.135.07-.098.172a.2.2 0 0 0-.148.068q.054.07.148.068c-.046.095.005.149.08.192 0 0-.047-.192.074-.192.055 0 .105.018.105.099 0 .07-.062.167-.203.16-.142-.005-.257-.097-.257-.323 0-.21.168-.313.39-.32.2-.006.352.102.352.309 0 .275-.397.902-.397 1.146 0 .184.165.287.327.287.21 0 .386-.208.386-.208z"/><path fill="#FFEC2D" d="M2.766 16.712c0-.46-.413-.696-.737-.696-.436 0-.669.262-.669.603 0 .194.036.316.125.501l1 2.078a.6.6 0 0 1 .047.275c0 .186-.18.338-.37.343-.173.004-.36-.161-.36-.35 0-.228.118-.33.24-.33.15 0 .21.061.21.167 0 .073-.036.105-.087.105-.129 0-.093-.173-.093-.173a.118.118 0 0 0-.086.16.23.23 0 0 0-.125.075.24.24 0 0 0 .125.068c-.03.099.01.148.097.168a.17.17 0 0 1-.012-.107c.137.04.347-.023.347-.26 0-.234-.163-.432-.469-.383.073-.034.11-.105.117-.185-.055.021-.117.025-.117.025.036-.063.086-.118.083-.241-.056.025-.109.073-.182.043.114-.224-.026-.533-.382-.606a.74.74 0 0 1 .194.482c0 .533-.148.622-.148.992 0 .155.08.323.238.436v-.006a.32.32 0 0 0-.21.15c.239.067.585.066.771-.008a.57.57 0 0 0 .407-.272.82.82 0 0 0 0-.655c-.142-.297-.81-1.713-1.018-2.158a.7.7 0 0 1-.07-.303c0-.272.25-.368.391-.368.17 0 .342.13.342.291 0 .102-.055.164-.135.164-.192 0-.18-.163-.142-.266-.12.054-.189.15-.17.25a.3.3 0 0 0-.19.108c.046.06.103.104.19.106-.038.156.067.223.17.26-.033-.116-.054-.248.142-.248.143 0 .255-.025.32-.117l.016.612c.008.183-.246.178-.407.123.06.212.186.326.475.297a.23.23 0 0 0-.145.223c0 .172.14.362.231.419z"/><path fill="#FFEC2D" d="M2.766 15.334c0 .46-.413.695-.737.695-.436 0-.669-.26-.669-.602 0-.194.036-.316.125-.501l1-2.078a.6.6 0 0 0 .047-.275c0-.186-.18-.338-.37-.343-.173-.004-.36.161-.36.35 0 .228.118.33.24.33.15 0 .21-.062.21-.167 0-.073-.036-.105-.087-.105-.129 0-.093.173-.093.173a.118.118 0 0 1-.086-.16.23.23 0 0 1-.125-.075.23.23 0 0 1 .125-.068c-.03-.1.01-.148.097-.168a.17.17 0 0 0-.012.107c.137-.04.347.023.347.26 0 .234-.163.432-.469.382.073.035.11.106.117.186-.055-.022-.117-.025-.117-.025.036.063.086.118.083.241-.056-.025-.109-.073-.182-.043.114.224-.026.533-.382.606a.74.74 0 0 0 .194-.482c0-.533-.148-.622-.148-.993 0-.155.08-.322.238-.436v.007a.32.32 0 0 1-.21-.15c.239-.067.585-.066.771.007a.57.57 0 0 1 .407.273.82.82 0 0 1 0 .655c-.142.297-.81 1.713-1.018 2.158a.7.7 0 0 0-.07.303c0 .272.25.367.391.367.17 0 .342-.129.342-.29 0-.102-.055-.164-.135-.164-.192 0-.18.163-.142.266-.12-.054-.189-.15-.17-.25a.3.3 0 0 1-.19-.109c.046-.059.103-.103.19-.105-.038-.156.067-.223.17-.26-.033.116-.054.248.142.248.143 0 .255.025.32.117l.016-.612c.008-.183-.246-.178-.407-.123.06-.212.186-.326.475-.297a.23.23 0 0 1-.145-.223c0-.172.14-.363.231-.419zM2.72 21.68s.218.184.292.092c.119-.148-.366-.883-.366-1.142 0-.426.284-.541.634-.602.235-.04.618.017.618.017-.072.097-.12.125-.24.133.135.07.272.223.272.46 0 .366-.15.516-.15.929 0 .229.187.52.187.52-.331-.033-.496-.34-.402-.586a.16.16 0 0 0-.142.044c-.024-.068.014-.147.065-.215-.041-.022-.071-.01-.137.004.006-.07.048-.144.15-.214-.297.077-.48-.13-.48-.348 0-.164.114-.282.227-.282a.23.23 0 0 1 .12.037c.021-.045.01-.105-.012-.15.083.021.135.07.098.172a.2.2 0 0 1 .148.068.18.18 0 0 1-.148.068c.046.095-.005.149-.08.192 0 0 .047-.192-.074-.192-.055 0-.105.018-.105.099 0 .07.062.167.203.16.142-.005.257-.097.257-.323 0-.21-.168-.313-.39-.32-.2-.006-.352.102-.352.309 0 .275.397.902.397 1.146 0 .184-.165.287-.327.287-.21 0-.386-.208-.386-.208z"/><path fill="#FFEC2D" d="M2.674 16.712c0-.46.413-.696.737-.696.437 0 .67.262.67.603 0 .194-.036.316-.126.501l-1 2.078a.6.6 0 0 0-.047.275c0 .186.18.338.37.343.173.004.361-.161.361-.35 0-.228-.119-.33-.24-.33-.15 0-.21.061-.21.167 0 .073.035.105.086.105.129 0 .093-.173.093-.173a.117.117 0 0 1 .086.16q.074.017.125.075a.23.23 0 0 1-.125.068c.03.099-.01.148-.097.168a.17.17 0 0 0 .012-.107c-.137.04-.347-.023-.347-.26 0-.234.163-.432.47-.383-.074-.034-.11-.105-.118-.185a.4.4 0 0 0 .117.025c-.036-.063-.085-.118-.083-.241.056.025.11.073.182.043-.114-.224.026-.533.382-.606a.74.74 0 0 0-.194.482c0 .533.148.622.148.992 0 .155-.08.323-.238.436v-.006c.105.028.172.08.21.15-.238.067-.585.066-.77-.008a.57.57 0 0 1-.408-.272.82.82 0 0 1 0-.655c.142-.297.81-1.713 1.018-2.158a.7.7 0 0 0 .07-.303c0-.272-.249-.368-.39-.368-.17 0-.343.13-.343.291 0 .102.055.164.135.164.192 0 .18-.163.142-.266.12.054.189.15.17.25.067.01.132.042.191.108-.047.06-.104.104-.191.106.038.156-.067.223-.17.26.033-.116.054-.248-.142-.248-.142 0-.255-.025-.32-.117l-.016.612c-.008.183.246.178.407.123-.06.212-.185.326-.475.297a.23.23 0 0 1 .145.223c0 .172-.14.362-.23.419z"/><path fill="#FFEC2D" d="M2.674 15.334c0 .46.413.695.737.695.437 0 .67-.26.67-.602a1 1 0 0 0-.126-.501l-1-2.078a.6.6 0 0 1-.047-.275c0-.186.18-.338.37-.343.173-.004.361.161.361.35 0 .228-.119.33-.24.33-.15 0-.21-.062-.21-.167 0-.073.035-.105.086-.105.129 0 .093.173.093.173a.118.118 0 0 0 .086-.16.23.23 0 0 0 .125-.075.23.23 0 0 0-.125-.068c.03-.1-.01-.148-.097-.168a.17.17 0 0 1 .012.107c-.137-.04-.347.023-.347.26 0 .234.163.432.47.382-.074.035-.11.106-.118.186a.4.4 0 0 1 .117-.025c-.036.063-.085.118-.083.241.056-.025.11-.073.182-.043-.114.224.026.533.382.606a.74.74 0 0 1-.194-.482c0-.533.148-.622.148-.993a.55.55 0 0 0-.238-.436v.007a.32.32 0 0 0 .21-.15c-.238-.067-.585-.066-.77.007a.57.57 0 0 0-.408.273.82.82 0 0 0 0 .655c.142.297.81 1.713 1.018 2.158.044.094.07.194.07.303 0 .272-.249.367-.39.367-.17 0-.343-.129-.343-.29 0-.102.055-.164.135-.164.192 0 .18.163.142.266.12-.054.189-.15.17-.25a.3.3 0 0 0 .191-.109c-.047-.059-.104-.103-.191-.105.038-.156-.067-.223-.17-.26.033.116.054.248-.142.248-.142 0-.255.025-.32.117l-.016-.612c-.008-.183.246-.178.407-.123-.06-.212-.185-.326-.475-.297a.23.23 0 0 0 .145-.223.58.58 0 0 0-.23-.419z"/></g><defs><clipPath id="a"><rect width="34" height="22.667" y=".667" fill="#fff" rx="3.579"/></clipPath></defs></svg>