<svg width="42" height="34" viewBox="0 0 42 34" fill="none" xmlns="http://www.w3.org/2000/svg">
<path d="M33.8248 9.95173C33.8248 10.0639 33.8248 10.1762 33.8248 10.2884C33.7623 12.7219 32.7144 15.0293 31.0142 16.7545L29.4735 18.3185L27.5165 20.2962L13.9491 6.5854V34H0V0H23.762C29.2376 0 33.7901 4.41832 33.8248 9.95173Z" fill="white"/>
<path d="M33.8248 9.95173C33.8248 10.0639 33.8248 10.1762 33.8248 10.2884C33.7623 12.7219 32.7144 15.0293 31.0142 16.7545L29.4735 18.3185L27.5165 20.2962L13.9491 6.5854V34H0V0H23.762C29.2376 0 33.7901 4.41832 33.8248 9.95173Z" fill="white"/>
<path d="M42 34H14.8722L28.4326 20.2891L42 34Z" fill="white"/>
</svg>
