<svg width="149" height="37" viewBox="0 0 149 37" fill="none" xmlns="http://www.w3.org/2000/svg">
<g clip-path="url(#clip0_4878_42823)">
<path d="M37.2012 35.7952C37.3862 34.2952 37.5162 33.1771 37.6012 32.4581C37.6827 31.6942 37.7224 30.9265 37.7202 30.1582L38.7322 13.6962L38.7992 9.21313V7.43713L42.7502 7.4292L52.0952 28.8522L61.1262 7.43713H65.0722V8.15918C65.0722 8.83018 65.0862 9.63813 65.1182 10.5881C65.1502 11.5381 65.1892 12.5792 65.2442 13.7002L66.2222 30.1561L66.4302 32.6472L66.6502 34.9851L66.8152 36.4331H62.8842V35.5902C62.8842 34.7589 62.8622 33.8126 62.8182 32.7512C62.7742 31.6899 62.7345 30.8251 62.6992 30.1571L61.5392 11.5662L52.3332 33.2341H50.2412L40.8252 11.7152L39.7252 30.1571L39.6252 35.7062V36.4331H37.1172L37.2012 35.7952Z" fill="white"/>
<path d="M78.5783 15.7132C79.7737 15.6677 80.9631 15.9027 82.0515 16.3991C83.1399 16.8956 84.097 17.6397 84.8463 18.5722C86.501 20.7823 87.3271 23.5032 87.1803 26.2602C87.3209 29.0288 86.496 31.7604 84.8463 33.9882C84.0717 34.8937 83.1104 35.621 82.0284 36.1202C80.9464 36.6194 79.7693 36.8787 78.5777 36.8803C77.3861 36.8819 76.2083 36.6258 75.1249 36.1296C74.0416 35.6333 73.0783 34.9086 72.3013 34.0052C70.648 31.773 69.8251 29.034 69.9743 26.2602C69.8254 23.5041 70.649 20.7832 72.3013 18.5722C73.0523 17.6391 74.0111 16.8946 75.1012 16.3981C76.1912 15.9017 77.3823 15.6671 78.5792 15.7132M73.2953 26.2602C73.2668 27.6304 73.3889 28.9996 73.6593 30.3432C73.9556 31.49 74.4917 32.5608 75.2323 33.4852C75.6186 34.0027 76.1254 34.4182 76.7086 34.6956C77.2919 34.973 77.934 35.104 78.5792 35.0772C79.2854 35.0674 79.9776 34.8789 80.5913 34.5292C81.2864 34.1462 81.8849 33.6096 82.3413 32.9603C82.888 32.1648 83.2718 31.2689 83.4703 30.3243C83.7454 29.0539 83.8732 27.7559 83.8513 26.4563C83.884 25.0393 83.7629 23.6231 83.4903 22.2323C83.2932 21.2893 82.9019 20.3976 82.3413 19.6142C81.8759 18.9719 81.2794 18.4357 80.5913 18.0412C79.9747 17.7019 79.283 17.5224 78.5792 17.5192C77.9271 17.4834 77.2763 17.6101 76.6852 17.8878C76.0941 18.1655 75.5811 18.5854 75.1923 19.1102C74.4783 20.0382 73.957 21.0998 73.6593 22.2323C73.389 23.5576 73.2669 24.9088 73.2953 26.2612" fill="white"/>
<path d="M88.4424 16.0004H91.8345V13.0243L91.6594 9.27832H94.9424V16.0004H99.1854V17.5834H94.9424V31.2933C94.8709 32.2222 95.0307 33.1543 95.4075 34.0063C95.5815 34.2752 95.8263 34.4908 96.1149 34.6296C96.4035 34.7685 96.7248 34.8251 97.0435 34.7933C97.9653 34.7575 98.8419 34.3842 99.5065 33.7444V35.9954C99.005 36.2282 98.4804 36.4074 97.9414 36.5303C97.4127 36.6413 96.8736 36.6957 96.3334 36.6924C93.3334 36.6924 91.8334 35.1497 91.8334 32.0643V17.5834H88.4414L88.4424 16.0004Z" fill="white"/>
<path d="M103.733 8.93119C103.999 8.89624 104.27 8.9239 104.523 9.01188C104.777 9.09985 105.007 9.24574 105.194 9.43802C105.382 9.63031 105.522 9.86364 105.604 10.1195C105.685 10.3754 105.706 10.6468 105.665 10.9121C105.665 12.2521 104.954 12.9225 103.534 12.9231C102.082 12.9231 101.356 12.2528 101.355 10.9121C101.355 9.59014 102.148 8.92985 103.732 8.93119M101.641 35.7452C101.755 35.0212 101.844 34.1439 101.906 33.1132C101.962 32.0822 101.994 31.1132 101.994 30.2012V19.4441C102.001 18.9332 101.978 18.4223 101.922 17.9142C101.88 17.6002 101.784 16.9702 101.641 16.0302H105.125V32.5822L105.284 35.7442V36.4372H101.598L101.641 35.7452Z" fill="white"/>
<path d="M111.656 16C112.22 18.115 112.545 19.3561 112.642 19.7161C112.739 20.0761 113.205 21.6021 114.052 24.2791C114.899 26.9561 115.98 29.9911 117.298 33.3661C118.046 31.6234 118.685 30.0631 119.215 28.6851C119.751 27.3021 120.225 25.977 120.636 24.701C121.047 23.425 121.454 22.0901 121.856 20.6841C122.258 19.2781 122.668 17.7131 123.091 16.0011H125.311C124.617 18.6011 124.123 20.3914 123.831 21.3721C123.539 22.3527 123.065 23.8074 122.407 25.7361C121.754 27.6671 121.163 29.313 120.645 30.667C120.127 32.021 119.356 33.9461 118.345 36.4401H115.492C114.523 34.2161 113.723 32.314 113.086 30.748C112.449 29.182 111.766 27.3261 111.009 25.1941C110.252 23.0621 109.292 19.9941 108.109 16.0021L111.656 16Z" fill="white"/>
<path d="M139.432 21.3153C139.435 20.7394 139.292 20.1722 139.016 19.6667C138.74 19.1612 138.341 18.7338 137.855 18.4243C136.662 17.6297 135.247 17.234 133.815 17.2943C132.039 17.3459 130.303 17.8376 128.763 18.7253V16.0002C130.415 15.7147 132.087 15.5665 133.763 15.5572C136.01 15.4346 138.247 15.935 140.227 17.0033C140.945 17.4083 141.539 18.0003 141.947 18.7163C142.354 19.4323 142.56 20.2456 142.542 21.0693V32.1352C142.528 33.038 142.581 33.9406 142.702 34.8353L143.14 36.4422H139.714C139.534 35.9276 139.438 35.3874 139.429 34.8423V34.3203C138.452 35.0834 137.38 35.716 136.24 36.2022C135.288 36.5776 134.273 36.7681 133.25 36.7633C131.569 36.8351 129.926 36.251 128.667 35.1342C128.091 34.6008 127.636 33.9497 127.333 33.2251C127.031 32.5004 126.887 31.7192 126.913 30.9343C126.899 30.1882 127.04 29.4472 127.327 28.7585C127.615 28.0699 128.043 27.4487 128.583 26.9343C130.234 25.5401 132.141 24.4815 134.198 23.8182L139.431 22.0873L139.432 21.3153ZM139.432 23.6423L135.032 25.2313C131.713 26.6573 130.052 28.4459 130.049 30.5973C130.027 31.1452 130.126 31.6913 130.338 32.1969C130.551 32.7025 130.872 33.1553 131.278 33.5233C132.164 34.2878 133.309 34.6846 134.478 34.6323C136.322 34.6039 138.088 33.8865 139.429 32.6213L139.432 23.6423Z" fill="white"/>
<path d="M143.188 11.8373C143.185 11.449 143.263 11.0644 143.418 10.7083C143.716 10.0136 144.27 9.45992 144.965 9.16125C145.322 9.00909 145.706 8.93066 146.094 8.93066C146.482 8.93066 146.866 9.00909 147.222 9.16125C147.917 9.45975 148.471 10.0135 148.769 10.7083C148.922 11.0652 149 11.4492 149 11.8373C149 12.2253 148.922 12.6094 148.769 12.9663C148.471 13.661 147.917 14.2146 147.222 14.5133C146.866 14.6655 146.482 14.7439 146.094 14.7439C145.706 14.7439 145.322 14.6655 144.965 14.5133C144.27 14.2145 143.716 13.6608 143.418 12.9663C143.263 12.6101 143.185 12.2255 143.188 11.8373ZM143.61 11.8373C143.609 12.1706 143.677 12.5005 143.81 12.8063C144.061 13.4013 144.535 13.8748 145.13 14.1262C145.436 14.2552 145.766 14.3217 146.099 14.3217C146.431 14.3217 146.761 14.2552 147.068 14.1262C147.662 13.8745 148.136 13.4011 148.388 12.8063C148.517 12.4995 148.583 12.1701 148.583 11.8373C148.583 11.5045 148.517 11.1751 148.388 10.8683C148.136 10.2733 147.663 9.79977 147.068 9.54822C146.761 9.41923 146.431 9.35278 146.099 9.35278C145.766 9.35278 145.436 9.41923 145.13 9.54822C144.534 9.79941 144.061 10.2731 143.81 10.8683C143.677 11.174 143.609 11.5039 143.61 11.8373ZM145.461 13.5012H145.039V10.1493H146.328C146.619 10.1208 146.91 10.206 147.14 10.3872C147.225 10.48 147.291 10.5893 147.332 10.7083C147.374 10.8272 147.391 10.9534 147.383 11.0792C147.386 11.2155 147.364 11.3513 147.317 11.4792C147.275 11.5835 147.213 11.6778 147.133 11.7562C147.054 11.8321 146.963 11.8931 146.863 11.9363C146.759 11.982 146.65 12.0155 146.539 12.0363L147.539 13.5052H147.063L146.063 12.0363H145.463L145.461 13.5012ZM145.461 11.6572H146C146.115 11.6572 146.229 11.6573 146.344 11.6453C146.449 11.6395 146.554 11.6159 146.652 11.5753C146.74 11.5387 146.817 11.4794 146.875 11.4033C146.938 11.3075 146.968 11.1937 146.961 11.0792C146.964 10.9848 146.942 10.8913 146.894 10.8093C146.851 10.7404 146.792 10.6827 146.722 10.6412C146.647 10.5981 146.566 10.5677 146.481 10.5513C146.392 10.5335 146.301 10.5244 146.211 10.5243H145.461V11.6572Z" fill="white"/>
<path d="M19.1132 11.1411C17.5556 14.4774 15.7606 17.6977 13.7422 20.7771C16.5214 20.6091 19.3104 20.7139 22.0692 21.0901C28.3952 15.9641 30.3302 12.0511 30.3622 11.9901C26.8027 10.5002 22.856 10.2044 19.1142 11.1471" fill="white"/>
<path d="M21.3494 21.4652C18.6751 21.1476 15.9767 21.0839 13.2904 21.2751C11.1194 24.5751 8.84341 27.6382 6.81641 30.2082C11.9734 27.8483 16.8484 24.9155 21.3494 21.4652Z" fill="white"/>
<path d="M1.46484 22.293C5.12184 17.93 12.5558 12.104 18.6418 10.793C21.2308 5.02795 21.3019 2.14002 21.3029 2.11802C9.88086 0.633025 3.11284 16.956 1.46484 22.291" fill="white"/>
<path d="M1.73047 22.759C5.38621 21.7372 9.13478 21.0826 12.9205 20.8049C14.9255 17.7761 16.7162 14.6108 18.2795 11.332C10.2285 13.583 3.86347 20.2849 1.73047 22.7579" fill="white"/>
<path d="M22.2641 21.4702C17.4612 25.2272 12.2235 28.3923 6.66406 30.8972C14.8021 32.1132 23.0907 31.8864 31.1501 30.2272C31.1501 29.2112 31.1501 25.4271 31.1501 24.3481C28.3815 22.8759 25.3758 21.9015 22.2701 21.4692" fill="white"/>
<path d="M0.957153 23.5051C1.85857 26.2651 3.40063 28.7725 5.45715 30.8221C8.25715 27.3451 10.5522 24.1811 12.4482 21.3271C8.54993 21.6417 4.6964 22.3715 0.953125 23.5042" fill="white"/>
<path d="M17.2452 32.355C13.5892 32.3498 9.93859 32.0707 6.32422 31.52C9.70119 34.528 14.0502 36.2163 18.5722 36.2749V32.34C18.1312 32.348 17.6892 32.354 17.2452 32.354" fill="white"/>
<path d="M4.98794 12.6191C6.73326 9.32308 9.14781 6.42792 12.0769 4.11914C7.27692 0.0411406 0.368933 -0.000929687 0.0479329 -0.00292969C0.218933 3.54207 -0.438074 19.6061 0.615926 22.7411C1.72156 19.2249 3.18665 15.8319 4.98794 12.6161" fill="white"/>
<path d="M19.3086 32.3241C22.6904 34.9503 26.8664 36.345 31.1476 36.2781V30.9111C27.2537 31.7471 23.2908 32.22 19.3096 32.3241" fill="white"/>
<path d="M19.8492 9.68103C19.7222 9.98903 19.5892 10.2971 19.4492 10.6061C22.9938 9.81482 26.6928 10.0844 30.0852 11.3811C28.6418 7.45162 25.72 4.24163 21.9432 2.43604C21.593 4.93897 20.8858 7.37877 19.8433 9.68103" fill="white"/>
<path d="M19.5269 1.38501C17.3024 0.554366 14.9589 0.0867234 12.5859 0V3.76196C14.6241 2.32102 17.0333 1.496 19.5269 1.38501Z" fill="white"/>
<path d="M25.837 18.597C24.943 19.4637 23.983 20.3227 22.957 21.1741C25.8118 21.6291 28.5761 22.5354 31.1461 23.859C31.0951 20.94 31.3901 15.5381 30.6121 12.8521C29.2645 14.9571 27.6605 16.8866 25.837 18.5961" fill="white"/>
</g>
<defs>
<clipPath id="clip0_4878_42823">
<rect width="149" height="36.881" fill="white"/>
</clipPath>
</defs>
</svg>
