<svg xmlns="http://www.w3.org/2000/svg" width="77" height="24" fill="none"><path fill="#090C21" fill-rule="evenodd" d="M.018 5.961c0 5.912.007 6.487.074 7.13a11.8 11.8 0 0 0 3.25 7.013c2.239 2.348 5.44 3.8 8.57 3.883l.473.013v-2.895l.175.15c.421.36 1.094.821 1.656 1.135a12.9 12.9 0 0 0 5.938 1.597l.554.013.002-6.23c.003-6.185-.003-6.846-.07-7.516-.463-4.645-3.303-7.965-8.147-9.525-1.262-.407-2.7-.679-3.79-.716L8.327 0v2.896l-.154-.134C6.754 1.526 4.664.618 2.312.217 1.608.097.725.007.25.007H.018zm23.609 1.752-.243 3.91a684 684 0 0 0-.265 4.424c-.013.282-.047.715-.077.962-.058.492-.176 1.443-.195 1.584l-.013.089h1.324v-.12c0-.067.01-.723.023-1.46.023-1.33.025-1.36.286-5.664.144-2.379.265-4.328.269-4.332.003-.003 1.011 2.254 2.24 5.016l2.232 5.023h1.122l2.17-5.029c1.194-2.765 2.18-5.041 2.19-5.057.022-.035.568 8.545.614 9.647.016.402.036 1.012.044 1.354l.014.622h1.992v-.047c0-.026-.014-.165-.031-.309a80 80 0 0 1-.191-1.976c-.052-.597-.514-8.133-.565-9.212a52 52 0 0 1-.038-1.422l-.014-.91-2.019-.01-2.018 4.71-2.168 5.06-.15.348-4.483-10.118h-2.022zm31.27-2.184c-.286.034-.522.14-.667.304-.308.343-.256 1.136.09 1.395.2.15.405.202.804.202.451 0 .655-.06.853-.255.214-.21.3-.612.217-1.002-.114-.528-.528-.733-1.298-.644m-5.579.202c0 .032.02.44.043.905.024.482.042 1.15.042 1.553v.706h-1.657v.773h1.656l.007 3.697c.006 3.356.01 3.712.043 3.866.159.76.552 1.227 1.21 1.438.278.09.543.123.972.122.574 0 .902-.057 1.376-.238l.218-.084v-.555c0-.546 0-.556-.04-.52-.036.032-.042.032-.048.004-.006-.024-.043-.005-.145.073-.183.14-.373.243-.594.32a1 1 0 0 1-.416.063c-.193 0-.255-.008-.354-.047-.318-.124-.462-.334-.563-.823-.033-.159-.037-.48-.044-3.745l-.007-3.57h2.062v-.774h-2.06V5.674h-1.701zM75.424 7.49a1.14 1.14 0 0 0-.503.3 1.124 1.124 0 0 0 .303 1.815c.38.187.875.163 1.228-.06.234-.147.438-.43.501-.693a1.153 1.153 0 0 0-.743-1.339c-.18-.064-.604-.076-.786-.023m.112.191a.9.9 0 0 0-.401.246.92.92 0 0 0-.274.67c0 .454.327.837.794.929.42.083.902-.25 1.022-.704.18-.683-.483-1.348-1.14-1.14m-.229 1.57h.276v-.586h.063c.058 0 .082.028.267.293l.205.293h.299l-.037-.057-.195-.285a3 3 0 0 1-.151-.23c.174-.079.222-.115.266-.201.097-.188.035-.427-.13-.51-.071-.036-.139-.043-.473-.051l-.39-.01zm.276-.73.165-.014c.24-.021.324-.074.324-.207 0-.134-.098-.197-.332-.214l-.157-.012zm-6.736.189c-.304.022-.954.094-1.264.14l-.234.035-.006.664c-.003.365.002.664.012.664s.029-.011.043-.025c.02-.02.025-.02.025 0 0 .015.067-.008.165-.056 1.092-.539 2.09-.711 3.033-.523.767.152 1.427.573 1.697 1.082.135.255.168.394.178.766l.01.335-1.335.437c-1.412.462-1.756.59-2.385.892-1.208.58-1.841 1.126-2.151 1.859-.218.515-.262 1.198-.116 1.791a2.55 2.55 0 0 0 1.116 1.546c.499.327 1.029.48 1.743.506 1.05.036 1.813-.205 2.864-.906l.26-.174v.11c0 .168.04.453.092.645l.046.174.887.006c.488.003.888 0 .888-.005s-.048-.181-.107-.391a5 5 0 0 1-.126-.55l-.034-.252a223 223 0 0 1-.029-3.325c-.015-3.22-.015-3.242-.06-3.409a2.15 2.15 0 0 0-.587-1.002c-.598-.58-1.545-.927-2.83-1.036a21 21 0 0 0-1.795.002m-26.308.062c-1.43.125-2.537.906-3.193 2.253-.276.568-.452 1.252-.525 2.043-.028.3-.028 1.19 0 1.495.104 1.12.409 2.003.951 2.76.19.267.68.748.93.913.638.425 1.27.617 2.134.649 1.641.06 2.894-.612 3.69-1.981.59-1.014.832-2.437.676-3.98-.112-1.11-.487-2.076-1.09-2.8a4.6 4.6 0 0 0-.824-.747c-.743-.49-1.687-.697-2.749-.605m11.624.139c0 .009.036.232.079.497l.079.48.007 3.075c.01 3.527-.009 4.217-.132 5.145a10 10 0 0 0-.045.402l-.015.173h1.897l-.001-.277c0-.153-.012-.41-.024-.57-.015-.187-.028-1.858-.036-4.612l-.013-4.318-.898-.005c-.494-.003-.898.001-.898.01m3.145.006c0 .026.4 1.333.67 2.185.784 2.483 1.54 4.467 2.742 7.2l.168.38h1.48l.05-.112c.028-.062.261-.629.517-1.26.683-1.68.96-2.42 1.516-4.044.501-1.465.672-2.023 1.123-3.67.094-.345.176-.644.183-.664.01-.034-.026-.036-.584-.036h-.596l-.02.078-.11.423a59 59 0 0 1-.86 3.022c-.425 1.35-.838 2.456-1.52 4.063-.218.515-.244.566-.266.523-.08-.151-.737-1.907-1.07-2.858-.194-.552-.694-2.087-.976-2.993a98 98 0 0 1-.62-2.251c0-.004-.41-.007-.913-.007-.601 0-.914.007-.914.02m-14.681.755a2.3 2.3 0 0 0-.67.244c-.238.14-.441.347-.67.684-.538.793-.713 1.412-.766 2.715-.033.804.018 1.702.13 2.27.116.596.458 1.28.883 1.764a1.93 1.93 0 0 0 1.928.589c.17-.045.526-.21.693-.323.597-.398 1.031-1.122 1.218-2.027.203-.985.203-2.581.001-3.576-.148-.73-.443-1.29-.915-1.737-.344-.327-.68-.509-1.098-.596a2.8 2.8 0 0 0-.734-.007m28.85 3.292c-1.077.385-1.31.48-1.684.684-.969.527-1.479 1.071-1.682 1.793-.058.204-.052.723.01.952.184.672.699 1.148 1.442 1.333.16.04.245.046.59.047.347 0 .436-.007.625-.048a3.84 3.84 0 0 0 1.56-.754l.164-.129v-2.123c0-1.167-.002-2.121-.005-2.12z" clip-rule="evenodd"/></svg>