<svg width="108" height="26" viewBox="0 0 108 26" fill="none" xmlns="http://www.w3.org/2000/svg">
<g clip-path="url(#clip0_5080_2578)">
<path d="M26.9632 25.2345C27.0973 24.177 27.1916 23.3888 27.2532 22.882C27.3122 22.3434 27.341 21.8022 27.3394 21.2606L28.0729 9.65533L28.1215 6.49493V5.2429L30.9853 5.2373L37.7589 20.3399L44.3048 5.2429H47.165V5.75192C47.165 6.22495 47.1752 6.79454 47.1984 7.46426C47.2215 8.13398 47.2498 8.8679 47.2897 9.65817L47.9986 21.2591L48.1493 23.0153L48.3088 24.6634L48.4284 25.6842H45.5791V25.09C45.5791 24.5039 45.5631 23.8368 45.5312 23.0886C45.4994 22.3404 45.4706 21.7307 45.445 21.2598L44.6042 8.15374L37.9314 23.429H36.4151L29.59 8.25881L28.7927 21.2598L28.7202 25.1717V25.6842H26.9023L26.9632 25.2345Z" fill="#090C21"/>
<path d="M56.956 11.0773C57.8224 11.0452 58.6846 11.2108 59.4735 11.5608C60.2624 11.9108 60.9561 12.4354 61.4992 13.0928C62.6986 14.6508 63.2974 16.569 63.191 18.5126C63.2929 20.4643 62.695 22.39 61.4992 23.9606C60.9378 24.5989 60.241 25.1117 59.4568 25.4636C58.6725 25.8155 57.8192 25.9983 56.9555 25.9994C56.0918 26.0006 55.2381 25.82 54.4529 25.4702C53.6676 25.1203 52.9695 24.6094 52.4062 23.9726C51.2079 22.3989 50.6114 20.468 50.7195 18.5126C50.6116 16.5696 51.2086 14.6514 52.4062 13.0928C52.9505 12.4349 53.6455 11.9101 54.4357 11.5601C55.2258 11.2101 56.0891 11.0448 56.9567 11.0773M53.1267 18.5126C53.1061 19.4785 53.1946 20.4438 53.3905 21.391C53.6053 22.1994 53.9939 22.9543 54.5307 23.606C54.8107 23.9708 55.1781 24.2637 55.6008 24.4593C56.0236 24.6549 56.489 24.7472 56.9567 24.7283C57.4686 24.7214 57.9703 24.5885 58.4151 24.342C58.9189 24.0719 59.3527 23.6937 59.6835 23.2359C60.0798 22.6751 60.358 22.0436 60.5019 21.3776C60.7013 20.482 60.7939 19.567 60.778 18.6508C60.8017 17.6519 60.714 16.6535 60.5164 15.673C60.3735 15.0082 60.0899 14.3796 59.6835 13.8273C59.3462 13.3745 58.9139 12.9965 58.4151 12.7184C57.9682 12.4792 57.4668 12.3527 56.9567 12.3505C56.484 12.3252 56.0123 12.4145 55.5838 12.6103C55.1554 12.806 54.7835 13.1021 54.5017 13.472C53.9842 14.1263 53.6064 14.8746 53.3905 15.673C53.1947 16.6073 53.1062 17.5599 53.1267 18.5133" fill="#090C21"/>
<path d="M64.1062 11.2794H66.5649V9.18133L66.438 6.54053H68.8176V11.2794H71.8931V12.3953H68.8176V22.0605C68.7657 22.7153 68.8816 23.3724 69.1547 23.973C69.2809 24.1626 69.4583 24.3146 69.6674 24.4124C69.8766 24.5103 70.1095 24.5503 70.3405 24.5278C71.0087 24.5026 71.6441 24.2394 72.1258 23.7884V25.3752C71.7623 25.5394 71.3821 25.6657 70.9914 25.7523C70.6081 25.8306 70.2174 25.869 69.8258 25.8666C67.6513 25.8666 66.5641 24.7791 66.5641 22.604V12.3953H64.1055L64.1062 11.2794Z" fill="#090C21"/>
<path d="M75.1878 6.296C75.3809 6.27136 75.5771 6.29086 75.7611 6.35288C75.945 6.4149 76.1115 6.51774 76.2475 6.6533C76.3834 6.78886 76.485 6.95335 76.5441 7.13375C76.6033 7.31415 76.6184 7.50545 76.5882 7.69251C76.5882 8.63717 76.0733 9.10973 75.0436 9.1102C73.9916 9.1102 73.4653 8.63764 73.4648 7.69251C73.4648 6.76054 74.039 6.29506 75.1871 6.296M73.6722 25.199C73.7548 24.6886 73.8186 24.0702 73.8635 23.3436C73.9041 22.6168 73.9273 21.9337 73.9273 21.2907V13.7073C73.933 13.3471 73.9158 12.9869 73.8758 12.6288C73.8454 12.4074 73.7758 11.9632 73.6722 11.3006H76.1975V22.9692L76.3121 25.1983V25.6869H73.6403L73.6722 25.199Z" fill="#090C21"/>
<path d="M80.9304 11.2793C81.3392 12.7703 81.5747 13.6452 81.645 13.899C81.7153 14.1528 82.0531 15.2286 82.667 17.1158C83.281 19.003 84.0645 21.1426 85.0198 23.5219C85.5615 22.2933 86.0247 21.1933 86.4093 20.2219C86.7978 19.2469 87.1414 18.3128 87.4393 17.4133C87.7372 16.5137 88.0322 15.5726 88.3236 14.5814C88.615 13.5902 88.9122 12.487 89.2188 11.2801H90.828C90.3244 13.113 89.9668 14.3751 89.7551 15.0664C89.5435 15.7578 89.1995 16.7833 88.723 18.1429C88.2497 19.5042 87.8213 20.6646 87.4459 21.6191C87.0704 22.5736 86.5115 23.9307 85.7787 25.6889H83.7108C83.0084 24.1211 82.4285 22.7802 81.9668 21.6762C81.5051 20.5722 81.0101 19.2639 80.4614 17.7609C79.9127 16.2579 79.2169 14.095 78.3594 11.2808L80.9304 11.2793Z" fill="#090C21"/>
<path d="M101.065 15.0266C101.067 14.6207 100.963 14.2208 100.763 13.8645C100.563 13.5081 100.274 13.2068 99.9215 12.9886C99.0567 12.4284 98.0314 12.1495 96.9932 12.192C95.7056 12.2284 94.4473 12.575 93.3313 13.2008V11.2797C94.5285 11.0784 95.7407 10.974 96.9555 10.9674C98.584 10.8809 100.205 11.2337 101.641 11.9868C102.161 12.2723 102.592 12.6897 102.887 13.1944C103.183 13.6992 103.332 14.2725 103.319 14.8532V22.6544C103.308 23.2908 103.347 23.9271 103.435 24.5579L103.752 25.6907H101.269C101.139 25.3279 101.069 24.9471 101.062 24.5628V24.1948C100.354 24.7328 99.5774 25.1788 98.7509 25.5215C98.061 25.7861 97.3254 25.9204 96.5837 25.917C95.3652 25.9677 94.1741 25.5559 93.2618 24.7686C92.8441 24.3926 92.5143 23.9336 92.295 23.4227C92.0756 22.9118 91.9717 22.3611 91.9904 21.8078C91.98 21.2818 92.0822 20.7594 92.2906 20.2739C92.499 19.7884 92.809 19.3505 93.2009 18.9879C94.3976 18.005 95.7801 17.2587 97.2708 16.7911L101.064 15.5709L101.065 15.0266ZM101.065 16.6671L97.8753 17.7873C95.4694 18.7926 94.2654 20.0535 94.2635 21.5702C94.2477 21.9565 94.3193 22.3414 94.4732 22.6978C94.6271 23.0543 94.8596 23.3735 95.1543 23.6329C95.7965 24.1719 96.6263 24.4516 97.4737 24.4147C98.81 24.3947 100.09 23.889 101.062 22.9971L101.065 16.6671Z" fill="#090C21"/>
<path d="M103.785 8.34498C103.783 8.07126 103.84 7.80013 103.952 7.54904C104.168 7.05933 104.57 6.66901 105.073 6.45846C105.332 6.35119 105.61 6.2959 105.892 6.2959C106.173 6.2959 106.451 6.35119 106.71 6.45846C107.213 6.66889 107.615 7.05925 107.831 7.54904C107.941 7.80067 107.998 8.07142 107.998 8.34498C107.998 8.61853 107.941 8.88928 107.831 9.14091C107.615 9.63062 107.213 10.0209 106.71 10.2315C106.451 10.3388 106.173 10.3941 105.892 10.3941C105.61 10.3941 105.332 10.3388 105.073 10.2315C104.57 10.0208 104.169 9.63054 103.952 9.14091C103.84 8.88982 103.783 8.61869 103.785 8.34498ZM104.091 8.34498C104.09 8.57997 104.14 8.81256 104.236 9.02809C104.418 9.44755 104.762 9.78133 105.193 9.95861C105.415 10.0495 105.654 10.0964 105.895 10.0964C106.136 10.0964 106.375 10.0495 106.598 9.95861C107.029 9.78115 107.372 9.44742 107.554 9.02809C107.648 8.81182 107.696 8.57958 107.696 8.34498C107.696 8.11037 107.648 7.87813 107.554 7.66186C107.372 7.24244 107.029 6.90859 106.598 6.73126C106.375 6.64032 106.136 6.59348 105.895 6.59348C105.654 6.59348 105.415 6.64032 105.193 6.73126C104.761 6.90834 104.418 7.24227 104.236 7.66186C104.14 7.87739 104.09 8.10998 104.091 8.34498ZM105.433 9.518H105.127V7.15499H106.061C106.272 7.1349 106.483 7.19496 106.65 7.32272C106.712 7.3881 106.759 7.46516 106.789 7.54904C106.82 7.63293 106.832 7.72188 106.826 7.81057C106.828 7.90667 106.812 8.00239 106.778 8.09257C106.748 8.16603 106.703 8.23255 106.645 8.28783C106.588 8.34132 106.522 8.38435 106.449 8.41477C106.374 8.44697 106.295 8.47061 106.214 8.48525L106.939 9.52084H106.594L105.869 8.48525H105.434L105.433 9.518ZM105.433 8.21804H105.823C105.907 8.21804 105.989 8.21807 106.073 8.20961C106.15 8.20555 106.225 8.1889 106.296 8.1603C106.36 8.1345 106.416 8.09266 106.458 8.03905C106.503 7.97152 106.525 7.89127 106.52 7.81057C106.523 7.744 106.506 7.67807 106.472 7.6203C106.441 7.5717 106.398 7.53103 106.347 7.5018C106.293 7.47139 106.234 7.44998 106.172 7.43838C106.108 7.42582 106.042 7.41946 105.976 7.41936H105.433V8.21804Z" fill="#090C21"/>
<path d="M13.854 7.85397C12.725 10.206 11.424 12.4762 9.96094 14.6471C11.9754 14.5286 13.997 14.6025 15.9966 14.8677C20.5819 11.254 21.9845 8.4955 22.0076 8.45249C19.4276 7.40213 16.567 7.1936 13.8547 7.85819" fill="#090C21"/>
<path d="M15.4754 15.1322C13.537 14.9083 11.5811 14.8634 9.63397 14.9982C8.06036 17.3246 6.41064 19.484 4.94141 21.2958C8.67936 19.6321 12.2129 17.5646 15.4754 15.1322Z" fill="#090C21"/>
<path d="M1.0625 15.7155C3.71321 12.6397 9.10161 8.53259 13.5129 7.60837C15.3895 3.54422 15.441 1.50832 15.4417 1.49281C7.1627 0.445926 2.25702 11.9531 1.0625 15.7141" fill="#090C21"/>
<path d="M1.25391 16.0445C3.90371 15.3241 6.62079 14.8626 9.36478 14.6669C10.8181 12.5316 12.116 10.3002 13.2492 7.98877C7.41354 9.57566 2.79997 14.3003 1.25391 16.0437" fill="#090C21"/>
<path d="M16.1394 15.1355C12.6582 17.784 8.86172 20.0153 4.83203 21.7812C10.7307 22.6385 16.7386 22.4786 22.5803 21.3088C22.5803 20.5926 22.5803 17.925 22.5803 17.1643C20.5735 16.1264 18.3949 15.4395 16.1438 15.1348" fill="#090C21"/>
<path d="M0.694326 16.5701C1.3477 18.5158 2.46543 20.2834 3.95607 21.7284C5.9856 19.2772 7.64909 17.0467 9.02337 15.0347C6.19781 15.2564 3.40465 15.7709 0.691406 16.5694" fill="#090C21"/>
<path d="M12.5018 22.8093C9.8518 22.8057 7.20575 22.6089 4.58594 22.2207C7.03367 24.3413 10.186 25.5315 13.4637 25.5728V22.7987C13.144 22.8044 12.8237 22.8086 12.5018 22.8086" fill="#090C21"/>
<path d="M3.61542 8.89574C4.88048 6.57212 6.63063 4.53112 8.75374 2.90349C5.27455 0.0286268 0.267414 -0.00103147 0.0347433 -0.00244141C0.15869 2.49668 -0.31753 13.8213 0.446443 16.0314C1.24784 13.5526 2.30978 11.1607 3.61542 8.89359" fill="#090C21"/>
<path d="M13.9961 22.7871C16.4473 24.6385 19.4742 25.6217 22.5774 25.5745V21.791C19.755 22.3803 16.8825 22.7138 13.9968 22.7871" fill="#090C21"/>
<path d="M14.3876 6.82479C14.2956 7.04192 14.1991 7.25909 14.0977 7.47692C16.6669 6.91911 19.348 7.10914 21.807 8.02329C20.7607 5.25312 18.6429 2.99018 15.9054 1.71729C15.6515 3.48178 15.139 5.20177 14.3833 6.82479" fill="#090C21"/>
<path d="M14.1521 0.97639C12.5398 0.390811 10.8411 0.0611374 9.12109 0V2.65207C10.5984 1.63625 12.3447 1.05464 14.1521 0.97639Z" fill="#090C21"/>
<path d="M18.7281 13.1101C18.0801 13.7211 17.3843 14.3267 16.6406 14.9268C18.7099 15.2476 20.7135 15.8865 22.5763 16.8196C22.5393 14.7618 22.7532 10.9536 22.1892 9.06006C21.2125 10.5441 20.0498 11.9043 18.7281 13.1094" fill="#090C21"/>
</g>
<defs>
<clipPath id="clip0_5080_2578">
<rect width="108" height="26" fill="white"/>
</clipPath>
</defs>
</svg>
