<svg xmlns="http://www.w3.org/2000/svg" width="153" height="57" fill="none"><path fill="#fff" d="M5.051.516 5.244.37c4.024 4.832 15.487 17.956 22.08 17.956 5.091 0 8.023-7.685 8.423-8.796l.232.081s-3.657 10.192-.22 12.877c3.38 2.64 17.605-1.817 18.822-2.201l.07.23s-16.347 4.954-17.385 9.675c-.743 3.375 3.514 8.14 4.65 9.362l-.17.164s-4.947-5.526-8.629-3.982c-5.475 2.299-8.605 18.37-8.984 20.634l-.242-.046s3.435-18.11-5.168-22.172c-4.833-2.284-16.761.63-18.654 1.101L0 35.018S16.684 30.85 16.684 21.69C16.684 14.276 5.051.516 5.051.516m96.186 24.254c-1.344-.906-3.182-1.366-5.463-1.366-2.93 0-5.363 1.03-7.067 2.983V23.89h-5.163v18.804h5.163V32.598c0-4.03 3.445-5.106 5.482-5.106 3.926 0 4.38 2.3 4.38 4.03v11.171h5.162V29.994c-.002-2.35-.84-4.107-2.494-5.224m17.875 14.186-3.31.066c-1.382 0-1.519-.884-1.519-3.057v-8.194h4.963v-3.88h-4.963v-5.842l-.305.18-4.756 2.776-.102.06v2.827h-3.79v3.88h3.79v9.582c0 3.478.448 5.757 6.44 5.757 1.51 0 2.478-.116 3.681-.28l.176-.025v-3.861l-.21.007zm3.265-15.066h-.204v18.804h5.163V23.89zm0-6.802h-.204v4.297h5.163v-4.297zm30.327 25.267-8.118-9.341 7.567-8.784.293-.34h-6.678l-.061.076-4.629 5.77-4.529-5.768-.061-.078h-6.676l.289.339 7.502 8.785-8.086 9.34-.294.34h6.677l.062-.076 5.112-6.326 4.977 6.324.061.078H153zM78.152 17.088h-6.026l-.061.072-21.303 25.196-.286.337h6.467l.062-.072 5.102-6.036H74.29v6.107h5.162V17.087h-1.299M65.77 32.255l8.519-10.076v10.076z"/></svg>