<svg xmlns="http://www.w3.org/2000/svg" width="200" height="42" fill="none"><path fill="url(#a)" d="M28.336 0c.21-.003.41.078.56.224l2.063 2.026c.493.484.5 1.277.017 1.77l-6.163 6.3c-.118.12-.321.105-.49.107l-7.988.113a.4.4 0 0 0-.271.117l-5.6 5.76a.4.4 0 0 0-.11.272l.074 8.032-6.621 6.47a1.253 1.253 0 0 1-1.755-.003L.383 29.55a.78.78 0 0 1-.234-.552L0 12.703a.78.78 0 0 1 .222-.553L11.58.466a.78.78 0 0 1 .55-.237z"/><path fill="url(#b)" d="M12.506 41.128a.78.78 0 0 1-.56-.224l-2.043-2.006a1.254 1.254 0 0 1-.02-1.769l6.147-6.32c.118-.12.32-.105.49-.108l7.987-.112a.4.4 0 0 0 .272-.117l5.6-5.76c.07-.073.11-.17.108-.273l-.068-7.498a1.25 1.25 0 0 1 .377-.907l6.235-6.1a1.254 1.254 0 0 1 1.755.003l1.673 1.642a.78.78 0 0 1 .234.552l.149 16.295a.78.78 0 0 1-.222.553L29.261 40.663a.78.78 0 0 1-.55.237z"/><path fill="url(#c)" d="M186.247 28.171h-4.672l11.958-11.958H179.99v-3.337h18.911q.362 0 .611.195.279.195.39.472.139.279.083.612a1.06 1.06 0 0 1-.305.584z"/><path fill="#fff" d="M144.433 14.22h9.672q1.038 0 1.95.405a4.6 4.6 0 0 1 1.569 1.063q.684.684 1.064 1.595l.034.078h-4.06a2 2 0 0 0-.557-.078h-9.672q-.295 0-.561.078h-4.079l.03-.078a5.5 5.5 0 0 1 1.064-1.595q.684-.684 1.595-1.063a4.75 4.75 0 0 1 1.951-.405m-13.517 3.14v-.026h7.318v-3.039h-17.978v3.039h7.318v.027zm-3.342 3.918h3.342v6.893h-3.342zm-8.879-3.918v-3.065h-3.039v3.066zm-3.039 3.918h3.039v6.893h-3.039zm-1.174-3.918a4 4 0 0 0-.226-.608 4.4 4.4 0 0 0-1.469-1.748q-.987-.709-2.354-.709h-16.61v3.066h3.038v-.027h13.572q.153 0 .287.027z"/><path fill="#fff" fill-rule="evenodd" d="M93.822 21.278h19.888q.802.994.901 2.184.126 1.215-.355 2.253a4.4 4.4 0 0 1-1.469 1.747q-.987.71-2.354.71h-16.61zm16.611 3.855H96.861v-2.38h13.572q.582 0 .861.38.303.354.303.81t-.303.835q-.279.355-.861.355" clip-rule="evenodd"/><path fill="#fff" d="m92.773 17.36-.012-.026a4.9 4.9 0 0 0-1.064-1.595 4.6 4.6 0 0 0-1.57-1.064 4.75 4.75 0 0 0-1.95-.405l-15.597.026v13.876h3.039V17.334h12.559q.173 0 .335.027z"/><path fill="#fff" d="M78.702 21.278h14.04q-.377.884-1.044 1.55a5.2 5.2 0 0 1-1.57 1.064 5 5 0 0 1-1.95.38h-1.772l6.609 3.9h-5.9l-8.61-5.09q-.328-.177-.43-.481a1.16 1.16 0 0 1-.025-.633.92.92 0 0 1 .33-.507.9.9 0 0 1 .322-.183m60.741 0h3.039v.487h13.573v-.487h3.038v6.893h-3.038V24.83h-13.573v3.342h-3.039zm21.143 0v1.905q0 1.038.38 1.95a5.5 5.5 0 0 0 1.064 1.595q.683.658 1.595 1.064.911.38 1.95.38h11.546v-3.04h-11.546q-.81 0-1.393-.556a1.94 1.94 0 0 1-.557-1.393v-1.905zm3.039-3.918v-3.065h-3.039v3.066z"/><path fill="#fff" fill-rule="evenodd" d="M54.717 28.171a6.9 6.9 0 0 1-2.71-.531 7.6 7.6 0 0 1-2.202-1.494 7.6 7.6 0 0 1-1.494-2.203 6.9 6.9 0 0 1-.532-2.71q0-1.443.532-2.709a7.2 7.2 0 0 1 1.494-2.203 7.2 7.2 0 0 1 2.203-1.469 6.65 6.65 0 0 1 2.71-.557h10.355q1.444 0 2.71.557a6.8 6.8 0 0 1 2.203 1.47 6.6 6.6 0 0 1 1.494 2.202q.557 1.266.557 2.71t-.557 2.709a7 7 0 0 1-1.494 2.203 7.2 7.2 0 0 1-2.203 1.494 6.9 6.9 0 0 1-2.71.531zm10.356-3.038q.81 0 1.52-.304a3.92 3.92 0 0 0 2.076-2.076q.304-.71.304-1.52t-.304-1.519a3.92 3.92 0 0 0-2.076-2.076 3.8 3.8 0 0 0-1.52-.304H54.717q-.81 0-1.519.304a3.92 3.92 0 0 0-2.076 2.076q-.304.71-.304 1.52t.304 1.519a3.92 3.92 0 0 0 2.076 2.076q.71.304 1.52.304z" clip-rule="evenodd"/><path fill="url(#d)" d="m71.973 20.306.598-.009V18.42l-1.135-.006.037.087a6.5 6.5 0 0 1 .5 1.806"/><path fill="url(#e)" d="m52.112 18.296 15.654.095.06.059a3.9 3.9 0 0 1 1.048 1.9l-18.018.251q.071-.474.258-.91a3.9 3.9 0 0 1 .998-1.395"/><path fill="url(#f)" d="M75.62 20.262v-1.827l109.878.548z"/><defs><linearGradient id="a" x1="-2.462" x2="41.254" y1="2.693" y2="35.049" gradientUnits="userSpaceOnUse"><stop stop-color="#468CF4"/><stop offset="1" stop-color="#D605DA"/></linearGradient><linearGradient id="b" x1="-2.463" x2="41.254" y1="2.693" y2="35.049" gradientUnits="userSpaceOnUse"><stop stop-color="#468CF4"/><stop offset="1" stop-color="#D605DA"/></linearGradient><linearGradient id="c" x1="178.784" x2="195.778" y1="13.878" y2="30.448" gradientUnits="userSpaceOnUse"><stop stop-color="#468CF4"/><stop offset="1" stop-color="#D605DA"/></linearGradient><linearGradient id="d" x1="153.446" x2="151.757" y1="4.645" y2=".407" gradientUnits="userSpaceOnUse"><stop stop-color="#468CF4"/><stop offset=".725" stop-color="#D605DA"/><stop offset="1" stop-color="#D605DA"/></linearGradient><linearGradient id="e" x1="153.445" x2="151.756" y1="4.645" y2=".407" gradientUnits="userSpaceOnUse"><stop stop-color="#468CF4"/><stop offset=".725" stop-color="#D605DA"/><stop offset="1" stop-color="#D605DA"/></linearGradient><linearGradient id="f" x1="153.446" x2="151.757" y1="4.645" y2=".407" gradientUnits="userSpaceOnUse"><stop stop-color="#468CF4"/><stop offset=".725" stop-color="#D605DA"/><stop offset="1" stop-color="#D605DA"/></linearGradient></defs></svg>