<svg xmlns="http://www.w3.org/2000/svg" width="205" height="60" fill="none"><path fill="#fff" d="M202.928 27.159c-1.269 6.428-5.79 11.587-12.38 15.801-6.589 4.214-20.868 5.87-20.868 5.87l-3.534-2.498s.5-.123 1.323-.33c.019-.009.042-.009.062-.016 3.237-.82 11.222-2.887 13.821-4.064 8.708-3.956 21.576-14.763 21.576-14.763m-18.839 21.395c6.713-1.8 13.595-6.117 13.595-6.117s-4.879 9.758-12.61 10.58c-7.732.823-11.849-2.606-11.849-2.606s7.585-.977 10.864-1.857m13.462-20.738c-2.36 2.237-5.017 4.11-7.858 5.632-5.117 2.745-16.274 8.512-24.536 11.196a22 22 0 0 1-.931.292 69 69 0 0 1-3.218-1.292c-6.274-2.683-8.254-5.31-24.213-16.255C109.44 8.631 118.61 0 118.61 0s9.15 22.441 43.775 43.033c4.99-2.242 21.933-10.112 28.815-16.79 6.732-6.528 13.418-15.632 13.418-15.632s2.856 7.793-7.071 17.209zm-57.541 6.367c19.53 11.237 20.953 10.7 20.953 10.7s-4.379 3.029-27.704-8.251c-1.515-.73-3.045-1.43-4.568-2.138-3.064-1.419-10.934-6.409-11.711-20.476 0 0 1.208 7.612 23.03 20.165"/><path fill="#fff" d="M119.818 33.618s6.313 9.008 24.494 11.972c17.343 2.83 19.438 1.934 19.438 1.934s-14.894 6.362-29.542.546c-14.363-5.706-15.178-10.934-14.39-14.452"/><path fill="#fff" d="M164.615 49.688s-14.859 6.409-25.336 3.822c-10.472-2.588-10.603-3.972-10.603-3.972s1.561 11.15 18.146 9.658c14.125-1.269 17.797-9.508 17.797-9.508zM11.85 45.47a4.7 4.7 0 0 0-1.012-.588q-.547-.232-1.457-.411-.913-.178-2.268-.177-1.074.001-1.857.02a8 8 0 0 0-1.342.13q-.557.109-.892.361c-.223.17-.388.4-.492.7q-.155.445-.154 1.161a1.2 1.2 0 0 0 .457.588q.329.232 1.077.412.748.178 2.115.177 1.744 0 2.88.388t1.78.953.906 1.17q.264.605.262 1.049c0 .884-.154 1.634-.458 2.241a3.55 3.55 0 0 1-1.349 1.461q-.893.548-2.218.792-1.329.242-3.084.242a8.3 8.3 0 0 1-1.734-.177 14 14 0 0 1-1.522-.41 15 15 0 0 1-1.48-.6v-2.369q.465.369 1.01.6.545.232 1.458.411t2.268.177q1.072-.001 1.857-.02a8 8 0 0 0 1.342-.13q.556-.109.892-.361c.223-.17.388-.4.492-.7q.155-.445.154-1.161a.6.6 0 0 0-.046-.235.9.9 0 0 0-.17-.234c-.084-.089-.2-.17-.357-.254a3 3 0 0 0-.611-.227 7 7 0 0 0-.938-.173q-.561-.069-1.342-.069-1.212 0-2.122-.177a7.3 7.3 0 0 1-1.58-.477 4.7 4.7 0 0 1-1.115-.672 3.6 3.6 0 0 1-.708-.773 3 3 0 0 1-.377-.773A2.3 2.3 0 0 1 0 46.662q.001-1.325.458-2.241a3.55 3.55 0 0 1 1.349-1.461q.893-.548 2.218-.792 1.329-.242 3.084-.242.893-.002 1.734.177.84.18 1.522.411c.454.154.946.354 1.48.588v2.369zm5.886 2.372h2.245a2.71 2.71 0 0 1 2.691 2.364h-4.937v5.921h-2.368v-14.21h2.368v5.925m8.592-5.922H23.96v14.21h2.368zm11.52.263c.885.177 1.627.48 2.219.923q.893.657 1.35 1.81c.303.77.457 1.742.457 2.926v3.56c0 1.185-.246 2.119-.739 2.81q-.739 1.038-2.072 1.48-1.334.446-3.106.447c-1.772.001-2.23-.15-3.118-.446q-1.333-.446-2.073-1.48c-.492-.692-.738-1.626-.738-2.81q.001-1.33.4-2.242c.27-.608.627-1.096 1.08-1.461q.681-.548 1.523-.792a6.3 6.3 0 0 1 1.734-.242c.592 0 1.115.057 1.557.177a5.7 5.7 0 0 1 1.111.411c.296.154.596.354.892.588v2.369a5.4 5.4 0 0 0-.892-.589 5.6 5.6 0 0 0-1.111-.411q-.663-.179-1.557-.177-.444.002-.784.054-.336.052-.585.15a1.6 1.6 0 0 0-.423.234 1.2 1.2 0 0 0-.28.308 1.5 1.5 0 0 0-.173.358 2 2 0 0 0-.089.395 5 5 0 0 0-.03.431q-.005.221-.004.442.001.445.065.87.064.42.38.756.319.335 1.046.543.73.202 2.069.203c.892 0 1.572-.069 2.057-.203q.727-.203 1.045-.543.318-.334.381-.757a6 6 0 0 0 .065-.869v-3.56q.001-1.328-.338-2.057-.34-.727-.961-1.046-.623-.317-1.496-.38c-.58-.042-1.23-.066-1.941-.066-.908 0-1.661.058-2.269.177q-.91.18-1.457.412a4.7 4.7 0 0 0-1.01.588v-2.368a5 5 0 0 1 1.033-.589q.55-.231 1.461-.41t2.242-.178q1.752.001 3.083.262zm16.681 3.287a5 5 0 0 0-1.042-.588q-.555-.232-1.461-.411-.907-.178-2.234-.177-.446 0-.869-.177a4.3 4.3 0 0 1-.757-.412 7 7 0 0 1-.742-.6V56.14h-2.368V43.106a15 15 0 0 1 1.41-.589q.658-.231 1.512-.41a9 9 0 0 1 1.814-.178q1.339.001 2.246.158.906.16 1.457.361.548.202 1.034.52v2.506zm5.245-3.549v14.214h-2.369V41.92zm9.495 0h.238q3.022-.001 4.568 1.18v12.984q0 .051-.05.05h-2.269q-.05.001-.05-.05v-2.538q-.969.22-2.199.22h-.238a8.37 8.37 0 0 1-5.163-1.727c-1.25-1.095-1.873-2.449-1.873-4.052v-.407q-.001-2.48 2.23-4.214 2.261-1.447 4.806-1.446m-4.667 5.848q.001 2.565 3.121 3.441.901.19 1.565.188 1.218 0 2.419-.219v-6.67a12.3 12.3 0 0 0-2.369-.22q-2.767-.001-4.213 1.804c-.35.553-.527 1.115-.527 1.676zm19.158 8.366q-1.785 0-3.118-.738a5.2 5.2 0 0 1-2.073-2.072q-.738-1.332-.738-3.119v-8.285h2.368v8.285q.001 3.56 3.56 3.56 1.061 0 1.734.12.675.119 1.05.296c.25.119.43.234.538.354a.9.9 0 0 1 .223.41V41.922h2.368v14.214h-5.916zm13.499-.265c-.884-.177-1.626-.481-2.219-.923q-.893-.657-1.35-1.81-.456-1.15-.457-2.934v-3.549q0-1.774.739-2.81t2.072-1.48q1.331-.446 3.118-.447c1.192 0 2.218.15 3.106.447q1.333.445 2.073 1.48c.492.692.738 1.626.738 2.81 0 .884-.135 1.634-.4 2.241q-.399.913-1.08 1.461a4.3 4.3 0 0 1-1.523.792 6.2 6.2 0 0 1-1.734.243q-.894 0-1.557-.177a5.7 5.7 0 0 1-1.111-.412 4.7 4.7 0 0 1-.88-.6v-2.368q.437.369.88.6.446.232 1.111.412.663.177 1.557.176.445-.001.784-.053.335-.053.585-.15a1.5 1.5 0 0 0 .423-.235q.174-.139.284-.308.11-.166.173-.357.065-.19.089-.396.024-.21.03-.43l.004-.443q-.001-.443-.065-.869a1.4 1.4 0 0 0-.381-.757q-.318-.336-1.045-.538-.73-.203-2.057-.204c-.885 0-1.58.07-2.069.204q-.727.202-1.046.538a1.4 1.4 0 0 0-.38.757q-.065.42-.066.87v3.548q0 1.337.339 2.068c.223.485.546.834.961 1.046q.624.317 1.496.38c.58.043 1.23.066 1.941.066q1.357 0 2.268-.177.91-.18 1.458-.411a4.4 4.4 0 0 0 1.011-.6v2.368a16 16 0 0 1-1.48.6q-.681.232-1.523.411a8.3 8.3 0 0 1-1.734.177q-1.752 0-3.083-.261zM60.256 24.52q0 1.95-1.218 2.892-1.219.941-3.33.942-1.555.001-2.787-.58-.78.58-2.019.58-.436 0-.907-.139a3.6 3.6 0 0 1-.884-.396q-.33 1.649-1.292 2.738a5.74 5.74 0 0 1-2.41 1.603c-.966.342-2.027.511-3.192.511s-2.191-.2-3.03-.603q-1.257-.606-1.898-1.684-.641-1.081-.642-2.518c0-.466.038-.954.119-1.473q.12-.777.288-1.219l1.8-.65.207.093a13 13 0 0 0-.208 2.16q0 1.742.865 2.669.864.93 2.98.93 2.876 0 4.19-1.695c.124-.42.185-.812.185-1.185q0-.882-.327-1.822t-1-2.449l2.02-1.438h.138c.046.092.146.396.303.904q.184.603.42 1.242.228.637.418.965c.2.403.462.695.777.88q.474.276 1.15.277.301 0 .58-.058a1.2 1.2 0 0 0 .442-.173q.16-.208.408-1 .24-.79.5-1.672l2.322-.373.092.092q-.649 2.02-1.046 2.95.864.23 1.642.23 1.436 0 2.053-.277a2 2 0 0 0 .092-.65q0-.698-.288-1.553a21 21 0 0 0-.823-2.018l1.976-1.507.17.023c.784 1.918 1.176 3.406 1.176 4.456zm-7.731-5.409-2.11-1.46 1.299-1.95L53.8 17.14zm1.3-2.925L51.713 14.7l1.322-1.926 2.088 1.415zm1.971 2.925-2.087-1.46 1.322-1.95 2.088 1.438zm4.087 11.723.142-.208q1.972-.346 3.46-1.023 1.49-.675 2.288-1.438.796-.767.796-1.345-.046-.606-.523-1.753c-.32-.765-.7-1.55-1.15-2.357l1.672-1.834h.2c.477.915.858 1.86 1.138 2.845.285.984.423 1.83.423 2.541q.001 1.3-.65 2.507-.464.86-1.426 1.615-.962.753-2.287 1.31c-.885.374-1.834.65-2.857.835l-1.23-1.696zm13.672.556q-1.488-.605-2.207-1.66-.72-1.055-.72-2.45 0-.672.105-1.356.103-.685.265-1.242l1.857-.65.207.116c-.153.834-.23 1.526-.23 2.064q-.001 1.113.43 1.88.434.766 1.511 1.184c.723.277 1.711.42 2.965.42q1.418 0 2.71-.289c.861-.192 1.603-.446 2.234-.754q.94-.462 1.36-.95.047-.184.047-.253.002-.347-.396-.604-.396-.255-1.4-.603-1.142-.394-1.714-.673a2.45 2.45 0 0 1-.934-.788q-.363-.508-.362-1.392 0-1.135.627-2.403.629-1.263 1.741-2.11a4.07 4.07 0 0 1 2.53-.846 5.461 5.461 0 0 1 2.461.603l-.439 2.134-.092.07a5 5 0 0 0-1.026-.374 4.4 4.4 0 0 0-1.046-.138q-.785-.002-1.473.396-.692.393-1.103.988-.415.593-.415 1.08 0 .28.277.512c.184.154.442.3.769.43q.497.196 1.553.546 1.102.395 1.668.742.567.348.77.696c.138.23.207.504.207.811 0 .992-.415 1.903-1.242 2.742q-1.24 1.251-3.318 1.995-2.078.743-4.49.742-2.204.001-3.691-.604zm2.414 5.756-2.11-1.46 1.299-1.95 2.088 1.438zm3.318 0-2.088-1.46 1.3-1.95 2.088 1.438zm25.79-24.624v11.187q.001 1.835-.649 2.892-.651 1.055-2.207 1.53-1.557.477-4.387.476h-1.507q-3.898-.001-5.886-1.034-1.984-1.033-1.984-3.26-.001-1.464.373-2.691l1.695-.65.185.115q-.208 1.136-.208 2.019 0 1.275.716 1.972.713.695 2.13.977c.941.184 2.195.276 3.752.276h1.472q1.447 0 2.584-.173 1.135-.172 1.557-.453.163-.698.165-1.834V12.96l2.026-.558.177.116zm-10.284 8.216q.696 0 1.069-.024a3.2 3.2 0 0 1-.339-.695 2.2 2.2 0 0 1-.126-.72q-.001-.86.545-1.38.544-.524 1.45-.523.72-.001 1.65.373l-.35 1.23c-.42-.138-.781-.207-1.092-.207q-.929 0-.927.811 0 .302.127.58.126.279.361.49 1.02-.07 2.134-.185l.115 1.276q-1.832.23-4.479.327l-.138-1.346z"/></svg>