<svg width="123" height="16" viewBox="0 0 123 16" fill="none" xmlns="http://www.w3.org/2000/svg">
<path d="M0 0.00439453H11.5931L14.8231 3.23413L14.8479 12.7126L11.6179 15.9175H0.0062056V0.010595L0 0.00439453ZM10.3222 13.5247L12.1387 11.7083L12.0953 4.20739L10.3222 2.39105H2.7092L2.7526 13.5247H10.3222Z" fill="white"/>
<path d="M18.7523 0.00439453H32.2044V2.39091H21.4551L21.4985 6.73003H29.6999V9.04837H21.4737L21.4985 13.5239H32.4523L32.4275 15.9104H18.7461V0.00439453H18.7523Z" fill="white"/>
<path d="M34.6537 12.6834L34.6289 3.20494L37.8775 0H48.8755V2.38666H39.1236L37.3257 4.203L37.3505 11.7039L39.1236 13.5203H45.6889L47.5054 11.7039L47.4806 8.90812H41.7522L41.777 6.68264H50.2084L50.1836 12.702L46.9536 15.9069H37.8651L34.6351 12.6772L34.6537 12.6834Z" fill="white"/>
<path d="M53.7679 0.00439453H67.22V2.39091H56.4707L56.5141 6.73003H64.7155V9.04837H56.4893L56.5141 13.5239H67.4679L67.4431 15.9104H53.7617V0.00439453H53.7679Z" fill="white"/>
<path d="M70.5273 0.00439453H75.0716L82.3189 13.1651H82.728L82.6846 0.00439453H85.3194V15.9113H80.8434L73.5713 2.7506H73.187L73.1621 15.9113H70.5273V0.00439453Z" fill="white"/>
<path d="M94.9379 15.0248L101.299 0.00439453H105.279L111.801 15.0248L111.757 15.9113H109.191L103.506 2.39105H103.053L97.4177 15.9113H94.8945L94.9379 15.0248ZM99.5318 9.56962H107.052L108.031 11.9563H98.5771L99.5318 9.56962Z" fill="white"/>
<path d="M113.619 13.7054H116.799L116.774 2.20675H113.594V0H122.663V2.20675H119.483L119.508 13.7054H122.688L122.663 15.9122H113.594L113.619 13.7054Z" fill="white"/>
</svg>
