<svg xmlns="http://www.w3.org/2000/svg" width="195" height="33" fill="none"><path fill="#fff" d="M45.463 4.965H59.59L63.527 8.9l.03 11.552-3.936 3.906h-14.15V4.972zm12.58 16.478 2.213-2.214-.053-9.142-2.16-2.213h-9.279l.053 13.569zM68.316 4.965h16.395v2.909h-13.1l.052 5.288h9.995v2.826H71.633l.03 5.454h13.35l-.03 2.91H68.309V4.964zm19.388 15.449-.03-11.551 3.959-3.906h13.402v2.908H93.151l-2.19 2.214.03 9.142 2.16 2.213h8.001l2.214-2.213-.03-3.408h-6.981l.03-2.712h10.275l-.03 7.336-3.937 3.906H91.618l-3.937-3.936zm23.292-15.449h16.394v2.909h-13.1l.053 5.288h9.995v2.826h-10.025l.03 5.454h13.35l-.031 2.91h-16.674V4.964zm20.436 0h5.538l8.831 16.04h.499l-.053-16.04h3.211V24.35h-5.455l-8.862-16.04h-.468l-.03 16.04h-3.211zm29.746 18.305 7.751-18.305h4.851l7.948 18.306-.053 1.08h-3.128l-6.928-16.477h-.551L164.2 24.35h-3.075zm5.598-6.648h9.165l1.193 2.91h-11.521zm17.17 5.038h3.876l-.03-14.014h-3.876v-2.69h11.053v2.69h-3.876l.031 14.015h3.875l-.03 2.69h-11.053z"/><path fill="#FDEB27" d="M0 1.775 23.768 0l6.445 3.203 4.714 12.708-4.163 7.17L0 32.842zm26.874 17.717 2.674-3.966-3.4-10.608-3.777-1.911L6.73 4.6l1.73 19.855z"/></svg>