<svg xmlns="http://www.w3.org/2000/svg" width="206" height="48" fill="none"><path fill="#fff" d="m78.735 15.639-.947.76c-.446.452-.665.866-.665 1.25v.537c-.031.085-.055.43-.055 1.044-1.26-1.565-3.099-2.356-5.51-2.356q-3.321-.002-5.352 1.688c-1.44 1.197-2.168 2.863-2.168 4.988 0 1.927.54 3.561 1.612 4.889 1.182 1.465 2.77 2.202 4.774 2.202q1.914.002 3.357-.836 1.808-1.057 1.808-2.38c0-.168-.023-.421-.07-.751a6 6 0 0 1-.07-.752c0-.208.023-.392.062-.568-.25.092-.603.138-1.049.138q-.47 0-1.385-.253-.915-.255-1.385-.254-.635 0-1.338.23l-1.652.707q.822-1.107 1.221-1.466.869-.773 1.996-.775.554-.002 1.964.376c.094.023.258.061.485.1.086.015.274.023.548.023.556 0 1.096-.146 1.612-.438.086-.053.509-.353 1.276-.913l-.079.13.133-.076c-.101.076-.305.345-.602.813q-.342.748-.344 1.957c0 .706.172 2.003.508 3.914-1.8 1.535-4.241 2.302-7.333 2.302q-4.108-.002-6.456-2.134c-1.612-1.465-2.41-3.53-2.41-6.185 0-2.616 1.095-4.635 3.294-6.07 1.879-1.227 4.226-1.841 7.028-1.841zm13.58 12.609q-1.433 2.335-1.433 4.074c-.821-.552-2.488-.798-5-.76l-4.985.093c.516-.637.813-1.082.892-1.351l.078-1.051v-10.33c0-.56-.14-1.104-.43-1.65a3.54 3.54 0 0 0-1.769-1.603h4.601v14.442c.024.023.126.062.29.115.32.1.736.154 1.237.154 2.433 0 4.609-.714 6.518-2.134m12.231 2.833q-.237.423-.603.421H93.737l-.485-.453 1.088-.59q.351-.357.446-.576c0-.115.016-.284.039-.514l.016-.023V17.742c0-.369-.173-.722-.51-1.051l-1.087-.591.485-.453h10.205c.243 0 .447.138.603.422-.399.637-.603 1.067-.603 1.297l.118.875-.79-.246c-.815-.614-1.84-1.028-3.084-1.243l-.657-.054h-1.754l-.524.077v5.003h6.73l-.97 1.604-1.323 1.236c-.797-1.052-2.01-1.62-3.646-1.689-.047 0-.141-.007-.306-.015-.344-.015-.5.023-.485.13v7.321l.525.054h1.761l.657-.054q1.868-.321 3.091-1.22l.79-.245-.117.875c-.008.23.196.667.595 1.304m17.365-.469c0 .53-.125.837-.383.93l-.234-.054c.031.015.094.061.18.13q-.461-.219-1.072-.898l-10.723-11.97v8.755c0 .783.228 1.512.682 2.195.304.46.845 1.043 1.611 1.75h-4.421c.588-.968.876-1.85.876-2.64V17.373l-1.087-.644a11 11 0 0 1-1.072-.346q-.177-.089-.798-.606l1.111-.138h3.545l10.533 12.056v-8.748c0-.369-.031-.614-.094-.745-.055-.176-.171-.422-.367-.737l-1.432-1.09v-.736h3.137v14.972zm15.683-4.78c0 2.264-1.329 3.868-3.998 4.812-1.166.414-2.52.668-4.077.775l.023.038h-4.007q.67-.667.752-1.013l.102-1.181V18.793c0-.644-.196-1.197-.58-1.672-.454-.545-.759-.822-.915-.822l-.024-.614.407-.023c1.19-.076 2.097.177 2.731.776l.274.437q1.972-1.543 4.25-1.543 1.57-.002 2.636.745c.807.56 1.206 1.335 1.206 2.325 0 1.159-.462 2.21-1.377 3.162 1.729.92 2.597 2.348 2.597 4.266m-4.037-7.228q.001-1.764-2.028-1.765-.868 0-1.619.299c-.666.26-1.025.614-1.095 1.067v2.263c.672.008 1.776.085 3.317.215q.238.023.814.138.61-.93.611-2.217m1.236 7.274c0-1.412-.65-2.54-1.941-3.368-1.056-.676-2.175-1.013-3.341-1.013q-.684 0-.696.115v8.433q.002.205.062.4a.3.3 0 0 0 .118 0 4 4 0 0 1 .539-.054c1.221 0 2.332-.315 3.318-.952 1.291-.829 1.941-2.01 1.941-3.56m23.517-2.341c0 2.632-.963 4.72-2.888 6.254-1.754 1.389-3.858 2.087-6.339 2.087q-3.768-.002-6.339-2.087c-1.925-1.55-2.888-3.638-2.888-6.254q0-3.937 2.888-6.24 2.606-2.084 6.339-2.086c2.504 0 4.609.698 6.339 2.087q2.888 2.336 2.888 6.239m-2.802 0q.001-3.384-2.004-5.341-1.797-1.764-4.406-1.765-3.098.002-4.812 2.087-1.597 1.922-1.597 5.019c0 2.049.54 3.721 1.612 5.01 1.151 1.397 2.755 2.096 4.797 2.096 2.043 0 3.647-.699 4.798-2.095 1.072-1.297 1.612-2.962 1.612-5.011M206 28.248q-1.432 2.335-1.432 4.074c-.822-.552-2.489-.798-5.001-.76l-4.985.093c.516-.637.814-1.082.892-1.351l.078-1.051v-10.33c0-.56-.141-1.104-.43-1.65-.391-.728-.986-1.265-1.768-1.603h4.601v14.442c.023.023.125.062.29.115q.483.152 1.236.154 3.653-.002 6.519-2.134m-47.77-12.646 1.151.798c.422.292.735.752.954 1.39l.274 1.158c.72-.798 1.245-1.297 1.588-1.504.502-.3 1.206-.453 2.13-.453h1.737v12.255l-.079 1.052c-.086.299-.312.683-.68 1.143h3.936c-.383-.437-.61-.775-.681-1.005q-.094-.3-.094-1.197V16.99h1.722c.916 0 1.628.154 2.129.453.344.207.868.706 1.588 1.504l.275-1.159c.218-.637.539-1.097.954-1.389l1.15-.798zm33.675 14.458q-.643-.75-1.393-2.187c-.633-1.22-1.541-3.17-2.746-5.863q-1.716-3.836-2.794-5.84-.332-.6-1.472-.53l-2.528.177c.298.192.596.376.908.553q.836.633.838 1.404 0 .125-.023.26a882 882 0 0 1-3.976 7.728c-1.769 3.392-2.935 5.288-3.514 5.687h3.138c-.673-.338-.367-1.305-.367-1.305l2.128-4.036h6.871l.962 1.956c.674 1.374 1.143 2.502 1.417 3.392h4.422a5.4 5.4 0 0 1-1.871-1.396m-8.366-10.468 2.552 4.789.29.553h-5.667zM24.471 48C10.98 48 0 37.234 0 23.996 0 10.76 10.98 0 24.471 0c13.492 0 24.472 10.766 24.472 23.996S37.97 48 24.47 48m0-46.296c-12.537 0-22.741 10.006-22.741 22.3 0 12.293 10.204 22.3 22.741 22.3s22.742-10.007 22.742-22.3c0-12.301-10.197-22.3-22.742-22.3"/><path fill="#fff" d="M10.307 43.273v-1.274c8.162 0 10.768-4.021 13.789-8.671 3.787-5.84 8.092-12.463 24.119-12.463v1.274c-6.863 0-12.068 1.243-15.894 3.814-3.358 2.249-5.275 5.203-7.13 8.058-3.09 4.765-6.01 9.262-14.884 9.262m18.892 3.737-1.017-.798c4.046-4.965 9.086-11.135 17.592-13.022l.29 1.243C37.995 36.22 33.12 42.199 29.199 47.01"/><path fill="#fff" d="M26.163 31.915c-5.745-4.666-11.684-9.5-25.427-9.5V21.14c14.204 0 20.606 5.203 26.256 9.792zm-8.962 9.8a73 73 0 0 1-1.143-.76c-3.607-2.41-6.464-4.312-12.591-5.172l.18-1.266c6.425.898 9.54 2.978 13.14 5.38q.549.37 1.134.752zm5.174-4.29-.087-.069c-5.423-4.182-10.103-7.796-21.49-8.188l.048-1.273c11.809.406 16.88 4.32 22.249 8.456l.086.07zm-3.523 9.424-.407-1.212c5.04-1.62 7.56-5.012 10.229-8.595 3.803-5.103 7.74-10.39 19.157-10.39v1.273c-10.76 0-14.329 4.789-18.109 9.861-2.676 3.6-5.439 7.313-10.87 9.063"/><path fill="#fff" d="M37.282 23.397h-1.737c0-2.286-.118-3.622-2.552-4.512-3.138-1.143-4.719-1.719-4.719-3.162 0-.56-.03-3.59-.047-5.402-.007-.813-.015-1.396-.015-1.45 0-.522.344-.821.65-1.006V7.82H20.08v.046c.305.177.65.484.65 1.006 0 .046-.009.637-.016 1.45-.016 1.811-.047 4.85-.047 5.403 0 1.442-1.573 2.018-4.72 3.161-2.433.883-2.55 2.226-2.55 4.512H11.66c0-2.125 0-4.765 3.678-6.1 1.417-.515 3.35-1.22 3.585-1.589 0-.606.03-3.607.047-5.402.007-.445.007-.814.007-1.075-1.017-.521-.54-2.263-.532-2.279.149-.475.572-.729.924-.805l.093-.023h10.002l.094.023c.344.076.775.33.923.813.008.015.485 1.757-.532 2.28 0 .252.008.628.008 1.073.016 1.796.047 4.797.047 5.403.235.368 2.168 1.074 3.584 1.588 3.694 1.328 3.694 3.968 3.694 6.093"/></svg>