<svg width="202" height="91" viewBox="0 0 202 91" fill="none" xmlns="http://www.w3.org/2000/svg">
<rect width="188" height="27.8236" transform="translate(6.80078 31.1055)" fill="white"/>
<path fill-rule="evenodd" clip-rule="evenodd" d="M143.201 41.5014C144.317 40.1443 145.597 39.6205 147.342 39.8294V41.5089C145.424 41.3217 143.201 42.7777 143.201 44.7051V51.2663H141.343V39.8294H143.201V41.5014ZM132.774 35.9647V35.9671C136.656 36.0928 138.619 41.0781 135.144 43.1821C135.325 43.246 135.541 43.3343 135.809 43.4568C140.304 45.2841 138.565 51.2284 133.732 51.2659C133.716 51.2663 133.701 51.2663 133.685 51.2663H126.12V35.9647H132.774ZM127.977 42.7947H132.565C133.501 42.6744 134.25 42.3749 134.704 41.8991C136.173 40.3623 135.254 37.606 132.624 37.606H127.977V42.7947ZM127.977 49.625H133.732C136.362 49.625 137.235 46.8683 135.766 45.3314C135.159 44.6972 134.102 44.4359 132.703 44.4359H127.977V49.625ZM176.263 46.1336C176.646 48.2561 178.412 49.8627 180.531 49.8627C181.787 49.8627 182.919 49.2978 183.713 48.3956L185.049 49.3928C183.928 50.6104 182.318 51.3743 180.531 51.3743C177.148 51.3743 174.402 48.6388 174.402 45.27C174.402 41.9007 176.963 39.1653 180.345 39.1653C183.727 39.1653 186.236 41.9007 186.236 45.27C186.236 45.5628 186.215 45.8513 186.175 46.1336H176.263ZM184.394 44.4698C184.077 42.3158 182.485 40.6769 180.345 40.6769C178.205 40.6769 176.573 42.3158 176.246 44.4698H184.394ZM190.66 41.5014C191.776 40.1443 193.056 39.6205 194.801 39.8294V41.5089C192.882 41.3217 190.66 42.7777 190.66 44.7051V51.2663H188.802V39.8294H190.66V41.5014ZM164.961 45.8911L171.438 39.8302H174.156L168.829 44.8159L173.891 51.2663H171.594L167.505 46.0551L164.961 48.4358V51.2663H163.104V35.1323H164.961V45.8911ZM154.586 39.1653C157.968 39.1653 160.715 41.9007 160.715 45.27C160.715 48.6388 157.968 51.3743 154.586 51.3743C151.204 51.3743 148.457 48.6388 148.457 45.27C148.457 41.9007 151.204 39.1653 154.586 39.1653ZM154.586 40.6769C152.188 40.6769 150.241 42.7347 150.241 45.27C150.241 47.8048 152.188 49.8627 154.586 49.8627C156.984 49.8627 158.931 47.8048 158.931 45.27C158.931 42.7347 156.984 40.6769 154.586 40.6769Z" fill="#75859B"/>
<path fill-rule="evenodd" clip-rule="evenodd" d="M55.3463 35.3171C58.7045 35.3171 61.4274 38.0884 61.4274 41.4337V41.438C61.4274 44.7832 58.7045 47.6802 55.3463 47.6802H52.6251V50.9494H49.2696V35.3171H55.3463ZM58.0983 41.434C58.0983 39.7723 56.8603 38.3659 55.1918 38.3659H52.6251V44.6314H55.1918C56.8603 44.6314 58.0983 43.4103 58.0983 41.4376V41.434ZM68.7733 39.1101C72.1047 39.1101 74.8094 41.8046 74.8094 45.123C74.8094 48.4418 72.1047 51.1358 68.7733 51.1358C65.4415 51.1358 62.7368 48.4418 62.7368 45.123C62.7368 41.8046 65.4415 39.1101 68.7733 39.1101ZM68.7733 41.7253C67.0788 41.7253 65.8108 43.2476 65.8108 45.123C65.8108 46.9984 67.0788 48.521 68.7733 48.521C70.4673 48.521 71.6794 46.9984 71.6794 45.123C71.6794 43.2476 70.4673 41.7253 68.7733 41.7253ZM85.3799 50.2931C84.4772 50.8284 83.4233 51.1358 82.2976 51.1358C78.9661 51.1358 76.2615 48.4418 76.2615 45.123C76.2615 41.8046 78.9661 39.1101 82.2976 39.1101C83.4181 39.1101 84.4678 39.4152 85.3676 39.9461C85.7401 40.1633 86.4693 40.7261 86.9155 41.4853L84.914 43.4328C84.3838 42.4127 83.4363 41.7253 82.2976 41.7253C80.6035 41.7253 79.3556 43.2476 79.3556 45.123C79.3556 46.9984 80.6035 48.521 82.2976 48.521C83.4363 48.521 84.3838 47.8332 84.914 46.8135L86.9127 48.7579C86.4662 49.5147 85.7389 50.0751 85.3673 50.2919L85.3799 50.2931ZM91.5267 44.1368L93.1514 42.1037L95.8869 39.3403H99.8509L94.3978 44.9085L100.314 50.9494H96.3496L92.416 46.9325L91.7853 47.4304L91.7774 50.9494H88.8299V35.3171H91.7774V40.8838L91.5267 44.1368ZM106.093 51.1894C102.748 51.1252 100.057 48.4418 100.057 45.123C100.057 41.8046 102.762 39.1101 106.093 39.1101C109.425 39.1101 112.13 41.8046 112.13 45.123C112.13 45.4588 112.102 45.7883 112.048 46.1091H103.041C103.424 47.5045 104.699 48.521 106.134 48.5565C107.489 48.5541 108.614 48.2321 109.51 47.4505L111.303 49.3034C111.204 49.4094 111.102 49.5099 110.996 49.6053C109.775 50.7074 108.103 51.1914 106.093 51.1894ZM109.107 44.1368C108.725 42.7419 107.477 41.6792 106.093 41.6792C104.709 41.6792 103.424 42.7419 103.041 44.1368H109.107ZM122.082 50.1437L121.672 50.3617C118.777 51.9564 114.91 51.3155 114.751 47.4505L114.727 46.698V41.7234H112.822V39.3533H114.805L115.027 35.3171H117.59V39.3533H120.562V41.7234H117.59V46.9085H117.599C117.586 48.9242 119.199 48.6991 120.076 48.1457L122.082 50.1437Z" fill="#A1B0C5"/>
<path fill-rule="evenodd" clip-rule="evenodd" d="M24.0519 32.4015C28.5991 34.3441 31.7115 38.4797 31.7115 43.2541C31.7115 48.0304 28.598 52.166 24.0508 54.1067C19.5046 52.166 16.39 48.0304 16.39 43.2541C16.39 38.4788 19.5046 34.3432 24.0519 32.4015Z" fill="#79899F"/>
<path fill-rule="evenodd" clip-rule="evenodd" d="M24.0511 32.4011C25.6269 31.5569 27.4244 31.1061 29.3256 31.1061C35.9341 31.1061 41.2989 36.5494 41.2989 43.2547C41.2989 49.9591 35.9341 55.4024 29.3256 55.4024C27.4244 55.4024 25.6269 54.9526 24.0501 54.1073C28.0243 52.1656 30.7469 48.0301 30.7469 43.2547C30.7469 38.4794 28.0252 34.3438 24.0511 32.4011Z" fill="#D7DEE8"/>
<path fill-rule="evenodd" clip-rule="evenodd" d="M24.0495 54.1058C22.4727 54.951 20.6743 55.4019 18.774 55.4019H11.7077L8.52728 58.6289C8.23841 58.922 7.80367 59.0097 7.42555 58.851C7.04743 58.6922 6.80078 58.3183 6.80078 57.9025V32.6732C6.80078 31.8076 7.49273 31.1055 8.3459 31.1055H18.8124C20.7002 31.1113 22.4852 31.5622 24.0505 32.4006C20.0754 34.3423 17.3527 38.4778 17.3527 43.2532C17.3527 48.0295 20.0754 52.1651 24.0495 54.1058Z" fill="#A1B0C5"/>
</svg>
