<svg xmlns="http://www.w3.org/2000/svg" width="20" height="20" fill="none"><path fill="#090C21" d="M9.4 11.588a.6.6 0 1 0 1.2 0zm.6-.794v-.6a.6.6 0 0 0-.6.6zM6.753 8.412a.6.6 0 0 0 1.2 0zm3.25 7.284c.714 0 1.294-.58 1.294-1.295h-1.2a.095.095 0 0 1-.095.095zm1.294-1.295c0-.715-.58-1.295-1.295-1.295v1.2c.052 0 .095.042.095.095zm-1.295-1.295c-.715 0-1.295.58-1.295 1.295h1.2c0-.053.043-.095.095-.095zM8.707 14.4c0 .715.58 1.295 1.295 1.295v-1.2a.095.095 0 0 1-.095-.095zm1.893-2.813v-.794H9.4v.794zm-.6-.194c1.82 0 3.247-1.541 3.247-3.38h-1.2c0 1.232-.944 2.18-2.047 2.18zm3.247-3.38c0-1.837-1.427-3.379-3.247-3.379v1.2c1.103 0 2.047.949 2.047 2.18zM10 4.636c-1.82 0-3.247 1.542-3.247 3.38h1.2c0-1.231.944-2.18 2.047-2.18zm-3.247 3.38v.397h1.2v-.397zM10 19.6a9.6 9.6 0 0 0 9.6-9.6h-1.2a8.4 8.4 0 0 1-8.4 8.4zm9.6-9.6A9.6 9.6 0 0 0 10 .4v1.2a8.4 8.4 0 0 1 8.4 8.4zM10 .4A9.6 9.6 0 0 0 .4 10h1.2A8.4 8.4 0 0 1 10 1.6zM.4 10a9.6 9.6 0 0 0 9.6 9.6v-1.2A8.4 8.4 0 0 1 1.6 10z"/></svg>