<svg width="135" height="18" viewBox="0 0 135 18" fill="none" xmlns="http://www.w3.org/2000/svg">
<path d="M6.44688 17.4727C3.07188 17.4727 0.821877 16.0664 0.165627 14.1445C0.0601578 13.8633 0.00156403 13.5586 0.00156403 13.2773C0.00156403 12.4336 0.540627 11.8945 1.3375 11.8945C2.00547 11.8945 2.42735 12.1641 2.75547 12.8438C3.28281 14.3086 4.73594 14.9648 6.54063 14.9648C8.57969 14.9648 10.0094 13.957 10.0094 12.5508C10.0094 11.332 9.16563 10.582 6.9625 10.125L5.1461 9.75C1.75938 9.05859 0.177345 7.46484 0.177345 4.99219C0.177345 2.01562 2.79063 0 6.4586 0C9.44688 0 11.7672 1.33594 12.4586 3.57422C12.5289 3.76172 12.5641 3.98438 12.5641 4.26562C12.5641 5.00391 12.0367 5.50781 11.2516 5.50781C10.5484 5.50781 10.1148 5.20312 9.79844 4.54688C9.22422 3.11719 8.01719 2.50781 6.43516 2.50781C4.56016 2.50781 3.22422 3.39844 3.22422 4.81641C3.22422 5.96484 4.06797 6.70312 6.17735 7.14844L7.99375 7.52344C11.5563 8.26172 13.0563 9.69141 13.0563 12.1992C13.0563 15.4336 10.5133 17.4727 6.44688 17.4727ZM20.0177 17.4375C16.3848 17.4375 14.0411 14.9766 14.0411 10.9922C14.0411 7.03125 16.3731 4.51172 19.9942 4.51172C22.4317 4.51172 24.5059 5.76562 25.1036 7.51172C25.1973 7.75781 25.2559 8.00391 25.2559 8.21484C25.2559 8.94141 24.7052 9.38672 24.002 9.38672C23.4161 9.38672 23.0645 9.14062 22.7247 8.55469C22.1036 7.41797 21.2833 6.87891 20.0763 6.87891C18.2013 6.87891 17.0059 8.4375 17.0059 10.9805C17.0059 13.5586 18.213 15.082 20.0645 15.082C21.3536 15.082 22.1505 14.4844 22.713 13.4883C23.1114 12.832 23.4278 12.5859 24.0606 12.5859C24.752 12.5859 25.2911 13.0547 25.2911 13.7812C25.2911 14.0039 25.2325 14.25 25.1153 14.5312C24.4239 16.2305 22.3614 17.4375 20.0177 17.4375ZM28.3267 17.4258C27.4713 17.4258 26.8619 16.875 26.8619 15.8906V1.54688C26.8619 0.621094 27.4127 0.046875 28.3033 0.046875C29.2056 0.046875 29.7447 0.621094 29.7447 1.54688V6.90234H29.8033C30.4713 5.39062 31.8423 4.53516 33.7291 4.53516C36.4713 4.53516 38.0767 6.33984 38.0767 9.1875V15.8906C38.0767 16.875 37.4673 17.4258 36.6119 17.4258C35.7564 17.4258 35.1588 16.875 35.1588 15.8906V9.78516C35.1588 8.05078 34.2916 7.00781 32.6041 7.00781C30.8463 7.00781 29.7798 8.22656 29.7798 10.0547V15.8906C29.7798 16.875 29.1822 17.4258 28.3267 17.4258ZM45.4366 17.4375C41.792 17.4375 39.4248 15.0117 39.4248 10.9805C39.4248 6.97266 41.8155 4.51172 45.4366 4.51172C49.0577 4.51172 51.4483 6.96094 51.4483 10.9805C51.4483 15.0117 49.0811 17.4375 45.4366 17.4375ZM45.4366 15.1289C47.2881 15.1289 48.4834 13.6289 48.4834 10.9805C48.4834 8.34375 47.2881 6.83203 45.4366 6.83203C43.5967 6.83203 42.3897 8.34375 42.3897 10.9805C42.3897 13.6289 43.585 15.1289 45.4366 15.1289ZM58.3394 17.4375C54.6948 17.4375 52.3277 15.0117 52.3277 10.9805C52.3277 6.97266 54.7183 4.51172 58.3394 4.51172C61.9605 4.51172 64.3511 6.96094 64.3511 10.9805C64.3511 15.0117 61.9839 17.4375 58.3394 17.4375ZM58.3394 15.1289C60.1909 15.1289 61.3863 13.6289 61.3863 10.9805C61.3863 8.34375 60.1909 6.83203 58.3394 6.83203C56.4995 6.83203 55.2925 8.34375 55.2925 10.9805C55.2925 13.6289 56.4878 15.1289 58.3394 15.1289ZM67.293 17.4258C66.4375 17.4258 65.8281 16.875 65.8281 15.8906V1.58203C65.8281 0.597656 66.4375 0.046875 67.293 0.046875C68.1484 0.046875 68.7461 0.597656 68.7461 1.58203V15.8906C68.7461 16.875 68.1484 17.4258 67.293 17.4258ZM82.7978 17.4727C77.8642 17.4727 74.7939 14.1211 74.7939 8.67188C74.7939 3.30469 77.8525 0 82.7392 0C85.9267 0 88.4697 1.54688 89.4072 3.72656C89.583 4.125 89.6298 4.42969 89.6298 4.73438C89.6298 5.53125 89.1025 6.05859 88.2939 6.05859C87.6377 6.05859 87.1806 5.76562 86.8056 5.08594C85.9619 3.41016 84.5908 2.56641 82.7509 2.56641C79.7041 2.56641 77.8877 4.82812 77.8877 8.63672C77.8877 12.5273 79.7861 14.9062 82.833 14.9062C85.3877 14.9062 87.1572 13.2891 87.2041 10.9219L87.2158 10.6406H84.2158C83.4658 10.6406 82.9502 10.1953 82.9502 9.48047C82.9502 8.76562 83.4658 8.33203 84.2158 8.33203H88.6689C89.6064 8.33203 90.1689 8.91797 90.1689 9.90234V10.2539C90.1689 14.6484 87.4736 17.4727 82.7978 17.4727ZM95.4428 17.3906C93.0405 17.3906 91.2944 15.8789 91.2944 13.6406C91.2944 11.4375 92.9936 10.1133 96.017 9.92578L99.31 9.73828V8.84766C99.31 7.54688 98.4311 6.79688 96.9897 6.79688C95.853 6.79688 95.1147 7.18359 94.3881 8.25C94.0834 8.64844 93.6967 8.83594 93.2045 8.83594C92.4897 8.83594 91.9741 8.36719 91.9741 7.66406C91.9741 7.39453 92.0444 7.13672 92.1733 6.86719C92.8061 5.42578 94.728 4.51172 97.1069 4.51172C100.189 4.51172 102.193 6.14062 102.193 8.63672V15.9609C102.193 16.8984 101.595 17.4258 100.775 17.4258C99.978 17.4258 99.4272 16.9453 99.3803 16.0781V15.2109H99.3217C98.6069 16.5586 97.0483 17.3906 95.4428 17.3906ZM96.3334 15.1875C97.9741 15.1875 99.31 14.0859 99.31 12.5859V11.6367L96.4272 11.8125C95.0209 11.9062 94.2123 12.5391 94.2123 13.5234C94.2123 14.543 95.0678 15.1875 96.3334 15.1875ZM105.521 17.4258C104.643 17.4258 104.068 16.8633 104.068 15.8906V6.01172C104.068 5.0625 104.643 4.52344 105.463 4.52344C106.283 4.52344 106.869 5.0625 106.869 6.01172V6.92578H106.928C107.467 5.48438 108.779 4.53516 110.467 4.53516C112.225 4.53516 113.478 5.4375 113.935 7.03125H114.006C114.603 5.49609 116.08 4.53516 117.873 4.53516C120.322 4.53516 121.928 6.1875 121.928 8.67188V15.8906C121.928 16.8633 121.342 17.4258 120.475 17.4258C119.596 17.4258 119.01 16.8633 119.01 15.8906V9.38672C119.01 7.86328 118.213 6.99609 116.783 6.99609C115.377 6.99609 114.416 8.02734 114.416 9.51562V15.8906C114.416 16.8633 113.865 17.4258 112.998 17.4258C112.119 17.4258 111.58 16.8633 111.58 15.8906V9.23438C111.58 7.85156 110.736 6.99609 109.377 6.99609C107.971 6.99609 106.986 8.08594 106.986 9.58594V15.8906C106.986 16.8633 106.389 17.4258 105.521 17.4258ZM129.311 17.4375C125.514 17.4375 123.276 15.0586 123.276 11.0273C123.276 7.06641 125.561 4.51172 129.147 4.51172C132.545 4.51172 134.866 6.92578 134.866 10.3008C134.866 11.168 134.373 11.6836 133.506 11.6836H126.182V11.7773C126.182 13.8516 127.389 15.1875 129.287 15.1875C130.6 15.1875 131.455 14.7305 132.393 13.5352C132.698 13.1953 132.967 13.0664 133.377 13.0664C134.034 13.0664 134.549 13.4883 134.549 14.1914C134.549 14.4141 134.479 14.6719 134.35 14.9297C133.53 16.5117 131.678 17.4375 129.311 17.4375ZM126.205 9.76172H132.006C131.948 7.95703 130.799 6.77344 129.159 6.77344C127.518 6.77344 126.323 7.98047 126.205 9.76172Z" fill="white"/>
</svg>
