<svg width="122" height="28" viewBox="0 0 122 28" fill="none" xmlns="http://www.w3.org/2000/svg">
<g clip-path="url(#clip0_5077_137)">
<path d="M29.3754 13.8919C28.1129 12.5135 26.4935 11.764 25.123 11.2725C25.7542 9.90792 26.2332 8.58177 26.5875 7.22543C27.0139 5.62471 27.1053 3.44467 26.0726 2.12402C25.5217 1.4074 24.6967 1.03125 23.6973 1.03125C21.358 1.11362 19.3868 2.35465 17.5624 3.6149C16.837 4.13108 16.1117 4.71591 15.2285 5.49292C12.1195 2.71433 9.37329 1.25365 6.84015 1.034H6.71833C5.72169 1.03125 4.90223 1.4074 4.35131 2.12127C3.32421 3.44467 3.41003 5.62471 3.83637 7.22817C4.17966 8.55432 4.66414 9.90792 5.28981 11.2505C3.5706 11.9013 2.15038 12.7799 1.06238 13.8726C0.226303 14.8062 -0.122522 15.8577 0.0380481 16.9395C0.226303 18.2108 1.10667 19.4765 2.42169 20.3853V20.3935L2.77606 20.6324C3.19963 20.896 3.63704 21.1431 4.09107 21.371C3.8253 22.3237 3.66749 23.26 3.60659 24.1606C3.58722 25.3741 3.90559 26.3104 4.55341 26.9666C5.16246 27.5816 6.0373 27.9029 7.07547 27.9029C7.71498 27.9029 8.40156 27.7793 9.05768 27.5432C11.1091 26.8266 13.1218 25.6405 15.2036 23.9107C17.2745 25.6377 19.2899 26.8238 21.3496 27.5405C22.003 27.7766 22.6896 27.9001 23.3319 27.9001C24.3672 27.9001 25.2393 27.5789 25.8484 26.9666C26.4989 26.3104 26.8202 25.3714 26.8007 24.1715C26.7731 23.2847 26.6235 22.3594 26.3329 21.3545C26.7647 21.1349 27.1966 20.8932 27.6285 20.6269C29.1429 19.6934 30.1699 18.3151 30.3748 16.9368C30.5326 15.8577 30.1865 14.8062 29.3699 13.8864M12.8782 23.5483C10.5748 25.3055 8.44863 26.3241 6.82077 26.4477C6.08436 26.4092 5.56666 26.1704 5.24275 25.7201C4.7029 24.9733 4.66137 23.6416 5.1154 21.835C7.33017 22.7823 9.83285 23.3341 12.8809 23.5483M10.7354 19.4875C11.4607 20.3084 12.1528 21.0497 12.8311 21.7252C10.118 21.5385 7.59594 21.025 5.59434 20.2535C5.98746 19.1251 6.43318 18.1805 6.67957 17.6918C7.00349 17.0439 7.36339 16.3794 7.80634 15.6463C8.64241 16.8764 9.60307 18.1366 10.7381 19.4902M7.3357 11.6761C8.18285 11.4263 9.06599 11.2148 9.96573 11.0556C9.76641 11.3027 8.64795 12.7744 8.28529 13.2768C7.94477 12.7332 7.62916 12.2005 7.33848 11.6761M23.0772 11.6761C22.7699 12.2198 22.4543 12.7524 22.122 13.2796C21.596 12.5273 21.0368 11.7805 20.4499 11.0556C21.3496 11.2176 22.2245 11.4263 23.0799 11.6761M23.5561 10.7893L23.5256 10.781C22.2605 10.4351 20.9371 10.1825 19.6055 10.0123L19.5308 9.92714L19.3564 9.72122C19.3564 9.72122 16.4301 6.62413 15.8874 6.12442C16.6239 5.5094 17.363 4.95203 18.0967 4.45232C19.5584 3.45565 21.8369 2.29425 23.4592 2.29425C24.2981 2.29425 25.422 2.54135 25.5051 4.69943C25.422 6.34682 24.7493 8.46097 23.5534 10.7865M18.3819 9.90517C14.3898 9.67729 12.2553 9.89145 12.0282 9.90517C12.1944 9.72122 14.3538 7.45606 15.2009 6.70101C15.7823 7.21719 17.9195 9.39448 18.3819 9.90517ZM11.0565 9.71847L10.9015 9.89694L10.8046 10.0177C9.37606 10.1797 8.04719 10.4296 6.84569 10.7591C5.65247 8.43625 4.98251 6.33584 4.905 4.66923C4.98529 2.53861 6.10651 2.28601 6.94812 2.28601C8.57321 2.28601 10.8461 3.44742 12.3051 4.44409C13.0442 4.94929 13.7973 5.51214 14.5309 6.12717C13.6533 6.9289 11.0593 9.71847 11.0593 9.71847M11.2281 10.8524C14.2209 10.5477 16.5381 10.5779 19.1875 10.8497L19.6221 11.3878C20.3253 12.2609 20.9898 13.167 21.6016 14.0813C19.7966 16.7858 17.5457 19.4353 15.2036 21.5961C12.8698 19.4381 10.619 16.7885 8.80852 14.0813C9.21272 13.4855 10.8488 11.3164 11.231 10.8524M22.6092 15.6463C23.0467 16.3794 23.4094 17.0439 23.7305 17.6891C23.9769 18.1751 24.4226 19.1196 24.8213 20.2508C22.8169 21.025 20.292 21.5385 17.579 21.7279C18.2517 21.058 18.9383 20.3222 19.6691 19.4985C20.8209 18.1201 21.7843 16.8571 22.6065 15.6463M5.75491 12.2198C6.20064 13.0846 6.68788 13.933 7.23881 14.7924C6.07606 16.5716 5.20676 18.2327 4.5977 19.8389C3.50693 19.3227 2.62656 18.7214 1.98428 18.057C1.37244 17.2827 1.16481 16.5222 1.37244 15.7671C1.72404 14.5124 3.35189 13.1999 5.75491 12.2198ZM25.303 21.8295C25.757 23.6361 25.7155 24.976 25.1784 25.7173C24.8545 26.1621 24.3423 26.4038 23.6143 26.4477C21.9864 26.3351 19.8547 25.3137 17.5375 23.5455C20.5883 23.3314 23.091 22.7768 25.303 21.8295ZM23.1602 14.8062C23.7194 13.9303 24.2261 13.0599 24.6552 12.2088C26.0449 12.7744 28.5559 14.0209 29.0405 15.7534C29.2481 16.5057 29.0432 17.2663 28.4065 18.079L28.3871 18.1009C27.742 18.7516 26.8727 19.3365 25.8097 19.8389C25.4331 18.8944 24.9902 18.0021 24.597 17.2388C24.1845 16.47 23.7139 15.6738 23.1574 14.8034" fill="#090C21"/>
<path d="M39.3555 18.6777C39.7043 18.7521 40.0891 18.8128 40.5154 18.8734C40.8781 18.9175 41.3099 18.9643 41.7972 19.0002C42.2926 19.0332 42.8353 19.0525 43.4249 19.0525C44.0699 19.0525 44.5848 19.0305 44.9613 18.9891C45.3434 18.945 45.6258 18.8734 45.8196 18.7687C46.0161 18.6667 46.1379 18.5234 46.1933 18.3471C46.2459 18.168 46.2763 17.9448 46.2763 17.6692C46.2763 17.5259 46.2652 17.3992 46.2459 17.2807C46.2238 17.1649 46.1822 17.0547 46.102 16.9583C46.03 16.8646 45.9165 16.7819 45.7725 16.713C45.6258 16.6441 45.4293 16.5918 45.1884 16.5587L42.5751 16.1178C41.9743 16.0241 41.4732 15.9001 41.0607 15.7431C40.6538 15.5887 40.3216 15.3793 40.0724 15.1203C39.8261 14.8558 39.649 14.5389 39.5437 14.1586C39.4385 13.7756 39.3804 13.3099 39.3804 12.7588C39.3804 11.5739 39.815 10.6921 40.6898 10.1106C41.559 9.52371 42.802 9.23438 44.4188 9.23438C44.9863 9.23438 45.5095 9.26468 45.9856 9.32806C46.4645 9.38868 46.877 9.46033 47.237 9.53473C47.6439 9.62567 48.0176 9.71936 48.3582 9.82407V11.6538C47.9816 11.5932 47.5886 11.5436 47.1761 11.5022C46.8217 11.4636 46.423 11.4306 45.9856 11.392C45.5511 11.3589 45.1026 11.3396 44.6568 11.3396C44.1474 11.3396 43.7156 11.3617 43.3751 11.3948C43.0402 11.4361 42.7716 11.505 42.5751 11.5932C42.3785 11.6868 42.2401 11.8081 42.1599 11.9541C42.085 12.1002 42.0435 12.2848 42.0435 12.5025C42.0435 12.6706 42.0574 12.8249 42.0934 12.9599C42.121 13.0977 42.1875 13.2189 42.2899 13.3237C42.3951 13.4284 42.5363 13.5221 42.7218 13.602C42.8989 13.6819 43.1453 13.7453 43.4498 13.7949L46.1629 14.2523C46.6888 14.3487 47.1373 14.47 47.5027 14.616C47.8681 14.7676 48.1671 14.9687 48.3969 15.225C48.6238 15.4813 48.79 15.8064 48.8924 16.206C48.9949 16.6 49.0447 17.085 49.0447 17.6609C49.0447 18.2369 48.9893 18.7053 48.8675 19.1379C48.7402 19.5733 48.4965 19.9398 48.1228 20.2402C47.7573 20.5405 47.2286 20.7692 46.5503 20.9318C45.8722 21.0944 44.9752 21.1688 43.8651 21.1688C43.2505 21.1688 42.672 21.1302 42.1239 21.0586C41.584 20.9787 41.1051 20.896 40.6954 20.8023C40.2164 20.6976 39.7652 20.5763 39.3583 20.4413V18.664L39.3555 18.6777Z" fill="#090C21"/>
<path d="M52.3086 4.21875H55.1211V13.6814H56.9704L60.226 9.55906H63.4289L59.1685 14.825L63.4511 20.8514H60.2482L56.6355 15.7867H55.1211V20.8514H52.3086V4.21875Z" fill="#090C21"/>
<path d="M65.916 24.0927C66.1567 24.1147 66.5277 24.1257 67.015 24.1257C67.2835 24.1257 67.516 24.0982 67.7209 24.0513C67.9175 24.0017 68.0918 23.9191 68.2385 23.8061C68.3853 23.6931 68.5154 23.5471 68.6316 23.3817C68.7452 23.2081 68.8503 22.9987 68.9556 22.7507L69.7224 20.8521H68.5127L64.1719 9.5625H67.2946L70.5002 18.6146H70.5944L73.8112 9.5625H76.909L71.5634 23.1944C71.3418 23.751 71.1149 24.2194 70.8796 24.6052C70.6498 24.9855 70.3951 25.2941 70.1238 25.5311C69.8525 25.7653 69.5563 25.9362 69.2407 26.0464C68.9196 26.1511 68.568 26.209 68.1915 26.209C67.7569 26.209 67.3804 26.1897 67.051 26.1538C66.727 26.1153 66.4474 26.0712 66.2149 26.0271C65.9574 25.9665 65.7276 25.9031 65.5284 25.8314V24.0679C65.6418 24.0789 65.7664 24.0899 65.9104 24.0982" fill="#090C21"/>
<path d="M79.9785 23.6739C80.2609 23.729 80.5903 23.7786 80.964 23.8089C81.2768 23.8475 81.6561 23.8778 82.1046 23.9026C82.5502 23.9302 83.0458 23.9412 83.5856 23.9412C84.2501 23.9412 84.7899 23.9191 85.2024 23.8723C85.6149 23.8227 85.9387 23.7455 86.1741 23.6243C86.4038 23.503 86.5644 23.346 86.653 23.1421C86.7388 22.9381 86.7803 22.6846 86.7803 22.3788V20.4058C86.4259 20.5408 86.055 20.662 85.6591 20.775C85.3103 20.8659 84.92 20.9514 84.4853 21.023C84.0424 21.1029 83.5828 21.136 83.1039 21.136C82.2818 21.136 81.5675 21.034 80.9696 20.8301C80.3771 20.6262 79.8844 20.29 79.5051 19.8188C79.1259 19.3476 78.8379 18.7331 78.6579 17.9698C78.4781 17.2065 78.3867 16.2669 78.3867 15.1536C78.3867 14.236 78.4836 13.4204 78.6801 12.6957C78.8767 11.9737 79.1673 11.362 79.5493 10.8577C79.9314 10.3534 80.402 9.97039 80.9696 9.70034C81.5315 9.43305 82.1821 9.30078 82.9185 9.30078C83.5414 9.30078 84.1088 9.35589 84.6266 9.46887C85.1414 9.58185 85.5899 9.70585 85.9664 9.84363C86.401 10.0062 86.7941 10.1908 87.1513 10.3892L87.4696 9.55429H89.5957V22.5358C89.5957 23.2137 89.4905 23.7869 89.2717 24.2553C89.0531 24.7265 88.7319 25.1013 88.289 25.3879C87.8516 25.6772 87.3062 25.8866 86.653 26.0106C85.9996 26.1374 85.2356 26.198 84.3691 26.198C83.8181 26.198 83.2811 26.1594 82.7607 26.096C82.243 26.0244 81.7751 25.9528 81.3516 25.8618C80.8671 25.7709 80.4076 25.6634 79.9813 25.5311V23.6711L79.9785 23.6739ZM84.095 18.8571C84.4272 18.8571 84.7511 18.8434 85.0722 18.8186C85.3934 18.791 85.6758 18.7662 85.9249 18.7276C86.2266 18.689 86.5145 18.6422 86.7775 18.5898V12.1225C86.4703 12.026 86.1381 11.9351 85.7837 11.8552C85.4847 11.7836 85.1414 11.7202 84.7566 11.6623C84.3663 11.6017 83.9704 11.5714 83.5579 11.5714C83.1454 11.5714 82.7911 11.6348 82.5087 11.756C82.2264 11.88 81.9938 12.0784 81.8222 12.365C81.6533 12.6543 81.5232 13.0291 81.4512 13.5003C81.371 13.9715 81.3377 14.5557 81.3377 15.2556C81.3377 15.8976 81.3599 16.4488 81.407 16.9034C81.4568 17.3664 81.5703 17.7356 81.7502 18.0249C81.9357 18.3143 82.207 18.5237 82.5807 18.656C82.9462 18.7882 83.4527 18.8544 84.0922 18.8544" fill="#090C21"/>
<path d="M92.7969 15.0829C92.7969 13.9062 92.9629 12.939 93.3034 12.184C93.6439 11.4235 94.0924 10.8255 94.6544 10.3956C95.2136 9.96024 95.8531 9.65989 96.5701 9.49455C97.2871 9.32646 98.0234 9.23828 98.7848 9.23828C99.7371 9.23828 100.526 9.35953 101.152 9.591C101.778 9.82798 102.279 10.1559 102.652 10.583C103.023 11.0074 103.283 11.5144 103.43 12.1068C103.583 12.702 103.657 13.3524 103.657 14.0688C103.657 14.3995 103.643 14.7467 103.616 15.1077C103.585 15.4659 103.546 15.8296 103.502 16.2099H95.6842C95.6925 16.7169 95.7562 17.1413 95.8697 17.4885C95.9832 17.8302 96.1714 18.1168 96.4317 18.3317C96.7002 18.5521 97.0518 18.712 97.4891 18.8057C97.9266 18.9021 98.4719 18.9489 99.1252 18.9489C99.6817 18.9489 100.197 18.9379 100.673 18.9159C101.152 18.8883 101.578 18.8608 101.938 18.8222C102.37 18.7836 102.749 18.7423 103.098 18.6844V20.4618C102.696 20.5968 102.259 20.718 101.783 20.8227C101.382 20.9164 100.914 20.9991 100.377 21.079C99.8395 21.1507 99.2692 21.1892 98.663 21.1892C97.7328 21.1892 96.9023 21.0873 96.1825 20.8723C95.4572 20.6629 94.8454 20.3185 94.3444 19.839C93.8433 19.354 93.4557 18.7257 93.1954 17.9487C92.9298 17.1716 92.7996 16.2182 92.7996 15.0911M101.069 14.3085V13.9035C101.069 13.4709 101.038 13.0988 100.983 12.7792C100.922 12.4596 100.803 12.1978 100.62 11.9883C100.44 11.7789 100.183 11.6274 99.8533 11.5254C99.5211 11.4235 99.0782 11.3739 98.5245 11.3739C97.9349 11.3739 97.4531 11.4345 97.0767 11.5612C96.703 11.688 96.4123 11.8726 96.1992 12.1206C95.9915 12.3659 95.8476 12.669 95.7756 13.0382C95.7009 13.402 95.6593 13.8236 95.6593 14.3058H101.069V14.3085Z" fill="#090C21"/>
<path d="M106.602 9.56068H108.664L109.007 10.3956C109.442 10.1807 109.913 9.98504 110.428 9.8142C110.871 9.67642 111.38 9.54415 111.952 9.4229C112.531 9.30166 113.143 9.23828 113.8 9.23828C115.032 9.23828 115.945 9.52762 116.529 10.1118C117.113 10.6932 117.409 11.6053 117.409 12.8453V20.8531H114.597V13.1567C114.597 12.8646 114.575 12.6166 114.533 12.4017C114.491 12.1923 114.397 12.0214 114.253 11.8892C114.115 11.7569 113.91 11.6604 113.641 11.5915C113.373 11.5282 113.016 11.4979 112.57 11.4979C112.097 11.4979 111.67 11.5199 111.283 11.5778C110.898 11.6329 110.569 11.688 110.295 11.7431C109.973 11.8175 109.68 11.8947 109.417 11.9801V20.8531H106.605V9.56344L106.602 9.56068Z" fill="#090C21"/>
<path d="M119.536 7.28995C119.309 7.28995 119.091 7.24586 118.886 7.16319C118.68 7.07777 118.504 6.96479 118.349 6.81324C118.196 6.66168 118.071 6.49083 117.989 6.29519C117.903 6.09678 117.855 5.88461 117.855 5.66416C117.855 5.44371 117.9 5.22051 117.989 5.02762C118.071 4.82922 118.196 4.65562 118.349 4.50406C118.504 4.3525 118.68 4.23952 118.886 4.1541C119.091 4.07143 119.309 4.02734 119.536 4.02734C119.774 4.02734 119.99 4.07143 120.193 4.1541C120.397 4.23952 120.574 4.35801 120.729 4.50682C120.884 4.65286 121 4.82646 121.089 5.02486C121.175 5.21775 121.216 5.42993 121.216 5.6614C121.216 5.89287 121.175 6.09403 121.089 6.29243C121.003 6.48808 120.884 6.66168 120.729 6.81048C120.574 6.95653 120.397 7.07501 120.193 7.16044C119.987 7.24311 119.774 7.2872 119.536 7.2872M119.539 6.88212C119.714 6.88212 119.874 6.85181 120.029 6.78568C120.182 6.72506 120.312 6.63412 120.431 6.52665C120.547 6.41368 120.638 6.28692 120.702 6.13536C120.765 5.98381 120.799 5.82398 120.799 5.65865C120.799 5.49331 120.765 5.33073 120.702 5.18469C120.638 5.03313 120.547 4.90362 120.431 4.79064C120.314 4.68042 120.182 4.59224 120.029 4.53162C119.874 4.46273 119.711 4.43517 119.539 4.43517C119.367 4.43517 119.198 4.46548 119.049 4.53162C118.894 4.59224 118.761 4.68317 118.645 4.79064C118.531 4.90362 118.437 5.03589 118.376 5.18469C118.307 5.33073 118.274 5.49056 118.274 5.65865C118.274 5.82674 118.307 5.98656 118.376 6.13536C118.437 6.28692 118.531 6.41368 118.645 6.52665C118.761 6.63688 118.894 6.72506 119.049 6.78568C119.201 6.85457 119.362 6.88212 119.539 6.88212ZM119.566 6.5239C119.433 6.5239 119.314 6.50185 119.213 6.45501C119.115 6.41368 119.018 6.34479 118.943 6.25661C118.869 6.16292 118.819 6.06923 118.789 5.96727C118.758 5.86532 118.745 5.7606 118.745 5.65589C118.745 5.54016 118.764 5.43545 118.794 5.33624C118.827 5.23153 118.875 5.1406 118.946 5.05793C119.021 4.967 119.113 4.89535 119.218 4.85402C119.322 4.80993 119.444 4.78513 119.589 4.78513C119.663 4.78513 119.741 4.7934 119.804 4.80717C119.874 4.82095 119.941 4.85126 120.009 4.88984C120.084 4.93393 120.145 4.9918 120.204 5.05517C120.256 5.12682 120.294 5.20122 120.317 5.29491L119.974 5.38584C119.963 5.34727 119.943 5.31144 119.918 5.27287C119.893 5.23429 119.857 5.20398 119.822 5.17918C119.79 5.15162 119.749 5.12958 119.708 5.11855C119.663 5.10478 119.622 5.09651 119.575 5.09651C119.5 5.09651 119.439 5.11029 119.378 5.1406C119.322 5.16815 119.273 5.20398 119.226 5.25633C119.184 5.30869 119.157 5.36931 119.143 5.44096C119.129 5.50985 119.121 5.57874 119.121 5.64763C119.121 5.71927 119.129 5.79367 119.148 5.85705C119.168 5.92869 119.19 5.98381 119.229 6.04167C119.27 6.09403 119.32 6.13261 119.376 6.15741C119.436 6.18496 119.5 6.19874 119.581 6.19874C119.682 6.19874 119.768 6.17118 119.83 6.1271C119.868 6.09954 119.893 6.07198 119.915 6.03616C119.935 6.00585 119.957 5.96727 119.968 5.93145L120.32 6.00585C120.291 6.08852 120.258 6.15741 120.209 6.22354C120.159 6.28416 120.112 6.33652 120.045 6.38061C119.982 6.4247 119.912 6.45501 119.838 6.47705C119.766 6.50461 119.674 6.51563 119.573 6.51563" fill="#090C21"/>
</g>
<defs>
<clipPath id="clip0_5077_137">
<rect width="122" height="28" fill="white"/>
</clipPath>
</defs>
</svg>
