<svg xmlns="http://www.w3.org/2000/svg" width="64" height="64" fill="none"><circle cx="32" cy="32" r="31" fill="#1261FC" stroke="#fff" stroke-width="2"/><path fill="#fff" d="M39.136 44.196c-6.793 3.941-15.494 1.63-19.436-5.163-3.941-6.792-1.63-15.493 5.163-19.434s15.495-1.63 19.436 5.162c3.941 6.793 1.63 15.494-5.163 19.435"/><path fill="#1261FC" d="M27.216 39.22c-.417.213-.889-.162-.804-.64l.904-5.103-3.796-3.628c-.354-.34-.169-.959.307-1.025l5.288-.742 2.364-4.666a.554.554 0 0 1 1 .002l2.35 4.673 5.285.76c.476.068.66.687.303 1.026l-3.807 3.615.887 5.106c.084.478-.39.852-.806.638l-4.735-2.443z"/></svg>