<svg xmlns="http://www.w3.org/2000/svg" width="31" height="31" fill="none"><path fill="#090C21" d="M23.278 28.904C15.875 33.2 6.39 30.681 2.096 23.278-2.2 15.875.319 6.39 7.722 2.096 15.125-2.2 24.61.319 28.904 7.722c4.296 7.403 1.777 16.887-5.626 21.182"/><path fill="#fff" d="M10.287 23.481c-.454.232-.969-.177-.876-.698l.985-5.561-4.137-3.955c-.387-.37-.184-1.044.334-1.116l5.763-.81 2.577-5.085a.604.604 0 0 1 1.09.002l2.56 5.094 5.76.828c.52.073.72.749.33 1.118l-4.149 3.94.968 5.565c.09.521-.425.929-.879.695l-5.16-2.662z"/></svg>