<svg xmlns="http://www.w3.org/2000/svg" width="34" height="26" fill="none"><g clip-path="url(#a)"><rect width="34" height="24.286" y=".857" fill="#1A47B8" rx="3.579"/><path fill="#fff" fill-rule="evenodd" d="M3.617.857H0v4.048l30.364 20.238H34v-4.048z" clip-rule="evenodd"/><path fill="#F93939" d="M1.206.857 34 22.772v2.37h-1.178L0 3.207V.857z"/><path fill="#fff" fill-rule="evenodd" d="M30.762.857H34v4.048S12.968 18.388 3.238 25.143H0v-4.048z" clip-rule="evenodd"/><path fill="#F93939" d="M34 .857h-1.098L0 22.791v2.352h1.206L34 3.223z"/><path fill="#fff" fill-rule="evenodd" d="M12.365.857h9.298v7.491H34v9.299H21.664v7.496h-9.3v-7.496H0V8.348h12.365z" clip-rule="evenodd"/><path fill="#F93939" fill-rule="evenodd" d="M14.316.857h5.368v9.34H34v5.605H19.684v9.34h-5.368v-9.34H0v-5.604h14.316z" clip-rule="evenodd"/></g><defs><clipPath id="a"><rect width="34" height="24.286" y=".857" fill="#fff" rx="3.579"/></clipPath></defs></svg>