<svg xmlns="http://www.w3.org/2000/svg" width="40" height="29" fill="none"><g filter="url(#a)"><g clip-path="url(#b)"><rect width="34" height="22.615" x="3" y="1.692" fill="#fff" rx="2.833"/><path fill="#B31942" d="M37 1.692H3v22.616h34z"/><path fill="#090C21" d="M3 4.302h34zm34 3.48H3zM3 11.26h34zm34 3.479H3zM3 18.22h34zm34 3.479H3z"/><path stroke="#fff" stroke-width="1.74" d="M3 4.302h34m0 3.48H3m0 3.479h34m0 3.479H3m0 3.48h34m0 3.479H3"/><path fill="#0A3161" d="M20.188 1.692H3V13.87h17.188z"/><path fill="#fff" d="m4.433 2.214.409 1.259-1.071-.778h1.323l-1.07.778zm0 2.436.409 1.258L3.77 5.13h1.323l-1.07.778zm0 2.435.409 1.26-1.071-.779h1.323l-1.07.778zm0 2.435.409 1.26L3.77 10h1.323l-1.07.778zm0 2.436.409 1.259-1.071-.778h1.323l-1.07.778zm1.432-8.524.409 1.259-1.071-.778h1.323l-1.07.778zm0 2.436.409 1.258-1.071-.778h1.323l-1.07.778zm0 2.435.409 1.259-1.071-.778h1.323l-1.07.778zm0 2.436.409 1.259-1.071-.778h1.323l-1.07.778zm1.432-8.525.41 1.259-1.072-.778H7.96l-1.071.778zm0 2.436.41 1.258-1.072-.778H7.96l-1.071.778zm0 2.435.41 1.26-1.072-.779H7.96l-1.071.778zm0 2.435.41 1.26L6.634 10H7.96l-1.071.778zm0 2.436.41 1.259-1.072-.778H7.96l-1.071.778zM8.73 3.432l.409 1.259-1.071-.778H9.39l-1.07.778zm0 2.436.409 1.258-1.071-.778H9.39l-1.07.778zm0 2.435.409 1.26-1.071-.779H9.39l-1.07.778zm0 2.436.409 1.259-1.071-.778H9.39l-1.07.778zm1.432-8.525.409 1.259L9.5 2.695h1.324l-1.071.778zm0 2.436.409 1.258L9.5 5.13h1.324l-1.071.778zm0 2.435.409 1.26-1.071-.78h1.324l-1.071.778zm0 2.435.409 1.26L9.5 10h1.324l-1.071.778zm0 2.436.409 1.259-1.071-.778h1.324l-1.071.778zm1.432-8.524.41 1.259-1.072-.778h1.324l-1.07.778zm0 2.436.41 1.258-1.072-.778h1.324l-1.07.778zm0 2.435.41 1.26-1.072-.779h1.324l-1.07.778zm0 2.436.41 1.259-1.072-.778h1.324l-1.07.778zm1.432-8.525.41 1.259-1.072-.778h1.324l-1.07.778zm0 2.436.41 1.258-1.072-.778h1.324l-1.07.778zm0 2.435.41 1.26-1.072-.779h1.324l-1.07.778zm0 2.435.41 1.26-1.073-.78h1.324l-1.07.778zm0 2.436.41 1.259-1.072-.778h1.324l-1.07.778zm1.433-8.524.409 1.259-1.07-.778h1.323l-1.071.778zm0 2.436.409 1.258-1.07-.778h1.323l-1.071.778zm0 2.435.409 1.259-1.07-.778h1.323l-1.071.778zm0 2.436.409 1.259-1.07-.778h1.323l-1.071.778zm1.431-8.525.41 1.259-1.071-.778h1.323l-1.07.778zm0 2.436.41 1.258-1.071-.778h1.323l-1.07.778zm0 2.435.41 1.26-1.071-.779h1.323l-1.07.778zm0 2.435.41 1.26-1.071-.78h1.323l-1.07.778zm0 2.436.41 1.259-1.071-.778h1.323l-1.07.778zm1.433-8.524.409 1.259-1.071-.778h1.323l-1.07.778zm0 2.436.409 1.258-1.071-.778h1.323l-1.07.778zm0 2.435.409 1.26-1.071-.779h1.323l-1.07.778zm0 2.436.409 1.259-1.071-.778h1.323l-1.07.778zm1.433-8.525.409 1.259-1.071-.778h1.323l-1.07.778zm-.001 2.436.41 1.258-1.072-.778h1.324l-1.07.778zm0 2.435.41 1.26-1.072-.779h1.324l-1.07.778zm0 2.435.41 1.26-1.073-.78h1.324l-1.07.778zm0 2.436.41 1.259-1.072-.778h1.324l-1.07.778z"/></g><rect width="34" height="22.615" x="3" y="1.692" stroke="#A8B7D4" stroke-linejoin="round" stroke-width=".097" rx="2.833"/></g><defs><clipPath id="b"><rect width="34" height="22.615" x="3" y="1.692" fill="#fff" rx="2.833"/></clipPath><filter id="a" width="38.763" height="27.378" x=".618" y=".866" color-interpolation-filters="sRGB" filterUnits="userSpaceOnUse"><feFlood flood-opacity="0" result="BackgroundImageFix"/><feColorMatrix in="SourceAlpha" result="hardAlpha" values="0 0 0 0 0 0 0 0 0 0 0 0 0 0 0 0 0 0 127 0"/><feOffset dy="1.555"/><feGaussianBlur stdDeviation="1.167"/><feComposite in2="hardAlpha" operator="out"/><feColorMatrix values="0 0 0 0 0.258824 0 0 0 0 0.278431 0 0 0 0 0.298039 0 0 0 0.08 0"/><feBlend in2="BackgroundImageFix" result="effect1_dropShadow_1220_2753"/><feColorMatrix in="SourceAlpha" result="hardAlpha" values="0 0 0 0 0 0 0 0 0 0 0 0 0 0 0 0 0 0 127 0"/><feOffset/><feGaussianBlur stdDeviation=".097"/><feComposite in2="hardAlpha" operator="out"/><feColorMatrix values="0 0 0 0 0.258824 0 0 0 0 0.278431 0 0 0 0 0.298039 0 0 0 0.32 0"/><feBlend in2="effect1_dropShadow_1220_2753" result="effect2_dropShadow_1220_2753"/><feBlend in="SourceGraphic" in2="effect2_dropShadow_1220_2753" result="shape"/></filter></defs></svg>