<svg xmlns="http://www.w3.org/2000/svg" width="97" height="24" fill="none"><path fill="#090C21" d="M1.39.136C.86.487.843.902 1.326 2.34c.257.782 1.656 5.06 3.119 9.498C7.37 20.68 7.178 20.28 8.48 20.28c1.062 0 1.174-.224 3.377-6.864 1.125-3.384 2.09-6.193 2.154-6.257.048-.064 1.061 2.745 2.235 6.257 1.174 3.496 2.25 6.449 2.396 6.576.353.288 1.897.272 2.202-.031.21-.224 6.367-18.692 6.367-19.123 0-.112-.145-.336-.322-.511-.257-.256-.53-.32-1.527-.32C24.3.009 24.14.04 23.93.36c-.129.207-1.11 3.16-2.187 6.592-1.077 3.416-1.993 6.257-2.025 6.29-.016.015-.997-2.826-2.155-6.354-1.157-3.511-2.218-6.512-2.347-6.64-.37-.351-2.026-.32-2.347.032-.145.16-1.19 3.113-2.316 6.544-1.125 3.448-2.106 6.274-2.154 6.274s-.98-2.826-2.074-6.274C5.233 3.393 4.236.44 4.091.28 3.898.072 3.593.009 2.708.009c-.627 0-1.221.063-1.318.127m27.429.192c-.322.319-.322.527-.322 9.72 0 9.02.016 9.419.306 9.77l.305.383 6.11.032c5.948.048 6.11.032 6.527-.287.386-.288.418-.431.418-1.421s-.032-1.117-.418-1.42c-.418-.32-.61-.336-5.145-.336h-4.727v-5.124l3.586.016c1.961.016 3.698-.032 3.842-.08.306-.111.611-.878.611-1.516 0-.639-.305-1.405-.61-1.517-.145-.047-1.882-.095-3.843-.08l-3.586.017V3.36h4.824c5.723 0 5.466.08 5.466-1.724 0-1.74.466-1.628-6.8-1.628-6.014 0-6.239.015-6.544.319m41.464 8.205c-.482.224-.836.958-.707 1.373.289.91 1.318 1.213 2.074.623 1.125-.878-.08-2.634-1.367-1.996M92.888 9.89l-.804.287-.048.973c-.048.926-.064.99-.434.99-.386 0-.402.048-.402.878 0 .814.032.878.386.878.386 0 .386 0 .45 2.107.048 1.867.096 2.203.418 2.761.45.783 1.158 1.293 2.122 1.5 1.415.32 1.447.304 1.447-.781v-.958h-.562c-.402 0-.708-.128-.965-.4-.386-.366-.402-.478-.402-2.314v-1.915h.788c.884 0 .98-.112.98-1.134v-.622h-1.768v-1.277c0-1.437.032-1.405-1.206-.974m-45.821 2.283a4.8 4.8 0 0 0-.933.495c-.257.16-.482.287-.498.255a2.5 2.5 0 0 1-.241-.43c-.145-.256-.338-.352-.74-.352h-.563v11.812h1.93v-4.31l.643.32c2.01 1.021 4.534.207 5.53-1.772.804-1.629.45-3.959-.803-5.124-1.045-.958-2.975-1.357-4.325-.894m2.138 1.788c.868.447 1.206.99 1.286 1.995.113 1.58-.723 2.57-2.186 2.57-1.415 0-2.283-.878-2.283-2.33 0-1.757 1.752-2.97 3.183-2.235m8.634-1.708c-.257.127-.756.494-1.077.814-.338.319-.627.542-.66.495-.048-.032-.128-.352-.225-.703-.128-.622-.16-.638-.9-.686l-.756-.048v8.157h1.93v-4.885l.53-.51c.58-.56 1.512-.99 2.123-.99.385 0 .401-.032.401-.958 0-.942-.016-.958-.434-.958a2.7 2.7 0 0 0-.932.272m4.534-.048a4.25 4.25 0 0 0-2.701 4.948c.257 1.165.98 2.075 2.106 2.714.755.415 1.029.495 2.09.495 1.399 0 2.347-.352 3.2-1.214 2.154-2.123 1.286-5.953-1.576-6.927-.868-.288-2.3-.304-3.12-.016m2.62 1.883c.724.495 1.11 1.054 1.19 1.756.113.894-.16 1.644-.804 2.187-.466.415-.691.495-1.366.495-1.045 0-1.672-.367-2.074-1.197-.418-.862-.402-1.596.048-2.395.643-1.133 2.01-1.516 3.006-.846m11.063-1.867c-1.48.542-2.508 1.931-2.653 3.575-.338 3.736 4.116 5.986 7.315 3.688l.676-.48-.644-.59-.659-.575-.61.336c-1.174.654-2.782.399-3.538-.543-.675-.846-.61-.862 2.717-.862h3.055v-.638c0-.783-.482-2.076-1.029-2.794-.627-.798-1.88-1.357-3.055-1.34-.546 0-1.254.111-1.575.223m2.411 1.58c.403.207.997 1.006.997 1.325 0 .16-.498.207-1.929.207-2.235 0-2.363-.111-1.286-1.149.53-.479.771-.606 1.254-.606.321.015.755.095.965.223m6.784-1.484c-2.878 1.292-3.473 5.06-1.11 7.055 1.56 1.325 4.1 1.389 5.612.144.627-.527.579-.67-.37-1.341l-.466-.335-.611.35c-.772.432-1.833.432-2.524.017-1.431-.862-1.35-3.24.145-4.15.707-.416 1.35-.4 2.299.08l.787.382 1.367-1.26-.53-.4c-1.206-.91-3.248-1.149-4.599-.543m-15.434 4.358c0 4.294-.016 4.55-.322 4.933-.177.223-.547.447-.804.51-.466.096-.482.144-.482.99V24l.836-.096c1.045-.128 1.945-.718 2.412-1.596.353-.654.37-.83.418-5.427l.048-4.741h-2.106z"/></svg>