<svg width="142" height="40" viewBox="0 0 142 40" fill="none" xmlns="http://www.w3.org/2000/svg">
<g clip-path="url(#clip0_4887_46250)">
<path d="M19.0311 36.8086C17.3791 36.8086 16.015 38.0363 15.8008 39.6281C17.0469 39.8712 18.3336 40.0002 19.6499 40.0002C20.5422 40.0002 21.4203 39.9406 22.2818 39.8272C22.1596 38.1399 20.7514 36.8086 19.0311 36.8086Z" fill="white"/>
<path d="M25.0072 29.6441C25.0072 26.0645 22.1024 23.1631 18.5194 23.1631C14.936 23.1631 12.0312 26.0645 12.0312 29.6441C12.0312 33.2236 14.936 36.125 18.5194 36.125C22.1024 36.125 25.0072 33.2236 25.0072 29.6441Z" fill="white"/>
<path d="M29.1562 23.7441C29.1562 26.4745 31.372 28.6879 34.1052 28.6879C36.8381 28.6879 39.0539 26.4745 39.0539 23.7441C39.0539 21.0137 36.8381 18.8003 34.1052 18.8003C31.372 18.8003 29.1562 21.0137 29.1562 23.7441Z" fill="white"/>
<path d="M30.5713 18.6891C30.5713 17.6492 29.7273 16.8057 28.6859 16.8057C27.6448 16.8057 26.8008 17.6492 26.8008 18.6891C26.8008 19.7291 27.6448 20.5726 28.6859 20.5726C29.7273 20.5726 30.5713 19.7291 30.5713 18.6891Z" fill="white"/>
<path d="M6.68495 25.4305C6.68495 23.6317 5.22512 22.1733 3.42432 22.1733C1.8263 22.1733 0.497434 23.3225 0.21875 24.8389C0.477308 25.8724 0.815616 26.8744 1.22829 27.8377C1.80767 28.3657 2.57841 28.6877 3.42432 28.6877C5.22512 28.6877 6.68495 27.2294 6.68495 25.4305Z" fill="white"/>
<path d="M31.1406 11.1819C31.1406 15.2325 34.4278 18.5162 38.4827 18.5162C38.87 18.5162 39.2501 18.4858 39.621 18.4282C39.2334 13.4473 37.0115 8.97304 33.6317 5.67871C32.105 7.02285 31.1406 8.98936 31.1406 11.1819Z" fill="white"/>
<path d="M11.5462 33.0045C11.5462 30.6204 9.61145 28.688 7.22522 28.688C5.40392 28.688 3.84689 29.8141 3.21094 31.407C4.75167 33.6147 6.72594 35.4989 9.01007 36.9352C10.5056 36.2567 11.5462 34.7525 11.5462 33.0045Z" fill="white"/>
<path d="M14.7657 37.0607C14.7657 35.981 13.8894 35.106 12.8088 35.106C11.7279 35.106 10.8516 35.981 10.8516 37.0607C10.8516 37.4468 10.9651 37.8056 11.1588 38.1087C11.8429 38.4303 12.5476 38.7147 13.2709 38.9586C14.1282 38.7507 14.7657 37.9808 14.7657 37.0607Z" fill="white"/>
<path d="M30.5708 6.76239C31.6855 6.76239 32.6537 6.13811 33.1454 5.22065C31.717 3.91748 30.1004 2.8176 28.3406 1.96729C27.9116 2.47512 27.6523 3.13052 27.6523 3.84694C27.6523 5.45693 28.9591 6.76239 30.5708 6.76239Z" fill="white"/>
<path d="M23.2273 5.76716C25.2016 5.76716 26.8023 4.16815 26.8023 2.19595C26.8023 1.87017 26.7575 1.55499 26.6759 1.25498C24.7137 0.518807 22.6062 0.0818973 20.4094 0C19.9356 0.605671 19.6523 1.36762 19.6523 2.19595C19.6523 4.16815 21.253 5.76716 23.2273 5.76716Z" fill="white"/>
<path d="M11.0784 3.03774C11.0784 2.67136 11.0301 2.31634 10.9405 1.97803C8.60822 3.10827 6.5269 4.67729 4.80469 6.57744C5.42849 6.95367 6.15935 7.17063 6.94112 7.17063C9.22596 7.17063 11.0784 5.32018 11.0784 3.03774Z" fill="white"/>
<path d="M5.22728 12.1328C5.22728 10.6237 4.41707 9.3039 3.20784 8.58252C1.65499 10.8088 0.543298 13.3632 0 16.1193C0.347377 16.2141 0.71262 16.2658 1.09002 16.2658C3.37486 16.2658 5.22728 14.4153 5.22728 12.1328Z" fill="white"/>
<path d="M68.1176 17.1668H63.9047C63.8277 16.6217 63.6706 16.1376 63.4334 15.7144C63.1961 15.2848 62.8915 14.9193 62.5196 14.6179C62.1477 14.3165 61.7181 14.0856 61.2307 13.9253C60.7498 13.765 60.2272 13.6849 59.6629 13.6849C58.6433 13.6849 57.7552 13.9382 56.9986 14.4447C56.2419 14.9449 55.6552 15.6759 55.2384 16.6378C54.8215 17.5932 54.6132 18.7539 54.6132 20.1197C54.6132 21.524 54.8215 22.7039 55.2384 23.6593C55.6616 24.6148 56.2515 25.3362 57.0082 25.8235C57.7648 26.3109 58.6401 26.5545 59.634 26.5545C60.1919 26.5545 60.7081 26.4808 61.1826 26.3333C61.6636 26.1858 62.09 25.971 62.4619 25.6889C62.8338 25.4003 63.1416 25.0508 63.3853 24.6404C63.6354 24.23 63.8085 23.7619 63.9047 23.2361L68.1176 23.2554C68.0086 24.1595 67.7361 25.0316 67.3 25.8716C66.8704 26.7052 66.2901 27.4523 65.5591 28.1127C64.8345 28.7668 63.9688 29.2862 62.9621 29.6709C61.9617 30.0493 60.83 30.2384 59.5667 30.2384C57.8097 30.2384 56.2387 29.8409 54.8536 29.0457C53.475 28.2506 52.3848 27.0996 51.5833 25.5927C50.7882 24.0858 50.3906 22.2614 50.3906 20.1197C50.3906 17.9715 50.7946 16.144 51.6025 14.6371C52.4105 13.1302 53.507 11.9824 54.8921 11.1937C56.2772 10.3985 57.8354 10.001 59.5667 10.001C60.7081 10.001 61.7662 10.1613 62.7408 10.4819C63.7219 10.8025 64.5908 11.2706 65.3475 11.8862C66.1041 12.4954 66.7197 13.2424 67.1942 14.1273C67.6752 15.0122 67.983 16.0254 68.1176 17.1668Z" fill="white"/>
<path d="M77.759 30.2575C76.2393 30.2575 74.9312 29.9497 73.8347 29.3341C72.7446 28.7121 71.9045 27.8336 71.3146 26.6986C70.7247 25.5572 70.4297 24.2074 70.4297 22.6492C70.4297 21.1294 70.7247 19.7957 71.3146 18.6479C71.9045 17.5 72.7349 16.6055 73.8058 15.9643C74.8831 15.323 76.1463 15.0024 77.5955 15.0024C78.5702 15.0024 79.4776 15.1595 80.3176 15.4737C81.164 15.7815 81.9014 16.2464 82.5299 16.8684C83.1647 17.4904 83.6584 18.2727 84.0111 19.2154C84.3638 20.1516 84.5401 21.2481 84.5401 22.5049V23.6303H72.0648V21.091H80.6831C80.6831 20.501 80.5548 19.9784 80.2983 19.5231C80.0419 19.0679 79.686 18.712 79.2307 18.4555C78.7818 18.1926 78.2592 18.0611 77.6629 18.0611C77.0409 18.0611 76.4894 18.2054 76.0085 18.494C75.5339 18.7761 75.162 19.1576 74.8927 19.6386C74.6234 20.1131 74.4855 20.6421 74.4791 21.2256V23.6399C74.4791 24.3709 74.6138 25.0025 74.8831 25.5348C75.1588 26.067 75.5468 26.4774 76.0469 26.7659C76.5471 27.0545 77.1402 27.1988 77.8264 27.1988C78.2816 27.1988 78.6985 27.1346 79.0768 27.0064C79.4551 26.8781 79.7789 26.6858 80.0483 26.4293C80.3176 26.1728 80.5228 25.8586 80.6638 25.4867L84.4536 25.7367C84.2612 26.6473 83.8668 27.4424 83.2705 28.1222C82.6805 28.7955 81.9175 29.3213 80.9813 29.6996C80.0515 30.0715 78.9774 30.2575 77.759 30.2575Z" fill="white"/>
<path d="M87.2148 35.5092V15.1948H91.2546V17.6764H91.4374C91.6169 17.2788 91.8766 16.8748 92.2164 16.4644C92.5627 16.0476 93.0116 15.7014 93.5631 15.4256C94.1209 15.1435 94.8135 15.0024 95.6407 15.0024C96.7179 15.0024 97.7119 15.2846 98.6224 15.8489C99.533 16.4067 100.26 17.25 100.805 18.3785C101.35 19.5007 101.623 20.9082 101.623 22.6011C101.623 24.2491 101.357 25.6406 100.825 26.7755C100.299 27.9041 99.5811 28.7602 98.6705 29.3437C97.7664 29.9208 96.7532 30.2094 95.631 30.2094C94.8359 30.2094 94.1594 30.0779 93.6015 29.815C93.0501 29.5521 92.598 29.2219 92.2453 28.8243C91.8926 28.4203 91.6233 28.0131 91.4374 27.6027H91.3123V35.5092H87.2148ZM91.2257 22.5819C91.2257 23.4603 91.3476 24.2266 91.5913 24.8807C91.8349 25.5348 92.1876 26.0445 92.6493 26.41C93.111 26.7691 93.6721 26.9487 94.3325 26.9487C94.9994 26.9487 95.5637 26.7659 96.0254 26.4004C96.4871 26.0285 96.8366 25.5155 97.0738 24.8615C97.3175 24.201 97.4393 23.4411 97.4393 22.5819C97.4393 21.729 97.3207 20.9788 97.0835 20.3311C96.8462 19.6835 96.4967 19.1769 96.035 18.8114C95.5733 18.4459 95.0058 18.2631 94.3325 18.2631C93.6657 18.2631 93.1014 18.4395 92.6397 18.7921C92.1844 19.1448 91.8349 19.645 91.5913 20.2926C91.3476 20.9403 91.2257 21.7034 91.2257 22.5819Z" fill="white"/>
<path d="M108.452 21.428V29.9693H104.355V10.2705H108.337V17.8018H108.51C108.843 16.9297 109.382 16.2468 110.126 15.7531C110.87 15.2529 111.803 15.0028 112.925 15.0028C113.951 15.0028 114.845 15.2273 115.608 15.6761C116.378 16.1186 116.974 16.7566 117.397 17.5902C117.827 18.4174 118.039 19.4081 118.032 20.5624V29.9693H113.935V21.2934C113.941 20.3828 113.71 19.6742 113.242 19.1677C112.781 18.6611 112.133 18.4078 111.299 18.4078C110.741 18.4078 110.248 18.5264 109.818 18.7637C109.395 19.0009 109.061 19.3472 108.818 19.8025C108.58 20.2514 108.459 20.7932 108.452 21.428Z" fill="white"/>
<path d="M125.355 10.2705V29.9693H121.258V10.2705H125.355Z" fill="white"/>
<path d="M132.851 30.2479C131.908 30.2479 131.068 30.0843 130.331 29.7573C129.593 29.4239 129.01 28.9333 128.58 28.2857C128.157 27.6316 127.945 26.8172 127.945 25.8425C127.945 25.0218 128.096 24.3324 128.397 23.7746C128.699 23.2167 129.109 22.7678 129.628 22.428C130.148 22.0881 130.738 21.8316 131.398 21.6585C132.065 21.4853 132.764 21.3635 133.495 21.293C134.354 21.2032 135.047 21.1198 135.573 21.0429C136.099 20.9595 136.48 20.8377 136.717 20.6774C136.955 20.5171 137.073 20.2798 137.073 19.9656V19.9079C137.073 19.2987 136.881 18.8274 136.496 18.494C136.118 18.1605 135.579 17.9938 134.88 17.9938C134.143 17.9938 133.556 18.1573 133.12 18.4843C132.684 18.805 132.395 19.2089 132.254 19.6963L128.465 19.3885C128.657 18.4908 129.035 17.7149 129.6 17.0608C130.164 16.4003 130.892 15.8937 131.783 15.5411C132.681 15.182 133.72 15.0024 134.899 15.0024C135.72 15.0024 136.506 15.0986 137.256 15.291C138.013 15.4833 138.683 15.7815 139.266 16.1855C139.856 16.5895 140.321 17.1089 140.661 17.7437C141.001 18.3721 141.171 19.1256 141.171 20.0041V29.9689H137.285V27.9202H137.169C136.932 28.3819 136.615 28.789 136.217 29.1417C135.82 29.488 135.342 29.7605 134.784 29.9593C134.226 30.1517 133.582 30.2479 132.851 30.2479ZM134.024 27.42C134.627 27.42 135.159 27.3014 135.621 27.0641C136.083 26.8204 136.445 26.4934 136.708 26.083C136.971 25.6726 137.102 25.2077 137.102 24.6883V23.1205C136.974 23.2039 136.798 23.2808 136.573 23.3513C136.355 23.4155 136.108 23.4764 135.832 23.5341C135.557 23.5854 135.281 23.6335 135.005 23.6784C134.73 23.7168 134.479 23.7521 134.255 23.7842C133.774 23.8547 133.354 23.9669 132.995 24.1208C132.636 24.2747 132.357 24.4831 132.158 24.746C131.959 25.0025 131.86 25.3231 131.86 25.7079C131.86 26.2658 132.062 26.6922 132.466 26.9872C132.876 27.2757 133.396 27.42 134.024 27.42Z" fill="white"/>
</g>
<defs>
<clipPath id="clip0_4887_46250">
<rect width="142" height="40" fill="white"/>
</clipPath>
</defs>
</svg>
