<svg xmlns="http://www.w3.org/2000/svg" width="558" height="530" fill="none"><rect width="558" height="530" fill="#03112E" rx="48"/><path fill="#fff" d="M185.643 241.834h26.015l7.248 7.248.056 21.271-7.249 7.193h-26.056v-35.698zm23.163 30.342 4.076-4.076-.097-16.834-3.979-4.076h-17.084l.097 24.986zM227.725 241.834h30.189v5.356H233.79l.098 9.738h18.405v5.203h-18.461l.056 10.045h24.582l-.056 5.356h-30.703v-35.698zM263.423 270.283l-.056-21.271 7.29-7.193h24.68v5.356h-21.884l-4.034 4.077.056 16.833 3.978 4.076h14.733l4.076-4.076-.055-6.274h-12.855l.056-4.995h18.92l-.056 13.509-7.248 7.192h-20.395l-7.248-7.248zM306.317 241.834h30.188v5.356h-24.123l.098 9.738h18.405v5.203h-18.461l.056 10.045h24.582l-.056 5.356h-30.703v-35.698zM343.945 241.834h10.198l16.263 29.535h.918l-.097-29.535h5.912v35.698h-10.044l-16.319-29.535h-.862l-.056 29.535h-5.913zM398.718 275.543l14.274-33.709h8.932l14.635 33.709-.098 1.989h-5.759l-12.757-30.342h-1.016l-12.646 30.342h-5.662zm10.309-12.243h16.875l2.198 5.356h-21.215zM440.647 272.579h7.137l-.055-25.807h-7.137v-4.953h20.353v4.953h-7.137l.056 25.807h7.137l-.056 4.952h-20.353z"/><path fill="#4C532C" d="m155.376 279.658-.917 1.585L97 299.527v-58.178l2.653-.199v56.24l1.834-.58z"/><path fill="#96962A" d="m159.258 275.622-.918 1.581.085-.028.918-1.581zM159.256 275.621l-.918 1.581-1.991.636-55.419 17.579V237.37l2.641-.198v56.113l1.836-.579 51.86-16.45z"/><path fill="#DFD828" d="M161.458 235.973 149.412 230l-44.432 3.318v58.048l53.329-16.916 2.006-.635.07-.029 2.02-.635.084-.028 7.782-13.4zm-2.118 24.315-4.124 6.128-1.596.437-1.624.438-.466.113-1.624.438-29.094 7.851-2.485-28.466-.127-1.398-.198-2.217-.127-1.412-.198-2.316-.113-1.299 4.166-.424 25.083-2.555 7.047 3.572 5.381 16.789.975 3.036z"/><path fill="#96962A" d="m158.66 258.791-2.627 3.883-6.228-19.429-7.061-3.587-23.445 2.401-.197-2.203 2.881-.297 21.057-2.16 3.503-.353 6.157 3.12.777 2.429 4.378 13.697z"/><path fill="#4C532C" d="m154.611 262.844-1.879 2.782-1.031.282-5.96-18.61-7.047-3.572-19.08 1.948-.198-2.217 23.063-2.344 6.158 3.121z"/></svg>