<svg xmlns="http://www.w3.org/2000/svg" width="73" height="20" fill="none"><path fill="#090C21" d="M41.383 6.52c0-2.335.036-4.508.147-6.52l-5.638 1.167v.563l.553.08c.405.041.663.202.81.444.148.281.258.684.332 1.287.074 1.167.147 3.823.11 8.008 0 4.145-.036 6.76-.11 7.767 2.027.483 3.611.684 4.79.684 2.212 0 3.944-.684 5.196-2.093 1.253-1.368 1.917-3.3 1.917-5.674q0-2.836-1.437-4.708c-.959-1.247-2.175-1.851-3.612-1.851-.958 0-1.953.282-3.058.845m.11 12.394c-.074-1.288-.147-5.151-.147-11.47.331-.12.774-.2 1.326-.2.885 0 1.585.482 2.1 1.488.517 1.006.775 2.214.775 3.743 0 1.891-.295 3.42-.885 4.708-.59 1.248-1.326 1.891-2.248 1.891-.294-.08-.59-.12-.92-.16M14.74.401H0v.805l.774.08c.59.121.995.363 1.253.725q.387.603.442 1.932c.295 4.346.295 8.41 0 12.153q-.11 1.328-.442 1.931c-.258.403-.664.644-1.253.725l-.774.12v.805h9.507v-.805l-.995-.08a1.7 1.7 0 0 1-.694-.223 1.85 1.85 0 0 1-.559-.502q-.386-.603-.442-1.931c-.11-1.61-.184-3.46-.184-5.513l1.99.04c1.069.04 1.806.925 2.174 2.696h.737V6.8h-.737c-.368 1.731-1.069 2.616-2.174 2.657l-1.99.04c0-3.622.074-6.197.184-7.767h2.911c2.064 0 3.464 1.45 4.275 4.346l.884-.281zm-1.732 12.395c0 2.092.553 3.823 1.622 5.19C15.698 19.358 17.283 20 19.273 20s3.61-.684 4.79-2.093c1.18-1.368 1.732-3.098 1.732-5.19s-.553-3.824-1.621-5.192-2.654-2.012-4.643-2.012c-1.99 0-3.612.684-4.791 2.093-1.18 1.368-1.732 3.098-1.732 5.19m8.218-4.588c.442 1.167.626 2.696.626 4.548 0 4.265-.81 6.358-2.395 6.358q-1.215 0-1.88-1.811c-.442-1.207-.626-2.737-.626-4.547 0-4.226.81-6.318 2.395-6.318.811-.04 1.437.563 1.88 1.77m31.138 9.779C53.58 19.316 55.128 20 56.97 20c1.143 0 2.138-.241 3.022-.765.884-.482 1.585-1.086 2.064-1.81l-.369-.483c-.81.684-1.732 1.006-2.8 1.006-1.475 0-2.617-.524-3.39-1.61-.812-1.087-1.18-2.455-1.106-4.225h7.886c0-1.932-.443-3.501-1.364-4.749q-1.38-1.81-3.87-1.81c-2.063 0-3.647.724-4.79 2.132-1.142 1.409-1.695 3.139-1.695 5.191 0 2.093.59 3.783 1.806 5.11m2.727-10.1c.405-.966.921-1.45 1.621-1.45 1.106 0 1.658 1.53 1.658 4.628l-3.906.08c.037-1.206.221-2.293.627-3.259m17.098-1.61c-.995-.483-2.248-.765-3.758-.765-1.548 0-2.764.443-3.685 1.288s-1.4 1.891-1.4 3.139c0 1.086.294 1.931.847 2.535s1.437 1.127 2.58 1.57c1.031.402 1.768.804 2.137 1.166.368.403.59.845.59 1.449 0 .563-.185 1.087-.59 1.489-.369.442-.885.644-1.548.644-1.621 0-2.837-1.288-3.685-3.863l-.626.2.147 4.025q1.99.845 4.422.845c1.695 0 2.985-.402 3.943-1.247C72.52 17.948 73 16.78 73 15.332c0-.966-.221-1.77-.7-2.374-.48-.604-1.253-1.127-2.359-1.61-1.216-.483-2.063-.926-2.505-1.328-.443-.402-.664-.885-.664-1.489 0-.603.148-1.086.48-1.489.331-.402.736-.563 1.252-.563 1.474 0 2.543 1.167 3.206 3.46l.627-.2zm-35.45-.363c-.515-.281-1.068-.402-1.695-.402-.626 0-1.252.282-1.953.845-.7.564-1.216 1.328-1.621 2.374l.037-3.219-5.601 1.207v.564l.552.04c.7.08 1.106.684 1.18 1.77q.33 3.744 0 7.968c-.074 1.087-.48 1.65-1.18 1.771l-.552.08v.765h7.812v-.765l-.995-.08c-.7-.08-1.106-.684-1.18-1.77a45 45 0 0 1-.073-7.405q.332-.604 1.437-.724c.737-.08 1.585.16 2.47.724z"/></svg>