<svg width="34" height="24" viewBox="0 0 34 24" fill="none" xmlns="http://www.w3.org/2000/svg">
<g clip-path="url(#clip0_1220_25714)">
<path d="M0 0.666504H34V23.3332H0V0.666504Z" fill="#00ABC2"/>
<path d="M18.8245 13.2363C20.5088 13.2363 21.8743 11.8709 21.8743 10.1865C21.8743 8.50216 20.5088 7.13672 18.8245 7.13672C17.1401 7.13672 15.7747 8.50216 15.7747 10.1865C15.7747 11.8709 17.1401 13.2363 18.8245 13.2363Z" fill="#FFEC2D"/>
<path d="M18.8243 6.72085C19.0056 6.71858 19.0736 6.60525 19.0736 6.46925C19.0736 6.28792 18.8243 5.42432 18.8243 5.42432C18.8243 5.42432 18.575 6.28792 18.575 6.46925C18.575 6.60525 18.643 6.72085 18.8243 6.72085Z" fill="#FFEC2D"/>
<path d="M22.2899 10.1863C22.2922 10.3677 22.4055 10.4357 22.5415 10.4357C22.7228 10.4357 23.5864 10.1863 23.5864 10.1863C23.5864 10.1863 22.7228 9.93701 22.5415 9.93701C22.4055 9.93701 22.2899 10.005 22.2899 10.1863Z" fill="#FFEC2D"/>
<path d="M18.8242 13.6527C18.6428 13.655 18.5748 13.7683 18.5748 13.9043C18.5748 14.0856 18.8242 14.9492 18.8242 14.9492C18.8242 14.9492 19.0735 14.0856 19.0735 13.9043C19.0735 13.7683 19.0055 13.6527 18.8242 13.6527Z" fill="#FFEC2D"/>
<path d="M15.3585 10.1867C15.3563 10.0054 15.2429 9.93737 15.1069 9.93737C14.9256 9.93737 14.062 10.1867 14.062 10.1867C14.062 10.1867 14.9256 10.436 15.1069 10.436C15.2429 10.436 15.3585 10.368 15.3585 10.1867Z" fill="#FFEC2D"/>
<path d="M20.1505 6.98515C20.3188 7.05245 20.425 6.97377 20.4771 6.84812C20.5465 6.68059 20.6466 5.78731 20.6466 5.78731C20.6466 5.78731 20.0858 6.48976 20.0164 6.65729C19.9643 6.78293 19.9829 6.91576 20.1505 6.98515Z" fill="#FFEC2D"/>
<path d="M22.0261 11.5135C21.9588 11.6819 22.0375 11.7881 22.1631 11.8401C22.3306 11.9095 23.2239 12.0097 23.2239 12.0097C23.2239 12.0097 22.5215 11.4488 22.3539 11.3794C22.2283 11.3274 22.0955 11.346 22.0261 11.5135Z" fill="#FFEC2D"/>
<path d="M17.4977 13.3889C17.3293 13.3216 17.2231 13.4003 17.1711 13.5259C17.1017 13.6934 17.0016 14.5867 17.0016 14.5867C17.0016 14.5867 17.5624 13.8843 17.6318 13.7167C17.6839 13.5911 17.6653 13.4583 17.4977 13.3889Z" fill="#FFEC2D"/>
<path d="M15.6221 8.86102C15.6894 8.69263 15.6107 8.58643 15.4851 8.53439C15.3176 8.46499 14.4243 8.36486 14.4243 8.36486C14.4243 8.36486 15.1267 8.9257 15.2943 8.99509C15.4199 9.04714 15.5527 9.02855 15.6221 8.86102Z" fill="#FFEC2D"/>
<path d="M21.2749 7.73616C21.4047 7.86278 21.5329 7.83072 21.6291 7.73456C21.7573 7.60633 22.1917 6.81937 22.1917 6.81937C22.1917 6.81937 21.4047 7.25372 21.2765 7.38195C21.1803 7.47811 21.1467 7.60794 21.2749 7.73616Z" fill="#FFEC2D"/>
<path d="M21.2748 12.6374C21.1482 12.7673 21.1803 12.8955 21.2764 12.9917C21.4047 13.1199 22.1916 13.5542 22.1916 13.5542C22.1916 13.5542 21.7573 12.7673 21.629 12.6391C21.5329 12.5429 21.403 12.5092 21.2748 12.6374Z" fill="#FFEC2D"/>
<path d="M16.3735 12.6369C16.2437 12.5103 16.1155 12.5423 16.0193 12.6385C15.8911 12.7667 15.4568 13.5537 15.4568 13.5537C15.4568 13.5537 16.2437 13.1193 16.3719 12.9911C16.4681 12.8949 16.5018 12.7651 16.3735 12.6369Z" fill="#FFEC2D"/>
<path d="M16.3736 7.73658C16.5002 7.60675 16.4682 7.47853 16.372 7.38236C16.2438 7.25414 15.4568 6.81979 15.4568 6.81979C15.4568 6.81979 15.8912 7.60675 16.0194 7.73497C16.1156 7.83114 16.2454 7.8648 16.3736 7.73658Z" fill="#FFEC2D"/>
<path d="M22.0262 8.8603C22.0977 9.02697 22.2285 9.04642 22.3541 8.99438C22.5216 8.92498 23.2241 8.36414 23.2241 8.36414C23.2241 8.36414 22.3308 8.46427 22.1633 8.53367C22.0376 8.58571 21.9568 8.69277 22.0262 8.8603Z" fill="#FFEC2D"/>
<path d="M20.1504 13.3888C19.9838 13.4603 19.9643 13.591 20.0164 13.7166C20.0858 13.8842 20.6466 14.5866 20.6466 14.5866C20.6466 14.5866 20.5465 13.6933 20.4771 13.5258C20.425 13.4002 20.318 13.3194 20.1504 13.3888Z" fill="#FFEC2D"/>
<path d="M15.6222 11.5132C15.5507 11.3466 15.42 11.3271 15.2943 11.3792C15.1268 11.4486 14.4244 12.0094 14.4244 12.0094C14.4244 12.0094 15.3176 11.9093 15.4852 11.8399C15.6108 11.7878 15.6916 11.6808 15.6222 11.5132Z" fill="#FFEC2D"/>
<path d="M17.498 6.98475C17.6647 6.91326 17.6841 6.78253 17.6321 6.65689C17.5627 6.48936 17.0018 5.78691 17.0018 5.78691C17.0018 5.78691 17.102 6.68019 17.1714 6.84772C17.2234 6.97336 17.3305 7.05414 17.498 6.98475Z" fill="#FFEC2D"/>
<path d="M19.5004 6.78755C19.6787 6.8207 19.7675 6.72281 19.794 6.58943C19.8294 6.41158 19.7533 5.51593 19.7533 5.51593C19.7533 5.51593 19.3403 6.31429 19.3049 6.49214C19.2784 6.62553 19.3225 6.75217 19.5004 6.78755Z" fill="#FFEC2D"/>
<path d="M22.2237 10.8632C22.1905 11.0415 22.2884 11.1303 22.4218 11.1568C22.5997 11.1922 23.4953 11.1161 23.4953 11.1161C23.4953 11.1161 22.6969 10.7031 22.5191 10.6677C22.3857 10.6412 22.2591 10.6853 22.2237 10.8632Z" fill="#FFEC2D"/>
<path d="M18.1485 13.5865C17.9702 13.5533 17.8814 13.6512 17.8549 13.7846C17.8195 13.9624 17.8956 14.8581 17.8956 14.8581C17.8956 14.8581 18.3086 14.0597 18.344 13.8819C18.3705 13.7485 18.3264 13.6219 18.1485 13.5865Z" fill="#FFEC2D"/>
<path d="M15.4252 9.51084C15.4584 9.33255 15.3605 9.24375 15.2271 9.21721C15.0493 9.18184 14.1536 9.2579 14.1536 9.2579C14.1536 9.2579 14.952 9.67092 15.1298 9.7063C15.2632 9.73283 15.3899 9.68869 15.4252 9.51084Z" fill="#FFEC2D"/>
<path d="M20.7499 7.30493C20.902 7.40379 21.0215 7.34733 21.097 7.23425C21.1978 7.08348 21.4703 6.2269 21.4703 6.2269C21.4703 6.2269 20.7831 6.80644 20.6824 6.95721C20.6068 7.07029 20.5992 7.20419 20.7499 7.30493Z" fill="#FFEC2D"/>
<path d="M21.7061 12.112C21.6072 12.264 21.6637 12.3835 21.7767 12.4591C21.9275 12.5598 22.7841 12.8323 22.7841 12.8323C22.7841 12.8323 22.2046 12.1452 22.0538 12.0445C21.9407 11.9689 21.8068 11.9612 21.7061 12.112Z" fill="#FFEC2D"/>
<path d="M16.899 13.0686C16.747 12.9697 16.6275 13.0262 16.5519 13.1393C16.4512 13.2901 16.1787 14.1466 16.1787 14.1466C16.1787 14.1466 16.8658 13.5671 16.9665 13.4163C17.0421 13.3032 17.0498 13.1693 16.899 13.0686Z" fill="#FFEC2D"/>
<path d="M15.9429 8.26154C16.0417 8.10951 15.9853 7.99 15.8722 7.91444C15.7214 7.8137 14.8648 7.54122 14.8648 7.54122C14.8648 7.54122 15.4444 8.22833 15.5951 8.32907C15.7082 8.40463 15.8421 8.41231 15.9429 8.26154Z" fill="#FFEC2D"/>
<path d="M21.706 8.26112C21.8086 8.41064 21.9406 8.40421 22.0537 8.32866C22.2045 8.22791 22.784 7.54081 22.784 7.54081C22.784 7.54081 21.9275 7.81329 21.7767 7.91403C21.6636 7.98959 21.6053 8.11035 21.706 8.26112Z" fill="#FFEC2D"/>
<path d="M20.7499 13.0688C20.6003 13.1714 20.6068 13.3034 20.6823 13.4165C20.7831 13.5673 21.4702 14.1468 21.4702 14.1468C21.4702 14.1468 21.1977 13.2902 21.097 13.1395C21.0214 13.0264 20.9006 12.9681 20.7499 13.0688Z" fill="#FFEC2D"/>
<path d="M15.9427 12.1124C15.8401 11.9629 15.708 11.9693 15.595 12.0449C15.4442 12.1456 14.8647 12.8327 14.8647 12.8327C14.8647 12.8327 15.7212 12.5602 15.872 12.4595C15.9851 12.3839 16.0434 12.2632 15.9427 12.1124Z" fill="#FFEC2D"/>
<path d="M16.8988 7.30572C17.0483 7.20309 17.0419 7.07108 16.9664 6.958C16.8656 6.80722 16.1785 6.22769 16.1785 6.22769C16.1785 6.22769 16.451 7.08427 16.5517 7.23504C16.6273 7.34812 16.748 7.40646 16.8988 7.30572Z" fill="#FFEC2D"/>
<path d="M22.2233 9.51164C22.2609 9.68905 22.3853 9.73363 22.5187 9.7071C22.6966 9.67173 23.4949 9.2587 23.4949 9.2587C23.4949 9.2587 22.5993 9.18264 22.4214 9.21802C22.288 9.24455 22.1879 9.33379 22.2233 9.51164Z" fill="#FFEC2D"/>
<path d="M19.5003 13.5866C19.3229 13.6242 19.2783 13.7486 19.3049 13.882C19.3402 14.0598 19.7533 14.8582 19.7533 14.8582C19.7533 14.8582 19.8293 13.9626 19.7939 13.7847C19.7674 13.6513 19.6782 13.5512 19.5003 13.5866Z" fill="#FFEC2D"/>
<path d="M15.4251 10.8634C15.3875 10.6859 15.2631 10.6414 15.1297 10.6679C14.9519 10.7033 14.1535 11.1163 14.1535 11.1163C14.1535 11.1163 15.0492 11.1924 15.227 11.157C15.3604 11.1305 15.4605 11.0412 15.4251 10.8634Z" fill="#FFEC2D"/>
<path d="M18.1481 6.78841C18.3255 6.75081 18.3701 6.62639 18.3436 6.493C18.3082 6.31515 17.8952 5.51679 17.8952 5.51679C17.8952 5.51679 17.8191 6.41244 17.8545 6.59028C17.881 6.72367 17.9703 6.82378 18.1481 6.78841Z" fill="#FFEC2D"/>
<path d="M18.2806 16.7935C18.199 16.798 18.1196 16.8086 18.0418 16.8335C17.9353 16.8479 17.8333 16.8849 17.7275 16.9023L17.6852 16.9091L17.6142 16.9159C17.6187 16.9355 17.6217 16.9551 17.6217 16.9748C17.6217 16.9952 17.6195 17.0148 17.6142 17.0315C17.6096 17.0473 17.5953 17.067 17.5839 17.0791C17.5688 17.0957 17.553 17.11 17.5341 17.1191C17.5159 17.1282 17.4955 17.1319 17.4751 17.1335C17.4547 17.1342 17.4336 17.1335 17.4139 17.1259C17.3935 17.1191 17.3747 17.1063 17.3573 17.0911C17.3361 17.0964 17.3142 17.1002 17.2938 17.1025C17.2727 17.1047 17.253 17.1047 17.2341 17.1025C17.213 17.0964 17.1911 17.0896 17.1707 17.0813C17.1501 17.0728 17.1304 17.0624 17.1117 17.0503C17.0347 17.0957 16.9485 17.1387 16.9017 17.2181C16.8752 17.2543 16.8699 17.2959 16.8639 17.339C16.8601 17.3919 16.8737 17.4478 16.8964 17.4969C16.9047 17.5112 16.9115 17.4447 16.9372 17.4357C16.9803 17.4002 17.0339 17.3745 17.0883 17.3601C17.1344 17.3367 17.1283 17.3616 17.1095 17.3979C17.1049 17.4168 17.0792 17.4886 17.114 17.4523C17.2674 17.3843 17.4374 17.3707 17.6028 17.3579C17.8431 17.3329 18.0841 17.3276 18.3251 17.3246C18.5518 17.3276 18.7785 17.3307 19.0051 17.339C19.1132 17.342 19.222 17.3662 19.3285 17.348C19.3542 17.3412 19.3943 17.3397 19.4094 17.3246C19.361 17.2967 19.3043 17.2959 19.2507 17.2891H18.8185C18.6984 17.277 18.573 17.2755 18.4596 17.2302C18.4294 17.2181 18.4015 17.1894 18.3727 17.2203C18.3297 17.2355 18.2836 17.246 18.2383 17.2491C18.1589 17.2551 18.0796 17.2385 18.0063 17.209C18.0592 17.1357 18.1227 17.0715 18.1808 17.0035C18.134 16.9959 18.0887 16.9861 18.0418 16.9748C18.1242 16.9181 18.2005 16.8539 18.2806 16.7935Z" fill="#FFEC2D"/>
<path d="M21.81 17.5763C21.6458 17.6749 21.5205 17.5001 21.3832 17.4477C21.2852 17.5009 21.276 17.679 21.1844 17.7634C21.0748 17.8881 20.9405 17.7286 20.9505 17.6055C20.8195 17.716 20.7532 17.9664 20.5412 17.933C20.4408 17.851 20.3662 17.6791 20.2895 17.8749C20.2269 17.9706 20.0603 18.1067 19.9741 17.9622C19.9474 17.8346 19.8834 17.6846 19.814 17.8872C19.7663 18.0306 19.6134 18.1361 19.4654 18.0733C19.3844 18.0071 19.5303 17.7622 19.4272 17.7796C19.2731 17.8815 19.1835 18.1345 18.9684 18.1142C18.8849 18.0205 19.0191 17.8616 18.9275 17.7576C18.8193 17.8964 18.6994 18.0996 18.5123 18.1142C18.4219 18.041 18.5159 17.8309 18.4581 17.7998C18.2662 17.9149 18.0637 18.12 17.8223 18.0558C17.9164 17.696 18.3094 17.5698 18.64 17.5417C19.2087 17.4718 19.807 17.6003 20.3541 17.3951C20.4425 17.3413 20.6567 17.265 20.5805 17.1402C20.5129 17.0417 20.7562 17.0802 20.7796 16.9651C20.7651 16.8194 20.8913 16.8394 21.0145 16.8267C21.567 16.8028 22.1128 16.9192 22.6637 16.939C22.7053 17.2074 22.4076 17.3959 22.1678 17.313C22.0533 17.3315 21.8816 17.0497 21.9153 17.2547C21.8922 17.3623 21.9084 17.5045 21.81 17.5763M17.109 17.0267C17.2369 17.1438 17.3266 17.0047 17.4461 16.9538C17.8472 16.8159 18.197 16.5749 18.542 16.334C18.751 16.1611 18.9322 15.9368 19.2128 15.8807C19.7604 15.7152 20.3424 15.7352 20.892 15.5825C21.3105 15.0095 22.0214 14.805 22.6169 14.4757C22.7506 14.4341 22.8022 14.3241 22.8449 14.2026C23.0722 13.8438 23.3819 13.5258 23.7481 13.3086C23.9214 13.2139 24.1281 13.1594 24.3242 13.2027C24.3102 13.4363 24.1761 13.6434 24.0143 13.805C24.1467 13.8021 24.2606 13.7184 24.3944 13.7231C24.4402 13.9629 24.1813 14.0884 24.0435 14.2377C24.1203 14.2555 24.4142 14.2777 24.254 14.3546C24.0499 14.4963 23.8168 14.5935 23.6284 14.758C23.8022 14.7893 23.822 14.8262 23.6453 14.8891C23.5496 14.954 23.3655 14.9766 23.3477 15.103C23.4791 15.1837 23.2873 15.2639 23.2133 15.2901C23.0718 15.3231 22.9232 15.3845 23.1111 15.492C23.04 15.5994 22.8875 15.6223 22.763 15.6117C22.8008 15.7334 22.8555 15.8696 22.6975 15.9233C22.3433 16.191 21.9277 16.3857 21.4826 16.4303C22.0387 16.473 22.6115 16.3698 23.0867 16.0674C23.1495 15.9932 23.4784 15.9135 23.2944 15.8511C23.2078 15.815 23.0221 15.775 23.0095 15.7089C23.2669 15.5501 23.5912 15.6066 23.8681 15.5123C23.8753 15.4226 23.6575 15.4476 23.5763 15.4272C23.3827 15.4113 23.394 15.3619 23.5807 15.3436C23.817 15.281 24.0845 15.2687 24.2832 15.1147C24.1215 15.0397 23.9179 15.1057 23.7453 15.0445C24.038 14.9165 24.3832 14.9036 24.6458 14.7112C24.7654 14.5782 24.4925 14.6197 24.4131 14.623C24.251 14.6512 24.1761 14.5736 24.3602 14.5063C24.6746 14.2745 25.0727 14.1239 25.2935 13.7878C25.3458 13.7126 25.4167 13.4859 25.2498 13.5674C25.0304 13.6404 24.8373 13.8871 24.5873 13.8108C25.0799 13.429 25.5487 12.9943 25.8854 12.466C25.9028 12.3136 25.6636 12.2971 25.6013 12.4167C25.2848 12.7217 24.9984 13.0817 24.5932 13.2728C24.9812 12.8983 25.3021 12.4548 25.582 11.9951C25.642 11.8584 25.8033 11.6939 25.7158 11.5421C25.5747 11.4253 25.3982 11.5322 25.3248 11.672C25.0788 11.9932 24.892 12.3681 24.5756 12.6297C24.8526 12.1011 25.1394 11.5383 25.1464 10.9286C25.1455 10.8031 25.1203 10.6182 24.9498 10.6417C24.8147 10.6659 24.8468 10.8682 24.7911 10.9705C24.6684 11.387 24.6109 11.8381 24.3593 12.2028C24.4159 11.8644 24.5149 11.5115 24.4389 11.1697C24.4034 11.0169 24.1567 11.0827 24.1885 11.2338C23.8938 12.7267 22.8921 14.0323 21.582 14.7875C20.9822 15.1269 20.3122 15.3457 19.6305 15.4449C19.4472 15.485 19.2488 15.4615 19.0736 15.524C18.6489 15.8497 18.3917 16.3946 17.8541 16.5652C17.6131 16.685 17.2988 16.7093 17.1265 16.9331C17.1116 16.9618 17.1084 16.995 17.109 17.0267Z" fill="#FFEC2D"/>
<path d="M18.7181 15.5124C18.6388 15.6564 18.5921 15.822 18.4901 15.9509C18.1832 15.6716 17.7382 15.6809 17.3489 15.6623C17.0276 15.6451 16.6781 15.6155 16.4295 15.3863C16.1679 15.172 15.9544 14.8939 15.6622 14.72C15.3954 14.6475 15.1265 14.5568 14.912 14.3739C14.4537 14.0003 14.1912 13.446 13.7434 13.0608C13.658 12.9767 13.5573 12.9116 13.4616 12.8403C13.3707 12.8624 13.4119 13.0586 13.3007 12.9586C13.2401 12.9155 13.0888 12.9113 13.0751 12.9715C13.2121 13.1519 13.3491 13.3579 13.3681 13.5887C13.2747 13.5983 13.1087 13.569 13.0624 13.6038C13.1864 13.7896 13.3454 13.9545 13.526 14.0857C13.4393 14.0996 13.2686 14.0921 13.2354 14.127C13.4147 14.2731 13.6069 14.4224 13.8417 14.4599C13.8897 14.5233 13.7714 14.6456 13.8709 14.6997C13.9286 14.7232 14.119 14.7627 13.9879 14.8283C13.8979 14.8889 13.9313 15.0303 14.0463 15.0271C14.1191 15.0643 14.2825 15.0734 14.2952 15.1377C14.2308 15.2033 14.0301 15.2811 14.2009 15.3426C14.3604 15.4311 14.5424 15.4886 14.7246 15.4949C14.6332 15.5718 14.5205 15.6154 14.4264 15.6878C14.8469 15.9344 15.313 16.0965 15.7735 16.2527C15.9569 16.3139 16.1424 16.371 16.3325 16.407C15.7802 16.3751 15.2463 16.2116 14.7432 15.9878C14.4825 15.8734 14.22 15.7629 13.9528 15.6645C14.0699 15.6035 14.2055 15.5886 14.327 15.5358C14.0747 15.4853 13.7992 15.4687 13.5775 15.3301C13.6115 15.2694 13.7403 15.2666 13.8115 15.2357C13.9455 15.2036 14.0286 15.1647 13.8397 15.153C13.6492 15.1013 13.4307 15.1245 13.2628 15.0096C13.2736 14.9407 13.4493 14.9647 13.5209 14.9349C13.611 14.9194 13.7112 14.9065 13.7832 14.8458C13.4887 14.7237 13.1034 14.8103 12.8727 14.5502C12.8195 14.4511 13.0379 14.5309 13.1001 14.5144C13.2582 14.5144 13.428 14.5646 13.5786 14.5009C13.1494 14.3125 12.6897 14.1361 12.3624 13.7875C12.326 13.7315 12.2171 13.5784 12.305 13.5595C12.5598 13.5932 12.7441 13.8712 13.0166 13.828C13.0528 13.7792 12.8583 13.6992 12.8098 13.6295C12.4125 13.2885 12.0269 12.9185 11.7484 12.472C11.7293 12.3228 11.9637 12.3005 12.0254 12.4157C12.3293 12.7083 12.6037 13.0498 12.9822 13.2496C13.1164 13.3147 12.9051 13.1725 12.8769 13.121C12.5272 12.7149 12.1943 12.2861 11.95 11.8078C11.9062 11.7217 11.8337 11.5656 11.9646 11.5197C12.0954 11.4542 12.2253 11.5435 12.2916 11.6559C12.5487 11.9801 12.7379 12.3655 13.0581 12.6357C12.7853 12.1062 12.494 11.5488 12.4869 10.9396C12.4934 10.8215 12.501 10.6428 12.6611 10.6477C12.7956 10.6273 12.7744 10.7994 12.8184 10.8815C12.9509 11.3291 13.0087 11.8136 13.2745 12.2088C13.2158 11.8768 13.1294 11.5348 13.1868 11.1973C13.2 11.0864 13.3248 11.0529 13.4063 11.1199C13.4721 11.281 13.4858 11.48 13.5458 11.6523C13.8872 12.8201 14.6537 13.8472 15.6525 14.5364C16.4751 15.1006 17.4514 15.4374 18.4477 15.4962C18.5377 15.504 18.6281 15.5067 18.7182 15.5123" fill="#FFEC2D"/>
<path d="M17.4533 17.0609C17.4829 17.0609 17.507 17.0369 17.507 17.0073C17.507 16.9776 17.4829 16.9536 17.4533 16.9536C17.4237 16.9536 17.3997 16.9776 17.3997 17.0073C17.3997 17.0369 17.4237 17.0609 17.4533 17.0609Z" fill="#FFEC2D"/>
<path d="M17.4486 17.0198C17.4607 17.0198 17.4705 17.01 17.4705 16.9979C17.4705 16.9859 17.4607 16.9761 17.4486 16.9761C17.4366 16.9761 17.4268 16.9859 17.4268 16.9979C17.4268 17.01 17.4366 17.0198 17.4486 17.0198Z" fill="#FFEC2D" stroke="#00ABC2" stroke-width="0.008636"/>
<path d="M2.72005 2.31983C2.72005 2.31983 2.50222 2.13677 2.42824 2.2286C2.30924 2.37627 2.79408 3.11187 2.79408 3.3709C2.79408 3.79611 2.51036 3.91173 2.16002 3.97246C1.92495 4.01321 1.54215 3.95541 1.54215 3.95541C1.61423 3.85856 1.66111 3.83002 1.78255 3.82229C1.64735 3.75209 1.50967 3.5997 1.50967 3.36252C1.50967 2.99672 1.66025 2.84594 1.66025 2.43357C1.66025 2.2048 1.47266 1.91357 1.47266 1.91357C1.80425 1.94676 1.96858 2.25378 1.87508 2.49914C1.92785 2.50674 1.97577 2.49484 2.01693 2.45585C2.04118 2.52385 2.00287 2.6028 1.95158 2.67082C1.9929 2.6929 2.02325 2.67966 2.08908 2.66606C2.08282 2.73615 2.04084 2.81058 1.93812 2.88067C2.23621 2.80326 2.41962 3.01103 2.41962 3.22854C2.41962 3.39282 2.3045 3.51058 2.19196 3.51058C2.1556 3.51058 2.10218 3.49559 2.07205 3.47309C2.05079 3.51831 2.06174 3.57883 2.08361 3.62405C2.00115 3.60224 1.94879 3.55326 1.98606 3.4513C1.9227 3.44548 1.87231 3.42408 1.83804 3.3833C1.87277 3.33881 1.92547 3.3132 1.98606 3.31528C1.93993 3.22008 1.99134 3.16681 2.06625 3.12361C2.06625 3.12361 2.01861 3.31528 2.14026 3.31528C2.19495 3.31528 2.2448 3.29746 2.2448 3.21684C2.2448 3.14664 2.18344 3.0494 2.04157 3.05559C1.89972 3.06178 1.78471 3.1534 1.78471 3.37986C1.78471 3.58875 1.95321 3.69266 2.17525 3.69937C2.37547 3.70556 2.52659 3.5971 2.52659 3.39053C2.52659 3.11563 2.12974 2.48901 2.12974 2.24405C2.12974 2.06023 2.29503 1.95764 2.45675 1.95764C2.66646 1.95764 2.8434 2.16529 2.8434 2.16529L2.72021 2.31976L2.72005 2.31983Z" fill="#FFEC2D"/>
<path d="M2.76594 7.28847C2.76594 7.74792 2.35345 7.98406 2.02932 7.98406C1.59262 7.98406 1.36011 7.72297 1.36011 7.38118C1.36011 7.18742 1.3956 7.06586 1.48493 6.88042C1.48493 6.88042 2.20528 5.38236 2.48573 4.80296C2.52071 4.73069 2.532 4.64841 2.532 4.52783C2.532 4.34157 2.35134 4.18935 2.16192 4.18468C1.98924 4.18037 1.80111 4.34565 1.80111 4.53401C1.80111 4.76279 1.91979 4.86479 2.04165 4.86479C2.19161 4.86479 2.25136 4.80314 2.25136 4.69785C2.25136 4.62448 2.21593 4.59274 2.165 4.59274C2.03639 4.59274 2.0725 4.76587 2.0725 4.76587C2.00862 4.75189 1.95613 4.68661 1.98614 4.6051C1.93764 4.59438 1.89386 4.56838 1.86124 4.53091C1.89572 4.49748 1.93527 4.47168 1.98614 4.46291C1.95601 4.36345 1.99627 4.31487 2.08329 4.29443C2.06572 4.33267 2.06513 4.36787 2.07096 4.40108C2.20793 4.36211 2.41789 4.4241 2.41789 4.66074C2.41789 4.89568 2.25483 5.09352 1.94912 5.04408C2.02184 5.07885 2.05883 5.15 2.06631 5.22956C2.01078 5.20794 1.94912 5.20486 1.94912 5.20486C1.98487 5.26787 2.03451 5.3222 2.03238 5.44596C1.97571 5.42019 1.92306 5.37248 1.85043 5.40267C1.96445 5.62702 1.82437 5.93561 1.46802 6.00862C1.59845 5.85573 1.6623 5.69067 1.6623 5.52634C1.6623 4.99376 1.51429 4.90425 1.51429 4.53399C1.51429 4.37907 1.59391 4.21179 1.75174 4.09809V4.10428C1.64743 4.07633 1.58061 4.02497 1.54219 3.95518C1.78053 3.88758 2.12699 3.88883 2.31299 3.96202C2.52683 3.9868 2.67611 4.15084 2.72008 4.23411C2.76406 4.3173 2.84949 4.61838 2.72008 4.88945C2.57842 5.18611 1.91061 6.60214 1.7024 7.04727C1.65824 7.14168 1.63145 7.24182 1.63145 7.35023C1.63145 7.62291 1.88124 7.71812 2.02313 7.71812C2.19274 7.71812 2.36544 7.58891 2.36544 7.42753C2.36544 7.32528 2.30991 7.26369 2.22974 7.26369C2.03802 7.26369 2.04967 7.42678 2.08789 7.52955C1.96857 7.4759 1.89921 7.38013 1.91827 7.27915C1.85073 7.26988 1.78642 7.23785 1.72708 7.17094C1.77377 7.11201 1.83071 7.06742 1.91827 7.06584C1.88004 6.90916 1.98491 6.84291 2.08789 6.80617C2.05532 6.92115 2.03394 7.05348 2.22974 7.05348C2.37254 7.05348 2.48492 7.07821 2.55047 7.17096C2.55432 7.04729 2.56588 6.55885 2.56588 6.55885C2.57413 6.3753 2.32022 6.38053 2.15884 6.43518C2.21974 6.22377 2.34466 6.10946 2.63375 6.13841C2.56357 6.10905 2.48879 6.04303 2.48879 5.91582C2.48884 5.74371 2.62847 5.55304 2.72013 5.49667L2.76596 7.28849L2.76594 7.28847Z" fill="#FFEC2D"/>
<path d="M2.76594 8.66612C2.76594 8.20667 2.35345 7.97053 2.02932 7.97053C1.59262 7.97053 1.36011 8.23162 1.36011 8.57341C1.36011 8.76717 1.3956 8.88873 1.48493 9.07417C1.48493 9.07417 2.20528 10.5722 2.48573 11.1516C2.52071 11.2239 2.532 11.3062 2.532 11.4268C2.532 11.613 2.35134 11.7652 2.16192 11.7699C1.98924 11.7742 1.80111 11.6089 1.80111 11.4206C1.80111 11.1918 1.91979 11.0898 2.04165 11.0898C2.19161 11.0898 2.25136 11.1515 2.25136 11.2567C2.25136 11.3301 2.21593 11.3618 2.165 11.3618C2.03639 11.3618 2.0725 11.1887 2.0725 11.1887C2.00862 11.2027 1.95613 11.268 1.98614 11.3495C1.93764 11.3602 1.89386 11.3862 1.86124 11.4237C1.89572 11.4571 1.93527 11.4829 1.98614 11.4917C1.95601 11.5911 1.99627 11.6397 2.08329 11.6602C2.06572 11.6219 2.06513 11.5867 2.07096 11.5535C2.20793 11.5925 2.41789 11.5305 2.41789 11.2938C2.41789 11.0589 2.25483 10.8611 1.94912 10.9105C2.02184 10.8757 2.05883 10.8046 2.06631 10.725C2.01078 10.7466 1.94912 10.7497 1.94912 10.7497C1.98487 10.6867 2.03451 10.6324 2.03238 10.5086C1.97571 10.5344 1.92306 10.5821 1.85043 10.5519C1.96445 10.3276 1.82437 10.019 1.46802 9.94597C1.59845 10.0989 1.6623 10.2639 1.6623 10.4283C1.6623 10.9608 1.51429 11.0503 1.51429 11.4206C1.51429 11.5755 1.59391 11.7428 1.75174 11.8565V11.8503C1.64743 11.8783 1.58061 11.9296 1.54219 11.9994C1.78053 12.067 2.12699 12.0658 2.31299 11.9926C2.52683 11.9678 2.67611 11.8038 2.72008 11.7205C2.76406 11.6373 2.84949 11.3362 2.72008 11.0651C2.57842 10.7685 1.91061 9.35245 1.7024 8.90732C1.65824 8.81291 1.63145 8.71277 1.63145 8.60435C1.63145 8.33168 1.88124 8.23647 2.02313 8.23647C2.19274 8.23647 2.36544 8.36567 2.36544 8.52706C2.36544 8.62931 2.30991 8.6909 2.22974 8.6909C2.03802 8.6909 2.04967 8.52781 2.08789 8.42504C1.96857 8.47869 1.89921 8.57446 1.91827 8.67544C1.85073 8.68471 1.78642 8.71674 1.72708 8.78365C1.77377 8.84258 1.83071 8.88717 1.91827 8.88875C1.88004 9.04543 1.98491 9.11168 2.08789 9.14842C2.05532 9.03343 2.03394 8.90111 2.22974 8.90111C2.37254 8.90111 2.48492 8.87638 2.55047 8.78363C2.55432 8.90729 2.56588 9.39574 2.56588 9.39574C2.57413 9.57929 2.32022 9.57406 2.15884 9.51941C2.21974 9.73082 2.34466 9.84513 2.63375 9.81618C2.56357 9.84554 2.48879 9.91156 2.48879 10.0388C2.48884 10.2109 2.62847 10.4015 2.72013 10.4579L2.76596 8.6661L2.76594 8.66612Z" fill="#FFEC2D"/>
<path d="M2.71989 2.31983C2.71989 2.31983 2.93772 2.13677 3.0117 2.2286C3.1307 2.37627 2.64586 3.11187 2.64586 3.3709C2.64586 3.79611 2.92958 3.91173 3.27992 3.97246C3.51499 4.01321 3.89779 3.95541 3.89779 3.95541C3.82571 3.85856 3.77883 3.83002 3.65739 3.82229C3.79259 3.75209 3.93027 3.5997 3.93027 3.36252C3.93027 2.99672 3.7797 2.84594 3.7797 2.43357C3.7797 2.2048 3.96729 1.91357 3.96729 1.91357C3.63569 1.94676 3.47136 2.25378 3.56486 2.49914C3.51209 2.50674 3.46418 2.49484 3.42301 2.45585C3.39876 2.52385 3.43707 2.6028 3.48836 2.67082C3.44704 2.6929 3.41669 2.67966 3.35087 2.66606C3.35712 2.73615 3.3991 2.81058 3.50183 2.88067C3.20374 2.80326 3.02032 3.01103 3.02032 3.22854C3.02032 3.39282 3.13544 3.51058 3.24798 3.51058C3.28434 3.51058 3.33776 3.49559 3.36789 3.47309C3.38915 3.51831 3.3782 3.57883 3.35633 3.62405C3.43879 3.60224 3.49115 3.55326 3.45389 3.4513C3.51724 3.44548 3.56763 3.42408 3.6019 3.3833C3.56717 3.33881 3.51447 3.3132 3.45389 3.31528C3.50001 3.22008 3.4486 3.16681 3.37369 3.12361C3.37369 3.12361 3.42134 3.31528 3.29968 3.31528C3.24499 3.31528 3.19515 3.29746 3.19515 3.21684C3.19515 3.14664 3.2565 3.0494 3.39837 3.05559C3.54022 3.06178 3.65523 3.1534 3.65523 3.37986C3.65523 3.58875 3.48673 3.69266 3.26469 3.69937C3.06447 3.70556 2.91335 3.5971 2.91335 3.39053C2.91335 3.11563 3.3102 2.48901 3.3102 2.24405C3.3102 2.06023 3.14492 1.95764 2.98319 1.95764C2.77348 1.95764 2.59654 2.16529 2.59654 2.16529L2.71973 2.31976L2.71989 2.31983Z" fill="#FFEC2D"/>
<path d="M2.67425 7.28847C2.67425 7.74792 3.08673 7.98406 3.41087 7.98406C3.84756 7.98406 4.08008 7.72297 4.08008 7.38118C4.08008 7.18742 4.04458 7.06586 3.95525 6.88042C3.95525 6.88042 3.23491 5.38236 2.95445 4.80296C2.91948 4.73069 2.90819 4.64841 2.90819 4.52783C2.90819 4.34157 3.08884 4.18935 3.27827 4.18468C3.45094 4.18037 3.63908 4.34565 3.63908 4.53401C3.63908 4.76279 3.52039 4.86479 3.39854 4.86479C3.24857 4.86479 3.18882 4.80314 3.18882 4.69785C3.18882 4.62448 3.22425 4.59274 3.27518 4.59274C3.4038 4.59274 3.36769 4.76587 3.36769 4.76587C3.43156 4.75189 3.48406 4.68661 3.45405 4.6051C3.50255 4.59438 3.54633 4.56838 3.57894 4.53091C3.54446 4.49748 3.50491 4.47168 3.45405 4.46291C3.48417 4.36345 3.44392 4.31487 3.3569 4.29443C3.37446 4.33267 3.37505 4.36787 3.36923 4.40108C3.23225 4.36211 3.02229 4.4241 3.02229 4.66074C3.02229 4.89568 3.18536 5.09352 3.49106 5.04408C3.41835 5.07885 3.38136 5.15 3.37388 5.22956C3.42941 5.20794 3.49106 5.20486 3.49106 5.20486C3.45532 5.26787 3.40568 5.3222 3.40781 5.44596C3.46447 5.42019 3.51713 5.37248 3.58975 5.40267C3.47574 5.62702 3.61582 5.93561 3.97216 6.00862C3.84174 5.85573 3.77789 5.69067 3.77789 5.52634C3.77789 4.99376 3.9259 4.90425 3.9259 4.53399C3.9259 4.37907 3.84627 4.21179 3.68844 4.09809V4.10428C3.79276 4.07633 3.85958 4.02497 3.898 3.95518C3.65966 3.88758 3.3132 3.88883 3.12719 3.96202C2.91336 3.9868 2.76407 4.15084 2.7201 4.23411C2.67613 4.3173 2.5907 4.61838 2.7201 4.88945C2.86177 5.18611 3.52957 6.60214 3.73779 7.04727C3.78194 7.14168 3.80874 7.24182 3.80874 7.35023C3.80874 7.62291 3.55895 7.71812 3.41706 7.71812C3.24744 7.71812 3.07474 7.58891 3.07474 7.42753C3.07474 7.32528 3.13028 7.26369 3.21045 7.26369C3.40216 7.26369 3.39051 7.42678 3.3523 7.52955C3.47161 7.4759 3.54097 7.38013 3.52191 7.27915C3.58946 7.26988 3.65376 7.23785 3.7131 7.17094C3.66641 7.11201 3.60947 7.06742 3.52191 7.06584C3.56015 6.90916 3.45527 6.84291 3.3523 6.80617C3.38487 6.92115 3.40624 7.05348 3.21045 7.05348C3.06765 7.05348 2.95527 7.07821 2.88972 7.17096C2.88586 7.04729 2.8743 6.55885 2.8743 6.55885C2.86605 6.3753 3.11996 6.38053 3.28135 6.43518C3.22044 6.22377 3.09553 6.10946 2.80644 6.13841C2.87661 6.10905 2.95139 6.04303 2.95139 5.91582C2.95135 5.74371 2.81172 5.55304 2.72006 5.49667L2.67422 7.28849L2.67425 7.28847Z" fill="#FFEC2D"/>
<path d="M2.67425 8.66612C2.67425 8.20667 3.08673 7.97053 3.41087 7.97053C3.84756 7.97053 4.08008 8.23162 4.08008 8.57341C4.08008 8.76717 4.04458 8.88873 3.95525 9.07417C3.95525 9.07417 3.23491 10.5722 2.95445 11.1516C2.91948 11.2239 2.90819 11.3062 2.90819 11.4268C2.90819 11.613 3.08884 11.7652 3.27827 11.7699C3.45094 11.7742 3.63908 11.6089 3.63908 11.4206C3.63908 11.1918 3.52039 11.0898 3.39854 11.0898C3.24857 11.0898 3.18882 11.1515 3.18882 11.2567C3.18882 11.3301 3.22425 11.3618 3.27518 11.3618C3.4038 11.3618 3.36769 11.1887 3.36769 11.1887C3.43156 11.2027 3.48406 11.268 3.45405 11.3495C3.50255 11.3602 3.54633 11.3862 3.57894 11.4237C3.54446 11.4571 3.50491 11.4829 3.45405 11.4917C3.48417 11.5911 3.44392 11.6397 3.3569 11.6602C3.37446 11.6219 3.37505 11.5867 3.36923 11.5535C3.23225 11.5925 3.02229 11.5305 3.02229 11.2938C3.02229 11.0589 3.18536 10.8611 3.49106 10.9105C3.41835 10.8757 3.38136 10.8046 3.37388 10.725C3.42941 10.7466 3.49106 10.7497 3.49106 10.7497C3.45532 10.6867 3.40568 10.6324 3.40781 10.5086C3.46447 10.5344 3.51713 10.5821 3.58975 10.5519C3.47574 10.3276 3.61582 10.019 3.97216 9.94597C3.84174 10.0989 3.77789 10.2639 3.77789 10.4283C3.77789 10.9608 3.9259 11.0503 3.9259 11.4206C3.9259 11.5755 3.84627 11.7428 3.68844 11.8565V11.8503C3.79276 11.8783 3.85958 11.9296 3.898 11.9994C3.65966 12.067 3.3132 12.0658 3.12719 11.9926C2.91336 11.9678 2.76407 11.8038 2.7201 11.7205C2.67613 11.6373 2.5907 11.3362 2.7201 11.0651C2.86177 10.7685 3.52957 9.35245 3.73779 8.90732C3.78194 8.81291 3.80874 8.71277 3.80874 8.60435C3.80874 8.33168 3.55895 8.23647 3.41706 8.23647C3.24744 8.23647 3.07474 8.36567 3.07474 8.52706C3.07474 8.62931 3.13028 8.6909 3.21045 8.6909C3.40216 8.6909 3.39051 8.52781 3.3523 8.42504C3.47161 8.47869 3.54097 8.57446 3.52191 8.67544C3.58946 8.68471 3.65376 8.71674 3.7131 8.78365C3.66641 8.84258 3.60947 8.88717 3.52191 8.88875C3.56015 9.04543 3.45527 9.11168 3.3523 9.14842C3.38487 9.03343 3.40624 8.90111 3.21045 8.90111C3.06765 8.90111 2.95527 8.87638 2.88972 8.78363C2.88586 8.90729 2.8743 9.39574 2.8743 9.39574C2.86605 9.57929 3.11996 9.57406 3.28135 9.51941C3.22044 9.73082 3.09553 9.84513 2.80644 9.81618C2.87661 9.84554 2.95139 9.91156 2.95139 10.0388C2.95135 10.2109 2.81172 10.4015 2.72006 10.4579L2.67422 8.6661L2.67425 8.66612Z" fill="#FFEC2D"/>
<path d="M2.72005 21.6807C2.72005 21.6807 2.50222 21.8637 2.42824 21.7719C2.30924 21.6242 2.79408 20.8886 2.79408 20.6296C2.79408 20.2044 2.51036 20.0888 2.16002 20.028C1.92495 19.9873 1.54215 20.0451 1.54215 20.0451C1.61423 20.1419 1.66111 20.1705 1.78255 20.1782C1.64735 20.2484 1.50967 20.4008 1.50967 20.638C1.50967 21.0038 1.66025 21.1545 1.66025 21.5669C1.66025 21.7957 1.47266 22.0869 1.47266 22.0869C1.80425 22.0537 1.96858 21.7467 1.87508 21.5013C1.92785 21.4938 1.97577 21.5057 2.01693 21.5446C2.04118 21.4766 2.00287 21.3977 1.95158 21.3297C1.9929 21.3076 2.02325 21.3208 2.08908 21.3344C2.08282 21.2643 2.04084 21.1899 1.93812 21.1198C2.23621 21.1972 2.41962 20.9895 2.41962 20.772C2.41962 20.6077 2.3045 20.4899 2.19196 20.4899C2.1556 20.4899 2.10218 20.5049 2.07205 20.5274C2.05079 20.4822 2.06174 20.4217 2.08361 20.3764C2.00115 20.3982 1.94879 20.4472 1.98606 20.5492C1.9227 20.555 1.87231 20.5764 1.83804 20.6172C1.87277 20.6617 1.92547 20.6873 1.98606 20.6852C1.93993 20.7804 1.99134 20.8337 2.06625 20.8769C2.06625 20.8769 2.01861 20.6852 2.14026 20.6852C2.19495 20.6852 2.2448 20.703 2.2448 20.7836C2.2448 20.8538 2.18344 20.9511 2.04157 20.9449C1.89972 20.9387 1.78471 20.8471 1.78471 20.6206C1.78471 20.4117 1.95321 20.3078 2.17525 20.3011C2.37547 20.2949 2.52659 20.4034 2.52659 20.61C2.52659 20.8849 2.12974 21.5115 2.12974 21.7564C2.12974 21.9403 2.29503 22.0429 2.45675 22.0429C2.66646 22.0429 2.8434 21.8352 2.8434 21.8352L2.72021 21.6807L2.72005 21.6807Z" fill="#FFEC2D"/>
<path d="M2.76594 16.712C2.76594 16.2526 2.35345 16.0164 2.02932 16.0164C1.59262 16.0164 1.36011 16.2775 1.36011 16.6193C1.36011 16.8131 1.3956 16.9346 1.48493 17.1201C1.48493 17.1201 2.20528 18.6181 2.48573 19.1975C2.52071 19.2698 2.532 19.3521 2.532 19.4727C2.532 19.6589 2.35134 19.8111 2.16192 19.8158C1.98924 19.8201 1.80111 19.6548 1.80111 19.4665C1.80111 19.2377 1.91979 19.1357 2.04165 19.1357C2.19161 19.1357 2.25136 19.1974 2.25136 19.3026C2.25136 19.376 2.21593 19.4077 2.165 19.4077C2.03639 19.4077 2.0725 19.2346 2.0725 19.2346C2.00862 19.2486 1.95613 19.3139 1.98614 19.3954C1.93764 19.4061 1.89386 19.4321 1.86124 19.4696C1.89572 19.503 1.93527 19.5288 1.98614 19.5376C1.95601 19.637 1.99627 19.6856 2.08329 19.7061C2.06572 19.6678 2.06513 19.6326 2.07096 19.5994C2.20793 19.6384 2.41789 19.5764 2.41789 19.3397C2.41789 19.1048 2.25483 18.907 1.94912 18.9564C2.02184 18.9216 2.05883 18.8505 2.06631 18.7709C2.01078 18.7925 1.94912 18.7956 1.94912 18.7956C1.98487 18.7326 2.03451 18.6783 2.03238 18.5545C1.97571 18.5803 1.92306 18.628 1.85043 18.5978C1.96445 18.3735 1.82437 18.0649 1.46802 17.9919C1.59845 18.1448 1.6623 18.3098 1.6623 18.4741C1.6623 19.0067 1.51429 19.0962 1.51429 19.4665C1.51429 19.6214 1.59391 19.7887 1.75174 19.9024V19.8962C1.64743 19.9242 1.58061 19.9755 1.54219 20.0453C1.78053 20.1129 2.12699 20.1117 2.31299 20.0385C2.52683 20.0137 2.67611 19.8497 2.72008 19.7664C2.76406 19.6832 2.84949 19.3821 2.72008 19.111C2.57842 18.8144 1.91061 17.3983 1.7024 16.9532C1.65824 16.8588 1.63145 16.7587 1.63145 16.6503C1.63145 16.3776 1.88124 16.2824 2.02313 16.2824C2.19274 16.2824 2.36544 16.4116 2.36544 16.573C2.36544 16.6752 2.30991 16.7368 2.22974 16.7368C2.03802 16.7368 2.04967 16.5737 2.08789 16.4709C1.96857 16.5246 1.89921 16.6204 1.91827 16.7213C1.85073 16.7306 1.78642 16.7626 1.72708 16.8295C1.77377 16.8885 1.83071 16.9331 1.91827 16.9347C1.88004 17.0913 1.98491 17.1576 2.08789 17.1943C2.05532 17.0793 2.03394 16.947 2.22974 16.947C2.37254 16.947 2.48492 16.9223 2.55047 16.8295C2.55432 16.9532 2.56588 17.4416 2.56588 17.4416C2.57413 17.6252 2.32022 17.62 2.15884 17.5653C2.21974 17.7767 2.34466 17.891 2.63375 17.8621C2.56357 17.8914 2.48879 17.9575 2.48879 18.0847C2.48884 18.2568 2.62847 18.4474 2.72013 18.5038L2.76596 16.712L2.76594 16.712Z" fill="#FFEC2D"/>
<path d="M2.76594 15.3339C2.76594 15.7933 2.35345 16.0295 2.02932 16.0295C1.59262 16.0295 1.36011 15.7684 1.36011 15.4266C1.36011 15.2328 1.3956 15.1113 1.48493 14.9258C1.48493 14.9258 2.20528 13.4278 2.48573 12.8484C2.52071 12.7761 2.532 12.6938 2.532 12.5732C2.532 12.387 2.35134 12.2348 2.16192 12.2301C1.98924 12.2258 1.80111 12.3911 1.80111 12.5794C1.80111 12.8082 1.91979 12.9102 2.04165 12.9102C2.19161 12.9102 2.25136 12.8485 2.25136 12.7433C2.25136 12.6699 2.21593 12.6382 2.165 12.6382C2.03639 12.6382 2.0725 12.8113 2.0725 12.8113C2.00862 12.7973 1.95613 12.732 1.98614 12.6505C1.93764 12.6398 1.89386 12.6138 1.86124 12.5763C1.89572 12.5429 1.93527 12.5171 1.98614 12.5083C1.95601 12.4089 1.99627 12.3603 2.08329 12.3398C2.06572 12.3781 2.06513 12.4133 2.07096 12.4465C2.20793 12.4075 2.41789 12.4695 2.41789 12.7062C2.41789 12.9411 2.25483 13.1389 1.94912 13.0895C2.02184 13.1243 2.05883 13.1954 2.06631 13.275C2.01078 13.2534 1.94912 13.2503 1.94912 13.2503C1.98487 13.3133 2.03451 13.3676 2.03238 13.4914C1.97571 13.4656 1.92306 13.4179 1.85043 13.4481C1.96445 13.6724 1.82437 13.981 1.46802 14.054C1.59845 13.9011 1.6623 13.7361 1.6623 13.5717C1.6623 13.0392 1.51429 12.9497 1.51429 12.5794C1.51429 12.4245 1.59391 12.2572 1.75174 12.1435V12.1497C1.64743 12.1217 1.58061 12.0704 1.54219 12.0006C1.78053 11.933 2.12699 11.9342 2.31299 12.0074C2.52683 12.0322 2.67611 12.1962 2.72008 12.2795C2.76406 12.3627 2.84949 12.6638 2.72008 12.9349C2.57842 13.2315 1.91061 14.6476 1.7024 15.0927C1.65824 15.1871 1.63145 15.2872 1.63145 15.3956C1.63145 15.6683 1.88124 15.7635 2.02313 15.7635C2.19274 15.7635 2.36544 15.6343 2.36544 15.4729C2.36544 15.3707 2.30991 15.3091 2.22974 15.3091C2.03802 15.3091 2.04967 15.4722 2.08789 15.575C1.96857 15.5213 1.89921 15.4255 1.91827 15.3246C1.85073 15.3153 1.78642 15.2833 1.72708 15.2164C1.77377 15.1574 1.83071 15.1128 1.91827 15.1112C1.88004 14.9546 1.98491 14.8883 2.08789 14.8516C2.05532 14.9666 2.03394 15.0989 2.22974 15.0989C2.37254 15.0989 2.48492 15.1236 2.55047 15.2164C2.55432 15.0927 2.56588 14.6043 2.56588 14.6043C2.57413 14.4207 2.32022 14.4259 2.15884 14.4806C2.21974 14.2692 2.34466 14.1549 2.63375 14.1838C2.56357 14.1545 2.48879 14.0884 2.48879 13.9612C2.48884 13.7891 2.62847 13.5985 2.72013 13.5421L2.76596 15.3339L2.76594 15.3339Z" fill="#FFEC2D"/>
<path d="M2.71989 21.6807C2.71989 21.6807 2.93772 21.8637 3.0117 21.7719C3.1307 21.6242 2.64586 20.8886 2.64586 20.6296C2.64586 20.2044 2.92958 20.0888 3.27992 20.028C3.51499 19.9873 3.89779 20.0451 3.89779 20.0451C3.82571 20.1419 3.77883 20.1705 3.65739 20.1782C3.79259 20.2484 3.93027 20.4008 3.93027 20.638C3.93027 21.0038 3.7797 21.1545 3.7797 21.5669C3.7797 21.7957 3.96729 22.0869 3.96729 22.0869C3.63569 22.0537 3.47136 21.7467 3.56486 21.5013C3.51209 21.4938 3.46418 21.5057 3.42301 21.5446C3.39876 21.4766 3.43707 21.3977 3.48836 21.3297C3.44704 21.3076 3.41669 21.3208 3.35087 21.3344C3.35712 21.2643 3.3991 21.1899 3.50183 21.1198C3.20374 21.1972 3.02032 20.9895 3.02032 20.772C3.02032 20.6077 3.13544 20.4899 3.24798 20.4899C3.28434 20.4899 3.33776 20.5049 3.36789 20.5274C3.38915 20.4822 3.3782 20.4217 3.35633 20.3764C3.43879 20.3982 3.49115 20.4472 3.45389 20.5492C3.51724 20.555 3.56763 20.5764 3.6019 20.6172C3.56717 20.6617 3.51447 20.6873 3.45389 20.6852C3.50001 20.7804 3.4486 20.8337 3.37369 20.8769C3.37369 20.8769 3.42134 20.6852 3.29968 20.6852C3.24499 20.6852 3.19515 20.703 3.19515 20.7836C3.19515 20.8538 3.2565 20.9511 3.39837 20.9449C3.54022 20.9387 3.65523 20.8471 3.65523 20.6206C3.65523 20.4117 3.48673 20.3078 3.26469 20.3011C3.06447 20.2949 2.91335 20.4034 2.91335 20.61C2.91335 20.8849 3.3102 21.5115 3.3102 21.7564C3.3102 21.9403 3.14492 22.0429 2.98319 22.0429C2.77348 22.0429 2.59654 21.8352 2.59654 21.8352L2.71973 21.6807L2.71989 21.6807Z" fill="#FFEC2D"/>
<path d="M2.67425 16.712C2.67425 16.2526 3.08673 16.0164 3.41087 16.0164C3.84756 16.0164 4.08008 16.2775 4.08008 16.6193C4.08008 16.8131 4.04458 16.9346 3.95525 17.1201C3.95525 17.1201 3.23491 18.6181 2.95445 19.1975C2.91948 19.2698 2.90819 19.3521 2.90819 19.4727C2.90819 19.6589 3.08884 19.8111 3.27827 19.8158C3.45094 19.8201 3.63908 19.6548 3.63908 19.4665C3.63908 19.2377 3.52039 19.1357 3.39854 19.1357C3.24857 19.1357 3.18882 19.1974 3.18882 19.3026C3.18882 19.376 3.22425 19.4077 3.27518 19.4077C3.4038 19.4077 3.36769 19.2346 3.36769 19.2346C3.43156 19.2486 3.48406 19.3139 3.45405 19.3954C3.50255 19.4061 3.54633 19.4321 3.57894 19.4696C3.54446 19.503 3.50491 19.5288 3.45405 19.5376C3.48417 19.637 3.44392 19.6856 3.3569 19.7061C3.37446 19.6678 3.37505 19.6326 3.36923 19.5994C3.23225 19.6384 3.02229 19.5764 3.02229 19.3397C3.02229 19.1048 3.18536 18.907 3.49106 18.9564C3.41835 18.9216 3.38136 18.8505 3.37388 18.7709C3.42941 18.7925 3.49106 18.7956 3.49106 18.7956C3.45532 18.7326 3.40568 18.6783 3.40781 18.5545C3.46447 18.5803 3.51713 18.628 3.58975 18.5978C3.47574 18.3735 3.61582 18.0649 3.97216 17.9919C3.84174 18.1448 3.77789 18.3098 3.77789 18.4741C3.77789 19.0067 3.9259 19.0962 3.9259 19.4665C3.9259 19.6214 3.84627 19.7887 3.68844 19.9024V19.8962C3.79276 19.9242 3.85958 19.9755 3.898 20.0453C3.65966 20.1129 3.3132 20.1117 3.12719 20.0385C2.91336 20.0137 2.76407 19.8497 2.7201 19.7664C2.67613 19.6832 2.5907 19.3821 2.7201 19.111C2.86177 18.8144 3.52957 17.3983 3.73779 16.9532C3.78194 16.8588 3.80874 16.7587 3.80874 16.6503C3.80874 16.3776 3.55895 16.2824 3.41706 16.2824C3.24744 16.2824 3.07474 16.4116 3.07474 16.573C3.07474 16.6752 3.13028 16.7368 3.21045 16.7368C3.40216 16.7368 3.39051 16.5737 3.3523 16.4709C3.47161 16.5246 3.54097 16.6204 3.52191 16.7213C3.58946 16.7306 3.65376 16.7626 3.7131 16.8295C3.66641 16.8885 3.60947 16.9331 3.52191 16.9347C3.56015 17.0913 3.45527 17.1576 3.3523 17.1943C3.38487 17.0793 3.40624 16.947 3.21045 16.947C3.06765 16.947 2.95527 16.9223 2.88972 16.8295C2.88586 16.9532 2.8743 17.4416 2.8743 17.4416C2.86605 17.6252 3.11996 17.62 3.28135 17.5653C3.22044 17.7767 3.09553 17.891 2.80644 17.8621C2.87661 17.8914 2.95139 17.9575 2.95139 18.0847C2.95135 18.2568 2.81172 18.4474 2.72006 18.5038L2.67422 16.712L2.67425 16.712Z" fill="#FFEC2D"/>
<path d="M2.67425 15.3339C2.67425 15.7933 3.08673 16.0295 3.41087 16.0295C3.84756 16.0295 4.08008 15.7684 4.08008 15.4266C4.08008 15.2328 4.04458 15.1113 3.95525 14.9258C3.95525 14.9258 3.23491 13.4278 2.95445 12.8484C2.91948 12.7761 2.90819 12.6938 2.90819 12.5732C2.90819 12.387 3.08884 12.2348 3.27827 12.2301C3.45094 12.2258 3.63908 12.3911 3.63908 12.5794C3.63908 12.8082 3.52039 12.9102 3.39854 12.9102C3.24857 12.9102 3.18882 12.8485 3.18882 12.7433C3.18882 12.6699 3.22425 12.6382 3.27518 12.6382C3.4038 12.6382 3.36769 12.8113 3.36769 12.8113C3.43156 12.7973 3.48406 12.732 3.45405 12.6505C3.50255 12.6398 3.54633 12.6138 3.57894 12.5763C3.54446 12.5429 3.50491 12.5171 3.45405 12.5083C3.48417 12.4089 3.44392 12.3603 3.3569 12.3398C3.37446 12.3781 3.37505 12.4133 3.36923 12.4465C3.23225 12.4075 3.02229 12.4695 3.02229 12.7062C3.02229 12.9411 3.18536 13.1389 3.49106 13.0895C3.41835 13.1243 3.38136 13.1954 3.37388 13.275C3.42941 13.2534 3.49106 13.2503 3.49106 13.2503C3.45532 13.3133 3.40568 13.3676 3.40781 13.4914C3.46447 13.4656 3.51713 13.4179 3.58975 13.4481C3.47574 13.6724 3.61582 13.981 3.97216 14.054C3.84174 13.9011 3.77789 13.7361 3.77789 13.5717C3.77789 13.0392 3.9259 12.9497 3.9259 12.5794C3.9259 12.4245 3.84627 12.2572 3.68844 12.1435V12.1497C3.79276 12.1217 3.85958 12.0704 3.898 12.0006C3.65966 11.933 3.3132 11.9342 3.12719 12.0074C2.91336 12.0322 2.76407 12.1962 2.7201 12.2795C2.67613 12.3627 2.5907 12.6638 2.7201 12.9349C2.86177 13.2315 3.52957 14.6476 3.73779 15.0927C3.78194 15.1871 3.80874 15.2872 3.80874 15.3956C3.80874 15.6683 3.55895 15.7635 3.41706 15.7635C3.24744 15.7635 3.07474 15.6343 3.07474 15.4729C3.07474 15.3707 3.13028 15.3091 3.21045 15.3091C3.40216 15.3091 3.39051 15.4722 3.3523 15.575C3.47161 15.5213 3.54097 15.4255 3.52191 15.3246C3.58946 15.3153 3.65376 15.2833 3.7131 15.2164C3.66641 15.1574 3.60947 15.1128 3.52191 15.1112C3.56015 14.9546 3.45527 14.8883 3.3523 14.8516C3.38487 14.9666 3.40624 15.0989 3.21045 15.0989C3.06765 15.0989 2.95527 15.1236 2.88972 15.2164C2.88586 15.0927 2.8743 14.6043 2.8743 14.6043C2.86605 14.4207 3.11996 14.4259 3.28135 14.4806C3.22044 14.2692 3.09553 14.1549 2.80644 14.1838C2.87661 14.1545 2.95139 14.0884 2.95139 13.9612C2.95135 13.7891 2.81172 13.5985 2.72006 13.5421L2.67422 15.3339L2.67425 15.3339Z" fill="#FFEC2D"/>
</g>
<defs>
<clipPath id="clip0_1220_25714">
<rect y="0.666504" width="34" height="22.6667" rx="3.57895" fill="white"/>
</clipPath>
</defs>
</svg>
