<svg xmlns="http://www.w3.org/2000/svg" width="34" height="34" fill="none"><g clip-path="url(#a)"><path fill="#8D1B3D" d="M30.223 4.722H10.389v24.555h19.834A3.78 3.78 0 0 0 34 25.5v-17a3.78 3.78 0 0 0-3.777-3.778"/><path fill="#EEE" d="m10.389 26.549 5-1.364-5-1.365 5-1.364-5-1.364 5-1.364-5-1.365 5-1.363-5-1.364 5-1.364-5-1.365 5-1.364-5-1.364 5-1.365-5-1.364 5-1.364-5-1.364H3.778A3.78 3.78 0 0 0 0 8.499v17a3.777 3.777 0 0 0 3.778 3.778h6.61l5.002-1.364z"/></g><defs><clipPath id="a"><path fill="#fff" d="M0 0h34v34H0z"/></clipPath></defs></svg>