<svg width="14" height="15" viewBox="0 0 14 15" fill="none" xmlns="http://www.w3.org/2000/svg">
<path fill-rule="evenodd" clip-rule="evenodd" d="M7.00357 0.600006C7.51784 0.600006 7.93473 1.0169 7.93473 1.53117V2.00222C8.36312 2.00237 8.7873 2.08682 9.18308 2.25076C9.57923 2.41485 9.93917 2.65536 10.2424 2.95856C10.5456 3.26175 10.7861 3.6217 10.9502 4.01784C11.1142 4.41398 11.1987 4.83857 11.1987 5.26735C11.1987 5.78162 10.7818 6.19851 10.2675 6.19851C9.75327 6.19851 9.33637 5.78162 9.33638 5.26735C9.33638 5.08313 9.30009 4.90072 9.22959 4.73052C9.1591 4.56032 9.05577 4.40568 8.9255 4.27542C8.79524 4.14515 8.6406 4.04182 8.4704 3.97133C8.3002 3.90083 8.11779 3.86455 7.93357 3.86455H5.833C5.46095 3.86455 5.10414 4.01234 4.84107 4.27542C4.57799 4.53849 4.43019 4.8953 4.43019 5.26735C4.43019 5.6394 4.57799 5.99621 4.84107 6.25928C5.10414 6.52236 5.46095 6.67016 5.833 6.67016H8.40036C9.26633 6.67016 10.0968 7.01416 10.7092 7.62649C11.3215 8.23882 11.6655 9.06932 11.6655 9.93528C11.6655 10.8013 11.3215 11.6317 10.7092 12.2441C10.0968 12.8564 9.26633 13.2004 8.40036 13.2004H7.93473V13.6688C7.93473 14.1831 7.51784 14.6 7.00357 14.6C6.48931 14.6 6.07241 14.1831 6.07241 13.6688V13.2004H5.5996C4.73364 13.2004 3.90314 12.8564 3.29081 12.2441C2.67848 11.6317 2.33447 10.8013 2.33447 9.93528C2.33447 9.42102 2.75137 9.00412 3.26563 9.00412C3.7799 9.00412 4.1968 9.42102 4.1968 9.93528C4.1968 10.3073 4.34459 10.6641 4.60767 10.9272C4.87075 11.1903 5.22756 11.3381 5.5996 11.3381H6.96485C6.97769 11.3376 6.9906 11.3373 7.00357 11.3373C7.01654 11.3373 7.02945 11.3376 7.0423 11.3381H8.40036C8.77241 11.3381 9.12922 11.1903 9.3923 10.9272C9.65537 10.6641 9.80317 10.3073 9.80317 9.93528C9.80317 9.56324 9.65537 9.20643 9.3923 8.94335C9.12922 8.68027 8.77241 8.53248 8.40036 8.53248H5.833C4.96703 8.53248 4.13653 8.18848 3.5242 7.57615C2.91187 6.96382 2.56787 6.13332 2.56787 5.26735C2.56787 4.40138 2.91187 3.57089 3.5242 2.95856C4.13653 2.34622 4.96703 2.00222 5.833 2.00222H6.07241V1.53117C6.07241 1.0169 6.48931 0.600006 7.00357 0.600006Z" fill="#AEB9E1"/>
</svg>
