<svg width="14" height="13" viewBox="0 0 14 13" fill="none" xmlns="http://www.w3.org/2000/svg">
<path d="M13.5918 2.56226C13.3185 2.02757 12.9233 1.5646 12.4382 1.21068C11.9531 0.856756 11.3916 0.621788 10.7989 0.524722C10.2063 0.427656 9.5992 0.471209 9.02651 0.651868C8.45382 0.832528 7.9316 1.14524 7.50196 1.56478L7.0003 2.01977L6.51614 1.57645C6.08616 1.15026 5.56078 0.832705 4.98356 0.650105C4.40634 0.467505 3.79391 0.425122 3.19704 0.526468C2.60353 0.61861 2.0407 0.851503 1.55562 1.20568C1.07053 1.55985 0.677287 2.02501 0.408763 2.56226C0.0474406 3.26817 -0.0789514 4.07103 0.0480133 4.85381C0.174978 5.63658 0.548661 6.35834 1.11458 6.91384L6.58031 12.5487C6.63472 12.6052 6.69996 12.6501 6.77212 12.6808C6.84428 12.7114 6.92189 12.7272 7.0003 12.7272C7.07871 12.7272 7.15631 12.7114 7.22848 12.6808C7.30064 12.6501 7.36588 12.6052 7.42029 12.5487L12.8802 6.92551C13.448 6.36883 13.8233 5.64538 13.9513 4.86055C14.0793 4.07572 13.9534 3.27052 13.5918 2.56226Z" fill="#AEB9E1"/>
</svg>
