<svg width="14" height="15" viewBox="0 0 14 15" fill="none" xmlns="http://www.w3.org/2000/svg">
<path fill-rule="evenodd" clip-rule="evenodd" d="M5.25557 0.199951C4.97943 0.199951 4.75557 0.423809 4.75557 0.699951V3.31543L2.49251 2.00859C2.25338 1.87049 1.94761 1.95242 1.80956 2.19158L0.0674076 5.20972C-0.0706419 5.44887 0.011303 5.7547 0.250437 5.89279L2.51349 7.19964L0.250328 8.50655C0.011194 8.64464 -0.0707512 8.95047 0.0672983 9.18963L1.80945 12.2078C1.9475 12.4469 2.25327 12.5288 2.49241 12.3908L4.75557 11.0838V13.7C4.75557 13.9761 4.97942 14.2 5.25557 14.2H8.73972C9.01587 14.2 9.23972 13.9761 9.23972 13.7V11.0838L11.5063 12.3927C11.7454 12.5308 12.0512 12.4489 12.1892 12.2097L13.9314 9.19158C14.0694 8.95242 13.9875 8.6466 13.7484 8.50851L11.4818 7.19964L13.7482 5.89084C13.9874 5.75274 14.0693 5.44692 13.9313 5.20776L12.1891 2.18963C12.0511 1.95047 11.7453 1.86854 11.5062 2.00663L9.23972 3.31544V0.699951C9.23972 0.423809 9.01587 0.199951 8.73972 0.199951H5.25557ZM6.99907 9.07251C8.03318 9.07251 8.87149 8.23403 8.87149 7.19971C8.87149 6.16539 8.03318 5.3269 6.99907 5.3269C5.96497 5.3269 5.12666 6.16539 5.12666 7.19971C5.12666 8.23403 5.96497 9.07251 6.99907 9.07251Z" fill="#AEB9E1"/>
</svg>
