<svg width="25" height="24" viewBox="0 0 25 24" fill="none" xmlns="http://www.w3.org/2000/svg">
<path d="M0.463742 1.40682C0.472406 2.76998 0.475295 2.81908 0.533056 2.94616C0.613921 3.11655 0.781429 3.28406 0.946048 3.36204L1.0789 3.42269L5.63337 3.43713L10.1878 3.45157L10.0579 3.77792C9.14236 6.11725 7.35177 8.07246 5.08175 9.21325C3.95829 9.77642 2.83773 10.1057 1.54099 10.2472C0.873847 10.3223 0.700563 10.4118 0.533056 10.7728C0.475295 10.897 0.472406 10.9519 0.463742 12.3295L0.455078 13.7562L0.957601 13.7388C3.79945 13.6291 6.41892 12.7078 8.70338 11.0038C9.70842 10.2587 10.7568 9.20747 11.4904 8.21975C11.8196 7.77499 12.3654 6.93457 12.4867 6.68908C12.4954 6.66598 12.507 6.66598 12.5156 6.68908C12.6398 6.94034 13.1885 7.78077 13.5235 8.23131C14.0578 8.95332 14.9243 9.87461 15.6058 10.4551C17.9827 12.4796 20.9141 13.6204 24.0448 13.7388L24.5444 13.7562V6.87969V0.00033474H23.135H21.7228L21.5437 0.0898647C21.4224 0.150515 21.3329 0.219828 21.2751 0.300694C21.0932 0.549067 21.1076 0.190947 21.1076 5.1613C21.1076 8.31217 21.0989 9.70422 21.0787 9.70422C21.0123 9.70422 20.3163 9.40963 19.961 9.23057C17.8932 8.19665 16.2672 6.56201 15.2737 4.52015C14.7019 3.34471 14.39 2.22703 14.2629 0.910074C14.2282 0.537514 14.1503 0.346902 13.9683 0.190947C13.7286 -0.0141048 14.3033 0.00033474 7.02253 0.00033474H0.455078L0.463742 1.40682Z" fill="#090C21"/>
<path d="M14.349 19.7315C13.7483 20.9589 13.1995 22.0853 13.0782 22.3394C13.0176 22.4665 12.8125 22.8882 12.619 23.278L12.2725 23.9856L12.7317 23.9943C13.1822 24.0001 13.1966 24.0001 13.3093 23.9279C13.4046 23.8672 13.4479 23.8037 13.5692 23.5524L13.7136 23.2492H14.9237H16.1309L16.2407 23.486C16.4688 23.9798 16.5006 24.0001 17.1071 24.0001C17.3526 24.0001 17.5547 23.9943 17.5547 23.9885C17.5547 23.9567 17.4074 23.6477 16.9222 22.66C16.6334 22.0737 16.3995 21.5914 16.3995 21.5885C16.3995 21.5828 16.18 21.1322 15.9143 20.5864C15.6486 20.0434 15.3598 19.4485 15.2732 19.2694L15.1172 18.946H14.9237H14.7331L14.349 19.7315ZM15.2732 21.4152C15.4493 21.7965 15.6226 22.1719 15.6602 22.2528L15.7266 22.3972L14.9324 22.4059C14.4963 22.4087 14.1324 22.4087 14.1266 22.4001C14.1208 22.3943 14.2652 22.0651 14.4501 21.6723C14.6349 21.2766 14.814 20.8925 14.8486 20.8174C14.8833 20.7423 14.9208 20.6903 14.9324 20.7019C14.9439 20.7134 15.097 21.034 15.2732 21.4152Z" fill="#090C21"/>
<path d="M0.469719 19.0153C0.461055 19.0384 0.458166 19.2145 0.463943 19.4052C0.472607 19.7402 0.475495 19.7575 0.553472 19.8326L0.63145 19.9135L1.32458 19.9221L2.01772 19.9308V21.9669V24.0001H2.52313H3.02854V21.964V19.9279H3.68124C4.59387 19.9279 4.59964 19.925 4.58231 19.307L4.57365 18.9893L2.5289 18.9806C0.767189 18.9748 0.484159 18.9806 0.469719 19.0153Z" fill="#090C21"/>
<path d="M7.03389 18.9951C7.02234 19.0037 7.01367 20.1358 7.01367 21.5077V24.0001H8.80427H10.5949V23.6362C10.5949 23.2752 10.5949 23.2723 10.5111 23.1885L10.4274 23.1048H9.19705H7.96673L7.97251 22.5243L7.98117 21.9438H8.87647C9.37033 21.9438 9.81509 21.9322 9.86419 21.9178C10.0201 21.8716 10.0432 21.8051 10.049 21.3921L10.0519 21.0225L9.05842 21.0254C8.50969 21.0254 8.03893 21.0196 8.01294 21.008C7.97251 20.9936 7.96673 20.9243 7.96673 20.4449V19.899H9.13351C9.8844 19.899 10.3292 19.8875 10.3869 19.8672C10.5313 19.8182 10.5689 19.6969 10.5602 19.3156L10.5515 18.9893L8.80138 18.9806C7.83966 18.9777 7.04255 18.9835 7.03389 18.9951Z" fill="#090C21"/>
<path d="M19.6055 21.4874V24.0001H19.9982C20.212 24.0001 20.4141 23.9856 20.4459 23.9712C20.5816 23.8961 20.5874 23.8499 20.5874 22.582V21.3921L20.6712 21.5192C20.7174 21.5885 20.8791 21.8485 21.0351 22.0939C21.191 22.3394 21.373 22.6253 21.4394 22.7293C21.6213 23.0152 21.7513 23.2174 21.8668 23.3993C21.9563 23.5437 21.9852 23.5669 22.0603 23.5669C22.1556 23.5669 22.1527 23.5697 22.6437 22.7871C22.7766 22.5734 22.9845 22.2441 23.1029 22.0564C23.2213 21.8687 23.3426 21.6723 23.3744 21.6203C23.5419 21.3402 23.5303 21.2651 23.5303 22.6051L23.5332 23.821L23.6083 23.9105L23.6834 24.0001H24.1137H24.5441L24.5383 21.4932L24.5296 18.9893L24.2841 18.9806C24.0906 18.9748 24.0213 18.9835 23.9578 19.0239C23.8827 19.073 23.7469 19.281 22.5282 21.19C22.2856 21.577 22.0748 21.8918 22.0661 21.8918C22.0545 21.8918 21.9852 21.7965 21.913 21.6809C21.8379 21.5683 21.5665 21.1409 21.3094 20.7366C20.2408 19.0615 20.2524 19.0788 20.1513 19.0268C20.082 18.9893 19.9867 18.9748 19.8307 18.9748H19.6055V21.4874Z" fill="#090C21"/>
</svg>
