<svg xmlns="http://www.w3.org/2000/svg" width="74" height="75" fill="none"><circle cx="37" cy="37.086" r="37" fill="#090C21"/><path fill="#fff" d="M24.104 43.696h-2.226v-4.549h-4.406v-2.226h4.406v-4.55h2.226v4.55h4.405v2.226h-4.405zm12.37 2.49c-3.09 0-5.124-2.059-5.435-4.525h2.68c.192 1.365 1.006 2.37 2.778 2.37 3.065 0 3.879-2.873 3.879-5.722v-.24l-.072-.023c-.862 1.389-2.394 2.179-4.262 2.179-3.208 0-5.434-2.25-5.434-5.507 0-3.208 2.226-5.746 5.913-5.746 4.74 0 6.44 3.52 6.44 8.571 0 5.435-2.37 8.643-6.488 8.643m-.049-8.14c2.25 0 3.663-1.437 3.663-3.52 0-2.01-1.245-3.399-3.52-3.399-2.154 0-3.327 1.365-3.327 3.448 0 2.178 1.269 3.471 3.184 3.471m14.618 8.14c-3.95 0-6.105-2.394-6.2-5.171h2.633c.168 1.508 1.03 2.944 3.424 2.944 2.107 0 3.495-1.292 3.495-3.758 0-2.323-1.269-3.376-3.328-3.376-1.34 0-2.561.455-3.352 1.484h-2.657l1.772-9.001h9.409v2.226h-7.422l-.91 4.573v.048c.862-.886 2.083-1.437 3.855-1.437 3.136 0 5.315 2.322 5.315 5.483 0 3.663-2.634 5.985-6.034 5.985"/></svg>