<svg xmlns="http://www.w3.org/2000/svg" width="99" height="24" fill="none"><path fill="#090C21" d="M12.775.11a21 21 0 0 0-2.335.4C5.193 1.813 1.67 5.161.808 9.651c-.3 1.521-.2 4.357.175 5.66 1.124 3.784 4.035 6.571 8.295 7.922 1.81.572 3.148.767 5.396.767 2.923-.012 4.86-.438 7.37-1.643 3.099-1.473 5.31-4.053 6.21-7.23.237-.827.274-1.29.274-3.103 0-2.458-.187-3.322-1.062-5.111C25.605 3.103 21.445.584 16.223.11c-1.586-.147-1.799-.147-3.448 0m4.597.669c3.898.608 7.284 2.677 9.008 5.477 1.236 2.008 1.786 4.6 1.499 7.046-.15 1.376-.7 3.152-1.237 4.077-1.812 3.092-5.16 5.21-9.332 5.915-1.724.292-4.96.183-6.646-.243-5.909-1.449-9.419-5.526-9.419-10.966 0-1.63.15-2.616.612-3.919C3.768 2.763 10.277-.353 17.373.78"/><path fill="#090C21" d="M12.813 1.314c-2.748.341-4.972 1.18-6.883 2.593-2.836 2.105-4.335 5.622-3.935 9.237.262 2.41 1.061 4.187 2.61 5.842 2.524 2.69 7.121 4.21 11.418 3.773 5.934-.609 10.02-3.737 11.006-8.447.262-1.204.262-3.37 0-4.576-1.05-4.965-5.659-8.251-11.918-8.482-.787-.025-1.823 0-2.298.06m1.736 4.516c.662.194.975.377 1.5.876.749.706.936 1.18.936 2.324 0 .913-.337 1.607-1.074 2.24l-.55.474.5.22c.662.292 1.574 1.253 1.736 1.837.538 1.887-.337 3.603-2.223 4.333-.675.268-.85.28-4.572.28H6.929l-.038-6.268c-.012-3.444 0-6.34.038-6.426.037-.11.837-.146 3.423-.146 3.048 0 3.435.024 4.197.256m7.658-.11c.237.231.212 12.426-.025 12.62-.112.098-.624.135-1.461.11l-1.3-.036-.037-6.268c-.013-3.444 0-6.34.037-6.426.075-.207 2.574-.207 2.786 0"/><path fill="#090C21" d="m9.74 10.844 1.624-.061c1.899-.085 2.336-.243 2.586-.998.137-.377.125-.523-.025-.876-.275-.633-.75-.78-2.624-.78H9.74zm0 5.075h1.949c2.548 0 3.06-.22 3.073-1.327.012-1.132-.488-1.35-3.073-1.35h-1.95zM36.673 5.647c-3.123.742-5.284 3.7-5.022 6.925.3 3.627 2.986 6.012 6.771 6.024 1.687 0 3.898-.718 5.035-1.643l.387-.328-.025-2.641-.038-2.629H38.41v1.826l3.31.073v2.434l-.787.353c-2.124.973-4.085.742-5.534-.658-1.037-.998-1.35-1.764-1.35-3.359 0-1.046.038-1.229.388-1.96.937-1.946 2.648-2.871 4.722-2.543.762.122 1.837.56 2.524 1.047.25.17.287.158.75-.316.261-.28.561-.633.661-.792.163-.267.15-.316-.062-.547-1.075-1.156-4.198-1.777-6.359-1.266m27.108-.012c-3.06.754-5.071 3.298-5.071 6.426 0 3.712 2.91 6.535 6.745 6.535 3.886-.012 6.871-2.86 6.871-6.572 0-2.872-1.736-5.282-4.472-6.23-.95-.33-3.048-.403-4.073-.16m2.499 1.898c1.449.256 2.623 1.169 3.273 2.52.3.608.337.84.337 1.971 0 1.144-.037 1.351-.35 2.009-1.636 3.42-6.433 3.395-8.057-.037-.625-1.339-.512-3.335.287-4.527.637-.962 1.762-1.729 2.86-1.948.726-.134.825-.134 1.65.012m-19.875-1.69c-.038.085-.05 2.92-.038 6.304l.038 6.146h2.123l.038-2.166.025-2.154h2.86l3.199 4.38h1.236c1.137 0 1.224-.011 1.162-.23-.025-.122-.737-1.157-1.574-2.3-.824-1.144-1.511-2.13-1.511-2.191s.262-.207.6-.329c.849-.328 1.91-1.4 2.185-2.24.587-1.788-.037-3.699-1.511-4.624-1.05-.657-1.7-.742-5.422-.742-2.573 0-3.373.036-3.41.146m7.158 2.142c1.311.681 1.499 2.3.387 3.335-.625.571-1.262.705-3.548.705h-1.811V9.92c0-1.168.037-2.154.087-2.203.063-.049 1.05-.073 2.224-.049 1.924.037 2.173.061 2.66.317m20.913-2.143c-.187.182-.2 6.864-.025 8.203.325 2.422 1.786 4.004 4.122 4.43 2.149.401 4.273-.146 5.497-1.412 1.312-1.351 1.499-2.203 1.499-7.193 0-2.081-.037-3.87-.075-3.98-.062-.158-.287-.194-1.112-.194h-1.05l-.037 4.223c-.037 4.162-.037 4.247-.337 4.88-.35.755-1.112 1.436-1.811 1.619-.275.073-.937.11-1.45.085-1.361-.049-2.023-.462-2.623-1.607l-.437-.84-.037-4.174-.05-4.186h-.962c-.588 0-1.025.06-1.112.146m13.904 0c-.038.085-.05 2.92-.038 6.304l.038 6.146h2.123l.038-1.96.025-1.959 1.911-.073c2.711-.097 4.123-.596 5.022-1.74.937-1.193 1.137-3.018.5-4.406-.425-.937-1.287-1.728-2.286-2.117-.662-.256-.912-.28-3.998-.317-2.61-.036-3.285-.012-3.335.122m6.596 2.203c1.536.888 1.461 3.067-.15 3.882-.637.329-.737.34-2.461.34h-1.8v-2.226c0-1.23.038-2.276.1-2.325.05-.049.9-.073 1.9-.049 1.724.037 1.836.061 2.41.378"/></svg>