<svg width="117" height="24" viewBox="0 0 117 24" fill="none" xmlns="http://www.w3.org/2000/svg">
<path d="M12.6668 0.110685C12.6461 0.172952 12.6253 2.13779 12.6322 4.48314C12.6322 9.13925 12.653 9.43674 13.0127 10.1009C13.1995 10.4537 14.0367 11.3462 14.175 11.3462C14.2096 11.3462 14.4103 11.4292 14.6247 11.533L15.0122 11.7267L18.3953 11.7475C21.0865 11.7613 21.7922 11.7475 21.8407 11.6783C21.8683 11.6299 21.896 11.4708 21.896 11.3324C21.896 11.1041 21.8614 11.0487 21.6123 10.8965C21.4601 10.7928 21.2803 10.6959 21.218 10.6751C21.1557 10.6475 20.9482 10.5437 20.7683 10.433C20.5884 10.3292 20.4085 10.2393 20.3739 10.2393C20.3394 10.2393 20.1526 10.1424 19.9588 10.0317C19.7651 9.91411 19.5783 9.82417 19.5368 9.82417C19.4953 9.82417 19.3293 9.72731 19.1632 9.61662C18.9972 9.49901 18.8242 9.40907 18.7758 9.40907C18.7343 9.40907 18.5406 9.31221 18.3538 9.20151C18.1739 9.0839 17.9871 8.99396 17.9525 8.99396C17.9179 8.99396 17.7795 8.90402 17.655 8.78641C17.5236 8.66879 17.399 8.57885 17.3713 8.57885C17.2537 8.57885 16.0153 7.36121 16.0153 7.23668C16.0153 7.209 15.9254 7.07063 15.8078 6.93918C15.6971 6.81465 15.6002 6.66245 15.6002 6.6071C15.6002 6.55867 15.5726 6.50332 15.5449 6.48948C15.4688 6.45489 15.1851 5.95677 15.1851 5.85299C15.1851 5.79764 15.109 5.62468 15.0191 5.45864C14.9222 5.29259 14.7977 4.98127 14.7423 4.76679C14.687 4.55232 14.5625 4.11646 14.4587 3.79821C14.3549 3.47997 14.1819 2.90573 14.0643 2.52522C13.8291 1.76419 13.497 0.747182 13.3379 0.290565C13.241 0.0207462 13.2203 -9.53674e-06 12.9712 -9.53674e-06C12.7983 -9.53674e-06 12.6945 0.0345831 12.6668 0.110685Z" fill="#090C21"/>
<path d="M11.3312 2.6914C11.2136 2.8782 11.1029 3.08575 11.089 3.15494C11.0752 3.23104 11.0475 3.30022 11.0198 3.32098C10.9991 3.34173 10.7777 3.743 10.5286 4.22038C10.2865 4.69775 10.0305 5.19588 9.96132 5.32733C9.89213 5.45878 9.80219 5.63174 9.7676 5.70784C9.46319 6.32358 8.7921 7.33367 8.69524 7.33367C8.66757 7.33367 8.59146 7.43053 8.5292 7.54123C8.46693 7.65884 8.36316 7.74878 8.31473 7.74878C8.25938 7.74878 8.19711 7.79029 8.17636 7.84564C8.14177 7.93558 7.33923 8.57899 7.25621 8.57899C7.23545 8.57899 7.08324 8.66893 6.9172 8.78655C6.75116 8.89724 6.58512 8.9941 6.55744 8.9941C6.52285 8.9941 6.30838 9.08404 6.08699 9.20165C5.8656 9.31235 5.63729 9.40921 5.58194 9.40921C5.53351 9.40921 5.22218 9.49915 4.89702 9.61676C4.57877 9.72745 4.26052 9.82431 4.20517 9.82431C4.14291 9.82431 3.84541 9.91425 3.53409 10.0249C3.22276 10.1356 2.64852 10.3224 2.24726 10.447C0.462298 10.9935 0.36544 11.0489 0.393114 11.4432L0.413869 11.7269L5.00771 11.7476L9.59464 11.7615L10.1274 11.5262C10.4179 11.3948 10.7431 11.208 10.8538 11.1111C10.9645 11.0143 11.0752 10.9313 11.1098 10.9313C11.1444 10.9313 11.1997 10.869 11.2412 10.7998C11.2758 10.7237 11.3519 10.6269 11.4004 10.5715C11.5871 10.3778 11.7601 10.0457 11.9123 9.62368C12.0714 9.1809 12.0714 9.13247 12.0714 5.84621C12.0714 3.34865 12.0507 2.49768 11.9884 2.43542C11.8016 2.24862 11.5595 2.34548 11.3312 2.6914Z" fill="#090C21"/>
<path d="M59.0818 7.01534C58.5422 7.13987 57.8088 7.38893 57.6151 7.51347C57.5321 7.5619 57.3453 7.67259 57.2069 7.75561C56.8472 7.95625 56.349 8.37135 56.349 8.46821C56.349 8.50972 56.2799 8.57891 56.1968 8.6135C55.8232 8.77954 55.1522 10.0456 54.9861 10.8966C54.7716 12.0105 54.9031 13.6086 55.2698 14.3143C55.3666 14.4873 55.4566 14.6948 55.4773 14.7709C55.4981 14.847 55.6088 15.0131 55.7264 15.1376C55.8371 15.2621 55.927 15.3797 55.9201 15.4005C55.9132 15.4697 56.4528 16.0162 56.7365 16.2307C56.8887 16.3345 57.0616 16.4798 57.1308 16.5489C57.2 16.6181 57.2969 16.6735 57.3591 16.6735C57.4145 16.6735 57.5736 16.7496 57.7189 16.8395C57.8642 16.9295 58.2585 17.0747 58.5975 17.1647C59.4554 17.393 61.0259 17.3999 61.8215 17.1785C62.5203 16.9848 63.2536 16.5835 63.7587 16.1338C64.3122 15.6288 64.3052 15.5596 63.5996 14.8747C63.2882 14.5703 62.9977 14.3212 62.9562 14.3212C62.8524 14.3212 62.5756 14.6187 62.5756 14.7294C62.5756 14.7778 62.5341 14.8055 62.4788 14.7847C62.4304 14.764 62.2712 14.847 62.1329 14.9715C62.0014 15.0961 61.8769 15.186 61.8561 15.1722C61.7939 15.1099 61.5379 15.2344 61.5794 15.3036C61.6071 15.3521 61.5932 15.359 61.5517 15.3313C61.5102 15.3036 61.2957 15.3382 61.0743 15.4005C60.5485 15.5527 59.6284 15.4973 59.1095 15.2898C58.5214 15.0476 58.2724 14.9162 58.2378 14.8193C58.217 14.7778 58.1686 14.7363 58.1202 14.7363C58.0787 14.7363 57.9264 14.6049 57.7742 14.4527C57.0409 13.6709 56.7503 12.6469 56.944 11.5331C57.0063 11.1456 57.1101 10.8205 57.2138 10.6475C57.3107 10.5022 57.3868 10.3569 57.3868 10.3293C57.3868 10.2947 57.539 10.1148 57.7189 9.928C57.8919 9.73428 58.0371 9.56132 58.0233 9.53365C58.0164 9.50598 58.0579 9.49906 58.1132 9.51981C58.1686 9.54749 58.217 9.52673 58.217 9.48522C58.217 9.40912 58.729 9.15314 59.2894 8.94558C59.6215 8.82797 60.8322 8.80721 61.2335 8.91791C61.3787 8.95942 61.6001 9.05628 61.7108 9.13238C61.8284 9.20848 61.9599 9.27075 62.0014 9.27075C62.0913 9.27075 62.209 9.35377 62.6448 9.73428C62.9562 10.011 63.0115 10.011 63.1914 9.78271C63.2744 9.67894 63.3367 9.62359 63.3367 9.65818C63.3367 9.68586 63.475 9.57516 63.648 9.4022C63.9662 9.09779 64.1669 8.8003 64.1669 8.64117C64.1669 8.49588 63.4335 7.84555 63.0115 7.61032C62.7901 7.49271 62.3335 7.299 61.9876 7.18138C61.441 7.0015 61.2473 6.96691 60.4309 6.94615C59.8013 6.93232 59.3655 6.95307 59.0818 7.01534Z" fill="#090C21"/>
<path d="M29.8516 12.1419V17.2269H30.8547H31.8579V15.0822V12.9375H34.314H36.77V14.9231C36.77 16.0231 36.7908 16.9848 36.8115 17.0747C36.853 17.22 36.8807 17.2269 37.8147 17.2269H38.7763V12.1419V7.04991L37.7939 7.07066C37.0606 7.0845 36.8046 7.11217 36.7977 7.17444C36.7908 7.22287 36.7838 8.1361 36.7769 9.20154L36.77 11.1387H34.314H31.8579V9.09776V7.05682H30.8547H29.8516V12.1419Z" fill="#090C21"/>
<path d="M41.2666 12.1419V17.2269H42.2698H43.2729V15.7741V14.3212L44.5736 14.335C45.5699 14.3489 45.8674 14.3765 45.8674 14.4457C45.8674 14.4941 45.902 14.5564 45.9435 14.5841C45.9781 14.6118 46.0888 14.757 46.1787 14.9023C46.2686 15.0545 46.4347 15.2828 46.5454 15.4074C46.6561 15.5319 46.7252 15.6357 46.7045 15.6357C46.6837 15.6357 46.7737 15.7741 46.9051 15.947C47.0366 16.12 47.1957 16.3552 47.2649 16.4659C47.3272 16.5835 47.4102 16.6735 47.4378 16.6735C47.4655 16.6735 47.4932 16.7219 47.4932 16.7772C47.4932 16.8257 47.5485 16.9087 47.6177 16.9433C47.68 16.9848 47.7077 17.0194 47.68 17.0194C47.6454 17.0194 47.6662 17.0678 47.7284 17.1232C47.8114 17.2062 48.0398 17.2269 48.87 17.2269C49.8316 17.2269 49.9146 17.22 49.9146 17.1024C49.9146 16.9571 49.5203 16.3967 49.4165 16.3967C49.3819 16.3967 49.3612 16.3552 49.3819 16.3068C49.3958 16.2653 49.3058 16.0992 49.1813 15.9539C49.0568 15.8086 48.9668 15.6564 48.9876 15.6288C49.0083 15.5942 48.9945 15.5665 48.953 15.5665C48.9184 15.5665 48.8285 15.4766 48.7662 15.3659C48.697 15.2483 48.6209 15.1722 48.5863 15.1929C48.5586 15.2137 48.5448 15.186 48.5656 15.1376C48.5863 15.0891 48.4895 14.9231 48.358 14.7778C48.2266 14.6256 48.1366 14.4803 48.1574 14.4526C48.1712 14.425 48.1435 14.3765 48.0951 14.3419C48.0398 14.3143 47.9429 14.2036 47.8806 14.0998C47.7561 13.913 47.7561 13.9061 47.9567 13.8231C48.2681 13.6916 48.8769 13.2073 48.8285 13.1243C48.8077 13.0897 48.8215 13.0759 48.8561 13.0966C48.9737 13.1727 49.3888 12.474 49.5549 11.9343C49.7555 11.2702 49.804 10.7789 49.714 10.1563C49.6448 9.66508 49.5826 9.46444 49.2989 8.86254C48.9945 8.21912 47.7907 7.36124 47.1334 7.31973C46.9674 7.30589 46.8221 7.27821 46.8014 7.25054C46.7045 7.12601 45.6183 7.05682 43.5358 7.05682H41.2666V12.1419ZM45.8189 8.9248C46.3862 9.00091 46.9674 9.23613 47.2095 9.50595C47.2995 9.60281 47.4033 9.66508 47.4309 9.64432C47.4655 9.62357 47.4932 9.67199 47.4932 9.75502C47.4932 9.83804 47.5416 9.99716 47.6039 10.1148C47.7699 10.4261 47.7492 11.0488 47.5624 11.457C47.3963 11.8167 46.9812 12.2387 46.7875 12.2457C46.7252 12.2457 46.6561 12.2733 46.6284 12.3079C46.5315 12.474 45.6045 12.5916 44.456 12.5916H43.2729V10.7236V8.85562H44.2969C44.8573 8.85562 45.5422 8.89021 45.8189 8.9248Z" fill="#090C21"/>
<path d="M68.5949 7.27821C68.5396 7.40275 68.4912 7.52728 68.4912 7.54803C68.4912 7.59646 67.9308 8.80719 67.7163 9.21538C67.6264 9.40217 67.5641 9.57514 67.5918 9.60973C67.6125 9.64432 67.5987 9.69275 67.5641 9.7135C67.5018 9.75502 67.3012 10.1632 66.8999 11.0695C66.4433 12.1073 65.9383 13.2004 65.6823 13.7193C65.5716 13.9407 65.4816 14.1551 65.4816 14.1967C65.4816 14.2382 65.371 14.508 65.2326 14.7986C65.0942 15.0891 64.9143 15.4766 64.8244 15.6703C64.7345 15.8571 64.5684 16.2168 64.4508 16.4659C64.3332 16.715 64.2363 16.9848 64.2363 17.0678C64.2363 17.2269 64.2432 17.2269 65.2395 17.2269H66.2427L66.3949 16.9364C66.4848 16.7703 66.554 16.5904 66.5609 16.5351C66.5609 16.4797 66.6439 16.2653 66.7477 16.0715C66.8515 15.8709 66.9968 15.5388 67.0798 15.3244L67.2182 14.9438H69.6742C71.7221 14.9438 72.1233 14.9577 72.1233 15.0407C72.1233 15.096 72.2202 15.3244 72.3309 15.5527C72.4485 15.7879 72.5385 16.0024 72.5385 16.037C72.5385 16.1131 72.7529 16.5558 72.8152 16.6043C72.8359 16.625 72.8982 16.7703 72.9536 16.9294L73.0435 17.2269H74.0743C75.0637 17.2269 75.0983 17.22 75.0983 17.0816C75.0983 17.0055 75.0637 16.8741 75.0153 16.7911C74.9668 16.708 74.9253 16.6043 74.9253 16.5697C74.9184 16.5074 74.697 16.0162 74.2681 15.1099C74.192 14.9508 74.1297 14.7986 74.1297 14.764C74.1297 14.7294 74.0605 14.591 73.9775 14.4596C73.8945 14.3281 73.8184 14.169 73.8114 14.1136C73.7976 14.0583 73.7561 14.0029 73.7146 13.9891C73.68 13.9753 73.6592 13.9338 73.68 13.9061C73.7008 13.8715 73.6246 13.657 73.507 13.4287C73.3963 13.2004 73.2995 12.9721 73.2995 12.9306C73.2995 12.8891 73.2303 12.7369 73.1473 12.5985C73.0573 12.4601 72.9882 12.3356 72.9812 12.3148C72.9674 12.2318 72.7668 11.7821 72.234 10.6475C72.0957 10.3638 71.985 10.1009 71.985 10.0663C71.985 10.0318 71.895 9.81728 71.7843 9.58205C71.6667 9.35375 71.4799 8.9594 71.3692 8.69649C71.2516 8.44051 71.0648 8.03924 70.9541 7.7971C70.8434 7.56187 70.7327 7.29897 70.7051 7.20903C70.6636 7.06374 70.6359 7.05682 69.6811 7.05682H68.6987L68.5949 7.27821ZM69.9094 9.89338C69.9994 10.0663 70.0755 10.2393 70.0755 10.2808C70.0824 10.3223 70.1654 10.5506 70.2761 10.7859C70.3799 11.0142 70.539 11.3878 70.629 11.6022C70.7258 11.8236 70.9126 12.2457 71.0441 12.5431C71.1824 12.8406 71.2931 13.1105 71.2931 13.1451C71.2931 13.1866 70.6497 13.2142 69.6327 13.2142H67.9723L68.1037 12.9167C68.5327 11.9758 68.6641 11.6714 68.6641 11.6161C68.6641 11.5884 68.761 11.3463 68.8786 11.0903C69.1968 10.3846 69.4736 9.7481 69.5704 9.4852C69.6604 9.24997 69.6604 9.24997 69.7019 9.41601C69.7296 9.50595 69.8264 9.72042 69.9094 9.89338Z" fill="#090C21"/>
<path d="M76.2744 12.1419V17.2269H77.243H78.2116V15.8156V14.4042L79.7751 14.3765C80.6607 14.3627 81.3525 14.3212 81.3802 14.2866C81.4079 14.2451 81.6016 14.2105 81.8092 14.1967C82.2519 14.169 83.1237 13.7885 83.4073 13.4979C83.5042 13.3941 83.6218 13.3249 83.6633 13.3388C83.7117 13.3526 83.7463 13.318 83.7463 13.2696C83.7463 13.2142 83.8224 13.0966 83.9193 13.0067C84.1061 12.8337 84.4935 12.128 84.5627 11.8375C84.5835 11.7406 84.6042 11.1871 84.6042 10.6198L84.5973 9.58205L84.3482 9.1116C84.1199 8.68266 83.6771 8.06692 83.6771 8.19145C83.6771 8.21912 83.601 8.15686 83.5111 8.04616C83.3312 7.83169 82.4664 7.3474 82.2519 7.33356C81.906 7.31973 81.7538 7.29205 81.7815 7.25746C81.8576 7.13293 80.5708 7.05682 78.5229 7.05682H76.2744V12.1419ZM80.8959 8.94556C81.3249 8.99399 82.1551 9.3745 82.1551 9.51979C82.1551 9.57514 82.2035 9.6374 82.2589 9.66508C82.4872 9.7481 82.5909 10.1148 82.5979 10.772V11.4154L82.3211 11.7406C81.7746 12.3979 81.0481 12.5916 79.1663 12.5916H78.2116V10.7236V8.85562L79.3393 8.84178C79.955 8.82794 80.4739 8.84178 80.4947 8.86254C80.5154 8.88329 80.6953 8.9248 80.8959 8.94556Z" fill="#090C21"/>
<path d="M86.375 12.1419V17.2269H87.3436H88.3122V12.1419V7.05682H87.3436H86.375V12.1419Z" fill="#090C21"/>
<path d="M89.627 7.95622V8.85562H91.2528H92.8786V13.0413V17.2269H93.8818H94.885V13.0413V8.85562H96.5108H98.1366V7.95622V7.05682H93.8818H89.627V7.95622Z" fill="#090C21"/>
<path d="M101.894 7.20903C101.859 7.29897 101.735 7.55495 101.624 7.78326C101.52 8.01157 101.43 8.2468 101.424 8.30906C101.424 8.37133 101.389 8.46127 101.347 8.51661C101.306 8.57196 101.202 8.76568 101.119 8.9594C101.029 9.14619 100.877 9.49211 100.766 9.72042C100.663 9.94873 100.462 10.3984 100.317 10.7236C100.178 11.0488 100.019 11.3947 99.9638 11.4985C99.9084 11.5953 99.8669 11.7268 99.8669 11.789C99.8669 11.8513 99.8392 11.8997 99.7977 11.8997C99.7631 11.8997 99.7285 11.9412 99.7285 11.9966C99.7285 12.045 99.6386 12.2595 99.521 12.474C99.4103 12.6884 99.3134 12.9029 99.3134 12.9444C99.3134 12.9859 99.2027 13.2488 99.0644 13.5186C98.9329 13.7954 98.8153 14.0652 98.8015 14.1205C98.7946 14.1759 98.7185 14.3281 98.6354 14.4596C98.5524 14.591 98.4832 14.7432 98.4832 14.7847C98.4832 14.8331 98.3933 15.0545 98.2895 15.269C97.8882 16.0854 97.6945 16.5074 97.6738 16.6389C97.6599 16.715 97.6184 16.8049 97.5838 16.8395C97.5423 16.881 97.5146 16.9779 97.5146 17.0678C97.5146 17.2269 97.5146 17.2269 98.5524 17.2269C99.4241 17.2269 99.5902 17.2131 99.5902 17.1232C99.5902 17.0678 99.6801 16.8257 99.7908 16.5904C100.074 15.9747 100.407 15.2067 100.448 15.0615C100.483 14.9508 100.663 14.9438 102.911 14.9438H105.332L105.464 15.2344C105.533 15.4005 105.685 15.7464 105.803 16.0162C105.914 16.2791 106.08 16.6665 106.17 16.8672L106.322 17.2269H107.353C108.37 17.2269 108.377 17.2269 108.377 17.0678C108.377 16.9848 108.287 16.7288 108.176 16.5005C107.941 16.0024 107.726 15.525 107.373 14.7363C107.235 14.4111 107.028 13.9614 106.924 13.7331C106.82 13.5048 106.633 13.0966 106.509 12.8337C106.384 12.5639 106.211 12.1903 106.128 12.0035C106.038 11.8098 105.851 11.3947 105.713 11.0695C105.575 10.7444 105.367 10.3085 105.256 10.094C105.146 9.87955 105.056 9.66508 105.056 9.61665C105.056 9.57514 104.993 9.4506 104.924 9.35375C104.855 9.24997 104.786 9.13236 104.779 9.09776C104.71 8.81411 104.412 8.16377 104.35 8.16377C104.322 8.16377 104.295 8.10843 104.295 8.03924C104.295 7.97698 104.205 7.72791 104.087 7.48577L103.887 7.05682H102.925C101.998 7.05682 101.963 7.06374 101.894 7.20903ZM103.084 9.68583C103.146 9.87955 103.278 10.177 103.368 10.35C103.458 10.523 103.534 10.6959 103.534 10.7444C103.534 10.7859 103.61 10.9796 103.7 11.1733C103.845 11.4777 104.198 12.2664 104.475 12.9237C104.53 13.0482 104.571 13.1658 104.571 13.1796C104.571 13.2004 103.824 13.2142 102.911 13.2142C101.998 13.2142 101.251 13.2004 101.251 13.1796C101.251 13.1589 101.347 12.9583 101.458 12.7299C101.576 12.5016 101.666 12.2802 101.666 12.2318C101.666 12.1834 101.756 11.962 101.866 11.7268C102.198 11.0349 102.358 10.6544 102.358 10.5506C102.358 10.4953 102.385 10.4469 102.42 10.4469C102.454 10.4469 102.503 10.3777 102.531 10.2877C102.572 10.1286 102.925 9.33991 102.953 9.33991C102.959 9.33991 103.022 9.49903 103.084 9.68583Z" fill="#090C21"/>
<path d="M109.483 12.1419V17.2269H113.046H116.609V16.3275V15.4281H114.05H111.49V11.2425V7.05682H110.487H109.483V12.1419Z" fill="#090C21"/>
<path d="M3.00858 12.2389C2.8633 12.2804 2.8287 12.3357 2.81487 12.571C2.79411 12.8408 2.80795 12.8615 3.1262 13.0483C3.30608 13.1521 3.8042 13.415 4.21931 13.6295C4.64134 13.844 5.05644 14.0653 5.1533 14.1138C5.4162 14.2521 5.54765 14.3213 6.26025 14.688C6.62001 14.8748 7.04895 15.1239 7.21499 15.2415C7.75463 15.6427 8.09364 15.9264 8.1559 16.0371C8.19049 16.0994 8.30811 16.2239 8.4188 16.3138C8.52258 16.4038 8.61252 16.5214 8.61252 16.5767C8.61252 16.6321 8.64019 16.6736 8.67478 16.6736C8.73013 16.6736 9.29053 17.49 9.36663 17.6768C9.38047 17.7114 9.48424 17.9327 9.59494 18.1541C9.70563 18.3824 9.82325 18.673 9.85092 18.8114C9.88551 18.9498 9.99621 19.3095 10.1 19.6139C10.1968 19.9183 10.3698 20.4441 10.4736 20.7901C11.4837 24.0486 11.4768 24.0279 11.8227 23.9933L12.0371 23.9725L12.0579 19.3925L12.0717 14.8056L11.8988 14.3144C11.7535 13.8855 11.3038 13.1521 11.1516 13.0829C11.1239 13.076 11.0271 12.993 10.944 12.903C10.861 12.8131 10.5635 12.6263 10.2799 12.481L9.76098 12.2112L6.47472 12.1974C4.66209 12.1904 3.10544 12.2112 3.00858 12.2389Z" fill="#090C21"/>
<path d="M15.1848 12.2457C14.9704 12.2734 14.7074 12.3426 14.5968 12.4049C14.4791 12.4671 14.2923 12.564 14.1816 12.6193C13.8426 12.7785 13.2892 13.3734 13.0263 13.8508C12.6665 14.5012 12.625 14.9301 12.625 18.2579C12.625 21.4196 12.6388 21.5856 12.9709 21.5856C13.0747 21.5856 13.1923 21.5441 13.2338 21.4957C13.3307 21.3781 13.9049 20.2988 15.0188 18.1402C15.1848 17.822 15.5031 17.3031 15.7314 16.9987C16.1188 16.466 16.7069 15.8433 16.8245 15.8433C16.8591 15.8433 16.9767 15.7465 17.1012 15.6358C17.2258 15.5182 17.3503 15.4282 17.378 15.4282C17.4056 15.4282 17.5094 15.366 17.6063 15.2899C17.8 15.1307 18.9 14.598 19.0176 14.598C19.0661 14.598 19.3013 14.5219 19.5504 14.4181C19.7925 14.3213 20.1177 14.2175 20.2699 14.1898C20.4221 14.1552 20.7818 14.0515 21.0655 13.9546C21.3492 13.8647 21.9095 13.6848 22.3108 13.5602C22.7121 13.4357 23.3209 13.2351 23.6599 13.1105L24.2826 12.8892L24.3033 12.5917C24.3172 12.3979 24.2964 12.2734 24.2341 12.2388C24.1234 12.1696 15.7245 12.1766 15.1848 12.2457Z" fill="#090C21"/>
</svg>
