<svg width="129" height="37" viewBox="0 0 129 37" fill="none" xmlns="http://www.w3.org/2000/svg">
<path d="M17.3918 33.6357C15.8822 33.6357 14.6356 34.7576 14.4399 36.2122C15.5786 36.4343 16.7544 36.5522 17.9573 36.5522C18.7726 36.5522 19.5751 36.4978 20.3623 36.3941C20.2506 34.8522 18.9638 33.6357 17.3918 33.6357Z" fill="#A4B0C2"/>
<path d="M22.8531 27.0887C22.8531 23.8177 20.1987 21.1663 16.9245 21.1663C13.65 21.1663 10.9956 23.8177 10.9956 27.0887C10.9956 30.3597 13.65 33.011 16.9245 33.011C20.1987 33.011 22.8531 30.3597 22.8531 27.0887Z" fill="#A4B0C2"/>
<path d="M26.6418 21.6974C26.6418 24.1925 28.6666 26.2151 31.1643 26.2151C33.6616 26.2151 35.6864 24.1925 35.6864 21.6974C35.6864 19.2024 33.6616 17.1798 31.1643 17.1798C28.6666 17.1798 26.6418 19.2024 26.6418 21.6974Z" fill="#A4B0C2"/>
<path d="M27.9364 17.0781C27.9364 16.1278 27.1651 15.357 26.2135 15.357C25.2621 15.357 24.4909 16.1278 24.4909 17.0781C24.4909 18.0285 25.2621 18.7993 26.2135 18.7993C27.1651 18.7993 27.9364 18.0285 27.9364 17.0781Z" fill="#A4B0C2"/>
<path d="M6.10767 23.2387C6.10767 21.5949 4.77367 20.2622 3.12808 20.2622C1.66779 20.2622 0.453468 21.3124 0.198804 22.698C0.435076 23.6424 0.744225 24.5581 1.12134 25.4384C1.65078 25.9208 2.35509 26.2151 3.12808 26.2151C4.77367 26.2151 6.10767 24.8825 6.10767 23.2387Z" fill="#A4B0C2"/>
<path d="M28.4549 10.2178C28.4549 13.9193 31.4588 16.92 35.1642 16.92C35.5181 16.92 35.8654 16.8922 36.2043 16.8395C35.8501 12.2879 33.8198 8.1993 30.7313 5.18892C29.3362 6.41721 28.4549 8.21422 28.4549 10.2178Z" fill="#A4B0C2"/>
<path d="M10.5512 30.1595C10.5512 27.9809 8.78318 26.2151 6.60262 26.2151C4.9383 26.2151 3.51548 27.2441 2.93434 28.6997C4.34227 30.7171 6.14637 32.4389 8.23363 33.7514C9.60025 33.1314 10.5512 31.7568 10.5512 30.1595Z" fill="#A4B0C2"/>
<path d="M13.4914 33.8663C13.4914 32.8796 12.6907 32.08 11.7032 32.08C10.7155 32.08 9.91476 32.8796 9.91476 33.8663C9.91476 34.2191 10.0185 34.547 10.1954 34.8239C10.8206 35.1178 11.4646 35.3777 12.1255 35.6006C12.9089 35.4106 13.4914 34.7071 13.4914 33.8663Z" fill="#A4B0C2"/>
<path d="M27.9364 6.1796C28.955 6.1796 29.8397 5.60911 30.2891 4.77073C28.9838 3.57989 27.5065 2.57481 25.8984 1.79779C25.5064 2.26184 25.2694 2.86075 25.2694 3.51542C25.2694 4.98665 26.4636 6.1796 27.9364 6.1796Z" fill="#A4B0C2"/>
<path d="M21.224 5.27009C23.0282 5.27009 24.4909 3.8089 24.4909 2.0067C24.4909 1.70899 24.4499 1.42098 24.3753 1.14682C22.5823 0.474105 20.6564 0.0748527 18.649 1.43124e-05C18.216 0.553481 17.9572 1.24975 17.9572 2.0067C17.9572 3.8089 19.4199 5.27009 21.224 5.27009Z" fill="#A4B0C2"/>
<path d="M10.1228 2.77578C10.1228 2.44098 10.0787 2.11656 9.99682 1.80741C7.86552 2.84023 5.96359 4.27401 4.38982 6.01039C4.95986 6.35419 5.62772 6.55245 6.34211 6.55245C8.43002 6.55245 10.1228 4.86149 10.1228 2.77578Z" fill="#A4B0C2"/>
<path d="M4.7768 11.0869C4.7768 9.70783 4.03643 8.50175 2.93142 7.84254C1.51241 9.87696 0.496544 12.2112 7.34368e-05 14.7298C0.317509 14.8164 0.651271 14.8636 0.996139 14.8636C3.08405 14.8636 4.7768 13.1726 4.7768 11.0869Z" fill="#A4B0C2"/>
<path d="M62.2456 15.687H58.3958C58.3255 15.189 58.1819 14.7466 57.9651 14.3598C57.7483 13.9672 57.47 13.6332 57.1301 13.3578C56.7903 13.0824 56.3977 12.8715 55.9523 12.725C55.5128 12.5785 55.0353 12.5052 54.5196 12.5052C53.5879 12.5052 52.7764 12.7367 52.0849 13.1996C51.3935 13.6567 50.8573 14.3247 50.4764 15.2036C50.0956 16.0767 49.9051 17.1373 49.9051 18.3854C49.9051 19.6687 50.0956 20.7469 50.4764 21.62C50.8632 22.4931 51.4023 23.1523 52.0937 23.5976C52.7852 24.0429 53.585 24.2656 54.4933 24.2656C55.0031 24.2656 55.4748 24.1982 55.9084 24.0635C56.3478 23.9287 56.7375 23.7324 57.0774 23.4746C57.4172 23.2109 57.6985 22.8915 57.9212 22.5165C58.1497 22.1415 58.3079 21.7137 58.3958 21.2332L62.2456 21.2508C62.146 22.077 61.897 22.8739 61.4985 23.6416C61.1059 24.4033 60.5756 25.086 59.9076 25.6895C59.2455 26.2872 58.4544 26.7618 57.5344 27.1134C56.6203 27.4591 55.5861 27.632 54.4317 27.632C52.8262 27.632 51.3906 27.2687 50.1249 26.5421C48.865 25.8155 47.8689 24.7637 47.1364 23.3867C46.4098 22.0096 46.0465 20.3426 46.0465 18.3854C46.0465 16.4224 46.4157 14.7524 47.154 13.3754C47.8923 11.9984 48.8943 10.9495 50.16 10.2287C51.4257 9.50214 52.8496 9.13884 54.4317 9.13884C55.4748 9.13884 56.4416 9.28533 57.3323 9.57831C58.2288 9.8713 59.0228 10.2991 59.7142 10.8616C60.4057 11.4183 60.9682 12.1009 61.4018 12.9095C61.8413 13.7182 62.1226 14.644 62.2456 15.687Z" fill="#A4B0C2"/>
<path d="M71.0571 27.6496C69.6684 27.6496 68.473 27.3683 67.471 26.8058C66.4749 26.2374 65.7072 25.4346 65.1681 24.3975C64.6291 23.3544 64.3595 22.121 64.3595 20.6971C64.3595 19.3083 64.6291 18.0895 65.1681 17.0406C65.7072 15.9917 66.4661 15.1743 67.4446 14.5883C68.4291 14.0024 69.5834 13.7094 70.9077 13.7094C71.7984 13.7094 72.6275 13.853 73.3951 14.1401C74.1686 14.4213 74.8425 14.8462 75.4167 15.4146C75.9968 15.983 76.448 16.6978 76.7703 17.5592C77.0926 18.4147 77.2537 19.4167 77.2537 20.5652V21.5936H65.8537V19.2732H73.7291C73.7291 18.7341 73.612 18.2565 73.3776 17.8405C73.1432 17.4244 72.818 17.0992 72.4019 16.8648C71.9917 16.6246 71.5142 16.5045 70.9692 16.5045C70.4008 16.5045 69.8969 16.6363 69.4574 16.9C69.0238 17.1578 68.684 17.5065 68.4379 17.9459C68.1917 18.3796 68.0658 18.863 68.0599 19.3962V21.6024C68.0599 22.2704 68.183 22.8476 68.4291 23.3339C68.681 23.8203 69.0355 24.1953 69.4926 24.459C69.9496 24.7227 70.4917 24.8545 71.1187 24.8545C71.5347 24.8545 71.9156 24.7959 72.2613 24.6787C72.607 24.5615 72.9029 24.3857 73.149 24.1514C73.3951 23.917 73.5826 23.6298 73.7116 23.29L77.1746 23.5185C76.9988 24.3506 76.6385 25.0772 76.0935 25.6983C75.5544 26.3136 74.8571 26.7941 74.0016 27.1398C73.152 27.4797 72.1705 27.6496 71.0571 27.6496Z" fill="#A4B0C2"/>
<path d="M79.6972 32.4487V13.8852H83.3888V16.1529H83.5558C83.7199 15.7896 83.9572 15.4204 84.2678 15.0454C84.5842 14.6645 84.9944 14.3481 85.4983 14.0961C86.0081 13.8383 86.641 13.7094 87.3969 13.7094C88.3813 13.7094 89.2895 13.9672 90.1216 14.4829C90.9537 14.9927 91.6188 15.7632 92.1168 16.7945C92.6149 17.82 92.864 19.1062 92.864 20.6531C92.864 22.1591 92.6208 23.4306 92.1344 24.4678C91.6539 25.4991 90.9977 26.2814 90.1656 26.8146C89.3394 27.342 88.4135 27.6056 87.3881 27.6056C86.6615 27.6056 86.0433 27.4855 85.5335 27.2453C85.0296 27.005 84.6164 26.7032 84.2942 26.3399C83.9719 25.9708 83.7258 25.5987 83.5558 25.2237H83.4416V32.4487H79.6972ZM83.3625 20.6355C83.3625 21.4383 83.4738 22.1386 83.6965 22.7362C83.9191 23.3339 84.2414 23.7998 84.6633 24.1338C85.0852 24.4619 85.5979 24.626 86.2015 24.626C86.8109 24.626 87.3266 24.459 87.7485 24.125C88.1703 23.7851 88.4897 23.3164 88.7065 22.7187C88.9292 22.1151 89.0405 21.4207 89.0405 20.6355C89.0405 19.8562 88.9321 19.1706 88.7153 18.5788C88.4985 17.987 88.1791 17.524 87.7572 17.19C87.3353 16.856 86.8168 16.689 86.2015 16.689C85.5921 16.689 85.0764 16.8502 84.6545 17.1725C84.2385 17.4948 83.9191 17.9518 83.6965 18.5436C83.4738 19.1355 83.3625 19.8328 83.3625 20.6355Z" fill="#A4B0C2"/>
<path d="M99.1045 19.5808V27.3859H95.3602V9.38494H98.9991V16.2671H99.1573C99.462 15.4702 99.9542 14.8462 100.634 14.395C101.314 13.9379 102.166 13.7094 103.192 13.7094C104.129 13.7094 104.947 13.9145 105.644 14.3247C106.347 14.729 106.892 15.312 107.279 16.0738C107.671 16.8297 107.865 17.735 107.859 18.7897V27.3859H104.115V19.4577C104.12 18.6257 103.909 17.9782 103.482 17.5153C103.06 17.0523 102.468 16.8209 101.706 16.8209C101.196 16.8209 100.745 16.9293 100.353 17.1461C99.9659 17.3629 99.6612 17.6793 99.4385 18.0954C99.2217 18.5055 99.1104 19.0007 99.1045 19.5808Z" fill="#A4B0C2"/>
<path d="M114.55 9.38494V27.3859H110.806V9.38494H114.55Z" fill="#A4B0C2"/>
<path d="M121.399 27.6408C120.538 27.6408 119.77 27.4914 119.096 27.1925C118.422 26.8878 117.889 26.4396 117.497 25.8477C117.11 25.25 116.917 24.5059 116.917 23.6152C116.917 22.8652 117.054 22.2352 117.33 21.7254C117.605 21.2157 117.98 20.8055 118.455 20.4949C118.929 20.1843 119.468 19.95 120.072 19.7917C120.681 19.6335 121.32 19.5222 121.988 19.4577C122.773 19.3757 123.406 19.2995 123.887 19.2292C124.367 19.153 124.716 19.0417 124.933 18.8952C125.149 18.7487 125.258 18.5319 125.258 18.2448V18.1921C125.258 17.6354 125.082 17.2047 124.73 16.9C124.385 16.5953 123.892 16.4429 123.254 16.4429C122.58 16.4429 122.044 16.5924 121.645 16.8912C121.247 17.1842 120.983 17.5533 120.854 17.9987L117.391 17.7174C117.567 16.8971 117.913 16.188 118.428 15.5904C118.944 14.9868 119.609 14.5239 120.424 14.2016C121.244 13.8735 122.193 13.7094 123.271 13.7094C124.021 13.7094 124.739 13.7973 125.425 13.9731C126.116 14.1489 126.729 14.4213 127.262 14.7905C127.801 15.1597 128.226 15.6343 128.536 16.2144C128.847 16.7887 129.002 17.4772 129.002 18.2799V27.3859H125.451V25.5137H125.346C125.129 25.9356 124.839 26.3077 124.476 26.63C124.112 26.9464 123.676 27.1955 123.166 27.3771C122.656 27.5529 122.067 27.6408 121.399 27.6408ZM122.471 25.0567C123.022 25.0567 123.509 24.9483 123.931 24.7315C124.352 24.5088 124.684 24.21 124.924 23.8349C125.164 23.4599 125.284 23.0351 125.284 22.5604V21.1278C125.167 21.2039 125.006 21.2743 124.801 21.3387C124.601 21.3973 124.376 21.453 124.124 21.5057C123.872 21.5526 123.62 21.5965 123.368 21.6376C123.116 21.6727 122.888 21.7049 122.682 21.7342C122.243 21.7987 121.859 21.9012 121.531 22.0419C121.203 22.1825 120.948 22.3729 120.766 22.6132C120.585 22.8476 120.494 23.1406 120.494 23.4921C120.494 24.0019 120.678 24.3916 121.048 24.6611C121.423 24.9248 121.897 25.0567 122.471 25.0567Z" fill="#A4B0C2"/>
</svg>
