<svg width="278" height="27" viewBox="0 0 278 27" fill="none" xmlns="http://www.w3.org/2000/svg">
<g clip-path="url(#clip0_4878_42234)">
<path d="M220.789 21.2225L227.686 12.1844L227.6 14.6442L220.989 5.83496H225.997L230.176 11.5838L228.287 11.6409L232.609 5.83496H237.359L230.72 14.5582V12.1558L237.588 21.2225H232.523L228.144 15.1018L230.004 15.3592L225.654 21.2225H220.789Z" fill="url(#paint0_linear_4878_42234)"/>
<path d="M213.884 21.4509C212.128 21.4509 210.583 21.1075 209.248 20.4213C207.931 19.7348 206.91 18.8005 206.185 17.6184C205.46 16.4169 205.098 15.0535 205.098 13.5284C205.098 11.9837 205.451 10.6204 206.157 9.43801C206.882 8.23681 207.864 7.30251 209.104 6.63511C210.344 5.94888 211.747 5.60547 213.311 5.60547C214.818 5.60547 216.173 5.92975 217.375 6.57802C218.596 7.20716 219.56 8.12234 220.266 9.32384C220.971 10.5059 221.325 11.9266 221.325 13.5854C221.325 13.757 221.315 13.9571 221.296 14.186C221.277 14.3958 221.258 14.596 221.239 14.7866H208.732V12.1838H218.892L217.175 12.9563C217.175 12.1553 217.013 11.4594 216.688 10.8682C216.364 10.2773 215.916 9.81938 215.343 9.4954C214.771 9.15228 214.103 8.98043 213.34 8.98043C212.577 8.98043 211.899 9.15228 211.308 9.4954C210.736 9.81938 210.287 10.2867 209.963 10.8967C209.639 11.4879 209.476 12.1935 209.476 13.0134V13.6999C209.476 14.5389 209.658 15.2825 210.02 15.9308C210.402 16.5599 210.926 17.0463 211.594 17.3894C212.281 17.7137 213.083 17.8756 213.998 17.8756C214.818 17.8756 215.534 17.7517 216.145 17.5039C216.774 17.2558 217.347 16.8842 217.862 16.3883L220.237 18.9626C219.531 19.7633 218.644 20.383 217.576 20.8218C216.507 21.2411 215.277 21.4509 213.884 21.4509Z" fill="url(#paint1_linear_4878_42234)"/>
<path d="M194.183 21.4513C192.733 21.4513 191.426 21.127 190.262 20.4787C189.098 19.8113 188.173 18.8867 187.486 17.7043C186.818 16.5223 186.484 15.1304 186.484 13.5287C186.484 11.9079 186.818 10.5063 187.486 9.32418C188.173 8.1418 189.098 7.22663 190.262 6.57836C191.426 5.93009 192.733 5.60581 194.183 5.60581C195.48 5.60581 196.616 5.89183 197.589 6.46389C198.561 7.03595 199.315 7.90345 199.849 9.0667C200.384 10.2299 200.651 11.7172 200.651 13.5287C200.651 15.3211 200.393 16.8083 199.878 17.9904C199.363 19.1536 198.619 20.0211 197.646 20.5932C196.692 21.1652 195.537 21.4513 194.183 21.4513ZM194.956 17.7903C195.681 17.7903 196.339 17.6187 196.93 17.2753C197.522 16.9322 197.989 16.4461 198.333 15.8166C198.695 15.1684 198.876 14.4056 198.876 13.5287C198.876 12.6323 198.695 11.8696 198.333 11.2405C197.989 10.6113 197.522 10.1249 196.93 9.78177C196.339 9.43866 195.681 9.26679 194.956 9.26679C194.211 9.26679 193.544 9.43866 192.952 9.78177C192.361 10.1249 191.884 10.6113 191.521 11.2405C191.178 11.8696 191.006 12.6323 191.006 13.5287C191.006 14.4056 191.178 15.1684 191.521 15.8166C191.884 16.4461 192.361 16.9322 192.952 17.2753C193.544 17.6187 194.211 17.7903 194.956 17.7903ZM198.991 21.2223V18.0763L199.077 13.4998L198.79 8.95223V0H203.255V21.2223H198.991Z" fill="url(#paint2_linear_4878_42234)"/>
<path d="M178.179 5.60547C179.399 5.60547 180.487 5.85354 181.441 6.34908C182.414 6.82579 183.177 7.56941 183.731 8.58023C184.284 9.57162 184.561 10.849 184.561 12.4128V21.222H180.096V13.0993C180.096 11.8599 179.819 10.9444 179.266 10.3535C178.732 9.76231 177.969 9.46686 176.976 9.46686C176.27 9.46686 175.631 9.61929 175.059 9.92445C174.506 10.2105 174.067 10.6587 173.743 11.2687C173.437 11.879 173.285 12.6606 173.285 13.614V21.222H168.82V5.83441H173.084V10.096L172.283 8.80887C172.836 7.77923 173.628 6.98794 174.658 6.43501C175.689 5.88208 176.862 5.60547 178.179 5.60547Z" fill="url(#paint3_linear_4878_42234)"/>
<path d="M160.891 21.2226V1.20142H165.527V21.2226H160.891Z" fill="url(#paint4_linear_4878_42234)"/>
<path d="M150.292 21.4509C148.651 21.4509 147.191 21.1075 145.913 20.4213C144.654 19.7348 143.652 18.8005 142.908 17.6184C142.183 16.4169 141.82 15.0535 141.82 13.5284C141.82 11.9837 142.183 10.6204 142.908 9.43801C143.652 8.23681 144.654 7.30251 145.913 6.63511C147.191 5.94888 148.651 5.60547 150.292 5.60547C151.913 5.60547 153.363 5.94888 154.641 6.63511C155.92 7.30251 156.921 8.2274 157.646 9.40947C158.372 10.5918 158.734 11.9646 158.734 13.5284C158.734 15.0535 158.372 16.4169 157.646 17.6184C156.921 18.8005 155.92 19.7348 154.641 20.4213C153.363 21.1075 151.913 21.4509 150.292 21.4509ZM150.292 17.7899C151.036 17.7899 151.703 17.6184 152.295 17.275C152.886 16.9319 153.354 16.4457 153.697 15.8163C154.041 15.168 154.212 14.4053 154.212 13.5284C154.212 12.632 154.041 11.8693 153.697 11.2401C153.354 10.611 152.886 10.1245 152.295 9.78143C151.703 9.43801 151.036 9.26645 150.292 9.26645C149.547 9.26645 148.88 9.43801 148.288 9.78143C147.697 10.1245 147.22 10.611 146.857 11.2401C146.514 11.8693 146.342 12.632 146.342 13.5284C146.342 14.4053 146.514 15.168 146.857 15.8163C147.22 16.4457 147.697 16.9319 148.288 17.275C148.88 17.6184 149.547 17.7899 150.292 17.7899Z" fill="white"/>
<path d="M138.444 21.4517C136.631 21.4517 135.22 20.9939 134.208 20.0787C133.197 19.1444 132.692 17.7619 132.692 15.9316V2.4314H137.156V15.8742C137.156 16.5224 137.328 17.028 137.671 17.3902C138.015 17.7334 138.482 17.9049 139.074 17.9049C139.779 17.9049 140.38 17.7142 140.877 17.3329L142.079 20.4792C141.621 20.8032 141.067 21.0512 140.419 21.2228C139.789 21.3752 139.131 21.4517 138.444 21.4517ZM130.316 9.61037V6.17832H140.991V9.61037H130.316Z" fill="white"/>
<path d="M122.636 21.4509C121.338 21.4509 120.203 21.1649 119.23 20.5929C118.257 20.0208 117.494 19.1533 116.941 17.9901C116.407 16.808 116.139 15.3204 116.139 13.5284C116.139 11.7168 116.397 10.2296 116.912 9.06636C117.427 7.90311 118.171 7.03561 119.144 6.46355C120.117 5.89149 121.281 5.60547 122.636 5.60547C124.086 5.60547 125.383 5.93917 126.528 6.60657C127.692 7.25484 128.608 8.17002 129.275 9.35239C129.962 10.5345 130.306 11.9267 130.306 13.5284C130.306 15.1489 129.962 16.5505 129.275 17.7326C128.608 18.9149 127.692 19.8301 126.528 20.4784C125.383 21.1267 124.086 21.4509 122.636 21.4509ZM113.535 26.7707V5.83441H117.799V8.98043L117.713 13.5569L118 18.1045V26.7707H113.535ZM121.863 17.79C122.607 17.79 123.265 17.6184 123.838 17.275C124.429 16.9319 124.897 16.4457 125.24 15.8163C125.603 15.168 125.784 14.4053 125.784 13.5284C125.784 12.632 125.603 11.8693 125.24 11.2401C124.897 10.611 124.429 10.1245 123.838 9.78143C123.265 9.43802 122.607 9.26646 121.863 9.26646C121.119 9.26646 120.451 9.43802 119.86 9.78143C119.268 10.1245 118.801 10.611 118.457 11.2401C118.114 11.8693 117.942 12.632 117.942 13.5284C117.942 14.4053 118.114 15.168 118.457 15.8163C118.801 16.4457 119.268 16.9319 119.86 17.275C120.451 17.6184 121.119 17.79 121.863 17.79Z" fill="white"/>
<path d="M99.5194 27.0002C98.7181 27.0002 97.9264 26.8763 97.1441 26.6283C96.3617 26.3805 95.7227 26.0371 95.2266 25.5986L96.8579 22.4238C97.2014 22.7289 97.5925 22.9673 98.0313 23.1388C98.4892 23.3104 98.9376 23.3963 99.3764 23.3963C100.006 23.3963 100.502 23.2439 100.864 22.9387C101.246 22.6527 101.589 22.1666 101.895 21.48L102.696 19.5923L103.04 19.1062L108.563 5.83496H112.856L105.901 22.1666C105.405 23.4057 104.833 24.3783 104.184 25.0839C103.555 25.7893 102.849 26.2851 102.067 26.5712C101.303 26.8572 100.454 27.0002 99.5194 27.0002ZM102.152 21.8232L95.2839 5.83496H99.8915L105.215 18.7057L102.152 21.8232Z" fill="white"/>
<path d="M85.9727 21.222V5.83441H90.2368V10.1819L89.6361 8.92334C90.0939 7.83631 90.8285 7.01648 91.8395 6.46355C92.8507 5.89149 94.0815 5.60547 95.5315 5.60547V9.72405C95.3406 9.70522 95.169 9.6955 95.0164 9.6955C94.8635 9.67637 94.7015 9.66696 94.5296 9.66696C93.3088 9.66696 92.3166 10.0198 91.5536 10.7251C90.8092 11.4117 90.4374 12.489 90.4374 13.9571V21.222H85.9727Z" fill="white"/>
<path d="M76.0338 21.5656C74.4885 21.5656 73.0481 21.3178 71.7127 20.822C70.3962 20.3073 69.2514 19.5825 68.2782 18.6482C67.3053 17.7139 66.5422 16.6175 65.9888 15.3592C65.4547 14.1006 65.1875 12.7181 65.1875 11.2117C65.1875 9.70538 65.4547 8.32322 65.9888 7.06463C66.5422 5.80604 67.3053 4.70959 68.2782 3.77529C69.2704 2.84099 70.4246 2.12591 71.741 1.63037C73.0578 1.1154 74.4981 0.85791 76.0625 0.85791C77.7987 0.85791 79.3634 1.16307 80.7561 1.77339C82.1679 2.36427 83.3507 3.24149 84.3046 4.40473L81.3285 7.15026C80.6415 6.36869 79.8785 5.7869 79.0389 5.40583C78.1995 5.00533 77.2836 4.80494 76.2914 4.80494C75.3568 4.80494 74.4981 4.95767 73.7158 5.26283C72.9335 5.56768 72.2564 6.00643 71.684 6.57849C71.1116 7.15025 70.6631 7.82737 70.3389 8.60925C70.0337 9.39082 69.8808 10.2583 69.8808 11.2117C69.8808 12.1652 70.0337 13.0327 70.3389 13.8146C70.6631 14.5964 71.1116 15.2732 71.684 15.8453C72.2564 16.4174 72.9335 16.8558 73.7158 17.161C74.4981 17.4661 75.3568 17.6186 76.2914 17.6186C77.2836 17.6186 78.1995 17.4279 79.0389 17.0465C79.8785 16.6463 80.6415 16.0454 81.3285 15.2447L84.3046 17.9905C83.3507 19.1535 82.1679 20.0404 80.7561 20.6504C79.3634 21.2607 77.7894 21.5656 76.0338 21.5656Z" fill="white"/>
<path d="M272.557 13.2886C273.214 13.2886 273.795 13.4175 274.293 13.6841H274.292C274.803 13.9421 275.196 14.3397 275.47 14.8687H275.471C275.757 15.4024 275.894 16.0625 275.894 16.8374V21.5728H274.425V16.9409C274.425 16.1507 274.235 15.5939 273.893 15.2319L273.89 15.228C273.555 14.8573 273.072 14.6597 272.409 14.6597C271.909 14.6597 271.485 14.7664 271.129 14.9722L271.127 14.9731C270.782 15.1686 270.511 15.4586 270.312 15.8501C270.124 16.2289 270.024 16.6985 270.024 17.2671V21.5728H268.556V16.9409C268.556 16.1507 268.366 15.5939 268.023 15.2319L268.022 15.23C267.678 14.8573 267.188 14.6597 266.525 14.6597C266.036 14.6597 265.616 14.766 265.26 14.9722L265.256 14.9751L265.255 14.9741C264.901 15.17 264.626 15.4602 264.428 15.8501C264.24 16.2289 264.141 16.6985 264.141 17.2671V21.5728H262.672V13.3628H264.097V14.3413C264.285 14.1384 264.501 13.9595 264.748 13.8091C265.317 13.4594 265.981 13.2886 266.731 13.2886C267.525 13.2886 268.213 13.4915 268.784 13.9058H268.785C269.089 14.1211 269.333 14.3943 269.522 14.7192C269.746 14.4122 270.025 14.1443 270.358 13.9185C270.978 13.4956 271.715 13.2886 272.557 13.2886Z" fill="white" stroke="white" stroke-width="0.421791"/>
<path d="M256.281 13.2886C257.079 13.2886 257.794 13.4638 258.419 13.8198C259.051 14.1743 259.546 14.6662 259.899 15.2925L260.027 15.5327C260.306 16.1046 260.444 16.7488 260.444 17.4604C260.444 18.2641 260.265 18.9881 259.9 19.6265L259.899 19.6255C259.546 20.252 259.053 20.7492 258.422 21.1138L258.419 21.1147C257.785 21.4703 257.071 21.646 256.281 21.646C255.501 21.646 254.791 21.4702 254.157 21.1147L254.154 21.1128C253.533 20.7482 253.04 20.2522 252.678 19.6274L252.677 19.6265C252.313 18.9881 252.133 18.2642 252.133 17.4604C252.133 16.6473 252.313 15.9222 252.678 15.2925C253.04 14.6673 253.534 14.1757 254.156 13.8208C254.781 13.4644 255.492 13.2886 256.281 13.2886ZM256.296 14.6304C255.78 14.6304 255.326 14.7499 254.929 14.9858L254.926 14.9878C254.528 15.2152 254.21 15.5382 253.973 15.9614C253.738 16.3796 253.616 16.8772 253.616 17.4604C253.616 18.0321 253.737 18.5294 253.973 18.9585C254.21 19.3813 254.528 19.7094 254.926 19.9468C255.324 20.1743 255.774 20.2905 256.281 20.2905C256.81 20.2905 257.269 20.1736 257.666 19.9468C258.063 19.7099 258.375 19.3834 258.603 18.9624L258.604 18.9604C258.84 18.531 258.961 18.0329 258.961 17.4604C258.961 16.8772 258.839 16.3796 258.604 15.9614L258.603 15.9585C258.375 15.5369 258.063 15.2147 257.666 14.9878L257.663 14.9858C257.266 14.7499 256.812 14.6304 256.296 14.6304Z" fill="white" stroke="white" stroke-width="0.421791"/>
<path d="M247.195 13.2886C247.882 13.2886 248.51 13.4233 249.072 13.6958C249.641 13.9712 250.09 14.3859 250.415 14.9351L250.516 15.105L250.353 15.2163L249.57 15.7505L249.396 15.8706L249.276 15.6938C249.03 15.3267 248.729 15.0612 248.373 14.8911C248.01 14.7176 247.613 14.6304 247.181 14.6304C246.665 14.6304 246.205 14.75 245.798 14.9868L245.794 14.9888C245.387 15.2165 245.065 15.5394 244.828 15.9614C244.593 16.3796 244.472 16.8772 244.472 17.4604C244.472 18.0435 244.593 18.5404 244.828 18.9585C245.066 19.3813 245.389 19.7099 245.798 19.9478C246.205 20.1746 246.664 20.2905 247.181 20.2905C247.613 20.2905 248.01 20.2023 248.373 20.0288C248.73 19.858 249.032 19.5972 249.278 19.2397L249.397 19.0659L249.57 19.1851L250.353 19.7183L250.517 19.8315L250.414 20.0015C250.089 20.5401 249.64 20.9541 249.074 21.2388L249.072 21.2397C248.51 21.5123 247.882 21.646 247.195 21.646C246.397 21.646 245.673 21.4708 245.029 21.1157L245.025 21.1138C244.394 20.7494 243.896 20.253 243.533 19.6274L243.532 19.6265C243.168 18.9881 242.988 18.2642 242.988 17.4604C242.988 16.6473 243.168 15.9222 243.533 15.2925C243.896 14.6664 244.396 14.1745 245.028 13.8198L245.029 13.8188C245.673 13.4638 246.397 13.2886 247.195 13.2886Z" fill="white" stroke="white" stroke-width="0.421791"/>
<path d="M240.438 19.6072C240.706 19.6072 240.94 19.701 241.128 19.8875L241.199 19.9617C241.355 20.1424 241.431 20.3658 241.431 20.6189C241.431 20.8986 241.331 21.1428 241.137 21.3406L241.138 21.3416C240.95 21.5425 240.712 21.6462 240.438 21.6462C240.163 21.6462 239.923 21.543 239.728 21.3464L239.723 21.3416V21.3406C239.537 21.1413 239.445 20.8963 239.445 20.6189C239.445 20.3343 239.536 20.0855 239.728 19.8923L239.732 19.8875C239.929 19.7023 240.168 19.6073 240.438 19.6072Z" fill="white" stroke="white" stroke-width="0.421791"/>
<path d="M28.3779 16.8823V27.0003L5.15555 10.5279C4.95717 10.3871 4.95889 10.0925 5.15884 9.95418L15.1377 3.04703C15.473 2.81495 15.8681 3.24452 15.6082 3.55851L11.4229 8.61237C11.276 8.78984 11.3373 9.05803 11.5467 9.1542L28.3779 16.8823Z" fill="#75EDF5"/>
<path d="M28.3789 16.8823V27.0003L51.6013 10.5279C51.7997 10.3871 51.7979 10.0925 51.5979 9.95418L41.6193 3.04703C41.2839 2.81495 40.8888 3.24452 41.1488 3.55851L45.3339 8.61237C45.4808 8.78984 45.4196 9.05803 45.21 9.1542L28.3789 16.8823Z" fill="#00C2FF"/>
<path d="M28.2608 -0.000244141L16.8438 7.33254L28.2608 13.4254V-0.000244141Z" fill="#00C2FF"/>
<path d="M28.2617 -0.000244141L39.6793 7.33254L28.2617 13.4254V-0.000244141Z" fill="#0978AD"/>
<path d="M28.261 2.80322L16.8438 7.33315L28.261 13.4415V2.80322Z" fill="#0979AD"/>
<path d="M28.2617 2.80322L39.6791 7.33315L28.2617 13.4415V2.80322Z" fill="#75EDF5"/>
</g>
<defs>
<linearGradient id="paint0_linear_4878_42234" x1="64.0717" y1="11.36" x2="263.831" y2="11.36" gradientUnits="userSpaceOnUse">
<stop offset="0.460173" stop-color="#50D6EE"/>
<stop offset="1" stop-color="#5E93F4"/>
</linearGradient>
<linearGradient id="paint1_linear_4878_42234" x1="64.069" y1="11.3595" x2="263.829" y2="11.3595" gradientUnits="userSpaceOnUse">
<stop offset="0.460173" stop-color="#50D6EE"/>
<stop offset="1" stop-color="#5E93F4"/>
</linearGradient>
<linearGradient id="paint2_linear_4878_42234" x1="64.0691" y1="11.3598" x2="263.829" y2="11.3598" gradientUnits="userSpaceOnUse">
<stop offset="0.460173" stop-color="#50D6EE"/>
<stop offset="1" stop-color="#5E93F4"/>
</linearGradient>
<linearGradient id="paint3_linear_4878_42234" x1="64.0715" y1="11.3595" x2="263.831" y2="11.3595" gradientUnits="userSpaceOnUse">
<stop offset="0.460173" stop-color="#50D6EE"/>
<stop offset="1" stop-color="#5E93F4"/>
</linearGradient>
<linearGradient id="paint4_linear_4878_42234" x1="64.0727" y1="11.36" x2="263.833" y2="11.36" gradientUnits="userSpaceOnUse">
<stop offset="0.460173" stop-color="#50D6EE"/>
<stop offset="1" stop-color="#5E93F4"/>
</linearGradient>
<clipPath id="clip0_4878_42234">
<rect width="278" height="27" fill="white"/>
</clipPath>
</defs>
</svg>
