<svg width="81" height="28" viewBox="0 0 81 28" fill="none" xmlns="http://www.w3.org/2000/svg">
<path d="M18.5526 21.2221C18.5017 20.9013 18.3559 20.603 18.1336 20.3649C17.8713 20.1215 18.0394 21.1106 17.5967 21.0101C17.3261 20.0223 17.2009 19.0029 16.893 18.025L16.4219 17.5299C16.3105 19.5446 17.2073 21.5371 14.8446 22.2543C13.3995 22.4298 13.0769 23.9394 12.3962 26.7075C12.9693 25.2341 13.0997 25.0848 13.3573 24.2981C14.5301 21.6742 16.8843 22.8723 17.7829 24.9853C19.1447 28.256 18.7527 22.2498 18.5511 21.2216" fill="#F6F6F6"/>
<path d="M8.01521 21.6645C7.70464 20.7965 7.30698 19.3207 7.2742 18.3093L6.80511 18.9225C6.81525 18.9493 6.81974 18.978 6.8183 19.0066C6.8183 19.0399 6.81398 19.0708 6.81134 19.1028C6.81064 19.1062 6.81108 19.1097 6.81077 19.1131C6.80521 19.1824 6.79475 19.2513 6.77949 19.319C6.71627 19.7846 6.70219 20.2552 6.73746 20.7234C6.77026 21.1708 6.25143 20.511 6.24747 20.3992C6.00454 21.1016 5.59388 22.1146 5.60237 22.5215C5.62423 23.5758 5.43275 24.7095 5.57392 25.7422C5.58333 25.7636 5.59275 25.7851 5.60256 25.8065C6.48624 25.254 7.1973 23.1571 8.40327 23.5631C10.024 24.4365 10.6648 23.6062 12.0243 25.7008C11.2797 23.1624 10.0677 23.832 8.01521 21.6645Z" fill="#F6F6F6"/>
<path d="M12.7333 22.7171C13.0113 22.3993 13.3352 22.124 13.6945 21.9005C14.0153 21.6907 14.3789 21.554 14.7593 21.5004C14.8322 21.4878 14.9013 21.459 14.9613 21.4158C15.0213 21.3727 15.0705 21.3165 15.1053 21.2516C15.3597 20.8584 15.3126 20.3325 15.5894 19.9663C16.2059 19.1484 16.0161 16.0467 15.8214 16.4198C15.2018 17.0412 13.9265 17.2685 13.0782 17.6846C12.8671 17.788 12.8275 18.2312 12.6421 18.3318C12.3416 18.4855 12.0558 18.666 11.7882 18.871C11.573 20.0574 12.2181 19.8418 12.1104 20.2732C11.9629 20.8655 10.8138 20.8066 11.0722 20.9767C11.65 21.3498 12.0592 21.9315 12.2135 22.5988C12.2456 22.7272 12.2226 22.9192 12.3856 22.952C12.5417 22.983 12.6415 22.8223 12.7333 22.7171Z" fill="#F6F6F6"/>
<path d="M10.1307 13.0562C10.2277 13.3481 10.6395 13.3359 10.7852 13.2996C10.9399 13.2574 11.0981 13.2289 11.2579 13.2144C11.2579 13.2144 10.9912 12.959 10.8459 12.789C10.7006 12.619 10.3005 12.0473 10.3005 12.0473C10.3005 12.0473 10.155 12.1081 10.1186 12.1931C10.0943 12.2783 10.2639 12.3877 10.2157 12.5336C10.1793 12.6916 10.0217 12.7768 10.1307 13.0562Z" fill="#F6F6F6"/>
<path d="M8.04612 3.79539C7.65657 3.8613 7.21934 4.40769 6.90065 4.99378C6.82132 5.3166 7.00903 5.75793 6.77515 6.02252C6.67904 6.42418 6.45476 6.64738 6.77854 6.45002C6.85561 6.88594 5.99737 7.94932 6.7482 7.02262C6.96889 6.93255 6.99959 7.21155 6.95155 7.66582C6.83776 7.66429 6.72512 7.68855 6.62218 7.73677C6.51924 7.78498 6.42874 7.85589 6.35752 7.94407C6.33999 7.9628 6.32586 7.97872 6.30983 7.99612L6.18036 8.28787C6.41047 8.1654 6.64209 8.04576 6.87031 7.92049C6.84282 8.5536 6.73276 9.18049 6.54296 9.78549C6.45816 10.0894 6.69919 10.4336 6.73539 10.7495C6.82038 11.4797 6.83659 11.338 7.20013 11.946C7.73779 12.1619 8.96693 11.9497 9.47597 11.4029C9.79088 11.0625 10.5666 10.9288 10.5666 10.9288C10.397 11.0869 10.2096 11.6653 10.455 12.008C10.5359 12.1203 10.6666 11.9001 10.8851 11.9001C11.0016 11.8921 11.1185 11.907 11.2292 11.9441C11.3399 11.9811 11.4421 12.0394 11.53 12.1158C11.8526 12.3315 12.0677 12.2237 12.1753 12.1158C12.2844 12.0551 12.3726 11.8537 12.6276 11.8162C13.0399 11.7432 13.2094 11.9134 13.1489 11.9742C13.0546 12.069 12.9306 12.1289 12.7974 12.1443C12.6892 12.1661 12.58 12.1823 12.4702 12.1929C12.4339 12.363 12.413 12.536 12.4077 12.7098C12.4077 12.9408 12.5309 13.0198 12.543 13.1414C12.543 13.2751 12.5793 13.3116 12.7367 13.3116C12.8941 13.3116 13.1852 13.2872 13.2455 13.349C13.3058 13.4108 13.1971 13.4705 13.5727 13.4584C13.9969 13.4462 14.0574 13.3975 14.0454 13.1301C14.0454 12.656 14.0697 12.1211 13.6937 11.7806C13.5241 11.6224 13.3667 11.7806 13.33 11.7685C13.3094 11.6974 13.3012 11.6234 13.3058 11.5496V11.5374C13.3075 11.4309 13.2953 11.3246 13.2697 11.2211C13.249 11.1358 13.2162 11.0539 13.1724 10.9777C13.1724 10.9777 13.1362 10.9045 13.2454 10.9403C13.3545 10.9888 13.7542 11.2198 13.9238 11.2807C14.3844 11.4022 15.0269 11.6209 15.2935 11.9128C15.8269 12.3997 15.5602 12.9341 15.4026 13.068C15.233 13.2138 14.9907 13.0558 14.9055 13.0316C14.8086 12.9942 14.6026 13.0558 14.6752 13.226C14.8812 13.688 14.9662 13.6151 15.0632 14.1379C15.148 14.5873 15.0874 15.4146 15.0146 15.4754C14.9419 15.5363 14.9419 15.2444 14.7723 14.7218C14.6971 14.4826 14.5639 14.2654 14.3844 14.0894C14.3619 14.0764 14.3415 14.06 14.3239 14.0409C14.2909 14.0028 14.25 13.9721 14.2039 13.9511C14.1579 13.9301 14.1079 13.9192 14.0572 13.9192C13.9843 13.9314 13.9967 14.0409 13.8876 14.0409C13.7906 14.0409 13.5484 14.0531 13.4755 14.0409C13.4647 13.9984 13.4484 13.9575 13.427 13.9192C13.4258 13.8896 13.4143 13.8613 13.3945 13.8391C13.3747 13.8169 13.3478 13.8022 13.3183 13.7975C13.2092 13.7488 11.8641 13.7975 11.4399 13.8827C11.367 13.9068 11.3187 13.919 11.2703 13.9312C11.1007 14.0042 11.0884 14.1372 11.0521 14.1501C10.7566 14.1656 10.4604 14.1575 10.1663 14.1259C10.0447 14.0714 9.91173 14.0464 9.77845 14.0529C9.63295 14.0651 9.3301 14.1136 9.20891 13.8583C9.14381 13.6835 9.12709 13.4946 9.16049 13.3112C9.16049 13.3112 8.59077 13.992 8.88156 14.4296C9.18461 14.8674 9.48012 14.8916 9.63767 15.5483C9.81953 16.2654 10.5046 17.1498 11.364 17.1131C12.0912 17.0768 12.1178 16.8122 12.6221 16.9965C13.8045 17.4271 14.7706 16.1726 14.8437 16.16C15.0957 16.1808 15.3465 16.1073 15.5468 15.954C15.7297 15.7907 15.8783 15.5931 15.9839 15.3724C16.3468 14.5899 16.6706 13.7593 16.723 12.9346C17.2077 12.4607 17.4139 11.5115 17.3777 11.111C17.3562 10.8562 17.3522 10.6003 17.3656 10.345C17.4746 10.2476 17.7897 10.7219 17.8504 10.9285C17.8599 10.8641 17.8639 10.7991 17.8622 10.7341C17.8504 10.5395 17.7412 10.3937 17.7412 10.1868C17.7531 9.94333 17.4503 9.91937 17.2925 9.93154C17.1595 9.98004 17.0988 9.85851 17.1472 9.76132C17.2807 9.42092 17.0745 9.25071 17.22 8.91028C17.2609 8.78726 16.7592 7.85196 16.6007 7.27729C16.7955 7.55214 17.0283 7.79841 17.2921 8.00886C17.1648 7.77574 17.0713 7.52584 17.0145 7.26662C17.0145 7.00914 17.2315 7.15819 17.4039 7.31079C16.8858 6.6704 16.2002 5.49223 17.455 6.36538C16.5881 5.15555 16.2381 3.68379 14.6895 3.12802C14.374 2.80016 15.0144 2.86775 15.1714 3.01436C18.8364 4.6526 16.6092 1.59801 14.3676 2.88705C13.4112 3.21435 12.4035 2.88442 11.6563 3.69221C10.4494 3.45965 9.23642 3.9669 8.04612 3.79539Z" fill="#F6F6F6"/>
<path d="M6.93345 3.5018C6.98897 3.38445 7.07208 3.28207 7.17575 3.2033C7.27943 3.12453 7.40065 3.0717 7.52918 3.04921C7.61706 3.02981 7.70596 3.01524 7.79548 3.0056C6.75894 2.59646 8.58475 2.21521 9.07097 2.21166C9.99442 1.90513 11.2136 2.7294 11.9733 2.44235C11.8381 2.25734 11.5021 1.88678 11.8858 1.77087C12.9372 2.22795 13.1494 1.70103 14.0135 1.84839C14.4928 1.90457 13.706 1.48831 12.9453 1.11587C12.7001 1.06007 12.4512 1.02128 12.2005 0.99978C12.1295 0.993787 12.1108 0.876195 12.1429 0.818146C11.9305 0.800362 11.7201 0.764846 11.5138 0.711976C11.4981 0.704694 11.4849 0.693093 11.4757 0.678553C11.4664 0.664013 11.4616 0.647147 11.4618 0.629962C10.4351 0.579683 9.41162 0.779401 8.48033 1.21174C7.90887 1.48968 7.3574 1.80645 6.82981 2.15979C6.84469 2.51949 6.41783 2.89567 6.17208 3.13535C5.91785 3.61134 5.64948 4.27852 5.7292 4.81235C6.02351 4.28895 6.43555 3.84052 6.93345 3.5018Z" fill="#F6F6F6"/>
<path fill-rule="evenodd" clip-rule="evenodd" d="M23.1304 22.3661C22.6907 21.5731 21.5936 21.5625 20.8425 21.2229C19.8979 20.9176 18.9843 20.3829 18.1082 19.8991C17.9234 19.7745 17.7832 19.5948 17.7077 19.386C17.4876 18.865 17.4653 18.2018 16.893 18.025C17.2009 19.0029 17.3261 20.0223 17.5967 21.0101C18.0394 21.1106 17.8713 20.1215 18.1336 20.3649C18.3559 20.603 18.5017 20.9013 18.5526 21.2221C18.754 22.2496 19.1464 28.2571 17.7848 24.9864C16.8866 22.8733 14.5322 21.6748 13.3592 24.2992C13.101 25.0856 12.9706 25.2354 12.398 26.7086C13.0787 23.9409 13.4012 22.4306 14.8465 22.2549C17.2092 21.5377 16.3125 19.5448 16.4239 17.5303L16.2193 16.2405L16.138 15.9441L16.1627 15.8843L16.1192 15.6098L16.1422 15.5488C16.5082 14.8411 16.7927 14.0946 16.9902 13.3235L17.075 13.0073C17.0994 13.0202 17.1207 13.0299 17.1412 13.0389C17.3148 13.1138 17.3628 13.0576 17.4386 12.971C17.5158 12.6928 17.613 12.4204 17.7294 12.156C17.934 11.7481 18.061 11.3062 18.1042 10.8524C18.1057 10.8084 18.1074 10.764 18.1042 10.7213V10.6301C18.1042 10.4039 18.1055 10.2465 18.1163 9.95604C18.1282 9.70626 18.0571 9.44691 17.7249 9.51546C17.7175 9.51694 17.7118 9.51639 17.7043 9.51825L17.7407 9.22652C17.7678 8.94564 17.7985 8.64606 17.8187 8.34814C17.7633 8.32005 17.7092 8.2899 17.6561 8.25844C17.6964 8.23849 17.7306 8.20813 17.755 8.17054C17.7794 8.13294 17.7932 8.08952 17.795 8.0448C17.7867 7.90535 17.7579 7.7679 17.7094 7.63678C17.7659 7.68004 17.8036 7.69052 17.8101 7.65382C17.8025 7.57106 17.7982 7.48792 17.7957 7.4042L17.7833 7.27614L17.7942 7.1724C17.8033 6.66682 17.883 6.14795 17.9423 5.63883V4.01912C17.9414 4.01482 17.9406 4.01032 17.9397 4.00601C17.8587 3.60155 17.6617 3.22897 17.3726 2.93308C16.851 2.34362 15.9839 2.42319 15.5777 1.73674C14.6833 0.831206 13.3317 0.73215 12.1233 0.602012C11.9287 0.585917 11.736 0.55277 11.5473 0.502957C11.5002 0.488539 11.472 0.528985 11.4635 0.577857C11.4544 0.631784 11.4701 0.696011 11.5149 0.708931C11.7212 0.761799 11.9317 0.797253 12.144 0.814914C12.1121 0.872962 12.1308 0.99074 12.2017 0.996733C12.4523 1.01823 12.7012 1.05702 12.9465 1.11283C13.7061 1.48545 14.493 1.90265 14.0135 1.84535C13.1494 1.69817 12.937 2.22509 11.8858 1.76764C11.5027 1.88354 11.8381 2.25449 11.9733 2.4393C11.2143 2.72823 9.99555 1.90433 9.07153 2.20992C8.5855 2.21329 6.76026 2.59471 7.79603 3.00386C7.70653 3.01353 7.61763 3.02808 7.52975 3.04749C7.40118 3.06997 7.27995 3.12283 7.17626 3.20163C7.07259 3.28044 6.9895 3.38285 6.93402 3.50026C6.43608 3.83893 6.02383 4.28756 5.72958 4.811C5.64985 4.27715 5.91804 3.60999 6.17246 3.134C6.4348 2.87784 6.90349 2.46645 6.82095 2.0854V2.08016C6.81434 2.06705 6.80209 2.05825 6.79853 2.04271C6.79707 2.03312 6.79487 2.02367 6.79192 2.01443V2.01218C6.7906 2.00975 6.78815 2.00432 6.78815 2.00432C6.78592 2.00007 6.78347 1.99595 6.78081 1.99196C6.77458 1.98635 6.77515 1.9856 6.77798 1.98822C6.7742 1.9841 6.77062 1.97979 6.76667 1.97605L6.71918 1.99796C6.70917 2.00338 6.70157 2.01233 6.69789 2.02305C6.03832 2.53351 5.51551 3.1976 5.17569 3.95658C4.6857 5.4879 5.45254 6.92074 5.6574 8.51516C5.72751 8.46705 5.78329 8.42959 5.83397 8.39608L5.79044 8.50299C5.7469 8.52789 5.7028 8.55204 5.66002 8.5779C5.72869 8.90777 5.77278 9.24223 5.79195 9.57855C5.52529 9.62706 5.47685 9.63923 5.4889 9.90681C5.51304 10.2596 5.71939 10.6241 5.74353 11.0619C5.77512 11.5326 5.90298 11.9919 6.11932 12.4118C6.30098 12.7279 6.41028 13.2144 6.62814 13.4819C6.76158 13.6641 6.89482 13.64 7.08874 13.6278C7.35523 14.3088 7.33883 14.6674 7.70237 15.3119L7.91759 15.5554V17.3621C7.88612 17.6773 7.47132 17.6979 7.27231 18.1173C7.27118 18.1795 7.27231 18.2444 7.27401 18.3111C7.30698 19.3222 7.70464 20.7988 8.01521 21.6667C10.0677 23.834 11.2797 23.1646 12.0251 25.7026C10.6648 23.6079 10.025 24.4383 8.404 23.5646C7.19787 23.1586 6.48699 25.2556 5.6033 25.8084C5.59652 25.8127 5.58992 25.8176 5.58314 25.8215C5.57937 25.796 5.57805 25.7696 5.57446 25.7437C5.43388 24.7113 5.62498 23.5775 5.60311 22.523C5.59464 22.1163 6.0053 21.1031 6.24822 20.4007C6.25141 20.513 6.77045 21.1725 6.73822 20.7249C6.70298 20.2567 6.71701 19.7859 6.78005 19.3205C6.79549 19.2528 6.80594 19.1839 6.81134 19.1146C6.81134 19.1112 6.81228 19.1079 6.81285 19.1043C6.81547 19.0725 6.81887 19.0414 6.81981 19.008C6.82123 18.9794 6.81674 18.9507 6.80662 18.9238C6.73123 18.7354 6.32567 19.0959 6.31531 19.17C6.17887 19.5091 5.62385 19.6524 5.32777 19.7199C5.16193 19.7574 5.09428 19.9723 5.10917 20.1585C4.83232 20.2486 4.52173 20.3655 4.47838 20.3823C2.90436 20.9878 1.79001 22.1071 0.5 22.8622C0.715033 23.5095 2.81505 22.3775 3.86646 22.0158C4.11033 21.932 4.60146 21.6453 4.75599 22.0025C4.80239 22.1501 4.80741 22.3076 4.7705 22.4578C4.61216 23.5841 4.70481 24.7312 5.04188 25.8181C5.08519 25.9923 5.16501 26.1556 5.27614 26.2972C5.91314 27.0142 7.14999 25.8178 7.69239 25.4769C8.06667 25.2418 8.51049 25.065 8.94395 25.1499C9.18876 25.2121 9.42124 25.3151 9.63163 25.4542C10.2724 25.8288 11 25.3036 11.4653 25.8821C11.6127 26.0655 11.6679 27.1798 11.8423 27.3371C12.5537 27.9778 13.2395 26.5573 13.6306 26.0386C13.9673 25.5915 14.3079 25.0462 14.7858 24.7355C15.2161 24.4546 15.6493 24.4963 16.0984 24.7168C16.4362 24.8981 16.7502 25.1201 17.0332 25.3779C17.3136 25.6166 17.8147 26.3467 18.1427 26.438C19.2453 26.7448 19.1915 24.3948 19.1163 23.6126C19.2374 23.1099 18.4527 20.9536 19.2199 21.1365C19.4178 21.1985 19.6158 21.2675 19.8115 21.3395C20.5653 21.6178 21.3149 21.954 22.0848 22.2073C22.3501 22.3008 23.274 23.0334 23.1295 22.3651M9.6388 15.5486C9.48125 14.8919 9.18649 14.8678 8.88288 14.43C8.59209 13.9922 9.16162 13.3114 9.16162 13.3114C9.12833 13.4948 9.14505 13.6837 9.21004 13.8585C9.33123 14.1139 9.63409 14.0645 9.77958 14.0531C9.91292 14.0465 10.0459 14.0716 10.1676 14.1261C10.4614 14.1578 10.757 14.1656 11.0521 14.1501C11.0884 14.1372 11.1007 14.0042 11.2703 13.9312C11.3187 13.919 11.367 13.9068 11.4399 13.8827C11.8641 13.7975 13.2092 13.7488 13.3183 13.7975C13.391 13.8097 13.415 13.8581 13.427 13.9192C13.4484 13.9575 13.4647 13.9984 13.4755 14.0409C13.5484 14.0531 13.7906 14.0409 13.8876 14.0409C13.9967 14.0409 13.9843 13.9314 14.0572 13.9192C14.1079 13.9192 14.1579 13.9301 14.2039 13.9511C14.25 13.9721 14.2909 14.0028 14.3239 14.0409C14.3415 14.06 14.3619 14.0764 14.3844 14.0894C14.5639 14.2654 14.6971 14.4826 14.7723 14.7218C14.9419 15.2444 14.9419 15.5363 15.0146 15.4754C15.0874 15.4146 15.148 14.5873 15.0632 14.1379C14.9662 13.6151 14.8812 13.688 14.6752 13.226C14.6026 13.0558 14.8086 12.9942 14.9055 13.0316C14.9907 13.0558 15.233 13.2138 15.4026 13.068C15.5602 12.9341 15.8269 12.3997 15.2935 11.9128C15.0269 11.6209 14.3844 11.4022 13.9238 11.2807C13.7542 11.2198 13.3545 10.9888 13.2454 10.9403C13.1362 10.9045 13.1724 10.9777 13.1724 10.9777C13.2162 11.0539 13.249 11.1358 13.2697 11.2211C13.2953 11.3246 13.3075 11.4309 13.3058 11.5374L13.3062 11.5477C13.3016 11.6215 13.3099 11.6957 13.3305 11.7668C13.3669 11.7787 13.5243 11.6207 13.6943 11.7787C14.0701 12.1192 14.0457 12.6543 14.0457 13.1286C14.058 13.396 13.9973 13.4447 13.5731 13.4569C13.1973 13.469 13.3064 13.4082 13.2461 13.3473C13.1858 13.2865 12.8939 13.3116 12.7367 13.3116C12.5793 13.3116 12.543 13.2751 12.543 13.1414C12.5309 13.0198 12.4077 12.9408 12.4077 12.7098C12.413 12.536 12.4339 12.363 12.4702 12.1929C12.58 12.1823 12.6892 12.1661 12.7974 12.1443C12.9306 12.1289 13.0546 12.069 13.1489 11.9742C13.2094 11.9134 13.0399 11.7432 12.6276 11.8162C12.3731 11.8525 12.2848 12.0548 12.1753 12.1158C12.0678 12.2238 11.8534 12.3309 11.5308 12.115C11.4428 12.0387 11.3399 11.9811 11.2292 11.9441C11.1185 11.907 11.0016 11.8921 10.8851 11.9001C10.6666 11.9001 10.5359 12.1203 10.455 12.008C10.21 11.6653 10.3977 11.0861 10.5673 10.9279C10.5673 10.9279 9.79088 11.0625 9.47597 11.4029C8.96712 11.9501 7.73836 12.1613 7.20089 11.9452C6.83716 11.3374 6.82094 11.4782 6.73614 10.7485C6.69976 10.4324 6.45872 10.0883 6.54353 9.78433C6.73337 9.17929 6.84346 8.55232 6.87108 7.91916C6.64284 8.04442 6.41104 8.16407 6.18112 8.28652L6.31021 7.99479C6.32604 7.97739 6.34018 7.96241 6.35771 7.94274C6.42902 7.85466 6.5196 7.78387 6.62256 7.73576C6.72552 7.68765 6.83778 7.66423 6.95155 7.66582C6.99959 7.21155 6.96889 6.93255 6.7482 7.02262C5.99737 7.94932 6.85561 6.88594 6.77854 6.45002C6.45476 6.647 6.67923 6.42322 6.77552 6.02156C7.00941 5.75679 6.82151 5.31564 6.90084 4.9917C7.21972 4.40523 7.65695 3.85884 8.04631 3.79331C9.23663 3.96538 10.4494 3.45757 11.6576 3.68994C12.4048 2.88215 13.4125 3.21245 14.3688 2.88476C16.6103 1.59556 18.8375 4.65052 15.1727 3.01209C15.0156 2.86548 14.3752 2.7977 14.6908 3.12575C16.2394 3.68152 16.589 5.15366 17.4561 6.36349C16.2015 5.49015 16.8872 6.66851 17.4052 7.30909C17.2328 7.15648 17.0149 7.00744 17.0157 7.26489C17.0723 7.52464 17.1658 7.77506 17.2933 8.00865C17.0295 7.79814 16.7967 7.55188 16.6018 7.27708C16.7605 7.85175 17.2614 8.78706 17.2213 8.91026C17.0758 9.25069 17.2818 9.42088 17.1485 9.76131C17.0999 9.85868 17.1606 9.98038 17.2938 9.93171C17.4514 9.91954 17.7544 9.94388 17.7424 10.1869C17.7424 10.3929 17.8515 10.5397 17.8634 10.7342C17.865 10.7993 17.861 10.8643 17.8515 10.9286C17.7908 10.7226 17.4757 10.2478 17.3668 10.345C17.3533 10.6004 17.3574 10.8563 17.3788 11.1112C17.415 11.5125 17.2092 12.4611 16.7241 12.9352C16.6719 13.7591 16.3472 14.5907 15.985 15.3732C15.8796 15.594 15.731 15.7917 15.548 15.9549C15.3475 16.1081 15.0968 16.1816 14.8448 16.1609C14.7721 16.1727 13.8053 17.4286 12.6236 16.9966C12.1182 16.8124 12.0927 17.0769 11.3655 17.1135C10.505 17.1498 9.8199 16.266 9.6388 15.5486ZM10.1192 12.1922C10.1554 12.107 10.3009 12.0463 10.3009 12.0463C10.3009 12.0463 10.7008 12.6178 10.8463 12.788C10.9918 12.9582 11.2579 13.2144 11.2579 13.2144C11.0981 13.2289 10.9399 13.2574 10.7852 13.2996C10.6395 13.3359 10.2277 13.3481 10.1307 13.0562C10.0217 12.7768 10.1793 12.6916 10.2157 12.5336C10.2641 12.3877 10.0949 12.2772 10.1192 12.1922ZM12.2135 22.5988C12.0592 21.9315 11.65 21.3498 11.0722 20.9767C10.8138 20.8066 11.9629 20.8655 12.1104 20.2732C12.2181 19.8418 11.573 20.0574 11.7882 18.871C12.0558 18.666 12.3416 18.4855 12.6421 18.3318C12.8275 18.2312 12.8671 17.788 13.0782 17.6846C13.9265 17.2685 15.2018 17.0412 15.8214 16.4198C16.0161 16.0467 16.2059 19.1484 15.5894 19.9663C15.3126 20.3325 15.3597 20.8584 15.1053 21.2516C15.0705 21.3165 15.0213 21.3727 14.9613 21.4158C14.9013 21.459 14.8322 21.4878 14.7593 21.5004C14.3789 21.554 14.0153 21.6907 13.6945 21.9005C13.3352 22.124 13.0113 22.3993 12.7333 22.7171C12.6415 22.8223 12.5417 22.983 12.3856 22.952C12.2226 22.9192 12.2456 22.7272 12.2135 22.5988Z" fill="#090C21"/>
<path fill-rule="evenodd" clip-rule="evenodd" d="M13.1014 14.9193C13.5258 14.5428 13.0409 14.6278 12.4708 14.6156C11.9007 14.6034 11.2581 14.6399 10.9671 14.6036C10.7347 14.5688 10.507 14.5077 10.2886 14.4214C10.0826 14.3608 10.4946 14.8223 10.6644 14.956C10.8051 15.0912 10.9728 15.1957 11.1566 15.2626C11.3404 15.3295 11.5363 15.3575 11.7317 15.3446C12.4227 15.3446 12.677 15.3082 13.1014 14.9193Z" fill="#090C21"/>
<path fill-rule="evenodd" clip-rule="evenodd" d="M10.7993 7.76996C10.4963 7.86714 10.3385 7.69695 9.19874 7.69695C8.05893 7.69695 7.5254 8.37722 7.5254 8.37722C7.46655 8.44708 7.42854 8.53191 7.41569 8.62211C7.40284 8.71234 7.41563 8.80431 7.45266 8.88767C7.48885 8.99702 7.36767 9.29961 7.42835 9.28837C7.59796 9.24006 8.13168 8.49874 8.99258 8.40174C9.86551 8.30437 10.1567 8.48676 10.1567 8.48676C9.71147 8.46431 9.26624 8.53039 8.84708 8.68112C8.31818 8.88002 7.88481 9.27071 7.63434 9.77447C7.61021 9.88382 7.7557 9.92034 7.90119 9.89599C8.04669 9.85967 8.21649 9.5436 8.26493 9.5436C8.49751 9.5481 8.72975 9.52363 8.9562 9.47076C9.34423 9.36141 10.3265 9.40989 10.3265 9.40989C10.3265 9.40989 10.0234 9.48293 9.73246 9.58011C9.36005 9.70579 8.97291 9.78338 8.58059 9.81099C8.20367 9.81099 8.26511 9.93251 8.26511 9.93251C8.26511 9.93251 9.42922 10.0904 10.3267 9.75032C11.2241 9.41027 11.0784 8.48657 11.1512 8.24316C11.2241 8.01227 11.1027 7.67259 10.7993 7.76996Z" fill="#090C21"/>
<path fill-rule="evenodd" clip-rule="evenodd" d="M15.3795 9.03482C15.1007 8.76761 14.6156 8.37945 14.1545 8.31821C13.6816 8.25737 12.8208 8.57344 12.8208 8.57344C12.8319 8.4909 12.8647 8.41269 12.9157 8.3466C12.9667 8.28052 13.0342 8.22883 13.1115 8.19669C13.3905 8.06299 14.0817 8.06299 14.3484 8.09951C14.4455 8.11149 14.5912 8.13564 14.7487 8.14781H14.7608C15.1731 8.19651 15.5853 8.60938 15.731 8.59721C15.8764 8.57306 15.8037 8.37832 15.8037 8.37832C15.7399 8.13028 15.61 7.90391 15.4277 7.72296C15.2702 7.58925 14.9189 7.56491 14.6639 7.56491C14.5548 7.56491 14.4579 7.57708 14.3486 7.57708C14.2232 7.58586 14.0972 7.58179 13.9726 7.56491C13.6131 7.49323 13.2438 7.48505 12.8814 7.54076C12.2143 7.65011 12.4448 8.69477 12.4448 8.69477C12.4179 8.80069 12.4332 8.91279 12.4874 9.00782C12.5416 9.10284 12.6305 9.17348 12.7358 9.20503C12.9783 9.27806 12.7116 9.52091 12.9783 9.73963C13.2574 9.9705 14.8817 9.84898 14.8817 9.84898C14.7816 9.74136 14.6675 9.64742 14.5425 9.56961C14.397 9.48459 13.9724 9.50893 13.6815 9.47243C13.4716 9.44109 13.2647 9.39231 13.0631 9.32655C13.1672 9.30861 13.2732 9.30452 13.3784 9.31438C13.6089 9.33872 14.2029 9.38741 14.4211 9.27806C14.5438 9.22356 14.6398 9.12306 14.6882 8.9985C14.8392 9.06711 14.9817 9.15287 15.1128 9.25408C15.2868 9.4005 15.4953 9.50079 15.7189 9.54563C15.7918 9.52129 15.6705 9.29004 15.3795 9.03482Z" fill="#090C21"/>
<path fill-rule="evenodd" clip-rule="evenodd" d="M29.476 16.8524V7.98688H30.2881C31.7488 7.98714 32.7873 8.32882 33.4038 9.01194C34.0203 9.69508 34.3284 10.8234 34.3284 12.3969C34.3545 13.267 34.2169 14.1343 33.9227 14.9542C33.7004 15.5739 33.27 16.0985 32.7041 16.4399C32.4399 16.596 32.1498 16.704 31.8475 16.7587C31.3884 16.8315 30.9234 16.8628 30.4586 16.8524H29.476ZM27.1929 7.46788C26.9591 7.46089 26.7419 7.45076 26.5415 7.4375V7.98688C27.0466 7.99588 27.3661 8.0637 27.5003 8.19032C27.6345 8.31696 27.7015 8.63801 27.7015 9.15351V15.6993C27.7013 16.2101 27.6343 16.5323 27.5003 16.6659C27.3663 16.7995 27.0466 16.8663 26.5415 16.8663V17.4086C26.8419 17.3911 27.1446 17.3776 27.4493 17.3683C27.7541 17.3589 28.0681 17.3542 28.3912 17.3542C28.6959 17.3542 29.1441 17.3633 29.7355 17.3814C30.3269 17.3995 30.7636 17.4086 31.0455 17.4086C32.729 17.4086 34.0256 16.9791 34.9357 16.1201C35.8458 15.2611 36.3008 14.0378 36.3008 12.4503C36.3008 10.8809 35.8207 9.65314 34.8608 8.76688C33.9008 7.88064 32.5723 7.4375 30.8753 7.4375C30.5477 7.43702 30.0927 7.44364 29.5102 7.45738C28.9277 7.47114 28.5069 7.478 28.2476 7.478C27.7783 7.47827 27.4267 7.47489 27.1929 7.46788ZM37.7923 11.4395C37.9107 11.5297 37.9697 11.7519 37.9697 12.1044V15.992C37.9697 16.3988 37.915 16.6474 37.8057 16.7379C37.6965 16.8284 37.3781 16.8963 36.8507 16.9417V17.4104C37.4923 17.3833 37.9333 17.3647 38.1745 17.3561C38.4156 17.3475 38.5975 17.3426 38.7206 17.3426C38.984 17.3426 39.299 17.3482 39.6654 17.3594C40.0319 17.3707 40.495 17.3877 41.0545 17.4104V16.9417C40.3448 16.9225 39.9138 16.8599 39.7613 16.7542C39.6088 16.6485 39.5326 16.3941 39.5326 15.9913V14.1866C39.5107 13.4287 39.6845 12.6779 40.0378 12.0058C40.3742 11.4021 40.7654 11.1003 41.2115 11.1003H41.2253C41.1726 11.208 41.1304 11.3204 41.099 11.4359C41.0694 11.5455 41.0545 11.6585 41.0545 11.7719C41.0388 11.9885 41.1087 12.2026 41.2492 12.3688C41.3236 12.4398 41.4119 12.4947 41.5089 12.5297C41.6057 12.5647 41.7089 12.5792 41.8118 12.5722C41.911 12.5759 42.0097 12.5574 42.1007 12.518C42.1916 12.4786 42.2726 12.4193 42.3373 12.3446C42.476 12.1735 42.5462 11.9576 42.5349 11.7382C42.5417 11.5851 42.516 11.4323 42.4598 11.2896C42.4034 11.1469 42.3175 11.0176 42.2077 10.91C41.9652 10.6935 41.6463 10.5815 41.3208 10.5986C41.1228 10.6031 40.9277 10.6465 40.7467 10.7262C40.5658 10.8059 40.4023 10.9205 40.2661 11.0632C39.8998 11.4379 39.6215 11.8883 39.4507 12.3823V10.5986C39.0272 10.6581 38.5972 10.7045 38.1607 10.7379C37.7242 10.7713 37.2828 10.7948 36.8369 10.8086V11.2972C37.3555 11.3017 37.674 11.3493 37.7923 11.4395ZM42.9376 15.6181C43.0529 15.6138 43.1676 15.6341 43.2743 15.6779C43.3809 15.7216 43.4767 15.7877 43.5552 15.8716C43.7181 16.0582 43.8023 16.3 43.7904 16.5466C43.8015 16.7951 43.7175 17.0386 43.5552 17.228C43.4779 17.3138 43.3824 17.3816 43.2756 17.4268C43.169 17.4719 43.0535 17.4932 42.9376 17.4892C42.8206 17.4929 42.7044 17.4715 42.5964 17.4264C42.4887 17.3813 42.3919 17.3137 42.3128 17.228C42.1465 17.0405 42.0599 16.7963 42.0709 16.5466C42.0611 16.3005 42.1492 16.0605 42.3162 15.8784C42.3949 15.7932 42.4909 15.7258 42.5981 15.6808C42.7053 15.6357 42.8214 15.6149 42.9376 15.6181ZM50.1334 16.8388V12.5861L51.028 12.5851C51.9246 12.5848 52.5614 12.752 52.9388 13.0867C53.3163 13.4215 53.505 13.9777 53.505 14.7554C53.5052 15.5166 53.3244 16.0541 52.9624 16.3679C52.6005 16.6818 51.967 16.8388 51.062 16.8388H50.1334ZM50.1334 12.0296V8.00732H51.0146C51.8655 8.00683 52.4467 8.15595 52.7583 8.45469C53.0698 8.75346 53.2257 9.27351 53.2257 10.0149C53.2259 10.7298 53.0668 11.2443 52.7481 11.5584C52.4293 11.8725 51.9038 12.0296 51.1712 12.0296H50.1334ZM48.0791 7.46788C47.7924 7.46089 47.5035 7.45076 47.2126 7.4375L47.2129 7.98688C47.7041 8.00038 48.0212 8.05869 48.1617 8.16313C48.3023 8.26757 48.3733 8.55257 48.3733 9.01757V15.6989C48.3735 16.2097 48.3063 16.5319 48.1719 16.6655C48.0376 16.7991 47.7179 16.8659 47.2129 16.8659L47.2197 17.4082C47.552 17.3943 47.8751 17.3841 48.1887 17.3776C48.5024 17.3712 48.7981 17.3679 49.0757 17.3679C49.2672 17.368 49.6301 17.3748 50.1645 17.3881C50.6989 17.4015 51.1367 17.4082 51.4781 17.4082C52.8432 17.4086 53.8362 17.2052 54.457 16.7981C55.0778 16.391 55.3883 15.7464 55.3883 14.8644C55.3883 14.0955 55.1346 13.4964 54.6276 13.067C54.1205 12.6376 53.3778 12.3935 52.3995 12.3346V12.2939C53.2323 12.2347 53.8692 11.9984 54.3102 11.585C54.5346 11.3654 54.7097 11.1011 54.8238 10.8094C54.938 10.5176 54.9886 10.2052 54.9723 9.89263C54.9727 9.05589 54.6906 8.43752 54.126 8.03751C53.5614 7.63751 52.6879 7.4375 51.5052 7.4375C51.4741 7.43702 51.1727 7.44364 50.6012 7.45738C50.0296 7.47114 49.4734 7.478 48.9324 7.478C48.6503 7.47827 48.3657 7.47489 48.0791 7.46788ZM57.9045 13.3792L61.153 13.2982C61.153 12.5793 61.0198 12.0309 60.7536 11.6529C60.6254 11.4684 60.4518 11.3195 60.2495 11.2204C60.047 11.1213 59.8225 11.0752 59.5972 11.0866C59.3622 11.082 59.1297 11.1353 58.9207 11.2419C58.7116 11.3484 58.5323 11.5049 58.3991 11.6971C58.0971 12.1044 57.9322 12.6651 57.9045 13.3792ZM57.9113 13.8545C57.9156 14.8129 58.1022 15.5409 58.471 16.0385C58.6553 16.285 58.8984 16.4822 59.1784 16.6124C59.4583 16.7426 59.7664 16.8018 60.075 16.7846C60.5316 16.7961 60.9808 16.6682 61.3619 16.4182C61.7386 16.1545 62.0254 15.783 62.1841 15.3532L62.5804 15.4756C62.4159 16.0968 62.0366 16.6406 61.5089 17.0118C60.9221 17.3791 60.2363 17.56 59.5434 17.5305C58.5104 17.5305 57.7005 17.2265 57.1136 16.6186C56.5267 16.0108 56.2333 15.1685 56.2331 14.0919C56.2331 13.0426 56.5392 12.1981 57.1512 11.5584C57.7631 10.9186 58.5697 10.5987 59.5706 10.5986C60.5031 10.5986 61.238 10.8745 61.775 11.4262C62.3121 11.978 62.5804 12.7354 62.5802 13.6985V13.7998L57.9113 13.8545ZM63.8289 11.4395C63.9472 11.5297 64.0061 11.7519 64.0061 12.1044L64.0053 15.9918C64.0052 16.3986 63.9506 16.6472 63.8415 16.7377C63.7325 16.8282 63.4141 16.8961 62.8865 16.9415V17.4103C63.5281 17.3831 63.9691 17.3645 64.2103 17.3559C64.4514 17.3473 64.6336 17.3424 64.7562 17.3424C65.0196 17.3424 65.3348 17.348 65.7014 17.3593C66.0681 17.3705 66.531 17.3875 67.0899 17.4103V16.9415C66.38 16.9223 65.949 16.8598 65.7967 16.754C65.6445 16.6483 65.5684 16.394 65.5684 15.9911V14.1864C65.5465 13.4285 65.7203 12.6777 66.0736 12.0056C66.41 11.402 66.8012 11.1001 67.2471 11.1001H67.2611C67.2084 11.2079 67.1662 11.3202 67.1345 11.4358C67.105 11.5454 67.0901 11.6583 67.0899 11.7718C67.0743 11.9883 67.1441 12.2024 67.2847 12.3686C67.359 12.4397 67.4477 12.4945 67.5447 12.5296C67.6417 12.5646 67.7449 12.5792 67.848 12.5722C67.9472 12.576 68.0459 12.5575 68.1369 12.5181C68.228 12.4787 68.3088 12.4194 68.3735 12.3446C68.5122 12.1735 68.5824 11.9576 68.5711 11.7382C68.5779 11.5851 68.5524 11.4323 68.496 11.2896C68.4396 11.1469 68.3537 11.0176 68.2439 10.91C68.0014 10.6935 67.6825 10.5815 67.357 10.5986C67.159 10.6031 66.9641 10.6465 66.7831 10.7262C66.6023 10.806 66.4391 10.9205 66.3028 11.0632C65.9366 11.4378 65.658 11.8882 65.4873 12.3823V10.5986C65.0642 10.6581 64.6341 10.7045 64.1973 10.7379C63.7604 10.7713 63.319 10.7948 62.8733 10.8086V11.2972C63.3922 11.3017 63.7106 11.3493 63.8289 11.4395ZM71.6878 11.0868C71.5021 11.0741 71.3162 11.1081 71.1475 11.1858C70.9786 11.2635 70.8322 11.3823 70.722 11.5312C70.5108 11.8277 70.4051 12.2764 70.4047 12.8773C70.4047 13.497 70.5095 13.9559 70.7188 14.2541C70.8286 14.4046 70.9752 14.5247 71.1447 14.6032C71.3143 14.6816 71.5011 14.7158 71.6878 14.7024C71.8761 14.7149 72.0644 14.6802 72.2356 14.6012C72.4067 14.5223 72.5553 14.4018 72.6672 14.2509C72.8828 13.9509 72.991 13.4976 72.9915 12.8909C72.9915 12.2896 72.8834 11.8385 72.6672 11.5378C72.5551 11.3871 72.4066 11.267 72.2354 11.1884C72.0642 11.1097 71.8759 11.0742 71.6878 11.0868ZM70.4182 17.7421C70.1889 17.8219 69.9877 17.9657 69.8384 18.1561C69.703 18.3334 69.6309 18.5505 69.6337 18.773C69.6307 18.97 69.6826 19.164 69.7837 19.3335C69.8849 19.503 70.0313 19.6411 70.2068 19.733C70.5891 19.9608 71.126 20.075 71.8174 20.0756C72.442 20.1016 73.0632 19.9698 73.6226 19.6923C74.0843 19.436 74.3155 19.1124 74.3155 18.7183C74.3155 18.2349 73.6399 17.9569 72.2886 17.8843C71.524 17.8438 70.9005 17.7964 70.4182 17.7421ZM73.6194 11.2438C73.8035 11.0082 74.0275 10.8062 74.2812 10.6466C74.4961 10.537 74.7356 10.4833 74.9771 10.4906C75.146 10.4763 75.3153 10.5103 75.4653 10.5886C75.5155 10.631 75.5544 10.685 75.5787 10.7458C75.6031 10.8065 75.6121 10.8723 75.6051 10.9374C75.6098 11.0006 75.6017 11.0642 75.5812 11.1242C75.5606 11.1843 75.5279 11.2396 75.4855 11.2869C75.4391 11.3286 75.3845 11.3606 75.3253 11.381C75.2662 11.4013 75.2034 11.4095 75.1409 11.4052C74.9922 11.4016 74.8458 11.3671 74.7112 11.3039C74.6188 11.2561 74.5199 11.2218 74.4176 11.2021C74.3244 11.2058 74.2342 11.2364 74.1581 11.2903C74.0634 11.3531 73.9841 11.4364 73.9264 11.534C74.0847 11.7197 74.2074 11.9327 74.2879 12.1625C74.3678 12.402 74.407 12.653 74.404 12.9052C74.404 13.6379 74.1721 14.2033 73.7081 14.6011C73.244 14.999 72.5843 15.198 71.7285 15.1981C71.6923 15.1981 71.5989 15.1961 71.4489 15.1914C71.2988 15.1867 71.169 15.1844 71.0598 15.1844C70.8488 15.1709 70.6384 15.2164 70.4521 15.3157C70.3857 15.358 70.3317 15.417 70.2959 15.4867C70.26 15.5564 70.2432 15.6344 70.2476 15.7126C70.2476 16.156 70.9575 16.4048 72.3771 16.4591C72.4749 16.4639 72.5585 16.4683 72.6285 16.472C72.6824 16.4748 72.7283 16.4773 72.7664 16.4791C73.7399 16.5154 74.4393 16.667 74.8646 16.934C75.0735 17.0646 75.243 17.2488 75.3553 17.4672C75.4678 17.6856 75.5185 17.93 75.5027 18.1747C75.5027 18.867 75.1547 19.4379 74.4587 19.8875C73.7628 20.3371 72.8617 20.5621 71.7555 20.5625C70.8771 20.5625 70.1685 20.4114 69.6294 20.109C69.0902 19.8065 68.8208 19.4107 68.8209 18.9215C68.8164 18.6032 68.9294 18.2943 69.1383 18.053C69.3857 17.7815 69.7029 17.5821 70.0558 17.4764C69.8067 17.3849 69.5905 17.2217 69.435 17.0077C69.2853 16.7739 69.2146 16.4988 69.2329 16.2223C69.2514 15.9458 69.358 15.6824 69.5373 15.4702C69.7745 15.2128 70.0794 15.0263 70.4176 14.9317C69.9951 14.8217 69.6216 14.5745 69.3567 14.2293C69.0982 13.8738 68.9649 13.4434 68.9779 13.0049C68.9674 12.6808 69.0287 12.3583 69.158 12.0605C69.287 11.7626 69.4808 11.4968 69.7252 11.2818C70.2666 10.8231 70.9628 10.5854 71.6736 10.6169C72.0493 10.6121 72.4235 10.666 72.7825 10.7765C73.0912 10.871 73.3761 11.0294 73.6188 11.2413L73.6194 11.2438ZM76.6221 9.37119C76.4405 9.68556 76.3462 10.0421 76.3484 10.4045L76.3473 10.4047C76.3454 10.7626 76.4371 11.1149 76.6136 11.4269C76.7949 11.7453 77.0584 12.0099 77.3767 12.1935C77.695 12.377 78.057 12.473 78.4251 12.4713C78.7939 12.4728 79.1564 12.3762 79.4749 12.1916C79.7935 12.0069 80.0565 11.741 80.2367 11.4213C80.4111 11.1071 80.5017 10.7538 80.5 10.3949C80.4981 10.0361 80.4041 9.6837 80.2265 9.37119C80.0478 9.05719 79.7865 8.79754 79.4702 8.62026C79.1515 8.44059 78.7914 8.34615 78.4251 8.34615C78.0587 8.34615 77.6986 8.44059 77.3799 8.62026C77.0631 8.79711 76.801 9.05681 76.6221 9.37119ZM76.918 11.2803C76.7625 11.0141 76.6815 10.7112 76.6838 10.4034C76.6819 10.098 76.7623 9.79763 76.9164 9.53338C77.0668 9.26994 77.2869 9.05237 77.5528 8.90413C77.8194 8.75488 78.1204 8.67669 78.4263 8.67718C78.7324 8.67767 79.0332 8.75683 79.2992 8.90694C79.5636 9.05544 79.7825 9.27238 79.9327 9.53469C80.0833 9.80053 80.1624 10.1004 80.1624 10.4054C80.1624 10.7105 80.0833 11.0104 79.9327 11.2762C79.7825 11.5395 79.5636 11.7578 79.2992 11.9081C79.0339 12.0597 78.7333 12.1399 78.4272 12.1406C78.1213 12.1413 77.8204 12.0626 77.5543 11.9122C77.2888 11.7624 77.0689 11.5441 76.918 11.2803ZM77.9945 11.5428V10.6113L78.5093 10.6121C78.7337 10.6195 78.8614 10.7113 78.8928 10.8877C78.9011 10.988 78.9041 11.0888 78.9014 11.1894C78.8947 11.3089 78.9086 11.4287 78.9424 11.5436H79.3666V11.4993C79.327 11.39 79.31 11.2737 79.317 11.1577V10.9889C79.3274 10.8689 79.2979 10.7488 79.2328 10.6472C79.1677 10.5455 79.0707 10.4679 78.9569 10.4264C79.0649 10.388 79.1583 10.3178 79.2253 10.2254C79.2921 10.1329 79.3292 10.0224 79.3315 9.90857C79.3372 9.80758 79.3177 9.70674 79.2745 9.61511C79.2313 9.52348 79.166 9.44392 79.0843 9.38357C78.8779 9.25163 78.6344 9.18838 78.3895 9.20301H77.582V11.5428H77.9945ZM78.4508 10.2586H77.9945L77.9957 9.55607H78.3993C78.5403 9.54349 78.6816 9.57259 78.806 9.63969C78.8465 9.67448 78.8779 9.71846 78.8977 9.76793C78.9173 9.81739 78.9248 9.87084 78.9192 9.92376C78.9197 9.97116 78.9084 10.0179 78.8858 10.0597C78.8633 10.1015 78.8305 10.1369 78.7905 10.1626C78.6893 10.2276 78.5712 10.261 78.4508 10.2586Z" fill="#090C21"/>
</svg>
