<svg xmlns="http://www.w3.org/2000/svg" width="81" height="28" fill="none"><path fill="#F6F6F6" d="M18.553 21.222a1.63 1.63 0 0 0-.42-.857c-.262-.243-.094.746-.536.645-.27-.988-.396-2.007-.704-2.985l-.471-.495c-.111 2.015.785 4.007-1.577 4.724-1.446.176-1.768 1.685-2.449 4.453.573-1.473.704-1.622.961-2.409 1.173-2.624 3.527-1.426 4.426.687 1.362 3.271.97-2.735.768-3.763m-10.536.443c-.31-.868-.708-2.344-.74-3.356l-.47.613q.015.041.013.085-.001.049-.007.096v.01q-.008.105-.032.206a6.7 6.7 0 0 0-.042 1.404c.033.448-.486-.212-.49-.324-.242.703-.653 1.716-.645 2.122.022 1.055-.17 2.188-.028 3.221l.029.064c.883-.552 1.594-2.649 2.8-2.243 1.621.874 2.262.043 3.621 2.138-.744-2.539-1.956-1.869-4.009-4.036"/><path fill="#F6F6F6" d="M12.733 22.717c.278-.318.602-.593.961-.816.321-.21.685-.347 1.065-.4a.49.49 0 0 0 .346-.25c.255-.393.208-.919.484-1.285.617-.818.427-3.92.232-3.546-.62.621-1.894.848-2.743 1.265-.21.103-.25.546-.436.647a5.6 5.6 0 0 0-.854.539c-.215 1.186.43.97.322 1.402-.147.593-1.296.534-1.038.704a2.64 2.64 0 0 1 1.142 1.622c.032.128.009.32.172.353.156.031.256-.13.347-.235m-2.603-9.661c.098.292.51.28.655.244q.233-.064.473-.086s-.267-.255-.412-.425-.546-.742-.546-.742-.145.061-.181.146c-.025.085.145.195.097.34-.037.159-.194.244-.085.523"/><path fill="#F6F6F6" d="M8.046 3.795c-.39.066-.827.613-1.145 1.199-.08.323.108.764-.126 1.029-.096.401-.32.624.004.427.077.436-.782 1.5-.03.573.22-.09.25.189.203.643a.75.75 0 0 0-.594.278l-.048.052-.13.292c.23-.123.462-.242.69-.368a7.3 7.3 0 0 1-.327 1.865c-.085.304.156.649.192.964.085.73.102.589.465 1.197.538.216 1.767.004 2.276-.543.315-.34 1.09-.474 1.09-.474-.169.158-.356.736-.111 1.079.08.112.212-.108.43-.108a.9.9 0 0 1 .645.216c.323.216.538.108.645 0 .11-.06.198-.262.453-.3.412-.073.581.097.52.158a.6.6 0 0 1-.35.17 3 3 0 0 1-.328.049 3 3 0 0 0-.062.517c0 .23.123.31.135.431 0 .134.036.17.194.17.157 0 .448-.024.508.038s-.048.121.328.11c.424-.013.484-.061.472-.329 0-.474.025-1.009-.351-1.35-.17-.158-.327 0-.364-.011a.6.6 0 0 1-.024-.22v-.012a1.2 1.2 0 0 0-.036-.316 1 1 0 0 0-.098-.243s-.036-.073.073-.038c.11.049.51.28.679.34.46.122 1.103.34 1.37.633.533.487.266 1.021.109 1.155-.17.146-.412-.012-.498-.036-.096-.038-.302.024-.23.194.206.462.291.39.388.912.085.45.024 1.277-.048 1.337s-.073-.23-.243-.753a1.5 1.5 0 0 0-.388-.633.3.3 0 0 1-.06-.048.35.35 0 0 0-.267-.122c-.073.012-.06.122-.17.122-.096 0-.339.012-.412 0a.5.5 0 0 0-.048-.122.13.13 0 0 0-.109-.122c-.109-.048-1.454 0-1.878.086a2 2 0 0 1-.17.048c-.17.073-.182.206-.218.22a5.6 5.6 0 0 1-.886-.025.85.85 0 0 0-.388-.073c-.145.012-.448.06-.57-.195a1.04 1.04 0 0 1-.048-.547s-.57.681-.278 1.119c.303.437.598.462.756 1.118.182.717.867 1.602 1.726 1.565.727-.036.754-.3 1.258-.116 1.183.43 2.149-.824 2.222-.837.252.02.503-.053.703-.206a1.9 1.9 0 0 0 .437-.582c.363-.782.687-1.613.739-2.437.485-.474.69-1.424.655-1.824a6 6 0 0 1-.012-.766c.109-.097.424.377.484.583q.015-.096.012-.194c-.012-.194-.12-.34-.12-.547.011-.244-.292-.268-.45-.255-.133.048-.193-.073-.145-.17.134-.341-.072-.511.073-.852.04-.123-.46-1.058-.62-1.633q.294.414.692.732a2.8 2.8 0 0 1-.277-.742c0-.258.216-.109.389.044-.518-.64-1.204-1.819.051-.946-.867-1.21-1.217-2.681-2.765-3.237-.316-.328.324-.26.481-.114 3.665 1.639 1.438-1.416-.803-.127-.957.327-1.965-.003-2.712.805-1.207-.232-2.42.275-3.61.103"/><path fill="#F6F6F6" d="M6.933 3.502a.81.81 0 0 1 .596-.453q.132-.03.266-.043c-1.036-.41.79-.79 1.276-.794.923-.307 2.143.517 2.902.23-.135-.185-.47-.555-.087-.671 1.051.457 1.263-.07 2.128.077.479.057-.308-.36-1.069-.732A5.5 5.5 0 0 0 12.2 1c-.07-.006-.09-.124-.057-.182a4 4 0 0 1-.63-.106.09.09 0 0 1-.051-.082 6.35 6.35 0 0 0-2.982.582 14 14 0 0 0-1.65.948c.015.36-.412.736-.658.975-.254.476-.523 1.144-.443 1.677a3.9 3.9 0 0 1 1.204-1.31"/><path fill="#090C21" fill-rule="evenodd" d="M23.13 22.366c-.44-.793-1.536-.803-2.287-1.143-.945-.305-1.859-.84-2.735-1.324a1.05 1.05 0 0 1-.4-.513c-.22-.521-.243-1.184-.815-1.361.308.978.433 1.997.704 2.985.442.1.274-.889.537-.645.222.238.368.536.419.857.201 1.028.593 7.035-.768 3.764-.898-2.113-3.253-3.311-4.426-.687-.258.787-.388.936-.961 2.41.68-2.768 1.003-4.278 2.449-4.454 2.362-.717 1.466-2.71 1.577-4.725l-.205-1.29-.081-.296.025-.06-.044-.274.023-.061c.366-.708.65-1.454.848-2.226l.085-.316.066.032c.174.075.222.019.298-.068q.116-.417.29-.815c.205-.408.332-.85.375-1.304q.004-.067 0-.13v-.092c0-.226.002-.384.012-.674.012-.25-.059-.51-.391-.44l-.02.002.036-.291c.027-.281.058-.58.078-.879a3 3 0 0 1-.163-.09.25.25 0 0 0 .139-.213 1.4 1.4 0 0 0-.086-.408c.057.043.095.054.101.017a4 4 0 0 1-.014-.25l-.013-.128.011-.104c.01-.505.089-1.024.148-1.533v-1.62l-.002-.013a2.14 2.14 0 0 0-.567-1.073c-.522-.59-1.39-.51-1.795-1.196C14.683.83 13.332.732 12.123.602a3.3 3.3 0 0 1-.576-.099c-.047-.014-.075.026-.084.075-.009.054.007.118.052.13q.31.081.629.107c-.032.058-.013.176.058.182q.376.032.745.116c.76.372 1.546.79 1.067.732-.865-.147-1.077.38-2.128-.077-.383.116-.048.486.087.671-.759.29-1.977-.535-2.901-.23-.486.004-2.312.386-1.276.795a3 3 0 0 0-.266.043.82.82 0 0 0-.596.453c-.498.339-.91.788-1.204 1.311-.08-.534.188-1.201.442-1.677.263-.256.731-.668.649-1.049V2.08c-.007-.013-.019-.022-.022-.037l-.007-.029v-.002l-.004-.008-.007-.012q-.008-.008-.003-.004l-.011-.012-.048.022a.05.05 0 0 0-.021.025 5.06 5.06 0 0 0-1.522 1.934c-.49 1.53.277 2.964.481 4.558l.177-.119-.044.107-.13.075q.104.495.132 1c-.267.05-.315.061-.303.329.024.353.23.717.255 1.155.031.47.159.93.375 1.35.182.316.291.802.51 1.07.133.182.266.158.46.146.266.68.25 1.04.613 1.684l.216.243v1.807c-.032.315-.447.336-.646.755l.002.194c.033 1.011.43 2.488.741 3.356 2.053 2.167 3.265 1.498 4.01 4.036-1.36-2.095-2-1.265-3.621-2.138-1.206-.406-1.917 1.69-2.8 2.243l-.02.014-.01-.078c-.14-1.033.051-2.166.03-3.221-.01-.407.401-1.42.644-2.122.003.112.522.771.49.324a6.7 6.7 0 0 1 .042-1.405q.023-.101.031-.205l.002-.01.007-.097a.2.2 0 0 0-.013-.084c-.076-.189-.481.172-.492.246-.136.34-.691.482-.987.55-.166.037-.234.252-.219.439-.277.09-.587.207-.63.223-1.575.606-2.689 1.725-3.979 2.48.215.648 2.315-.484 3.366-.846.244-.084.735-.37.89-.013a.85.85 0 0 1 .014.455 7.7 7.7 0 0 0 .272 3.36c.043.174.123.338.234.48.637.716 1.874-.48 2.416-.821.375-.235.818-.412 1.252-.327.245.062.477.165.688.304.64.375 1.368-.15 1.833.428.148.183.203 1.298.377 1.455.712.64 1.397-.78 1.789-1.298.336-.448.677-.993 1.155-1.304.43-.28.863-.239 1.312-.018q.509.273.935.66c.28.24.782.97 1.11 1.061 1.102.307 1.049-2.043.973-2.825.121-.503-.663-2.66.104-2.476q.298.092.591.203c.754.278 1.504.614 2.274.867.265.094 1.189.826 1.044.158M9.64 15.55c-.158-.657-.453-.681-.756-1.119-.29-.438.279-1.119.279-1.119-.034.184-.017.373.048.547.121.256.424.207.57.195a.85.85 0 0 1 .388.073q.44.048.884.024c.036-.013.049-.146.218-.219.049-.012.097-.024.17-.048.424-.085 1.77-.134 1.878-.085.073.012.097.06.109.121q.032.058.049.122c.072.012.315 0 .412 0 .109 0 .096-.11.17-.122a.35.35 0 0 1 .266.122q.027.028.06.048c.18.176.313.394.388.633.17.522.17.814.243.753s.133-.888.048-1.337c-.097-.523-.182-.45-.388-.912-.072-.17.134-.232.23-.194.086.024.328.182.498.036.157-.134.424-.668-.11-1.155-.266-.292-.909-.51-1.37-.632-.169-.061-.569-.292-.678-.34-.109-.037-.073.037-.073.037a1 1 0 0 1 .098.243q.038.156.036.316v.01a.6.6 0 0 0 .025.22c.036.012.193-.146.363.012.376.34.352.875.352 1.35.012.267-.049.316-.473.328-.376.012-.267-.049-.327-.11-.06-.06-.352-.035-.51-.035-.157 0-.193-.037-.193-.17-.012-.122-.135-.201-.135-.432a3 3 0 0 1 .062-.517q.166-.016.327-.049a.6.6 0 0 0 .352-.17c.06-.06-.11-.23-.521-.158-.255.036-.343.239-.453.3-.107.108-.322.215-.644-.001a.9.9 0 0 0-.646-.215c-.218 0-.35.22-.43.108-.245-.343-.057-.922.112-1.08 0 0-.776.134-1.091.475-.509.547-1.738.758-2.275.542-.364-.608-.38-.467-.465-1.197-.036-.316-.277-.66-.192-.964.19-.605.3-1.232.327-1.865-.228.125-.46.245-.69.368l.13-.292.047-.052a.75.75 0 0 1 .594-.277c.048-.454.017-.733-.204-.643-.75.926.108-.137.03-.573-.323.197-.099-.027-.002-.428.233-.265.046-.706.125-1.03.319-.587.756-1.133 1.145-1.199 1.19.172 2.403-.335 3.612-.103.747-.808 1.755-.478 2.71-.805 2.242-1.29 4.47 1.766.805.127-.157-.147-.798-.214-.482.114 1.548.556 1.898 2.028 2.765 3.237-1.255-.873-.569.306-.05.946-.173-.153-.391-.302-.39-.044q.085.391.277.744a3.6 3.6 0 0 1-.691-.732c.159.575.66 1.51.62 1.633-.146.34.06.51-.074.851-.048.098.013.22.146.17.157-.011.46.013.448.256 0 .206.11.353.121.547q.003.098-.011.195c-.061-.206-.376-.681-.485-.584q-.021.383.012.766c.036.401-.17 1.35-.655 1.824-.052.824-.377 1.656-.739 2.438a1.8 1.8 0 0 1-.437.582 1.02 1.02 0 0 1-.703.206c-.073.012-1.04 1.268-2.221.836-.506-.185-.531.08-1.258.116-.861.037-1.546-.847-1.727-1.564m.48-3.357c.036-.085.182-.146.182-.146s.4.572.545.742.412.426.412.426q-.24.022-.473.086c-.146.036-.557.048-.654-.244-.11-.28.048-.364.085-.522.048-.146-.121-.257-.097-.342M12.214 22.6a2.64 2.64 0 0 0-1.142-1.622c-.258-.17.89-.111 1.038-.704.108-.431-.537-.216-.322-1.402a5.6 5.6 0 0 1 .854-.54c.186-.1.225-.543.436-.646.849-.416 2.124-.644 2.743-1.265.195-.373.385 2.728-.232 3.546-.276.366-.23.892-.484 1.286a.48.48 0 0 1-.346.248c-.38.054-.744.19-1.065.4-.359.224-.683.5-.96.817-.092.105-.192.266-.348.235-.163-.033-.14-.225-.172-.353" clip-rule="evenodd"/><path fill="#090C21" fill-rule="evenodd" d="M13.101 14.92c.425-.377-.06-.292-.63-.304s-1.213.024-1.504-.012a3 3 0 0 1-.678-.183c-.206-.06.206.401.375.535a1.4 1.4 0 0 0 1.068.389c.69 0 .945-.037 1.37-.426M10.8 7.77c-.304.097-.462-.073-1.601-.073s-1.674.68-1.674.68a.49.49 0 0 0-.072.51c.036.11-.085.413-.025.401.17-.048.704-.79 1.565-.886.873-.098 1.164.085 1.164.085a3.4 3.4 0 0 0-1.31.194 2.23 2.23 0 0 0-1.213 1.093c-.024.11.122.146.267.122.146-.036.315-.352.364-.352q.35.006.691-.073c.388-.11 1.37-.061 1.37-.061s-.303.073-.594.17a4.6 4.6 0 0 1-1.151.231c-.377 0-.316.122-.316.122s1.164.157 2.062-.183.751-1.263.824-1.507c.073-.23-.048-.57-.352-.473m4.581 1.265c-.28-.267-.764-.656-1.226-.717-.472-.06-1.333.255-1.333.255a.48.48 0 0 1 .29-.376c.28-.134.97-.134 1.237-.097.097.011.243.036.4.048h.013c.412.049.824.461.97.45.145-.025.073-.22.073-.22a1.4 1.4 0 0 0-.376-.655c-.158-.134-.51-.158-.764-.158-.11 0-.206.012-.315.012a2 2 0 0 1-.376-.012 3.1 3.1 0 0 0-1.092-.024c-.667.11-.436 1.154-.436 1.154a.42.42 0 0 0 .29.51c.243.073-.023.316.243.535.28.23 1.904.109 1.904.109a1.7 1.7 0 0 0-.34-.28c-.145-.084-.57-.06-.86-.097a4 4 0 0 1-.619-.145q.157-.027.315-.013c.23.025.825.073 1.043-.036a.5.5 0 0 0 .267-.28q.228.105.425.256c.174.146.382.247.606.292.073-.025-.048-.256-.34-.511m14.097 7.817V7.987h.812q2.191 0 3.116 1.025.924 1.024.924 3.385a7 7 0 0 1-.405 2.557 2.87 2.87 0 0 1-1.219 1.486 2.6 2.6 0 0 1-.857.319q-.69.109-1.388.093zm-2.283-9.384a18 18 0 0 1-.652-.03v.549q.758.014.96.203.2.19.2.964v6.545q0 .766-.2.967-.202.2-.96.2v.543a33 33 0 0 1 1.85-.055q.457 0 1.345.027.886.027 1.31.028 2.525 0 3.89-1.289t1.365-3.67q0-2.354-1.44-3.683-1.44-1.33-3.986-1.33-.49 0-1.365.02-.873.021-1.262.021-.705 0-1.055-.01m10.6 3.972q.177.135.177.664v3.888q0 .61-.164.746-.165.135-.955.204v.468l1.324-.054a17 17 0 0 1 1.49.003q.55.018 1.39.051v-.468q-1.065-.03-1.294-.188-.228-.159-.228-.763v-1.804a4.4 4.4 0 0 1 .505-2.181q.504-.906 1.174-.906h.013q-.079.162-.126.336-.044.166-.044.336a.83.83 0 0 0 .194.597.74.74 0 0 0 .563.203.67.67 0 0 0 .525-.227.9.9 0 0 0 .198-.607 1.1 1.1 0 0 0-.327-.828 1.24 1.24 0 0 0-.887-.311 1.5 1.5 0 0 0-1.055.464 3.54 3.54 0 0 0-.815 1.32v-1.784q-.636.089-1.29.139-.655.05-1.324.07v.49q.778.006.955.142m5.145 4.178a.8.8 0 0 1 .617.254.96.96 0 0 1 .235.675.98.98 0 0 1-.235.681.8.8 0 0 1-.617.261.82.82 0 0 1-.625-.261.96.96 0 0 1-.242-.681.93.93 0 0 1 .245-.669.81.81 0 0 1 .622-.26m7.195 1.22v-4.252h.895q1.345-.001 1.91.5.567.503.567 1.67 0 1.14-.543 1.612-.543.47-1.9.47zm0-4.808V8.007h.882q1.276 0 1.743.448t.468 1.56q0 1.073-.478 1.543-.478.472-1.577.472zM48.08 7.468a41 41 0 0 1-.866-.03v.549q.737.02.949.176.21.158.211.855v6.68q0 .768-.201.968t-.96.2l.008.542a46 46 0 0 1 1.856-.04q.287 0 1.088.02t1.314.02q2.047 0 2.979-.61.93-.61.931-1.934 0-1.154-.76-1.797-.761-.645-2.228-.732v-.041q1.249-.09 1.91-.709a2.2 2.2 0 0 0 .662-1.692q0-1.255-.846-1.855-.847-.6-2.62-.6-.047-.001-.905.02-.857.02-1.669.02-.423 0-.853-.01m9.825 5.911 3.249-.08q0-1.08-.4-1.646a1.32 1.32 0 0 0-1.156-.566 1.43 1.43 0 0 0-1.198.61q-.453.61-.495 1.682m.007.476q.007 1.437.56 2.183a1.87 1.87 0 0 0 1.604.747c.457.011.906-.117 1.287-.367.377-.264.663-.635.822-1.065l.396.123a2.74 2.74 0 0 1-1.071 1.536 3.43 3.43 0 0 1-1.966.518q-1.55 0-2.43-.911-.88-.912-.88-2.527 0-1.575.918-2.534.918-.96 2.42-.96 1.398 0 2.204.828.805.829.805 2.272v.102zm5.918-2.415q.177.135.177.664v3.888q0 .61-.164.746-.164.135-.956.204v.468l1.324-.054a17 17 0 0 1 1.491.003q.55.016 1.389.051v-.468q-1.065-.03-1.293-.188-.23-.159-.229-.763v-1.805a4.4 4.4 0 0 1 .506-2.18q.504-.906 1.173-.906h.014a2 2 0 0 0-.126.336q-.045.165-.045.336a.83.83 0 0 0 .195.597.74.74 0 0 0 .563.203.66.66 0 0 0 .526-.227.9.9 0 0 0 .197-.607 1.1 1.1 0 0 0-.327-.828 1.24 1.24 0 0 0-.887-.311 1.5 1.5 0 0 0-1.054.464 3.54 3.54 0 0 0-.816 1.32v-1.784q-.634.089-1.29.139-.655.05-1.324.07v.49q.78.006.956.142m7.859-.353a1.11 1.11 0 0 0-.966.444q-.317.445-.317 1.346 0 .93.314 1.377a1.1 1.1 0 0 0 .969.448 1.13 1.13 0 0 0 .98-.451q.323-.45.323-1.36 0-.902-.324-1.353a1.13 1.13 0 0 0-.98-.451m-1.27 6.655c-.23.08-.43.224-.58.414a1 1 0 0 0-.204.617 1.06 1.06 0 0 0 .573.96q.573.342 1.61.343a3.7 3.7 0 0 0 1.806-.384q.692-.384.692-.974 0-.724-2.026-.834a33 33 0 0 1-1.87-.142m3.201-6.498a2.6 2.6 0 0 1 .662-.597c.215-.11.455-.164.696-.156a.9.9 0 0 1 .488.098.4.4 0 0 1 .14.348.47.47 0 0 1-.12.35.47.47 0 0 1-.344.118 1.1 1.1 0 0 1-.43-.101 1 1 0 0 0-.293-.102.5.5 0 0 0-.26.088.75.75 0 0 0-.232.244c.159.186.281.399.362.628.08.24.119.491.116.743q0 1.1-.696 1.696-.696.597-1.98.597-.054 0-.28-.007-.225-.006-.388-.007a1.14 1.14 0 0 0-.608.132.44.44 0 0 0-.204.397q0 .665 2.13.746l.25.013.138.007q1.46.054 2.099.455a1.37 1.37 0 0 1 .638 1.24q0 1.04-1.044 1.713-1.044.675-2.704.675-1.317 0-2.126-.453-.808-.454-.808-1.187a1.3 1.3 0 0 1 .317-.869c.248-.271.565-.47.918-.577a1.34 1.34 0 0 1-.621-.468 1.3 1.3 0 0 1 .102-1.538c.237-.257.542-.444.88-.538a1.96 1.96 0 0 1-1.06-.703 1.98 1.98 0 0 1-.38-1.224 2.2 2.2 0 0 1 .748-1.723 2.82 2.82 0 0 1 1.949-.665c.375-.005.75.049 1.108.16.31.094.594.252.837.464zm3.003-1.873a2.04 2.04 0 0 0-.274 1.034 2.054 2.054 0 0 0 2.077 2.066 2.08 2.08 0 0 0 1.812-1.05 2.1 2.1 0 0 0-.01-2.05 2 2 0 0 0-.757-.75 2.13 2.13 0 0 0-2.09 0 2 2 0 0 0-.758.75m.296 1.91a1.7 1.7 0 0 1-.234-.878 1.7 1.7 0 0 1 .232-.87c.15-.263.37-.48.637-.629a1.78 1.78 0 0 1 1.746.003c.265.148.483.365.634.628a1.77 1.77 0 0 1 0 1.741c-.15.264-.37.482-.634.632a1.77 1.77 0 0 1-1.745.004 1.7 1.7 0 0 1-.636-.632m1.076.262v-.932l.515.001q.337.012.384.276.012.15.008.301-.009.181.041.355h.425v-.045a.9.9 0 0 1-.05-.341v-.17a.546.546 0 0 0-.36-.562.57.57 0 0 0 .375-.517.61.61 0 0 0-.248-.525 1.16 1.16 0 0 0-.695-.181h-.807v2.34zm.457-1.284h-.456v-.703h.404a.7.7 0 0 1 .407.084.33.33 0 0 1 .113.284.28.28 0 0 1-.129.239.6.6 0 0 1-.34.096" clip-rule="evenodd"/></svg>