<svg width="126" height="31" viewBox="0 0 126 31" fill="none" xmlns="http://www.w3.org/2000/svg">
<path d="M37.9973 10.1893C37.957 10.134 37.9211 10.0884 37.8867 10.0488C37.9196 10.0944 37.9517 10.1393 37.9846 10.1849C37.9884 10.1856 37.9921 10.1871 37.9973 10.1893Z" fill="#EAE9E6"/>
<path d="M32.8242 10.8118C32.8242 10.8163 32.8287 10.8133 32.8309 10.8156C32.8407 10.7931 32.8422 10.7849 32.8242 10.8118Z" fill="#EAE9E6"/>
<path d="M38.0547 10.2812C38.0861 10.3276 38.1182 10.3747 38.1504 10.4225C38.1078 10.3575 38.0786 10.3141 38.0547 10.2812Z" fill="#EAE9E6"/>
<path d="M27.25 14.1064C27.2829 14.1782 27.2986 14.226 27.309 14.2649C27.3038 14.2029 27.5991 14.6349 27.25 14.1064Z" fill="#EAE9E6"/>
<path d="M37.9786 10.2036C37.9988 10.2148 38.0205 10.2372 38.0526 10.2813C38.0287 10.2477 38.0063 10.2155 37.9846 10.1841C37.9734 10.1789 37.9674 10.1804 37.9786 10.2036Z" fill="#EAE9E6"/>
<path d="M24.5687 28.7591C24.393 28.7569 24.2144 28.7554 24.0664 28.7539L24.5687 28.7591Z" fill="#EAE9E6"/>
<path d="M12.9008 9.62793C12.8716 9.66904 12.847 9.70791 12.832 9.73855L12.9008 9.62793Z" fill="#EAE9E6"/>
<path d="M22.3224 28.7594C22.2215 28.7444 22.1139 28.7362 22.0033 28.731C21.9801 28.7339 21.9532 28.7369 21.9375 28.7414L22.3224 28.7594Z" fill="#EAE9E6"/>
<path d="M19.7401 28.7573C19.7087 28.7581 19.6811 28.7596 19.6602 28.7611C19.6818 28.7603 19.7125 28.7588 19.7401 28.7573Z" fill="#EAE9E6"/>
<path d="M11.8008 11.2344C11.8195 11.203 11.8411 11.1664 11.8658 11.123C11.8449 11.1589 11.8225 11.197 11.8008 11.2344Z" fill="#EAE9E6"/>
<path d="M50.2795 28.4191C50.2817 28.4147 50.2795 28.4109 50.2705 28.4072C50.1606 28.2502 50.0515 28.094 49.9431 27.94C49.8168 27.7532 49.692 27.5693 49.5701 27.3892L49.6651 27.5402C49.615 27.5162 49.5537 27.4303 49.4812 27.3122C49.4857 27.3167 49.4902 27.3212 49.4924 27.3242C49.4849 27.3137 49.4767 27.3032 49.4685 27.2928C49.3414 27.0835 49.183 26.7845 48.9961 26.5483C49.0671 26.6432 49.1194 26.653 49.094 26.6313C48.7442 26.0924 48.3429 25.5527 47.7838 24.7694C47.7763 24.7582 47.7696 24.7462 47.7628 24.7358L47.8368 24.8143C47.6358 24.4846 47.2755 23.9659 47.0498 23.6154C47.0012 23.5638 46.9384 23.4778 46.9033 23.4375C46.8495 23.362 46.8016 23.2955 46.7598 23.2342C46.5176 22.8246 46.2553 22.4479 45.9944 22.0831L45.9757 22.0457L45.9548 22.0271C45.8957 21.9456 45.8374 21.8641 45.7791 21.7834C45.7754 21.7752 45.7747 21.7714 45.7791 21.7759C45.7216 21.6989 45.6984 21.669 45.6917 21.6623C45.6237 21.5674 45.5557 21.4725 45.4891 21.3775C45.3935 21.234 45.2903 21.0838 45.1999 20.95C45.096 20.7908 44.9966 20.6293 44.9046 20.4649C44.9809 20.5778 45.1012 20.7243 45.0407 20.6346L44.5092 19.8804C44.4943 19.8557 44.4749 19.8229 44.4479 19.7795C44.3762 19.6995 44.2843 19.565 44.1871 19.4155C44.1819 19.4035 44.1736 19.3871 44.1594 19.3624C44.1594 19.3654 44.1654 19.3781 44.1751 19.3968C44.0496 19.2025 43.9158 18.985 43.8059 18.828C43.7745 18.8295 43.3739 18.2091 43.0398 17.7315C43.0457 17.7368 43.0211 17.6971 42.9762 17.6276C42.9217 17.5387 42.8731 17.4692 42.7901 17.3399L42.8051 17.3638L42.45 16.801L42.5345 16.9482C42.5293 16.943 42.524 16.937 42.5181 16.9318C42.3805 16.7232 42.2423 16.5147 42.1428 16.3615L42.1556 16.3719C42.0898 16.3144 41.8783 16.0027 41.6772 15.7097C41.6772 15.7037 41.6794 15.7 41.6862 15.7022C41.6675 15.6693 41.6458 15.6335 41.6249 15.5968C41.6488 15.6275 41.6787 15.6678 41.7153 15.7187C41.7004 15.7075 41.6921 15.7045 41.6854 15.7022C41.6854 15.7037 41.6869 15.7052 41.6869 15.7052L41.7168 15.7209C41.7213 15.7276 41.7258 15.7329 41.731 15.7403L41.7183 15.7217L41.7213 15.7232C41.7213 15.7232 41.719 15.7217 41.7176 15.7202L41.5711 15.5034C41.5606 15.4855 41.5516 15.4683 41.5434 15.4533C41.5531 15.4645 41.5628 15.4757 41.5718 15.4862L41.5344 15.4369C41.509 15.3898 41.4986 15.3651 41.5202 15.3868C41.3147 15.1476 41.2512 14.9383 40.9597 14.6012C40.9604 14.5766 40.7735 14.3232 40.8431 14.3613C40.6054 14.0302 40.8759 14.4547 40.8423 14.4368C40.8416 14.4361 40.8408 14.4346 40.8401 14.4338C40.6913 14.2208 40.5351 13.9928 40.3684 13.7342C40.3654 13.7327 40.3647 13.7342 40.3654 13.7402C40.1913 13.4651 40.0059 13.1662 39.7959 12.8649C39.7936 12.8567 39.7892 12.8463 39.7824 12.8343C39.7809 12.8358 39.7847 12.8448 39.7922 12.8597C39.7062 12.7371 39.6158 12.6146 39.5208 12.4927C39.473 12.412 39.538 12.489 39.4259 12.3141C39.3482 12.2177 39.1755 11.9426 39.1523 11.9478C39.0686 11.8245 39.0619 11.7954 39.035 11.7445C38.8795 11.5315 38.3429 10.7265 38.4901 10.9859L38.5267 11.0427C38.5193 11.0322 38.511 11.0203 38.5021 11.0076C38.3541 10.7998 38.2061 10.5838 38.0596 10.3655C38.0514 10.3476 38.0416 10.3281 38.0312 10.3065C37.9916 10.2489 37.9617 10.2115 37.937 10.1824C37.8757 10.0905 37.8152 9.99852 37.7546 9.90658C37.7928 9.94246 37.8369 9.98656 37.8884 10.0471C37.7756 9.89686 37.6627 9.74663 37.5491 9.59565C37.4699 9.47606 37.3906 9.35721 37.3121 9.23912C37.3667 9.3034 37.4444 9.40355 37.4908 9.45662C37.3533 9.26528 37.1716 9.00816 37.0221 8.80859L37.0274 8.80635C36.91 8.63892 36.7837 8.45505 36.6611 8.27567C36.6716 8.27343 36.6731 8.25773 36.6611 8.2226C36.5976 8.15907 36.555 8.11198 36.5176 8.06713C36.3861 7.87654 36.2642 7.70164 36.1671 7.57158C36.0826 7.44601 35.978 7.26812 36.0221 7.31671C35.9346 7.19263 35.8778 7.11116 35.821 7.03044C35.818 7.02595 35.8143 7.02072 35.8113 7.01623L35.8659 7.05809L35.6782 6.80471C35.667 6.7935 35.6596 6.78752 35.6536 6.78602C35.6364 6.75986 35.6177 6.73296 35.5983 6.70306C35.5788 6.73221 35.5572 6.7651 35.5332 6.80097C35.5273 6.80097 35.5205 6.80396 35.5116 6.80845C35.5303 6.78004 35.5579 6.73744 35.5983 6.6754C35.614 6.69857 35.6424 6.74043 35.6753 6.79051C35.6446 6.74417 35.6162 6.70082 35.5983 6.67391C35.5654 6.72399 35.5347 6.76958 35.5063 6.81218C35.4533 6.84582 35.3486 6.96167 35.1408 7.24719L34.865 7.75321L34.7372 7.89074L34.9973 7.48264C34.8224 7.6964 34.7522 7.85785 34.6625 8.032C34.6229 8.06115 34.5683 8.12244 34.501 8.21438L34.288 8.64864C34.2708 8.6748 34.2536 8.70096 34.2372 8.72638C34.2245 8.7032 34.3149 8.52232 34.1258 8.7929C34.0473 8.95285 34.1587 8.81756 34.1737 8.82504C34.1146 8.91772 34.0571 9.00891 34.0017 9.0986C33.9203 9.18754 33.9068 9.18904 33.7887 9.41028C33.7491 9.43868 33.7768 9.37515 33.8396 9.26378C33.7073 9.5067 33.4576 9.87594 33.3941 10.0329L33.3672 10.0763C33.1773 10.3124 32.8694 10.8715 32.8313 10.814C32.7991 10.891 32.6347 11.2019 32.5001 11.4254C32.4882 11.4441 32.4755 11.4627 32.4643 11.4807C32.6429 11.0644 31.9224 12.3171 31.9209 12.1661C31.7871 12.5039 31.2504 13.2671 30.941 13.8194C30.9552 13.7865 30.9836 13.7223 31.0165 13.6774C30.8191 13.9734 30.7459 14.0489 30.6106 14.2343C30.6315 14.2955 30.4103 14.67 30.2675 14.9428C30.2324 15.0019 30.2234 15.0228 30.2055 15.0579C29.9417 15.3689 30.2997 14.7889 30.1816 14.8741C30.2332 14.8808 29.8116 15.5363 29.9245 15.4331C29.7152 15.6947 29.7548 15.6656 29.6217 15.7844C29.6509 15.8726 29.464 16.052 29.3519 16.3084C29.2062 16.502 29.1755 16.5184 29.1471 16.5446C29.1329 16.5573 29.1195 16.573 29.0933 16.6134C29.0806 16.6335 29.0649 16.6589 29.0432 16.6933C29.0395 16.7015 29.035 16.712 29.0298 16.7255C29.0111 16.7344 29.0171 16.7023 29.0156 16.6881C29.0156 16.6806 29.0141 16.6754 29.0118 16.6724C29.0156 16.6612 29.0417 16.6178 29.038 16.6231C29.029 16.6373 29.0201 16.6507 29.0118 16.6634C29.0044 16.6746 29.0096 16.6672 29.0081 16.6702V16.6724C29.0089 16.6769 29.0096 16.6799 29.0096 16.6821C29.0111 16.7038 29.0111 16.712 29.0118 16.7187C29.0126 16.7442 29.0208 16.7636 29.0193 16.7927C29.0156 16.7987 29.0111 16.8054 29.0074 16.8122L29.0021 16.8039C29.0021 16.8099 29.0044 16.8181 29.0074 16.8279C29.0074 16.8279 29.0074 16.8279 29.0081 16.8279C29.0081 16.8286 29.0066 16.8301 29.0059 16.8316C28.9946 16.8167 28.9857 16.8032 28.9782 16.7912C28.9745 16.7845 28.9707 16.7778 28.9677 16.7733C28.9625 16.7636 28.9603 16.7576 28.9618 16.7576C28.9573 16.7516 28.9543 16.7479 28.9506 16.7434C28.9416 16.7225 28.9423 16.712 28.9483 16.706C28.9543 16.6873 28.9827 16.6941 28.9363 16.5991C28.742 16.3241 28.5626 16.1178 28.4139 15.9093C28.3788 15.8532 28.3496 15.8084 28.3257 15.7717C28.3175 15.7478 28.3055 15.7224 28.3436 15.7643C28.0746 15.4324 27.6508 14.7096 27.3338 14.3247C27.3174 14.2911 27.3114 14.2731 27.3099 14.2634C27.3152 14.2851 27.3181 14.3023 27.3189 14.3165C27.2897 14.2754 27.2606 14.232 27.2232 14.1745L27.3189 14.3262C27.3189 14.3314 27.3189 14.3367 27.3174 14.3404C27.2456 14.241 27.138 14.0758 26.9967 13.8665C26.99 13.8374 27.1672 14.1139 27.1066 14.013C27.0678 13.9614 27.0289 13.9046 26.99 13.8456C27.0296 13.8882 27.132 14.0519 27.1888 14.1199C27.2008 14.1393 27.2128 14.1573 27.2232 14.1745L27.1888 14.1199C27.206 14.1408 27.2195 14.1528 27.2247 14.149C27.1089 13.9846 26.9825 13.8112 26.86 13.6415C26.7695 13.4958 26.6753 13.3388 26.5722 13.1759C26.6866 13.3418 26.7905 13.5003 26.6537 13.2454L26.9586 13.7462C26.7792 13.3284 27.1492 14.0474 26.9945 13.6565C26.5842 13.0032 26.5004 12.9487 26.0916 12.2969C25.9982 12.1945 26.0505 12.2969 26.0176 12.2812C25.9055 12.1011 25.827 11.9613 25.6095 11.6451C25.6685 11.7595 25.6947 11.8013 25.6058 11.678C25.4234 11.3461 25.4623 11.2662 25.108 10.8125C25.0474 10.746 24.9951 10.7019 24.9323 10.6346C24.8232 10.4739 24.7111 10.3102 24.5907 10.1331L24.7372 10.2586C24.3329 9.63078 24.4353 9.94694 24.0391 9.27126C24.1341 9.37515 24.3762 9.75186 24.3202 9.65395C24.0802 9.20548 24.0967 9.37142 23.8837 9.04553L23.8814 8.95061C23.4322 8.2951 22.9367 7.57158 22.4396 6.84507C22.4785 6.87796 22.5749 6.99531 22.4747 6.81443C21.8454 5.89881 21.1817 4.82773 20.6196 3.91511L20.3595 3.5967C20.3079 3.51673 20.2795 3.43824 20.3423 3.51972C20.1278 3.16169 20.3072 3.51673 20.1831 3.35827C20.0508 3.16094 20.0321 3.08246 20.1255 3.20131C19.9536 2.96512 19.7264 2.64671 19.4917 2.30737C19.3759 2.13695 19.2563 1.96131 19.1397 1.78939C18.9879 1.55769 18.8392 1.32972 18.7002 1.1167C18.6097 1.24675 18.523 1.37083 18.4416 1.48818C18.4064 1.53676 18.3728 1.5831 18.3399 1.6287C18.3137 1.66308 18.2883 1.69671 18.2644 1.72885L18.3384 1.59656C18.1217 1.89703 18.0551 2.06071 17.9557 2.24309C17.869 2.37539 17.7763 2.51591 17.6866 2.64596L17.7367 2.55926C17.6874 2.63026 17.6373 2.70202 17.588 2.77377L17.6007 2.75434C17.5177 2.86571 17.428 3.00025 17.3309 3.14973C16.712 4.06086 16.0968 5.00039 15.5923 5.65066C15.5422 5.82631 14.9577 6.56553 14.8763 6.78229C14.8195 6.86824 14.7709 6.94224 14.729 7.00876C14.4278 7.39593 14.4472 7.33913 13.9046 8.09628C13.7432 8.32724 13.7148 8.47449 13.5271 8.76823L13.4845 8.74955L13.2588 9.16811L13.0727 9.346L12.8993 9.6233C12.9748 9.51717 13.0712 9.4058 13.0712 9.42972C12.8021 9.86398 12.3484 10.4425 12.3215 10.4395L11.6772 11.4613C11.6772 11.4373 11.7363 11.3372 11.7998 11.2303C11.5733 11.6085 11.737 11.2288 11.4642 11.7019C11.5173 11.6421 11.4627 11.7528 11.4627 11.7685C11.2751 11.9972 10.8992 12.5518 10.6316 12.9688L10.6592 12.8724C10.151 13.6094 9.61431 14.4443 9.05074 15.2769C9.18229 15.0983 9.23237 15.0676 9.21368 15.1267C9.19798 15.1506 9.18229 15.173 9.16584 15.197C9.18079 15.179 9.1935 15.1641 9.20471 15.1514C9.18752 15.1925 9.15239 15.2553 9.10231 15.3322L8.99617 15.4032C8.91396 15.5774 9.18378 15.1581 8.99468 15.5027C8.95806 15.5557 8.9289 15.5946 8.90499 15.6237C8.93189 15.5714 8.93115 15.5595 8.83772 15.6873C8.81978 15.6843 8.85491 15.5983 8.91545 15.4937L8.67328 15.8809C8.64637 15.8951 8.70019 15.8024 8.70019 15.7687C8.62021 15.9407 8.21884 16.3944 8.11046 16.647L8.0843 16.6604C7.5282 17.4968 7.27632 17.8765 6.82337 18.5582C6.83832 18.5799 6.77703 18.683 6.70154 18.8093C6.54682 19.0418 6.38911 19.2802 6.2613 19.4813C5.98848 19.8587 5.69548 20.2623 5.40025 20.7033C5.22983 20.9791 5.25375 20.962 5.26645 20.9649C5.22908 21.0225 5.19096 21.0793 5.15359 21.1361C5.02727 21.2923 4.82771 21.5831 4.97047 21.3342C4.48837 22.0577 4.35458 22.2588 3.76336 23.1871C3.76634 23.1833 3.76933 23.1803 3.77232 23.1766C3.72897 23.2446 3.68114 23.3186 3.6333 23.3904C3.63031 23.3911 3.62882 23.3904 3.62882 23.3874L3.65498 23.3418C3.60789 23.4195 3.55781 23.498 3.50624 23.5772C3.501 23.5847 3.49577 23.5929 3.49054 23.5997L3.60864 23.4031C3.35002 23.7738 3.1512 24.0765 2.97032 24.3591C2.41871 25.1297 1.81777 25.9063 1.48292 26.499L1.51057 26.4511L1.30428 26.7845C1.1675 26.9878 1.03894 27.1806 0.915613 27.3682C0.955227 27.2935 0.997831 27.2105 0.893189 27.3443C0.760145 27.5671 0.635323 27.7651 0.51648 27.9468C0.333358 28.2173 0.163689 28.4677 0 28.7099C0.324389 28.7121 0.635323 28.7144 0.954479 28.7159C1.16974 28.7159 1.39098 28.7129 1.63016 28.7017C2.33126 28.813 4.11764 28.6935 5.0639 28.7652L5.00934 28.7391C5.25375 28.7136 5.30532 28.754 5.48545 28.76C5.46004 28.7398 5.22011 28.7361 5.37184 28.7219C7.44374 28.6905 9.64794 28.76 11.7722 28.7839C12.5488 28.7906 12.2132 28.6479 13.1923 28.7107L12.9142 28.7592C14.4816 28.7009 16.12 28.7615 17.6545 28.7114C17.5633 28.7226 17.5603 28.7376 17.4108 28.7368C17.7352 28.7719 18.6097 28.7383 18.615 28.7099C18.8541 28.7129 18.6703 28.7361 18.8175 28.751C19.1427 28.7719 19.6337 28.7062 19.8064 28.7413C19.8251 28.745 19.784 28.7488 19.7354 28.7518C20.0142 28.7428 20.6218 28.7562 20.4395 28.7196C21.0157 28.7391 21.5412 28.7017 22.0009 28.7256C22.3006 28.68 22.9867 28.7473 23.0824 28.683C23.0413 28.7495 24.0922 28.7368 24.4562 28.7054C24.3344 28.7256 24.7731 28.7263 24.6304 28.754C25.0459 28.7533 25.4271 28.7405 25.3546 28.7062C26.12 28.7861 26.8936 28.6419 27.3249 28.7443C28.5596 28.7084 29.7017 28.6845 30.8124 28.6688C30.7721 28.7353 29.5851 28.6755 29.6322 28.745C30.6861 28.7174 31.2938 28.6606 32.3387 28.6763C32.6093 28.6852 32.1847 28.7054 32.0935 28.7166C33.1459 28.689 34.1281 28.7226 35.0646 28.6867C34.8964 28.6464 35.747 28.6038 35.8509 28.5806C35.5796 28.6628 36.78 28.6008 36.2882 28.7092C36.41 28.7032 36.5617 28.689 36.5341 28.6688C36.7142 28.6748 36.7718 28.6867 36.5886 28.7099C37.2501 28.6935 37.0147 28.6613 37.6141 28.6621C37.6119 28.677 37.4908 28.6822 37.4295 28.6994C37.733 28.671 38.0372 28.6426 38.5439 28.6546C38.5178 28.6621 38.5581 28.6718 38.4699 28.674C39.3138 28.6673 39.9215 28.5993 40.8573 28.6262C40.5762 28.6897 41.1816 28.6471 41.2325 28.7024L41.7452 28.686L41.5397 28.6591C41.9889 28.6598 42.3858 28.6202 42.7722 28.6381L42.4381 28.6606L43.2797 28.6501L42.8036 28.6292C43.258 28.6008 42.755 28.5597 43.3529 28.5746C43.2311 28.5798 43.8022 28.5746 44.0369 28.6075H44.0354C44.2573 28.5903 44.4861 28.5716 44.8187 28.5851C44.9046 28.603 44.7492 28.6456 44.8052 28.6576C45.0242 28.6112 45.8576 28.6449 46.1349 28.5955C46.0422 28.6068 46.0378 28.6359 46.0676 28.6419L46.2515 28.6045C46.4593 28.6165 46.4899 28.6225 46.4563 28.6456C47.0827 28.6524 46.2575 28.5761 47.0005 28.606C46.9422 28.609 46.9698 28.615 46.8487 28.6202C47.5947 28.6359 48.2905 28.5963 48.9759 28.615C49.1785 28.6703 48.3772 28.6284 48.6082 28.6755C49.2039 28.6628 49.8228 28.6494 50.4327 28.6367C50.3804 28.5619 50.3288 28.4887 50.2772 28.4147L50.2795 28.4191ZM39.7271 12.9576L39.7376 12.986L39.4999 12.6347C39.5044 12.6385 39.5104 12.6437 39.5163 12.6497C39.5866 12.7536 39.6569 12.856 39.7264 12.9576H39.7271ZM43.0495 17.81C43.0495 17.81 43.0443 17.8025 43.0413 17.7988C43.0435 17.8018 43.045 17.804 43.0472 17.807C43.0472 17.8078 43.0487 17.8093 43.0487 17.81H43.0495ZM29.624 23.7529C29.7107 23.6131 29.7623 23.584 29.7167 23.6781C29.9618 23.2297 30.4357 22.4142 30.7653 21.9874L30.7197 22.0824C30.9604 21.74 30.9006 21.6376 31.1443 21.3327L31.1106 21.3992C31.6174 20.6458 32.1264 19.781 32.5562 19.2331C32.5749 19.0889 33.0652 18.4924 33.0241 18.396C33.341 17.9834 33.2737 18.1165 33.6923 17.5185C33.8014 17.3571 33.8037 17.2449 33.9263 17.0371L33.9674 17.0566L34.1041 16.7554L34.2439 16.638L34.356 16.4414C34.3052 16.5154 34.2357 16.5917 34.232 16.573C34.4054 16.265 34.7245 15.8659 34.7484 15.8711L35.1677 15.1476C35.1715 15.1663 35.1341 15.2381 35.0938 15.3136C35.238 15.0445 35.1506 15.3225 35.3217 14.9847C35.2836 15.025 35.315 14.9451 35.312 14.9324C35.3643 14.8711 35.4346 14.7739 35.5116 14.6603C35.531 14.6319 35.5512 14.602 35.5714 14.5721L35.5983 14.5272C35.6102 14.5407 35.6214 14.5542 35.6319 14.5661C35.6229 14.5721 35.6162 14.5803 35.611 14.5908L35.6185 14.6035L35.6476 14.6476C35.6925 14.7134 35.7373 14.7799 35.7829 14.8472C35.8756 14.9809 35.9697 15.117 36.0654 15.2553C36.2568 15.5318 36.4526 15.8166 36.6507 16.1021C36.5229 15.8876 36.5998 15.904 36.7187 16.07L36.7247 16.1641C36.8233 16.2568 36.62 15.9773 36.8016 16.1813C36.9429 16.3996 36.854 16.357 36.7575 16.2419L36.9481 16.4945C36.9467 16.5177 36.8988 16.4609 36.8727 16.4549C36.9698 16.5453 37.138 16.9333 37.286 17.0596L37.2845 17.082C37.6806 17.653 37.8608 17.9124 38.1829 18.3781C38.2233 18.3639 38.3399 18.5522 38.4625 18.6733C38.6844 19.0253 38.9161 19.426 39.2002 19.84C39.4147 20.1203 39.2869 19.9058 39.396 20.0232C39.3796 20.0658 39.6628 20.4784 39.4947 20.2788C39.837 20.7736 39.9312 20.9111 40.3834 21.5248C40.3497 21.4478 40.3034 21.3671 40.3408 21.4C40.423 21.5106 40.5037 21.669 40.4776 21.663L40.4536 21.6354C40.9791 22.3111 41.4672 23.3306 41.9134 23.8501L41.8887 23.8209L42.1032 24.1019C42.1481 24.1617 42.1563 24.1685 42.1727 24.1864L42.2258 24.2462C42.2594 24.3015 42.2325 24.2753 42.2071 24.2529C42.1795 24.2283 42.157 24.2156 42.1541 24.2312C42.1653 24.2417 42.1757 24.2514 42.1847 24.2604C42.1742 24.2664 42.1556 24.2701 42.1346 24.2731C42.1055 24.2761 42.107 24.2776 42.0479 24.2783C41.9014 24.2768 41.7646 24.2761 41.6309 24.2753C41.364 24.2709 41.1091 24.2649 40.8124 24.2851C40.3273 24.1737 39.0911 24.2933 38.4363 24.2215L38.4744 24.2477C38.3055 24.2731 38.2696 24.2327 38.1448 24.2268C38.1627 24.2469 38.3287 24.2507 38.2233 24.2649C36.7897 24.2963 35.2642 24.2268 33.794 24.2028C33.2565 24.1961 33.489 24.3389 32.8111 24.2761L33.0032 24.2275C31.9186 24.2858 30.7848 24.2253 29.7227 24.2753C29.7862 24.2641 29.7877 24.2492 29.8916 24.2499C29.7765 24.232 29.5612 24.232 29.3781 24.2402C29.3878 24.226 29.3983 24.2111 29.408 24.1961L29.5246 23.9345C29.5605 23.8792 29.6068 23.8426 29.5754 23.9069C29.7451 23.6729 29.5605 23.8792 29.621 23.7536L29.624 23.7529ZM11.8903 18.7645C11.8925 18.7869 11.8671 18.8467 11.7871 18.9797C11.7744 18.9812 11.7587 18.9805 11.7527 18.9678L11.8903 18.7645ZM28.2427 23.4756C28.1941 23.4008 28.1336 23.3074 28.0701 23.2088C28.0678 23.1796 28.0955 23.1946 28.1351 23.2566C28.1052 23.2282 28.1926 23.3777 28.2427 23.4756ZM27.8414 22.8627C27.7995 22.8007 27.7636 22.7476 27.7404 22.7139C27.7614 22.7446 27.7905 22.7879 27.8414 22.8627ZM18.7196 8.72638C18.7076 8.72488 18.6949 8.72264 18.6822 8.72114L18.6994 8.69573L18.7196 8.72638ZM18.6254 8.8056C18.6336 8.83475 18.6486 8.87437 18.6718 8.92519L18.6695 8.93865L18.674 8.93117C18.6972 8.98275 18.7286 9.04404 18.7704 9.12252L19.0231 9.43196L19.0657 9.55753L18.8803 9.27873C18.958 9.45438 19.047 9.54034 19.1367 9.64273C19.1397 9.67936 19.1598 9.73243 19.1972 9.80194L19.4663 10.0927C19.47 10.1473 19.3258 9.97535 19.4566 10.2026C19.5822 10.3386 19.411 10.0224 19.5934 10.2654C19.6711 10.4417 19.6195 10.4089 19.7645 10.5815C19.7668 10.6174 19.7316 10.5838 19.6763 10.5142C19.8026 10.669 19.9716 10.9493 20.059 11.015C20.1353 11.2019 20.435 11.5711 20.37 11.5906C20.417 11.6347 20.6046 11.8552 20.7063 12.0069C20.4581 11.7707 21.077 12.5809 20.9589 12.5533C21.1525 12.7214 21.4732 13.282 21.7452 13.6266C21.7273 13.6094 21.6914 13.575 21.6735 13.5406C21.8035 13.7499 21.8252 13.8209 21.9007 13.9607C21.9665 13.9555 22.187 14.2686 22.3305 14.4219C22.4493 14.7051 22.1735 14.306 22.1802 14.4144C22.2109 14.3763 22.5061 14.827 22.483 14.7201C22.5801 14.9324 22.5779 14.8957 22.6026 15.0213C22.6855 15.0153 22.7304 15.1947 22.8724 15.33C23.0256 15.629 22.8627 15.4391 23.0824 15.7336C23.1594 15.8921 22.9591 15.6327 22.9591 15.6327C23.1624 15.9459 23.0996 15.7501 23.1691 15.7994C23.4262 16.1641 23.2483 15.9937 23.3081 16.1365C23.4726 16.3615 23.631 16.5124 23.7431 16.6873C23.7439 16.7053 23.7633 16.7404 23.7282 16.7075C23.9255 16.9303 24.2081 17.437 24.4413 17.6941C24.451 17.7181 24.4547 17.7315 24.4547 17.739C24.4472 17.6777 24.4659 17.6553 24.4883 17.6538C24.581 17.7936 24.6872 17.8952 24.6916 17.967C24.6363 17.8803 24.6199 17.881 24.584 17.8474L24.6931 17.9856C24.7365 18.1456 24.5474 17.7951 24.5152 17.816C24.7163 18.0933 24.9704 18.4035 25.102 18.6307C25.09 18.7039 24.7522 18.1269 24.9062 18.4438L24.6999 18.094C24.8038 18.3967 24.5698 17.8847 24.655 18.1695C24.9353 18.624 25.0033 18.6554 25.2829 19.1083C25.3718 19.1935 25.2956 19.0522 25.3845 19.1375C25.8412 19.7429 25.605 19.7048 25.966 20.1338C26.0729 20.2362 26.1566 20.2481 26.345 20.5979L26.2239 20.5157C26.5019 20.9515 26.4534 20.7183 26.718 21.1914C26.6469 21.1234 26.4795 20.8618 26.5169 20.9313C26.6716 21.249 26.6798 21.1212 26.8271 21.3469L26.8159 21.4209C27.1305 21.8716 27.4788 22.3694 27.8272 22.8687C27.7965 22.8485 27.7262 22.77 27.7913 22.8978C27.9714 23.1542 28.153 23.4307 28.3309 23.7103C28.4408 23.8859 28.5514 24.0623 28.6605 24.2372C28.4871 24.2484 28.313 24.2686 28.2345 24.2455C28.2211 24.2417 28.2517 24.238 28.2861 24.235C28.0947 24.2447 27.6687 24.2305 27.7958 24.2679C27.3974 24.2484 27.0334 24.2858 26.715 24.2619C26.5079 24.3075 26.0325 24.2402 25.9668 24.3045C25.9952 24.238 25.2679 24.2507 25.016 24.2821C25.1005 24.2619 24.797 24.2611 24.8957 24.2335C24.6079 24.2342 24.3448 24.2469 24.3949 24.2813C23.865 24.2014 23.3298 24.3456 23.0316 24.2432C22.1773 24.2791 21.3865 24.303 20.6181 24.3187C20.6458 24.2522 21.4679 24.312 21.4343 24.2425C20.7056 24.2701 20.2847 24.3269 19.562 24.3112C19.3751 24.3023 19.6681 24.2821 19.7316 24.2709C19.0036 24.2985 18.3235 24.2649 17.6754 24.3008C17.792 24.3411 17.2031 24.3837 17.1313 24.4069C17.3189 24.3254 16.4885 24.3867 16.8286 24.2783C16.7449 24.2843 16.6387 24.2985 16.6582 24.3187C16.5333 24.3127 16.4937 24.3008 16.6201 24.2776C16.1626 24.294 16.3248 24.3262 15.9107 24.3254C15.9122 24.3105 15.9959 24.3052 16.0385 24.2881C15.8285 24.3165 15.6177 24.3449 15.2672 24.3329C15.2859 24.3254 15.2575 24.3157 15.3188 24.3135C14.735 24.3202 14.3142 24.3882 13.6669 24.3613C13.8613 24.2978 13.4427 24.3404 13.4076 24.2851L13.0525 24.3015L13.1953 24.3284C12.8844 24.3277 12.6093 24.3673 12.3425 24.3493L12.5734 24.3269L11.9912 24.3374L12.3208 24.3583C12.0061 24.3867 12.3544 24.4278 11.9403 24.4129C12.024 24.4076 11.6294 24.4129 11.4672 24.38H11.468C11.314 24.3972 11.1563 24.4159 10.9261 24.4024C10.8663 24.3845 10.9739 24.3411 10.935 24.3299C10.7833 24.3763 10.207 24.3426 10.0149 24.3919C10.0792 24.3807 10.0822 24.3516 10.0613 24.3456L9.93421 24.383C9.78995 24.371 9.76903 24.365 9.7922 24.3419C9.35868 24.3351 9.92973 24.4114 9.41549 24.3815C9.45585 24.3785 9.43642 24.3733 9.52088 24.3673C9.26301 24.3591 9.01337 24.365 8.76895 24.371C8.50062 24.3763 8.33619 24.3822 8.17997 24.3725C8.21585 24.3411 8.22631 24.3389 8.22631 24.3471C8.30106 24.3314 8.44456 24.3478 8.40869 24.312C8.36683 24.3135 8.32497 24.3157 8.28237 24.3172C8.31974 24.2529 8.35711 24.1872 8.39523 24.1214L8.6389 23.7282C8.80184 23.4674 8.96553 23.211 9.13296 22.9741L9.05896 23.0727C9.04551 22.9531 9.3669 22.6863 9.52387 22.3881C9.48276 22.4591 9.49995 22.5017 9.50518 22.4785C9.76977 22.11 10.0082 21.6997 10.373 21.1167L10.3423 21.1981C10.5067 20.9866 10.7452 20.6211 10.9141 20.3872C10.9455 20.305 11.0404 20.1704 10.9604 20.2369C11.5539 19.5642 11.8604 18.7966 12.3821 18.1957C12.329 18.2742 12.2707 18.3923 12.3126 18.3295L12.6743 17.7622C12.616 17.7868 12.6078 17.8235 12.5069 17.9259C12.5375 17.8444 12.631 17.6777 12.7244 17.5402C12.5734 17.8033 12.7715 17.5686 12.8604 17.4714C12.8395 17.4834 12.8552 17.44 12.8403 17.443C13.0877 17.1859 12.8163 17.3556 13.119 16.9811V17.0125C13.2125 16.8585 13.2857 16.7083 13.3986 16.5506C13.4763 16.5065 13.3067 16.7195 13.3268 16.7479C13.4771 16.5214 13.5653 16.2613 13.7357 16.0797C13.6759 16.1798 13.5914 16.3204 13.5316 16.4213C13.72 16.2254 13.7275 16.1925 13.8456 16.0318L13.8336 16.0475L14.1087 15.6776L14.0324 15.768C14.1378 15.4287 14.4046 15.1835 14.6057 14.7664C14.4091 15.1715 14.5952 14.8479 14.6132 14.9017C14.6887 14.812 14.8 14.6723 14.7821 14.7208C14.8733 14.5213 15.0086 14.4368 15.1356 14.1543C15.1551 14.1513 15.2664 13.9629 15.2694 14.0235C15.4182 13.7835 15.2111 14.0646 15.2096 14.0347C15.4122 13.6475 15.8308 13.223 16.1245 12.6676C16.3801 12.2438 16.4153 12.116 16.6193 11.7677L16.703 11.6444C16.7658 11.5906 16.6447 11.8126 16.6447 11.8126C16.8144 11.5988 16.9265 11.4276 17.0558 11.2056C17.0371 11.2557 17.076 11.2176 17.1328 11.1615C17.2449 10.9889 17.1664 11.018 17.3361 10.805C17.3234 10.8528 17.3114 10.9164 17.2688 11.0076C17.3899 10.7975 17.5103 10.5875 17.6358 10.3707C17.6941 10.3296 17.5828 10.5172 17.5461 10.6002C17.6949 10.3603 17.937 9.98207 17.9527 9.88789L17.8675 9.99478C17.8937 9.97161 17.8899 10.0194 17.8608 10.0718C17.7509 10.2893 17.6538 10.3528 17.6343 10.3558L17.727 10.2026C17.5543 10.3072 17.3361 10.805 17.1306 11.1002L17.1575 10.9709L18.6224 8.80486L18.6254 8.8056ZM17.002 11.2766C16.9676 11.3103 16.9325 11.3327 16.931 11.311L17.1298 11.0173L17.002 11.2766ZM15.9974 12.6908C15.9929 12.7155 15.9735 12.7648 15.9175 12.8709L15.833 12.9337L15.9974 12.6908ZM45.6356 21.7057C45.6356 21.7057 45.6349 21.7057 45.6341 21.7057L45.4353 21.4112C45.4391 21.4134 45.4443 21.4164 45.4495 21.4209C45.5101 21.5128 45.5721 21.6077 45.6356 21.7057ZM43.6198 18.674C43.5577 18.5926 43.4965 18.5118 43.4344 18.4274C43.498 18.5066 43.5592 18.5888 43.6198 18.674ZM41.6062 15.7097C41.5815 15.6791 41.5569 15.6484 41.5314 15.6178C41.5576 15.6492 41.5808 15.6768 41.6017 15.7015C41.6032 15.7045 41.6054 15.7067 41.6069 15.7097H41.6062ZM38.5977 11.3006L38.4774 11.1219C38.4737 11.1122 38.4707 11.1055 38.4707 11.1017C38.5342 11.1959 38.5977 11.2908 38.6583 11.3813C38.6389 11.3559 38.6187 11.3282 38.5977 11.3006ZM38.1328 10.5718L38.0559 10.4754C38.088 10.5255 38.1246 10.5815 38.1627 10.6398C38.1612 10.6428 38.1575 10.6436 38.1523 10.6406L37.8645 10.2153L37.9953 10.3737C38.0402 10.438 38.0858 10.5038 38.1328 10.5718ZM37.866 10.1891L37.8197 10.1502L37.1186 9.11355C37.3376 9.4327 37.5782 9.77728 37.866 10.1891ZM44.4868 19.8625C44.4935 19.8894 44.5048 19.9133 44.5197 19.9417C44.4681 19.867 44.4158 19.7885 44.3665 19.7085C44.3986 19.7429 44.4479 19.8101 44.4861 19.8625H44.4868ZM43.9539 19.1614C43.9128 19.1307 43.85 19.062 43.6983 18.8063L43.7222 18.8198C43.7969 18.9289 43.8732 19.0425 43.9539 19.1614ZM42.1675 16.5012L42.1638 16.4975C42.0883 16.3906 42.0135 16.2778 41.9343 16.1612C41.9709 16.203 42.0322 16.2875 42.1675 16.5012ZM37.0363 8.83625C37.0775 8.89156 37.1096 8.93939 37.1358 8.982C37.1029 8.93342 37.0692 8.88408 37.0363 8.83625ZM35.9473 7.35333C36.0736 7.54019 36.1977 7.72331 36.3196 7.9027L36.2224 7.75321C36.2224 7.75321 36.2299 7.76068 36.2336 7.76442C36.2695 7.813 36.3068 7.86159 36.345 7.91017C36.3659 7.94156 36.3883 7.97595 36.4122 8.01332C36.4092 8.02378 36.3793 7.99463 36.3666 7.98791C36.4033 8.03126 36.4414 8.0761 36.478 8.11721C36.5983 8.3093 36.7433 8.54325 36.8913 8.74506C36.8226 8.64864 36.786 8.62846 36.8076 8.65313C36.8241 8.67779 36.8413 8.7032 36.8577 8.72862L35.6431 6.93252C35.6446 6.92878 35.6469 6.9243 35.6476 6.92131C35.6835 6.97214 35.7186 7.02296 35.7537 7.07379C35.8188 7.16796 35.883 7.26139 35.9466 7.35408L35.9473 7.35333ZM35.5983 6.84881C35.6125 6.86899 35.6259 6.88842 35.6394 6.90786C35.6371 6.91085 35.6356 6.91384 35.6334 6.91683L35.6028 6.87123L35.6043 6.866L35.602 6.86974L35.5953 6.86002L35.5661 6.90487C35.5661 6.90487 35.5661 6.90188 35.5661 6.89963C35.5766 6.88244 35.5878 6.86525 35.5983 6.84806V6.84881ZM33.3911 10.0381C33.3888 10.0434 33.3866 10.0486 33.3851 10.0531C33.3799 10.0591 33.3746 10.0665 33.3694 10.0725L33.3911 10.0374V10.0381ZM29.0178 16.7995C29.0178 16.7995 29.0178 16.8025 29.0178 16.8047L29.0141 16.8092L29.0186 16.7995H29.0178ZM25.984 12.2558C25.984 12.2558 25.9787 12.2506 25.9757 12.2468L25.8576 12.0816C25.7687 11.9531 25.7029 11.8499 25.6521 11.7625L25.984 12.2558ZM22.4284 6.85554C22.4889 6.94598 22.5398 7.02296 22.5727 7.07229C22.5428 7.02745 22.5009 6.96466 22.4277 6.85628L22.4284 6.85554ZM8.85491 15.6828C8.84968 15.6873 8.84519 15.6895 8.8422 15.691C8.8579 15.6723 8.86089 15.6716 8.85491 15.6828Z" fill="#EAE9E6"/>
<path d="M35.276 28.6895L35.0959 28.6977C35.0832 28.6962 35.0742 28.6939 35.066 28.6917C35.0615 28.6977 34.9621 28.7044 34.8672 28.7096C35.0518 28.7074 35.2962 28.7194 35.2753 28.6895H35.276Z" fill="#EAE9E6"/>
<path d="M13.4766 8.74984L13.4863 8.75432L13.5304 8.67285L13.4766 8.74984Z" fill="#EAE9E6"/>
<path d="M42.7892 17.3391L42.6016 17.0356C42.683 17.1672 42.7421 17.2629 42.7892 17.3391Z" fill="#EAE9E6"/>
<path d="M34.8699 28.71C34.8438 28.71 34.8184 28.7115 34.7952 28.7122C34.6195 28.7204 34.7391 28.7174 34.8699 28.71Z" fill="#EAE9E6"/>
<path d="M44.0367 28.6128C43.9388 28.6195 43.8431 28.6255 43.7422 28.6322C43.9051 28.6352 44.0322 28.636 44.0367 28.6128Z" fill="#EAE9E6"/>
<path d="M43.3164 28.6317C43.4793 28.6399 43.6161 28.6384 43.7424 28.6317C43.6087 28.6287 43.4509 28.625 43.3164 28.6317Z" fill="#EAE9E6"/>
<path d="M36.9807 8.67808C36.9807 8.67808 36.9747 8.67808 36.9688 8.67285L37.0315 8.75656L36.9807 8.67808Z" fill="#EAE9E6"/>
<path d="M36.9102 8.58887C36.9371 8.62848 36.9602 8.66212 36.9722 8.67183L36.9102 8.58887Z" fill="#EAE9E6"/>
<path d="M36.7773 8.41406L36.9081 8.58896C36.8663 8.52618 36.8147 8.44844 36.7773 8.41406Z" fill="#EAE9E6"/>
<path d="M38.4531 10.8909L38.4823 10.9065C38.4711 10.8953 38.4606 10.8894 38.4531 10.8909Z" fill="#EAE9E6"/>
<path d="M38.5075 10.9202L38.4844 10.9067C38.5711 10.9949 38.7759 11.4023 38.8955 11.5338C38.7938 11.3776 38.6608 11.1295 38.5075 10.9202Z" fill="#EAE9E6"/>
<path d="M48.2787 28.674L48.4043 28.6396L48.0156 28.6509L48.2787 28.674Z" fill="#EAE9E6"/>
<path d="M18.1292 9.75054C18.1822 9.58835 18.2203 9.56667 18.2727 9.38953C18.3467 9.26994 18.4229 9.19519 18.4244 9.22509C18.4416 9.17726 18.5559 9.05019 18.5724 8.97021C18.4386 9.10027 18.3078 9.29161 18.1979 9.50987C18.1598 9.54724 18.1777 9.49791 18.177 9.48296C18.1037 9.63319 18.032 9.81407 18.1292 9.75054Z" fill="#EAE9E6"/>
<path d="M17.2132 11.1174C17.2378 11.0763 17.2565 11.0412 17.2715 11.0083L17.2109 11.107C17.2109 11.107 17.2132 11.1129 17.2132 11.1174Z" fill="#EAE9E6"/>
<path d="M20.3661 11.5943C20.3661 11.5943 20.3698 11.5906 20.3721 11.5898C20.3594 11.5779 20.3541 11.5756 20.3661 11.5943Z" fill="#EAE9E6"/>
<path d="M17.1673 11.1763L17.1016 11.2742C17.133 11.2301 17.1531 11.2002 17.1673 11.1763Z" fill="#EAE9E6"/>
<path d="M24.4571 17.74C24.4533 17.7878 24.2463 17.4903 24.4885 17.8558C24.4683 17.8043 24.4608 17.7691 24.4571 17.74Z" fill="#EAE9E6"/>
<path d="M17.1941 11.106C17.1941 11.1239 17.1874 11.1441 17.168 11.177C17.1829 11.153 17.1979 11.1299 17.2121 11.1074C17.2113 11.0977 17.2068 11.0932 17.1941 11.106Z" fill="#EAE9E6"/>
<path d="M24.9414 24.2334L25.3331 24.2394C25.2232 24.2379 25.0812 24.2356 24.9414 24.2334Z" fill="#EAE9E6"/>
<path d="M34.3555 16.4437C34.3749 16.4153 34.3913 16.3877 34.4003 16.3652L34.3555 16.4437Z" fill="#EAE9E6"/>
<path d="M26.4961 24.2334C26.5664 24.2483 26.6404 24.2566 26.7166 24.2618C26.733 24.2588 26.7517 24.2558 26.7622 24.2513L26.4961 24.2334Z" fill="#EAE9E6"/>
<path d="M28.2891 24.2357C28.3092 24.2349 28.3279 24.2334 28.3414 24.2319C28.3272 24.2327 28.3077 24.2342 28.2891 24.2357Z" fill="#EAE9E6"/>
<path d="M17.8438 10.0302L17.8714 9.99512C17.8639 10.0011 17.855 10.0123 17.8438 10.0302Z" fill="#EAE9E6"/>
<path d="M17.5313 24.3029L17.6562 24.2947C17.6651 24.2962 17.6711 24.2985 17.6771 24.3007C17.6801 24.2947 17.7488 24.288 17.8146 24.2828C17.6868 24.285 17.5179 24.273 17.5321 24.3029H17.5313Z" fill="#EAE9E6"/>
<path d="M17.6758 24.3029H17.6783L17.6758 24.3003V24.3029Z" fill="#EAE9E6"/>
<path d="M35.0958 15.3154C35.0838 15.3379 35.0704 15.364 35.0547 15.3954C35.0674 15.3692 35.0823 15.3423 35.0958 15.3154Z" fill="#EAE9E6"/>
<path d="M33.9773 17.0631L33.9683 17.0586L33.9414 17.1176L33.9773 17.0631Z" fill="#EAE9E6"/>
<path d="M12.9014 17.4336C12.9014 17.4336 12.882 17.4508 12.8633 17.4717C12.8708 17.4672 12.882 17.4568 12.9014 17.4336Z" fill="#EAE9E6"/>
<path d="M13.8477 16.0318C13.8858 15.9824 13.9329 15.9211 13.9979 15.8359L13.8477 16.0318Z" fill="#EAE9E6"/>
<path d="M14.6148 14.9328C14.6185 14.9148 14.6163 14.9073 14.6148 14.9014L14.6133 14.9036L14.6148 14.9335V14.9328Z" fill="#EAE9E6"/>
<path d="M17.8125 24.2821C17.8304 24.2821 17.8484 24.2806 17.8641 24.2798C17.9852 24.2716 17.9029 24.2746 17.8125 24.2821Z" fill="#EAE9E6"/>
<path d="M11.4688 24.3793C11.5368 24.3726 11.6033 24.3666 11.6728 24.3599C11.5599 24.3569 11.4717 24.3562 11.4688 24.3793Z" fill="#EAE9E6"/>
<path d="M11.971 24.3611C11.8582 24.3529 11.764 24.3544 11.6758 24.3611C11.7685 24.3641 11.8776 24.3678 11.971 24.3611Z" fill="#EAE9E6"/>
<path d="M17.9248 10.0774C17.9248 10.0774 17.9226 10.0721 17.9233 10.0669L17.8867 10.1297L17.9241 10.0774H17.9248Z" fill="#EAE9E6"/>
<path d="M17.9578 10.0049C17.9391 10.0325 17.9234 10.0557 17.9219 10.0669L17.9578 10.0049Z" fill="#EAE9E6"/>
<path d="M17.957 10.0048C17.9862 9.96147 18.0236 9.90915 18.0333 9.87402L17.957 10.0048Z" fill="#EAE9E6"/>
<path d="M16.875 11.5889V11.6143C16.8795 11.6031 16.8795 11.5948 16.875 11.5889Z" fill="#EAE9E6"/>
<path d="M16.8786 11.6347V11.6138C16.8494 11.696 16.626 11.9225 16.5781 12.0376C16.6529 11.9329 16.7852 11.7879 16.8786 11.6339V11.6347Z" fill="#EAE9E6"/>
<path d="M8.46559 24.3527L8.71449 24.3415L8.53211 24.3184C8.49773 24.3296 8.48577 24.3415 8.46484 24.3527H8.46559Z" fill="#EAE9E6"/>
<path d="M38.4758 10.968C38.4578 10.9381 38.4339 10.9015 38.4062 10.8604L38.4758 10.968Z" fill="#EAE9E6"/>
<path d="M38.4067 10.8605L38.2288 10.5839C38.2094 10.5697 38.3185 10.7267 38.4067 10.8605Z" fill="#EAE9E6"/>
<path d="M43.7955 18.7839C43.744 18.7054 43.7081 18.6905 43.6797 18.665C43.7163 18.7039 43.7589 18.7592 43.8067 18.8272C43.8112 18.8265 43.8082 18.813 43.7955 18.7839Z" fill="#EAE9E6"/>
<path d="M38.4766 10.9678C38.4863 10.9835 38.4952 10.9984 38.5005 11.0081C38.4938 10.9947 38.4938 10.9947 38.4885 10.9865L38.4766 10.9678Z" fill="#EAE9E6"/>
<path d="M45.2656 21.0005L45.6266 21.5446C45.5691 21.4452 45.4943 21.3152 45.6625 21.5603C45.2215 20.8645 45.7425 21.7113 45.2664 21.0005H45.2656Z" fill="#EAE9E6"/>
<path d="M44.1604 19.3187C44.0296 19.1386 43.9982 19.0953 44.1387 19.3157C44.3383 19.6043 44.1462 19.306 44.1604 19.3187Z" fill="#EAE9E6"/>
<path d="M35.942 7.19232L35.9779 7.21101C35.8239 6.98827 35.9704 7.21325 35.942 7.19232Z" fill="#EAE9E6"/>
<path d="M60.0403 13.6579C59.8363 12.6787 59.5298 11.8162 59.2353 11.1487C59.0933 10.7182 58.816 10.1561 58.5843 9.74429C58.7017 9.97974 58.6344 9.91396 58.5342 9.73532C58.3608 9.42065 58.2562 9.26668 58.1994 9.18521C58.1441 9.10374 58.1336 9.09477 58.1231 9.0858C58.0947 9.07384 58.0933 9.03946 57.656 8.46094C57.4071 8.12684 56.9571 7.57224 56.3525 6.96532C56.0557 6.66111 55.6947 6.34644 55.3434 6.04522C54.9929 5.74998 54.6304 5.44428 54.2679 5.14007C52.8223 3.91875 51.3984 2.70566 50.8685 2.24225C50.7915 2.1847 50.713 2.1264 50.6338 2.06735L50.515 1.97467L50.3139 1.81172C50.0291 1.56582 49.7376 1.38867 49.408 1.35354C49.0799 1.31468 48.7338 1.39839 48.4745 1.58899C48.2076 1.77211 48.0357 2.04941 47.9692 2.32596L47.9931 2.21011C47.9363 2.34764 47.893 2.60401 47.9049 2.96278C47.9049 3.18776 47.9049 3.46207 47.9042 3.76852C47.9019 4.3149 47.8989 4.97937 47.8952 5.64683C47.8877 6.98251 47.8802 8.33462 47.89 8.79505L47.8974 8.67172C47.9311 9.47447 47.872 9.36534 47.8541 9.99842C47.9139 9.91471 47.9483 10.6031 47.9527 10.8662L47.94 10.8557C47.9498 11.2519 48.0021 12.1481 48.0103 12.8021L47.9774 12.7767C48.0125 13.3215 47.9983 14.347 48.0013 14.7387C47.9924 15.3232 47.9655 16.114 47.9595 16.9264C47.8257 16.7299 47.7151 16.5707 47.6455 16.475C47.665 16.5647 47.7988 16.7209 47.7988 16.8158C47.6747 16.6873 47.662 16.5961 47.5917 16.5497C47.6209 16.4488 47.3907 16.2194 47.3832 16.0639L47.3174 16.0474L47.2913 15.96C46.8166 15.3463 47.1724 15.8262 46.7965 15.2537C46.567 14.9293 46.4085 14.8082 46.3039 14.6124C46.3218 14.64 46.348 14.7282 46.2807 14.649C46.3039 14.6124 46.1028 14.439 46.1081 14.3754C46.0475 14.2947 45.8681 14.0219 45.8853 14.1437C45.8764 14.0824 45.7224 13.8358 45.8397 13.9658C45.7859 13.8836 45.7388 13.8006 45.6888 13.7491L45.7471 13.8619C45.5542 13.5921 45.4877 13.4187 45.3255 13.2677L45.3763 13.3813C45.2627 13.2199 45.1663 13.0846 45.1663 12.9904L45.2949 13.1489C45.1087 12.8776 44.9944 12.7154 44.8165 12.5053L44.8703 12.5868C44.6289 12.3282 43.5653 10.8423 43.3283 10.6136L43.3769 10.7601L43.196 10.5553C43.2259 10.5762 43.3538 10.5852 43.3799 10.6098C43.0346 10.1083 41.2871 7.59391 41.0038 7.12676C40.8984 6.93093 41.0367 7.0565 41.0434 7.05501C40.8797 6.84124 40.941 6.984 40.8162 6.79266C40.7871 6.73735 40.8506 6.78518 40.8752 6.81134C40.8147 6.73062 40.7743 6.64616 40.7542 6.65064C40.8117 6.76276 40.7385 6.74781 40.7407 6.8106L40.5785 6.56469L40.6136 6.55722C40.5778 6.50265 40.4455 6.46976 40.2975 6.22087C40.0359 5.81052 39.7287 5.37925 39.4596 4.96965C39.4805 4.96442 39.5478 5.04365 39.6151 5.12213C39.5792 5.06757 39.5186 4.98759 39.497 4.92929C39.5343 5.04664 39.3617 4.77233 39.4013 4.85679C39.2541 4.71851 38.6755 3.75282 38.1449 2.87085L37.2883 4.16093C37.375 4.31116 37.437 4.41505 37.4602 4.44869C37.4557 4.45467 37.3862 4.35003 37.2778 4.17587L37.2539 4.21175C37.3556 4.37619 37.4228 4.47933 37.437 4.48531C37.5133 4.62508 37.3892 4.49653 37.4826 4.6632C37.5678 4.76934 37.6986 4.89641 37.7681 5.03767L37.7607 5.03917C37.9416 5.37402 38.1344 5.48688 38.2973 5.79483L38.2659 5.77091C38.3168 5.88452 38.4767 6.06764 38.5814 6.26272C38.5522 6.20667 38.544 6.14612 38.6225 6.25375C38.745 6.47724 38.8624 6.60729 38.9424 6.77696L39.0732 6.90403C39.5642 7.63876 41.5711 10.4992 42.0756 11.2302L42.051 11.2048C42.8268 12.314 44.386 14.6131 45.2149 15.7417C45.3061 15.9413 45.481 16.1835 45.5991 16.3756C45.5415 16.2635 45.5871 16.2844 45.6409 16.3666C46.0236 16.9376 45.6873 16.3905 46.0916 16.9578C46.4967 17.5035 47.7726 19.4221 48.3795 20.3624C48.2502 20.3355 48.1605 20.3213 48.1448 20.331C48.0417 20.1666 47.9385 20.0029 47.9131 19.9491C47.9229 20.0021 48.1202 20.3295 48.239 20.494L48.2973 20.4992C48.5619 20.8849 48.3324 20.6061 48.5806 20.9888C48.5619 21.0299 48.3295 20.6801 48.1276 20.3699C48.3026 20.6532 48.4573 20.9477 48.5656 21.0396C48.7204 21.3117 48.5081 21.0351 48.6964 21.361C48.8504 21.5815 49.0709 21.8588 49.2182 22.1309L49.2099 22.1294C49.5799 22.7826 49.8744 23.0659 50.21 23.6638L50.1599 23.6085C50.2721 23.8238 50.5531 24.2102 50.7676 24.5907C50.7071 24.4815 50.6719 24.3762 50.8169 24.5952C51.0673 25.0309 51.2714 25.3067 51.444 25.6319L51.6645 25.9092C51.9747 26.3942 52.4994 27.2127 53.3164 28.4916C53.3911 28.6082 53.5204 28.6792 53.6594 28.6792H54.3097C54.4398 28.6792 54.5616 28.6164 54.6371 28.5102L54.6386 28.5087C54.9047 28.3959 55.1446 28.2001 55.0983 27.8689C55.1162 27.8443 55.1341 27.8181 55.1521 27.7934C55.182 27.8473 55.2156 27.9033 55.259 27.9639C55.2463 27.9086 55.2111 27.8405 55.1693 27.7688C55.7784 26.9204 56.4287 26.0138 57.0468 25.1527C57.4549 24.5765 57.8459 24.0525 58.1867 23.5278C58.52 23.0188 58.7495 22.5696 58.9035 22.2766L58.8751 22.3439C59.1987 21.7123 59.5455 20.8811 59.8191 19.9289C60.0904 18.9767 60.2705 17.9003 60.3124 16.8143C60.3453 15.7283 60.2489 14.6363 60.0403 13.6579ZM58.76 16.9922L58.7719 16.8113C58.7921 17.135 58.736 18.1492 58.5111 19.1344C58.3018 20.1232 57.9169 21.059 57.8167 21.3453C57.8713 21.2683 57.9206 21.1883 57.9707 21.1084C57.9146 21.2735 57.8451 21.4342 57.7808 21.5964C57.8062 21.5456 57.7741 21.3513 57.7943 21.2862C57.6852 21.5142 57.4848 21.9455 57.1746 22.4567C57.0932 22.586 57.0072 22.7221 56.9183 22.8633C56.8226 23.0016 56.7232 23.1451 56.6208 23.2924C56.4018 23.5966 56.1708 23.9172 55.9369 24.2431C55.4682 24.8934 54.9854 25.5616 54.5549 26.1588C54.4794 26.2619 54.4069 26.3614 54.3374 26.4578C53.7932 25.6147 53.2596 24.7835 52.6796 23.9411C52.6751 23.9105 52.693 23.9382 52.7184 23.9643C52.5002 23.6683 52.3208 23.3963 52.1212 23.1279C52.0809 23.0435 52.0838 23.0113 52.0794 22.9814C52.0794 23.0285 51.018 21.4709 51.0068 21.4417L50.9447 21.4559C50.7407 21.1577 50.9418 21.3311 50.7422 21.0628C50.5987 21.0015 50.4372 20.5993 50.3356 20.5283C50.3423 20.5268 50.2526 20.3901 50.2803 20.3841C50.2145 20.3684 50.1771 20.251 50.1091 20.1718C50.0777 20.1479 50.1136 20.2025 50.1173 20.2331L49.9716 20.0462C49.932 19.9618 49.9409 19.9282 50.0015 20.0089C49.8909 19.8362 49.6367 19.4468 49.3333 18.9856C49.3407 18.8376 49.343 18.6725 49.3467 18.5103C49.3265 18.6455 49.3138 18.7876 49.3071 18.946C49.2869 18.9161 49.2675 18.8862 49.2473 18.8556C49.2533 18.8242 49.2608 18.7995 49.266 18.7659L49.2989 18.7913L49.2944 18.4789C49.3108 18.1029 49.2727 17.9295 49.3056 17.9549L49.3011 18.4692C49.3108 18.0924 49.328 18.3555 49.3467 18.4998C49.3497 18.3421 49.3542 18.1889 49.3639 18.064C49.3512 17.9893 49.3505 18.1186 49.343 18.1769C49.3318 17.9743 49.3011 17.6918 49.3161 17.4444C49.3191 17.0587 49.3691 17.4197 49.3729 16.969C49.3983 14.5922 49.4364 12.2893 49.4289 9.88706C49.4424 9.83249 49.4424 9.89752 49.4484 9.96703C49.4394 9.24202 49.4319 8.60221 49.4245 7.94072C49.4394 7.7576 49.4596 7.70827 49.473 7.65371C49.4596 7.70827 49.4521 6.79864 49.4491 5.86733C49.4499 4.93677 49.4506 3.98827 49.4506 3.95538L49.3908 3.90904C49.3908 3.55326 49.4073 3.50094 49.423 3.45609C49.4304 3.43367 49.4379 3.41274 49.4424 3.35593C49.4446 3.32753 49.4454 3.29091 49.4461 3.24008V3.16758C49.4461 3.16758 49.4454 3.16534 49.4446 3.16384C49.4035 3.15338 49.4005 3.12199 49.417 3.11152C49.4342 3.09881 49.4536 3.11077 49.4529 3.08162C49.4558 3.08835 49.479 3.09508 49.476 3.12796C49.4828 3.0734 49.4917 3.12497 49.5022 3.119C49.5127 3.11077 49.5067 3.10479 49.5074 3.08835L49.5291 3.09582L49.5351 3.09807L49.5754 3.12871L49.6681 3.20121C49.7989 3.32977 49.8161 3.3791 49.6599 3.25503C50.127 3.65117 51.4792 4.79999 52.8395 5.95627C53.1811 6.24479 53.5227 6.5333 53.8515 6.8106C54.1782 7.08715 54.507 7.35772 54.7574 7.58644C55.0258 7.81291 55.2403 8.0491 55.4354 8.23447C55.617 8.43179 55.7657 8.59324 55.8696 8.7061C55.7904 8.56633 55.5191 8.30099 55.46 8.15823C55.7029 8.37798 55.7747 8.51999 55.8958 8.6052C55.913 8.75319 56.342 9.16578 56.4115 9.41916L56.5035 9.46849L56.5752 9.61424C56.9915 10.192 57.0341 10.2638 57.0625 10.3176C57.0909 10.3721 57.1111 10.4103 57.4026 10.9679C57.5753 11.29 57.6979 11.5299 57.801 11.7362C57.9056 11.9298 57.9699 12.1025 58.0312 12.2871C58.0125 12.2206 57.9976 12.1137 58.0656 12.2669C58.0506 12.2893 58.1052 12.4044 58.1545 12.53C58.2009 12.6556 58.2502 12.7894 58.245 12.8394C58.316 13.0121 58.4505 13.5973 58.4558 13.3918C58.4558 13.4471 58.4857 13.6026 58.5028 13.7072C58.5156 13.8148 58.517 13.8702 58.4744 13.7154C58.5081 13.8941 58.5335 14.0675 58.5709 14.1938L58.541 13.9621C58.609 14.2618 58.6359 14.498 58.6576 14.7073C58.6875 14.9151 58.7069 15.0975 58.7458 15.2948L58.7488 15.0661C58.7846 15.4323 58.8123 15.7403 58.7555 15.8867C58.7458 15.7612 58.7413 15.6356 58.7218 15.5115C58.7562 16.1177 58.7645 16.484 58.76 16.9922Z" fill="#EAE9E6"/>
<path d="M92.1503 1.61133C92.1144 1.90731 92.1114 2.41781 92.1055 2.90066C92.1399 2.52844 92.1541 2.13304 92.1503 1.61133Z" fill="#EAE9E6"/>
<path d="M88.12 18.9502C88.0445 19.0444 87.9585 19.152 87.8711 19.2604C87.9541 19.1565 88.0385 19.0511 88.12 18.9502Z" fill="#EAE9E6"/>
<path d="M93.5423 18.727C93.5094 17.4355 93.5677 17.6111 93.5856 16.5931C93.5258 16.7269 93.4922 15.6199 93.4877 15.1976L93.5004 15.2133C93.4907 14.5765 93.4384 13.134 93.4301 12.0823L93.463 12.1234C93.4279 11.2467 93.4428 9.59783 93.4391 8.96774C93.4526 7.52593 93.5094 5.30304 93.4668 3.3754L93.5595 2.13017L93.5505 1.94779C93.5505 1.94779 92.4248 -0.0575875 92.1849 2.48819L92.152 2.44783L92.1565 2.95085C92.1401 3.55479 92.1782 3.83433 92.1453 3.79322L92.149 2.9658C92.1401 3.57272 92.1229 3.14893 92.1042 2.91722C92.1012 3.1706 92.0967 3.41651 92.087 3.61832C92.0997 3.73791 92.1005 3.53012 92.1079 3.43594C92.1191 3.76257 92.1498 4.21702 92.1348 4.61465C92.1318 5.23578 92.0818 4.65427 92.0788 5.37854C92.0534 9.20243 92.0152 12.9067 92.0227 16.7717C92.0093 16.8592 92.0093 16.7546 92.0033 16.6432C92.0123 17.8084 92.0197 18.8414 92.0272 19.902C92.0123 20.1935 91.9928 20.2757 91.9794 20.361C91.9913 20.3206 91.9988 21.6054 92.0025 22.9919C92.0033 23.3649 92.004 23.7521 92.0048 24.0682C92.0048 24.0877 92.004 24.1011 92.0025 24.1019H92.001L92.0601 24.2603C92.0608 24.3717 91.9928 24.0742 92.0078 24.1691C92.0354 24.294 92.0436 24.353 92.0436 24.3754C92.0235 24.3269 91.9943 24.1781 92.0003 24.2693C91.998 24.2461 91.9831 24.2043 91.9809 24.131C91.9831 24.1826 91.9809 24.1908 91.9779 24.1863C91.9734 24.1774 91.9696 24.1437 91.9644 24.1482C91.9584 24.1669 91.9629 24.1811 91.9644 24.2192C91.9547 24.2103 91.9435 24.1968 91.93 24.1796C91.9248 24.1273 91.942 24.1004 91.951 24.1086C91.9487 24.1011 91.9465 24.0922 91.9427 24.0817L91.939 24.066L91.9368 24.0585C91.933 24.0488 91.945 24.0772 91.9143 24.0032C91.7439 23.5884 91.5399 23.0921 91.3134 22.542C90.859 21.441 90.3148 20.1233 89.7692 18.8018C88.6749 16.1581 87.5695 13.4995 87.1524 12.53C87.2249 12.7931 87.4977 13.3858 87.5433 13.6347C87.3004 13.1317 87.2369 12.8731 87.1128 12.6578C87.1038 12.4299 86.6576 11.5195 86.5694 11.0979L86.4655 10.9679L86.384 10.701C85.3944 8.455 86.1471 10.1928 85.3174 8.18143C84.8421 7.06102 84.5565 6.53034 84.3129 5.90399C84.3503 6.01386 84.3846 6.1484 84.2733 5.90548C84.2807 5.87185 84.1903 5.67452 84.0954 5.46524C84.0483 5.35985 84.0005 5.25147 83.9601 5.16103C83.9414 5.1132 83.925 5.07059 83.91 5.03397C83.8853 4.96894 83.8667 4.91512 83.8562 4.8785C83.623 4.33287 82.8987 2.5876 83.0931 3.1863C82.9585 2.79838 82.3404 1.29079 82.7306 2.16455C82.5863 1.81549 82.4443 1.47242 82.3202 1.1727C82.2814 1.17045 82.2462 1.1727 82.2148 1.18017L82.321 1.21754L82.4114 1.44626C82.3793 1.37077 82.3486 1.29677 82.321 1.23249C82.1333 1.21007 81.9854 1.1727 81.8531 1.15625C81.7215 1.13607 81.6049 1.13533 81.4793 1.11963C81.5294 1.13009 81.5795 1.14355 81.6296 1.16074C81.5743 1.14728 81.5212 1.13458 81.4711 1.12262C81.3299 1.22726 81.217 1.31396 81.1325 1.29827C81.2035 1.25118 81.2753 1.20783 81.3493 1.16821C81.347 1.16971 81.3441 1.17045 81.3418 1.17195C80.9599 1.3618 80.7207 1.75346 80.7267 2.1795C80.7297 2.38953 80.7327 2.60554 80.7356 2.82977L80.7371 2.25499C80.7483 3.04055 80.7812 5.44207 80.8149 7.83313C80.841 9.5485 80.8687 11.2519 80.9023 11.7624L80.9442 11.2923L80.9793 12.169C80.9786 12.0719 80.8649 11.7953 80.8575 11.6847C80.8612 13.6273 80.8941 23.332 80.8657 25.0616C80.8425 25.7627 80.7992 25.1879 80.7924 25.1797C80.8007 25.6065 80.8119 25.6984 80.8201 25.7739C80.8246 25.812 80.8283 25.8464 80.8306 25.9159C80.8313 26.0348 80.8321 26.2112 80.8336 26.5154C80.8261 26.8667 80.8007 26.4578 80.7947 26.256C80.7999 26.8226 80.785 27.3637 80.8052 27.3899C80.8201 26.6708 80.8717 26.9377 80.9053 26.6342L80.9031 27.4781C80.9023 27.8189 81.0899 28.1328 81.3911 28.2935C81.7806 28.5013 82.2619 28.4041 82.54 28.0618C83.3988 27.0049 84.2725 25.9294 85.1037 24.9069C85.1037 24.9383 84.9071 25.1991 84.7105 25.4607C84.8376 25.3045 85.0259 25.0646 85.1567 24.9233C84.931 25.1498 85.5589 24.3911 85.3668 24.6064C86.0208 23.6706 87.0052 22.5719 87.5956 21.7564C87.5949 21.6436 87.9895 19.3063 87.923 19.2525C88.0075 19.1494 88.0912 19.047 88.1652 18.9573C89.3372 21.8043 90.4658 24.5466 90.9031 25.6102C91.1983 26.2702 91.5025 26.9788 91.8112 27.7098C91.9726 28.0917 92.377 28.3197 92.7844 28.2434C92.7978 28.2412 92.812 28.2382 92.8255 28.2352C93.2395 28.1508 93.537 27.786 93.5378 27.363C93.5415 25.6513 93.5467 23.6146 93.5505 21.7968C93.5505 20.3296 93.5497 19.0597 93.5497 18.5275L93.5423 18.7263V18.727ZM87.7257 19.4835V19.556C87.2668 20.1487 87.5941 19.6748 87.136 20.2458C87.0821 20.2526 87.5 19.7241 87.8707 19.2607C87.5314 19.6733 87.1748 20.0694 87.0702 20.2645C86.7421 20.645 87.0694 20.192 86.6763 20.6517C86.4139 20.994 86.0866 21.4567 85.7577 21.8274V21.8162C84.9706 22.7266 84.644 23.2827 83.9227 24.1123L83.987 24.0129C83.7284 24.2977 83.2769 24.9009 82.8225 25.4278C82.9488 25.2851 83.0602 25.1872 82.8083 25.5056C82.6521 25.6909 82.522 25.8457 82.4017 25.9877C82.3942 25.9966 82.3837 26.0064 82.3823 25.9862C82.377 26.0108 82.368 26.0422 82.3531 26.0796C82.3494 26.0848 82.3449 26.0901 82.3299 26.108C82.3202 23.551 82.2866 14.6707 82.2784 12.3492L82.2843 12.4598C82.2791 10.7167 82.2709 8.03045 82.2627 5.3748C82.2604 5.26119 82.2582 5.14832 82.2559 5.0377C82.2993 5.13338 82.3404 5.22456 82.38 5.31127C82.4338 5.42936 82.4861 5.54223 82.534 5.64687C82.8083 6.28742 83.0609 6.8779 83.2859 7.40185C83.5169 8.04914 83.8898 8.9199 84.1567 9.58438C84.0169 9.2114 84.0931 9.32726 84.212 9.61427C85.0491 11.6294 84.292 9.74059 85.1567 11.7714C85.662 12.9366 86.8437 15.7664 88.0037 18.5671C88.0561 18.6934 88.1076 18.8197 88.1592 18.946C88.0157 19.115 87.8386 19.334 87.7257 19.4835Z" fill="#EAE9E6"/>
<path d="M110.91 0.746094C111.116 0.781971 111.336 0.798414 111.626 0.79692C111.462 0.760295 111.178 0.754316 110.91 0.746094Z" fill="#EAE9E6"/>
<path d="M110.907 0.745605H110.902C110.902 0.745605 110.908 0.745605 110.912 0.746353H110.907V0.745605Z" fill="#EAE9E6"/>
<path d="M111.359 27.3361C111.433 27.3347 111.509 27.3317 111.58 27.3257C111.513 27.3287 111.436 27.3324 111.359 27.3361Z" fill="#EAE9E6"/>
<path d="M111.213 27.3688L111.183 27.4158C110.768 27.448 111.085 27.3927 110.678 27.4106C110.655 27.374 111.029 27.3516 111.358 27.3359C111.061 27.3426 110.764 27.3269 110.645 27.3725C110.366 27.3673 110.674 27.3254 110.338 27.3224C110.1 27.3426 109.787 27.3912 109.511 27.3792L109.516 27.3725C108.846 27.359 108.496 27.4682 107.884 27.4532L107.949 27.4383C107.733 27.4248 107.31 27.4697 106.919 27.4614C107.03 27.4644 107.128 27.4883 106.894 27.5018C106.445 27.4951 106.141 27.5302 105.812 27.5138L105.5 27.5623C105.031 27.5818 104.146 27.6177 103.122 27.6595C102.611 27.6819 102.065 27.7066 101.519 27.7305L101.11 27.7492L100.917 27.7582L100.899 27.7604C100.873 27.7634 100.847 27.7664 100.822 27.7694C100.821 27.7507 100.82 27.7328 100.818 27.7156L100.816 27.6879C100.816 27.6177 100.814 27.5489 100.814 27.4816C100.811 27.1326 100.808 26.8097 100.806 26.5189C100.802 25.9374 100.799 25.4822 100.797 25.1945L100.804 25.2513C100.787 23.4126 100.787 19.9586 100.754 17.5444C100.894 17.5549 101.036 17.5616 101.178 17.5586C101.185 17.5721 101.177 17.5713 101.168 17.578C101.26 17.5638 101.342 17.5691 101.426 17.5541C101.449 17.5691 101.456 17.5885 101.462 17.6027C101.449 17.5758 101.925 17.5728 101.932 17.5803L101.938 17.5212C102.029 17.5205 101.965 17.5885 102.048 17.5743C102.081 17.4906 102.187 17.5833 102.216 17.5384C102.216 17.5452 102.257 17.5474 102.255 17.5736C102.267 17.528 102.296 17.5631 102.323 17.5511C102.332 17.5384 102.316 17.5377 102.308 17.5242L102.367 17.5085C102.391 17.5227 102.397 17.5496 102.371 17.5549C102.526 17.5713 103.27 17.6147 103.437 17.5923C103.415 17.5579 103.364 17.581 103.344 17.5272C103.388 17.4973 103.409 17.5377 103.429 17.5063C103.446 17.5863 103.526 17.5257 103.559 17.6065L103.572 17.5609L103.593 17.5885C103.788 17.5414 103.637 17.5653 103.809 17.5758C103.909 17.5691 103.956 17.5063 104.012 17.5295C104.004 17.5295 103.982 17.5011 104.007 17.4899C104.012 17.5295 104.076 17.4614 104.089 17.5018C104.114 17.4966 104.196 17.5018 104.168 17.4472C104.182 17.4742 104.255 17.4854 104.211 17.5093C104.236 17.5108 104.26 17.519 104.278 17.507L104.247 17.4921C104.329 17.4839 104.375 17.5265 104.429 17.4771L104.398 17.4555C104.448 17.4517 104.489 17.448 104.509 17.5018L104.458 17.5183C104.54 17.5168 104.59 17.513 104.659 17.4846L104.634 17.4831C104.722 17.4293 105.18 17.3852 105.261 17.3179L105.223 17.2761L105.293 17.241C105.285 17.241 105.259 17.377 105.253 17.3628C105.401 17.359 106.175 17.3262 106.312 17.3546C106.368 17.3777 106.322 17.4211 106.321 17.4278C106.389 17.4121 106.351 17.3837 106.408 17.3875C106.424 17.3949 106.405 17.4203 106.396 17.4263C106.422 17.4211 106.445 17.436 106.446 17.4166C106.415 17.4017 106.428 17.3493 106.415 17.3157L106.489 17.3202L106.486 17.3531C106.502 17.3538 106.528 17.2634 106.6 17.2813C106.723 17.2955 106.855 17.2843 106.978 17.2918C106.976 17.3112 106.951 17.3232 106.925 17.3344C106.941 17.3351 106.966 17.3306 106.981 17.3441C106.951 17.3097 107.033 17.3209 107.01 17.3067C107.099 17.2268 107.216 17.3 107.296 17.2454C107.303 17.1737 107.466 16.0099 107.466 15.924C107.491 15.9255 107.516 15.927 107.523 15.9344C107.517 15.9143 107.469 15.9045 107.443 15.9165L107.438 15.9621C107.379 15.9785 107.424 15.9352 107.366 15.9382C107.363 15.9008 107.416 15.8926 107.463 15.8888C107.421 15.8844 107.379 15.8574 107.362 15.8986C107.322 15.8829 107.366 15.853 107.318 15.8365C107.284 15.8477 107.24 15.8844 107.2 15.8619V15.8552C107.106 15.8163 107.055 15.912 106.969 15.8739L106.978 15.8612C106.947 15.8395 106.886 15.8687 106.831 15.8455C106.847 15.853 106.861 15.8799 106.827 15.8844C106.764 15.8604 106.721 15.8844 106.673 15.8552L106.629 15.8918C106.407 15.8844 105.531 15.9367 105.308 15.9427L105.317 15.9367C104.978 15.9554 104.28 15.9524 103.93 16.0024C103.875 15.9666 103.8 15.9748 103.743 15.9643C103.775 15.9793 103.764 16.0047 103.74 16.0039C103.567 15.9995 103.728 16.0286 103.554 16.0443C103.353 16.0779 102.584 16.0398 102.406 16.0092C102.31 16.0622 102.19 16.0219 102.096 16.0555L102.106 16.0428C102.005 16.063 101.435 16.0137 101.317 16.0323L101.333 16.0398C101.231 16.0727 101.245 16.0144 101.164 15.9965C101.175 16.0563 101.087 16.0899 101.053 16.0944L101.055 16.0817C101.005 16.0914 100.891 16.1437 100.808 16.1519L100.811 16.119C100.791 16.1288 100.768 16.1347 100.743 16.1377C100.769 15.8014 100.763 15.3813 100.772 15.0547C100.756 15.2587 100.728 15.1892 100.73 15.0293C100.734 14.0173 100.708 14.7752 100.691 14.0898C100.728 14.0912 100.766 14.0927 100.803 14.0912C100.808 14.1047 100.802 14.104 100.796 14.1107C100.861 14.0965 100.917 14.1017 100.975 14.0868C100.991 14.1017 100.996 14.1211 101 14.1353C100.991 14.1084 101.322 14.1054 101.327 14.1129L101.331 14.0539C101.394 14.0531 101.349 14.1211 101.407 14.1069C101.429 14.0232 101.503 14.1159 101.524 14.0711C101.524 14.0778 101.551 14.08 101.55 14.1062C101.559 14.0606 101.579 14.0957 101.597 14.0838C101.604 14.0711 101.592 14.0703 101.587 14.0569L101.628 14.0412C101.645 14.0554 101.648 14.0823 101.63 14.0875C101.738 14.104 102.255 14.1473 102.37 14.1249C102.355 14.0905 102.32 14.1137 102.306 14.0599C102.337 14.03 102.351 14.0703 102.364 14.0389C102.376 14.1189 102.432 14.0584 102.455 14.1391L102.464 14.0935L102.479 14.1211C102.613 14.0741 102.509 14.098 102.629 14.1084C102.698 14.1017 102.731 14.0389 102.77 14.0621C102.764 14.0621 102.749 14.0337 102.767 14.0225C102.77 14.0621 102.814 13.9941 102.823 14.0344C102.84 14.0292 102.897 14.0344 102.878 13.9799C102.888 14.0068 102.938 14.018 102.908 14.0419C102.925 14.0434 102.941 14.0516 102.954 14.0397L102.933 14.0247C102.99 14.0165 103.021 14.0591 103.06 14.0098L103.038 13.9881C103.072 13.9844 103.101 13.9806 103.115 14.0344L103.08 14.0509C103.137 14.0494 103.172 14.0457 103.22 14.0172L103.202 14.0158C103.263 13.9619 103.581 13.9178 103.637 13.8506L103.611 13.8087L103.659 13.7736C103.653 13.7736 103.636 13.9096 103.631 13.8954C103.734 13.8917 104.271 13.8588 104.366 13.8872C104.404 13.9104 104.373 13.9537 104.373 13.9604C104.42 13.9447 104.393 13.9163 104.433 13.9201C104.444 13.9276 104.43 13.953 104.424 13.9589C104.442 13.9537 104.458 13.9687 104.46 13.9492C104.438 13.9343 104.447 13.882 104.438 13.8483L104.489 13.8528L104.487 13.8857C104.498 13.8864 104.516 13.796 104.566 13.8139C104.652 13.8281 104.744 13.8169 104.829 13.8244C104.827 13.8438 104.809 13.8558 104.791 13.867C104.803 13.8678 104.821 13.8633 104.831 13.8767C104.81 13.8423 104.867 13.8536 104.85 13.8394C104.913 13.7594 104.994 13.8326 105.049 13.7781C105.054 13.7063 105.167 12.5426 105.167 12.4566C105.185 12.4581 105.202 12.4596 105.207 12.4671C105.202 12.4469 105.169 12.4372 105.151 12.4491L105.148 12.4947C105.107 12.5112 105.138 12.4678 105.098 12.4708C105.096 12.4334 105.133 12.4252 105.165 12.4215C105.136 12.417 105.107 12.3901 105.095 12.4312C105.067 12.4155 105.098 12.3856 105.065 12.3691C105.041 12.3804 105.01 12.417 104.983 12.3946V12.3878C104.917 12.349 104.882 12.4446 104.822 12.4065L104.829 12.3938C104.807 12.3721 104.765 12.4013 104.727 12.3781C104.738 12.3856 104.747 12.4125 104.724 12.417C104.68 12.3931 104.649 12.417 104.617 12.3878L104.586 12.4245C104.432 12.417 103.823 12.4693 103.669 12.4753L103.675 12.4693C103.439 12.488 102.955 12.485 102.711 12.5351C102.674 12.4992 102.622 12.5074 102.582 12.497C102.604 12.5119 102.596 12.5373 102.579 12.5366C102.459 12.5321 102.571 12.5612 102.45 12.5769C102.31 12.6106 101.776 12.5725 101.652 12.5418C101.586 12.5949 101.503 12.5545 101.438 12.5881L101.444 12.5754C101.374 12.5956 100.978 12.5463 100.896 12.565L100.908 12.5725C100.837 12.6053 100.846 12.547 100.79 12.5291C100.798 12.5889 100.737 12.6225 100.713 12.627V12.6143C100.703 12.6173 100.686 12.6255 100.669 12.6345C100.663 10.6515 100.695 7.30226 100.721 6.38141C100.663 5.76029 100.707 4.9852 100.67 4.37678L100.683 4.43807C100.677 4.24972 100.677 3.80723 100.68 3.25562C100.681 2.97982 100.683 2.67636 100.685 2.36393C100.687 2.28022 100.689 2.19426 100.692 2.11055C100.761 2.11653 101.957 2.12998 102.207 2.124L102.097 2.11578C102.815 2.08887 102.717 2.14642 103.282 2.16885C103.208 2.10831 103.824 2.0799 104.059 2.07691L104.05 2.08962C104.404 2.08214 105.206 2.0373 105.791 2.03431L105.768 2.0672C106.256 2.0358 107.171 2.05823 107.522 2.05748C108.323 2.07766 109.558 2.14493 110.629 2.11055L111.32 2.20921L111.422 2.20099C111.422 2.20099 112.548 1.08431 111.135 0.832427L111.158 0.800287L110.879 0.802529C110.543 0.783843 110.387 0.820468 110.411 0.78758L110.87 0.795055C110.533 0.783096 110.769 0.7674 110.898 0.750208C110.757 0.745724 110.621 0.740492 110.509 0.730028C110.442 0.741987 110.557 0.744229 110.609 0.751703C110.428 0.76142 110.175 0.79057 109.955 0.773379C109.609 0.7674 109.933 0.720311 109.53 0.713584C107.405 0.67098 105.347 0.615669 103.199 0.605205C103.151 0.591004 103.209 0.592499 103.271 0.586519C102.622 0.589509 102.051 0.592499 101.459 0.595489C101.296 0.579792 101.252 0.558864 101.203 0.54541C101.213 0.5484 101.184 0.550642 101.124 0.552885C101.047 0.553632 100.932 0.555127 100.788 0.556622C100.334 0.555127 99.7006 0.552885 99.0159 0.549895C99.0174 1.27043 99.0182 2.06047 99.0197 2.67711C99.0174 3.04186 99.0159 3.30196 99.0159 3.31766L99.0802 3.35503C99.081 3.94252 99.007 3.5262 99.0227 4.06959C99.1131 4.28186 99.0129 4.97174 99.0615 5.15935C99.0541 5.15487 99.0518 5.42095 99.0234 5.40451C99.0727 5.48598 99.0346 5.67807 99.0473 5.8455C99.0608 5.90604 99.0623 5.80065 99.0765 5.75506L99.0937 6.13924C99.078 6.28948 99.0488 6.32685 99.0436 6.16316C99.0257 7.16772 98.9793 11.9887 99.0032 13.0702C99.0406 12.9312 99.0152 12.5971 99.0735 12.4701C99.1064 12.7563 99.0623 12.8909 99.0967 13.0172C99.01 13.1271 99.0757 13.6458 98.9883 13.8625L99.0376 13.9447L99.0077 14.0868C99.0585 15.3447 99.0324 14.3745 99.0212 15.489C99.0286 16.1243 99.0944 16.4315 99.0727 16.7835C99.078 16.723 99.1034 16.6198 99.1153 16.7716C99.072 16.8 99.146 17.2163 99.1026 17.2978C99.1079 17.4614 99.1026 17.9921 99.1617 17.8127C99.1325 17.9032 99.1206 18.3763 99.0944 18.0945C99.0929 18.2545 99.0839 18.4092 99.0967 18.5236L99.1131 18.3188C99.1221 18.8577 99.0757 19.1522 99.1295 19.5027L99.1527 19.3031C99.1565 19.6253 99.1609 19.8951 99.1026 20.0214L99.0847 19.6903C99.0862 20.2247 99.0899 20.5476 99.1213 20.9931L99.1228 20.8339C99.1811 21.4019 99.229 24.3715 99.3022 24.8947L99.3478 24.6541L99.3859 25.104C99.3859 25.0509 99.2387 24.8873 99.2536 24.8424C99.2559 25.4463 99.2641 27.4069 99.2723 29.256C100.275 29.2172 101.252 29.1798 102.054 29.1484C102.651 29.1267 103.119 29.1125 103.344 29.1103C103.734 29.1185 103.417 29.1738 103.412 29.1805C103.885 29.1469 103.615 29.1282 104.018 29.117C104.128 29.1208 103.996 29.1506 103.935 29.1589C104.111 29.1469 104.276 29.1551 104.288 29.1357C104.067 29.129 104.158 29.0737 104.063 29.0438L104.581 29.0288L104.56 29.0624C104.676 29.0587 104.849 28.9623 105.358 28.9601C106.217 28.9414 107.149 28.895 108.013 28.8696C108 28.8898 107.819 28.9085 107.638 28.9264C107.754 28.9227 107.931 28.9115 108.038 28.9212C107.827 28.8943 108.399 28.8846 108.235 28.8756C108.863 28.7717 109.685 28.8136 110.24 28.7381C110.286 28.6641 111.38 27.4584 111.376 27.3725C111.55 27.3673 111.722 27.3628 111.775 27.3673C111.73 27.3486 111.389 27.3523 111.208 27.3702L111.213 27.3688Z" fill="#EAE9E6"/>
<path d="M107.496 15.8823C107.487 15.8823 107.476 15.8838 107.465 15.8846C107.475 15.8853 107.486 15.8861 107.496 15.8823Z" fill="#EAE9E6"/>
<path d="M105.19 12.4136C105.183 12.4136 105.175 12.4151 105.168 12.4158C105.175 12.4166 105.183 12.4173 105.19 12.4136Z" fill="#EAE9E6"/>
<path d="M122.572 0C122.453 0.0583002 122.291 0.201809 122.137 0.3356C122.278 0.254129 122.413 0.152478 122.572 0Z" fill="#EAE9E6"/>
<path d="M122.136 0.337836L122.133 0.340711L122.14 0.334961L122.135 0.337836H122.136Z" fill="#EAE9E6"/>
<path d="M114.559 29.9589C114.596 29.9237 114.639 29.8841 114.681 29.8438C114.639 29.8811 114.596 29.9192 114.559 29.9589Z" fill="#EAE9E6"/>
<path d="M114.76 6.9469L114.78 7.01118C114.424 7.33931 114.626 7.05678 114.307 7.3707C114.273 7.46039 114.134 7.58447 113.993 7.70331C113.923 7.76311 113.853 7.82215 113.794 7.87223C113.754 7.9096 113.719 7.94249 113.687 7.97239C113.644 8.01425 113.611 8.05012 113.588 8.07853C113.588 8.06956 113.273 8.35433 113.265 8.32369C113.215 8.43356 112.952 8.6249 112.767 8.81176C112.712 8.87978 112.837 8.76617 112.907 8.72207L112.535 9.08308L112.586 9.13466C112.724 9.30507 112.73 9.35291 112.545 9.16156C112.901 9.55173 113.934 10.6811 114.972 11.8172C115.786 12.7059 116.609 13.5969 116.92 13.9145C116.87 13.8076 116.664 13.6223 116.636 13.5094C116.82 13.6611 116.864 13.7695 116.959 13.8241C116.957 13.9444 117.296 14.215 117.353 14.4004L117.435 14.4191L117.493 14.5237C118.235 15.248 117.672 14.6807 118.289 15.3586C118.656 15.742 118.878 15.884 119.061 16.1157C119.032 16.0836 118.974 15.979 119.077 16.0716C119.061 16.1157 119.349 16.3198 119.362 16.396C119.458 16.491 119.751 16.8138 119.694 16.6688C119.723 16.7413 119.98 17.0336 119.803 16.8804C119.891 16.9775 119.971 17.0762 120.045 17.1367L119.942 17.0029C120.251 17.3221 120.382 17.5269 120.618 17.7048L120.524 17.5703C120.707 17.7616 120.862 17.9215 120.889 18.0337L120.69 17.8461C120.991 18.1667 121.175 18.3581 121.448 18.607L121.359 18.5105C121.538 18.6615 122.045 19.1683 122.553 19.6735C122.68 19.7999 122.807 19.9262 122.929 20.0473C122.988 20.1056 123.046 20.1631 123.103 20.2184C123.121 20.2319 123.138 20.2453 123.155 20.258C123.224 20.3104 123.293 20.3612 123.344 20.3903C123.343 20.3918 123.343 20.3941 123.343 20.3941L123.352 20.3903C123.357 20.3761 123.361 20.3604 123.363 20.3433L123.434 20.3941L123.403 20.4479C123.417 20.4359 123.315 20.3978 123.287 20.3881C123.277 20.3859 123.273 20.3836 123.275 20.3821C123.277 20.3836 123.277 20.3844 123.28 20.3874C123.216 20.4479 123.088 20.5675 122.93 20.7162C122.554 21.0623 122.104 21.4756 121.657 21.8867C120.761 22.7081 119.872 23.5176 119.592 23.7523C119.356 23.9347 119.504 23.7389 119.502 23.7321C119.246 23.9863 119.42 23.8697 119.19 24.073C119.122 24.1238 119.178 24.0371 119.209 24.0012C119.113 24.0954 119.01 24.1686 119.017 24.1896C119.152 24.0879 119.138 24.1739 119.216 24.1507L118.921 24.4131L118.909 24.3772C118.844 24.4355 118.81 24.5932 118.51 24.8413C118.016 25.2711 117.499 25.757 117.007 26.1935C117 26.1718 117.094 26.0709 117.188 25.9692C117.122 26.0275 115.588 26.991 115.517 27.0351C115.66 26.9536 115.331 27.2376 115.433 27.1651C115.135 27.5478 114.621 27.9133 114.346 28.2392C114.372 28.3177 114.583 29.764 114.646 29.8275C114.547 29.915 114.449 30.0024 114.413 30.0241C114.454 30.0159 114.653 29.8484 114.746 29.7475L114.73 29.6974C114.952 29.4725 114.804 29.6676 115.032 29.4568C115.071 29.4732 114.866 29.6713 114.683 29.8425C114.854 29.6937 115.041 29.5622 115.078 29.4702C115.247 29.3387 115.094 29.5203 115.295 29.3596C115.422 29.2288 117.01 28.1712 117.181 28.0471L117.183 28.0546C117.589 27.7407 117.718 27.4888 118.09 27.204L118.062 27.2466C118.2 27.1524 118.418 26.9132 118.654 26.7309C118.586 26.7824 118.512 26.8116 118.64 26.6883C118.91 26.4767 119.065 26.3026 119.27 26.1568L119.421 25.9685C120.361 25.1014 124.077 21.6752 125.022 20.8037L124.964 20.8642C125.082 20.7566 125.206 20.643 125.395 20.4696C124.623 19.6496 123.515 18.4709 122.412 17.2982C121.507 16.3392 120.605 15.3892 119.977 14.7532C119.809 14.517 119.53 14.2307 119.332 14.0035C119.435 14.1365 119.375 14.1119 119.287 14.0147C118.663 13.339 119.225 13.9863 118.578 13.3166C118.2 12.9361 117.32 11.9899 116.457 11.0496C115.637 10.1557 114.582 8.99638 114.793 9.19968C114.773 9.18997 114.754 9.17801 114.735 9.16455C114.754 9.12942 114.798 9.08906 114.839 9.05094C114.895 8.99788 114.951 8.9463 115.005 8.89548C115.089 8.81475 115.17 8.73627 115.243 8.65854L115.215 8.70189C115.598 8.32294 117.885 6.29813 118.333 5.86087L118.265 5.91245C118.643 5.51929 118.632 5.61198 118.962 5.33468C118.876 5.3287 119.196 4.98787 119.325 4.86379L119.329 4.87799C119.521 4.68889 119.932 4.23818 120.254 3.93248L120.265 3.96836C120.513 3.69181 121.037 3.23138 121.232 3.04901C121.691 2.64689 122.427 2.05417 122.996 1.47191L123.453 1.1849L123.503 1.12585C123.503 1.12585 123.295 -0.2756 122.324 0.275262L122.313 0.239385L122.159 0.385883C121.959 0.546583 121.9 0.654214 121.889 0.618337L122.149 0.385136C121.954 0.551815 122.072 0.418023 122.131 0.338047C122.049 0.408307 121.97 0.475576 121.9 0.525655C121.872 0.569006 121.937 0.510706 121.972 0.48903C121.878 0.590682 121.759 0.743159 121.624 0.845558C121.428 1.02046 121.572 0.817903 121.344 1.0227C120.133 2.09602 118.95 3.12674 117.75 4.23594C117.713 4.25089 117.746 4.22174 117.776 4.18512C117.417 4.5252 117.104 4.82268 116.778 5.13362C116.675 5.20686 116.635 5.21509 116.597 5.23004C116.635 5.21509 116.184 5.63888 115.719 6.06866C115.486 6.28318 115.251 6.49993 115.071 6.66437C114.89 6.82731 114.768 6.93793 114.759 6.94616L114.76 6.9469Z" fill="#EAE9E6"/>
<path d="M63.7267 1.49365C63.6624 1.67752 63.6176 1.99967 63.5742 2.30388C63.64 2.07217 63.6871 1.82477 63.7267 1.49365Z" fill="#EAE9E6"/>
<path d="M74.8242 1.68945C74.8354 1.76345 74.8474 1.84866 74.8601 1.93387C74.8504 1.85165 74.8392 1.76793 74.8242 1.68945Z" fill="#EAE9E6"/>
<path d="M62.9056 17.1625L62.9737 17.2058C63.0305 17.9376 62.9109 17.4233 62.9849 18.0998C63.097 18.3576 63.0828 19.2254 63.1642 19.4556C63.156 19.4511 63.1934 19.783 63.162 19.7651C63.2255 19.8615 63.2203 20.1052 63.2622 20.3129C63.2861 20.3869 63.2696 20.2554 63.2764 20.1971L63.3653 20.6732C63.3788 20.8623 63.3563 20.9124 63.319 20.7098C63.4117 21.3354 63.6807 23.1599 64.3467 24.9732C64.6868 25.8769 65.124 26.7775 65.6592 27.4928C66.1787 28.2134 66.7841 28.7306 67.1511 28.9638C66.9859 28.8158 66.5696 28.5011 66.4829 28.3277C66.82 28.6005 66.9568 28.759 67.1421 28.8479C67.163 28.8883 67.2236 28.9459 67.3058 29.0124C67.3933 29.0744 67.5069 29.1432 67.6242 29.2142C67.7386 29.2897 67.8754 29.3465 67.9912 29.4108C68.1078 29.475 68.2147 29.5319 68.2939 29.5789L68.4427 29.5827L68.6587 29.6851C69.1766 29.8144 69.4719 29.8286 69.6438 29.8495C69.8157 29.857 69.8673 29.8592 69.9121 29.8607C70.0018 29.8525 70.0594 29.9243 70.9877 29.8323C71.5273 29.7613 71.9041 29.6066 72.212 29.4795C72.3615 29.4048 72.4968 29.3375 72.6261 29.2725C72.7516 29.2022 72.8712 29.135 72.9998 29.0632C72.9251 29.1073 72.7128 29.1985 72.9355 29.0535C73.011 29.0714 73.4983 28.6424 73.6082 28.5834C73.8145 28.4286 74.3459 27.8576 74.1202 28.0168C74.2323 27.9383 74.6756 27.4173 74.4386 27.7455C74.5859 27.5683 74.7182 27.3934 74.8026 27.2552L74.618 27.4816C75.053 26.8605 75.2832 26.5242 75.4417 26.0809L75.2997 26.3111C75.4977 25.924 75.6293 25.5958 75.7549 25.4606L75.5927 25.8694C75.8887 25.2191 76.0209 24.8192 76.1719 24.2624L76.1077 24.4582C76.1981 24.101 76.503 23.0037 76.6757 21.908C76.8641 20.813 76.962 19.7255 76.9582 19.3981L76.8783 19.6926L76.9029 19.132C76.8947 19.1978 77.0218 19.4145 77.0008 19.4683C77.0741 18.8696 77.2378 17.0115 77.2662 15.1691C77.308 13.3259 77.2497 11.4999 77.2453 10.949C77.2557 10.5036 77.3163 10.8668 77.3237 10.872C77.2864 10.3316 77.2654 10.6403 77.2512 10.1807C77.2542 10.0551 77.2886 10.2053 77.2983 10.2756C77.2849 10.0745 77.2916 9.88691 77.2692 9.87197C77.2647 10.1246 77.2019 10.02 77.1698 10.1276L77.1466 9.53711L77.184 9.56178C77.178 9.43023 77.0681 9.23216 77.0532 8.6514C77.0106 7.673 76.9164 6.61313 76.8349 5.63174C76.8581 5.6452 76.8887 5.85074 76.9201 6.05629C76.9096 5.92474 76.8865 5.72443 76.891 5.60185C76.8745 5.84177 76.8267 5.19225 76.8282 5.37836C76.6735 4.6668 76.6555 3.73176 76.521 3.10465C76.4373 3.05159 74.9932 1.89231 74.8961 1.90875C74.8721 1.71591 74.846 1.52382 74.846 1.46851C74.831 1.5156 74.8736 1.89604 74.9125 2.09636L74.9678 2.12551C75.0455 2.58817 74.9521 2.23762 75.0127 2.69132C74.9745 2.71972 74.914 2.30265 74.8609 1.93641C74.9005 2.26677 74.9118 2.60013 74.973 2.73019C74.994 3.04336 74.9185 2.70029 74.9461 3.07775C74.9902 3.34383 75.071 3.69214 75.0799 4.00158L75.0717 3.9971C75.1091 4.74902 75.2541 5.13769 75.2743 5.82533L75.2541 5.75283C75.2518 5.99649 75.3266 6.47112 75.3348 6.90986C75.3333 6.78504 75.355 6.67442 75.3804 6.93677C75.3938 7.44129 75.4447 7.78213 75.4364 8.15136L75.5 8.50191C75.5523 9.37716 75.6846 11.5447 75.6921 13.7101C75.7138 15.8761 75.5732 18.031 75.4798 18.8973V18.8285C75.3535 20.1478 75.0956 22.1741 74.4663 24.0748C74.1486 25.0188 73.7375 25.9329 73.2143 26.64C72.955 26.9935 72.6762 27.3015 72.3862 27.5384C72.0954 27.7746 71.7994 27.9443 71.5244 28.0699C71.1648 28.1827 70.6596 28.2919 70.247 28.2747C70.4712 28.2784 70.3972 28.3075 70.2193 28.3158C70.0639 28.309 69.9465 28.3038 69.8568 28.3001C69.7694 28.2889 69.7096 28.2814 69.6677 28.2754C69.584 28.2664 69.572 28.2687 69.5601 28.2717C69.5489 28.2724 69.5339 28.2829 69.4502 28.2649C69.3672 28.2463 69.2051 28.2276 68.9165 28.1222C68.7506 28.0624 68.5331 27.9615 68.2857 27.812C68.048 27.6483 67.7745 27.4457 67.5173 27.167C67.2602 26.8897 67.0053 26.56 66.7766 26.1878C66.5516 25.8133 66.3439 25.4052 66.1645 24.9837C65.4499 23.2855 65.1577 21.4371 65.0568 20.7539C64.8729 20.0229 64.8019 19.0864 64.6958 18.3554L64.7174 18.4279C64.6666 18.0347 64.5605 16.7185 64.5276 15.3791C64.4872 14.0404 64.5059 12.6816 64.5029 12.2189L64.4932 12.343C64.4678 11.535 64.5306 11.6456 64.5679 11.0103C64.4984 11.0925 64.482 10.3989 64.488 10.1351L64.5022 10.1455C64.5059 9.74714 64.4895 8.84274 64.5216 8.18425L64.556 8.2119C64.5478 7.66104 64.6382 6.63107 64.6674 6.23717C64.7533 5.33651 64.9446 3.95374 65.0381 2.75037L65.2347 1.98723L65.2391 1.87362C65.2391 1.87362 64.9693 1.53129 64.6427 1.37807C64.3183 1.2226 63.9237 1.26521 63.6912 2.05674L63.6583 2.02759L63.6239 2.346C63.5604 2.7257 63.5828 2.90584 63.5499 2.87669L63.615 2.35497C63.5589 2.73691 63.5716 2.46784 63.5686 2.31984C63.5454 2.47979 63.5238 2.63451 63.4976 2.76083C63.5028 2.83782 63.5193 2.70702 63.5335 2.64797C63.5223 2.85501 63.5238 3.14502 63.4804 3.39466C63.4356 3.78632 63.4191 3.41484 63.3676 3.87227C63.0947 6.28501 62.8914 8.63047 62.8309 11.0866C62.8145 11.1419 62.8167 11.0753 62.8122 11.0043C62.8077 11.745 62.7913 12.4028 62.8077 13.0777C62.7905 13.2653 62.7689 13.3162 62.7539 13.3722C62.7696 13.3162 62.7763 14.2482 62.81 15.2034C62.8309 15.6811 62.8518 16.1647 62.8675 16.5316C62.8877 16.8994 62.9012 17.1498 62.9026 17.167L62.9056 17.1625Z" fill="#EAE9E6"/>
</svg>
