<svg width="20" height="20" viewBox="0 0 20 20" fill="none" xmlns="http://www.w3.org/2000/svg">
<path d="M19.8427 18.7683C19.9287 18.8826 19.9811 19.0186 19.994 19.1609C20.007 19.3033 19.98 19.4465 19.9162 19.5745C19.8522 19.7023 19.7539 19.81 19.6323 19.8851C19.5106 19.9603 19.3705 20 19.2274 19.9998H0.769098C0.626261 19.9998 0.486255 19.9601 0.364753 19.8849C0.243266 19.8098 0.145068 19.7025 0.0812026 19.5746C0.0173215 19.447 -0.00972002 19.3039 0.0031085 19.1616C0.015937 19.0194 0.0681279 18.8835 0.153821 18.7692C0.83484 17.8562 1.74299 17.1374 2.78797 16.6841C2.21517 16.1612 1.81381 15.4775 1.63659 14.7226C1.45936 13.9675 1.51455 13.1765 1.7949 12.4535C2.07527 11.7305 2.56769 11.1091 3.20755 10.6709C3.8474 10.2327 4.60479 9.99825 5.3803 9.99825C6.15581 9.99825 6.9132 10.2327 7.55306 10.6709C8.19292 11.1091 8.68536 11.7305 8.96571 12.4535C9.24606 13.1765 9.30125 13.9675 9.12403 14.7226C8.9468 15.4775 8.54544 16.1612 7.97265 16.6841C8.72656 17.0099 9.41168 17.4761 9.99153 18.0578C10.5714 17.4761 11.2565 17.0099 12.0104 16.6841C11.4376 16.1612 11.0362 15.4775 10.859 14.7226C10.6818 13.9675 10.737 13.1765 11.0173 12.4535C11.2977 11.7305 11.7901 11.1091 12.43 10.6709C13.0699 10.2327 13.8273 9.99825 14.6027 9.99825C15.3782 9.99825 16.1356 10.2327 16.7755 10.6709C17.4154 11.1091 17.9078 11.7305 18.1882 12.4535C18.4685 13.1765 18.5237 13.9675 18.3465 14.7226C18.1693 15.4775 17.7678 16.1612 17.1951 16.6841C18.245 17.1349 19.1579 17.8537 19.8427 18.7683ZM0.30764 9.84777C0.388441 9.90835 0.480379 9.95245 0.578223 9.97751C0.676068 10.0026 0.77788 10.0081 0.877863 9.99385C0.977845 9.97956 1.07404 9.94573 1.16095 9.89426C1.24786 9.84281 1.32377 9.77473 1.38437 9.69395C1.85003 9.07307 2.45385 8.56914 3.148 8.22206C3.84216 7.87499 4.60758 7.6943 5.38367 7.6943C6.15977 7.6943 6.92519 7.87499 7.61934 8.22206C8.3135 8.56914 8.91732 9.07307 9.38297 9.69395C9.45461 9.78945 9.54751 9.86698 9.65429 9.92038C9.76109 9.97377 9.87885 10.0016 9.99825 10.0016C10.1176 10.0016 10.2354 9.97377 10.3422 9.92038C10.449 9.86698 10.5419 9.78945 10.6135 9.69395C11.0792 9.07307 11.683 8.56914 12.3772 8.22206C13.0712 7.87499 13.8368 7.6943 14.6128 7.6943C15.3888 7.6943 16.1544 7.87499 16.8484 8.22206C17.5426 8.56914 18.1465 9.07307 18.6121 9.69395C18.6727 9.77473 18.7487 9.8428 18.8358 9.89423C18.9227 9.94567 19.019 9.97947 19.119 9.99371C19.2189 10.0079 19.3209 10.0023 19.4188 9.97722C19.5166 9.9521 19.6086 9.90794 19.6893 9.84727C19.7701 9.78661 19.8382 9.71064 19.8896 9.62367C19.9411 9.5367 19.9748 9.44045 19.9891 9.34042C20.0034 9.24039 19.9977 9.13855 19.9727 9.04068C19.9474 8.94282 19.9033 8.85086 19.8427 8.77006C19.1616 7.85727 18.2534 7.1387 17.2085 6.68581C17.7813 6.16303 18.1827 5.47925 18.3599 4.72426C18.5371 3.96927 18.482 3.17835 18.2016 2.45529C17.9212 1.73222 17.4288 1.11082 16.7889 0.672651C16.149 0.234467 15.3918 0 14.6162 0C13.8407 0 13.0832 0.234467 12.4434 0.672651C11.8036 1.11082 11.3111 1.73222 11.0308 2.45529C10.7504 3.17835 10.6953 3.96927 10.8725 4.72426C11.0497 5.47925 11.4511 6.16303 12.0239 6.68581C11.2699 7.01169 10.5848 7.4779 10.005 8.05962C9.42515 7.4779 8.74002 7.01169 7.98609 6.68581C8.5589 6.16303 8.96026 5.47925 9.13749 4.72426C9.31471 3.96927 9.25952 3.17835 8.97917 2.45529C8.69882 1.73222 8.20638 1.11082 7.56652 0.672651C6.92666 0.234467 6.16927 0 5.39376 0C4.61825 0 3.86086 0.234467 3.22101 0.672651C2.58115 1.11082 2.08873 1.73222 1.80836 2.45529C1.52801 3.17835 1.47282 3.96927 1.65005 4.72426C1.82727 5.47925 2.22863 6.16303 2.80143 6.68581C1.75154 7.13707 0.838562 7.85613 0.153821 8.77102C0.0932158 8.85182 0.0491314 8.94377 0.0240589 9.0416C-0.000998257 9.13944 -0.00655129 9.24126 0.00773851 9.34125C0.0220129 9.44124 0.0558534 9.53742 0.107306 9.62433C0.158774 9.71124 0.226839 9.78716 0.30764 9.84777Z" fill="#090C21"/>
</svg>
