<svg width="85" height="78" viewBox="0 0 85 78" fill="none" xmlns="http://www.w3.org/2000/svg">
<g clip-path="url(#clip0_4522_997)">
<path fill-rule="evenodd" clip-rule="evenodd" d="M78.5809 17.4635C76.3662 19.1583 74.3986 18.7473 74.3986 18.7473C74.8521 20.1548 73.9249 21.3666 72.8023 21.4078C71.6793 21.4486 70.8761 20.2985 71.3397 19.528C71.9062 18.4802 72.6475 19.0864 72.6475 19.0864C72.1636 19.1276 71.8856 19.6719 72.2151 19.9596C72.8331 20.4934 73.3068 19.9802 73.3688 19.6206C73.4308 19.261 73.276 18.4394 72.3078 18.275C70.4023 18.039 70.639 20.1648 70.639 20.1648C70.2374 18.7473 68.8933 18.9786 68.8933 18.9786C68.8933 18.9786 68.6613 20.3188 70.0829 20.7197C70.0829 20.7197 67.9505 20.4833 68.1875 22.3833C68.3521 23.3487 69.1764 23.503 69.5367 23.4412C69.8974 23.3797 70.4124 22.9073 69.8767 22.2907C69.5882 21.9623 69.0423 22.2395 69.0013 22.7223C69.0013 22.7223 68.3934 21.9828 69.4443 21.4179C70.2167 20.9557 71.3705 21.7569 71.3292 22.8763C71.2878 23.996 70.0724 24.9202 68.6613 24.4684C68.6613 24.4684 69.0734 26.4301 67.3738 28.6382C65.6741 26.4301 66.0863 24.4684 66.0863 24.4684C64.6751 24.9202 63.4594 23.996 63.4184 22.8763C63.3771 21.7569 64.5309 20.9557 65.3033 21.4179C66.3541 21.9828 65.7463 22.7223 65.7463 22.7223C65.7049 22.2395 65.159 21.9623 64.8705 22.2907C64.3351 22.9073 64.8502 23.3797 65.2105 23.4412C65.5712 23.503 66.3951 23.3487 66.56 22.3833C66.7967 20.4833 64.6646 20.7197 64.6646 20.7197C66.0863 20.3188 65.8543 18.9786 65.8543 18.9786C65.8543 18.9786 64.5102 18.7473 64.1082 20.1648C64.1082 20.1648 64.3453 18.039 62.4397 18.275C61.4715 18.4394 61.3168 19.261 61.3787 19.6206C61.4404 19.9802 61.9141 20.4934 62.5322 19.9596C62.862 19.6719 62.584 19.1276 62.0997 19.0864C62.0997 19.0864 62.8414 18.4802 63.4079 19.528C63.8715 20.2985 63.0679 21.4486 61.945 21.4078C60.8223 21.3666 59.8955 20.1544 60.3486 18.7473C60.3486 18.7473 58.381 19.1583 56.1666 17.4635C58.381 15.7688 60.3486 16.1798 60.3486 16.1798C59.8955 14.7727 60.8223 13.5606 61.9453 13.5197C63.0679 13.4784 63.8715 14.6289 63.4079 15.3991C62.8414 16.4469 62.0997 15.8408 62.0997 15.8408C62.584 15.7995 62.862 15.2553 62.5322 14.9676C61.9145 14.4337 61.4404 14.9473 61.3787 15.3066C61.3168 15.6662 61.4715 16.4877 62.4397 16.6522C64.3453 16.8885 64.1082 14.7623 64.1082 14.7623C64.5102 16.1798 65.8543 15.9485 65.8543 15.9485C65.8543 15.9485 66.0863 14.6083 64.6646 14.2078C64.6646 14.2078 66.7971 14.4438 66.56 12.5439C66.3951 11.5785 65.5712 11.4245 65.2105 11.4859C64.8502 11.5474 64.3351 12.0201 64.8705 12.6363C65.159 12.9649 65.7049 12.6876 65.7463 12.2048C65.7463 12.2048 66.3541 12.9443 65.3033 13.5092C64.5309 13.9715 63.3771 13.1705 63.4184 12.0508C63.4594 10.9311 64.6751 10.0069 66.0863 10.4588C66.0863 10.4588 65.6741 8.49693 67.3738 6.28896C69.0734 8.49693 68.6613 10.4588 68.6613 10.4588C70.0724 10.0069 71.2878 10.9311 71.3292 12.0508C71.3705 13.1705 70.2167 13.9715 69.4443 13.5092C68.3934 12.9443 69.0013 12.2048 69.0013 12.2048C69.0423 12.6876 69.5885 12.9649 69.8767 12.6363C70.4124 12.0201 69.8974 11.5474 69.5367 11.4859C69.1764 11.4245 68.3521 11.5785 68.1875 12.5439C67.9505 14.4438 70.0829 14.2078 70.0829 14.2078C68.6613 14.6083 68.8933 15.9488 68.8933 15.9488C68.8933 15.9488 70.2374 16.1798 70.639 14.7623C70.639 14.7623 70.4023 16.8885 72.3078 16.6522C73.276 16.4877 73.4308 15.6662 73.3688 15.3066C73.3068 14.9473 72.8331 14.4337 72.2151 14.9676C71.8856 15.2553 72.1636 15.7995 72.6475 15.8408C72.6475 15.8408 71.9062 16.4469 71.3397 15.3991C70.8761 14.6289 71.6793 13.4784 72.8023 13.5197C73.9249 13.5606 74.8521 14.7727 74.399 16.1798C74.399 16.1798 76.3662 15.7688 78.5809 17.4635ZM84.602 17.08C76.4962 14.6461 70.1994 8.36761 67.7585 0.285325C67.7073 0.11619 67.5509 0 67.3738 0C67.1963 0 67.0402 0.11619 66.9891 0.285325C64.5481 8.36761 58.2513 14.6461 50.1455 17.08C49.9755 17.1309 49.8594 17.2869 49.8594 17.4635C49.8594 17.6401 49.9755 17.7962 50.1455 17.8472C58.2513 20.281 64.5481 26.5595 66.9891 34.6418C67.0402 34.811 67.1963 34.9271 67.3738 34.9271C67.5509 34.9271 67.7073 34.811 67.7585 34.6418C70.1994 26.5595 76.4962 20.281 84.602 17.8472C84.7717 17.7962 84.8878 17.6401 84.8878 17.4635C84.8878 17.2869 84.7717 17.1309 84.602 17.08Z" fill="#A4B0C2"/>
<path fill-rule="evenodd" clip-rule="evenodd" d="M67.3742 15.9025C66.5099 15.9025 65.8086 16.6015 65.8086 17.4635C65.8086 18.3255 66.5099 19.0245 67.3742 19.0245C68.2387 19.0245 68.9401 18.3255 68.9401 17.4635C68.9401 16.6015 68.2387 15.9025 67.3742 15.9025Z" fill="#A4B0C2"/>
<path fill-rule="evenodd" clip-rule="evenodd" d="M15.0752 77.6887L13.814 75.6746C13.814 75.6746 13.8468 77.6357 13.8468 77.6887H13.3203V74.8159H13.8059L15.0833 76.8422C15.0833 76.8422 15.022 74.8818 15.0179 74.8159H15.5483V77.6887H15.0752Z" fill="#A4B0C2"/>
<path fill-rule="evenodd" clip-rule="evenodd" d="M18.4067 75.3328L18.0068 76.6554H18.8026L18.4067 75.3328ZM19.1124 77.689L18.9455 77.1271H17.8638L17.6966 77.689H17.1172L18.0925 74.8162H18.7047L19.6882 77.689H19.1124Z" fill="#A4B0C2"/>
<path fill-rule="evenodd" clip-rule="evenodd" d="M22.0682 75.3005V77.6887H21.5294V75.3005H20.7461V74.8159H22.864V75.3005H22.0682Z" fill="#A4B0C2"/>
<path fill-rule="evenodd" clip-rule="evenodd" d="M24.4609 74.8162H24.9912V77.6887H24.4609V74.8162Z" fill="#A4B0C2"/>
<path fill-rule="evenodd" clip-rule="evenodd" d="M28.11 77.2615C28.5384 77.2615 28.9425 76.932 28.9425 76.2813C28.9425 75.7684 28.6732 75.2352 28.102 75.2352C27.6285 75.2352 27.2777 75.6056 27.2777 76.2364C27.2777 76.6838 27.494 77.2615 28.11 77.2615ZM28.106 74.7429C28.9835 74.7429 29.4853 75.4591 29.4853 76.2364C29.4853 76.8874 29.1304 77.762 28.0938 77.762C27.2448 77.762 26.7227 77.0623 26.7227 76.2563C26.7227 75.4142 27.2736 74.7429 28.106 74.7429Z" fill="#A4B0C2"/>
<path fill-rule="evenodd" clip-rule="evenodd" d="M32.9732 77.6887L31.7125 75.6746C31.7125 75.6746 31.745 77.6357 31.745 77.6887H31.2188V74.8159H31.704L32.9814 76.8422C32.9814 76.8422 32.9201 74.8818 32.9164 74.8159H33.4467V77.6887H32.9732Z" fill="#A4B0C2"/>
<path fill-rule="evenodd" clip-rule="evenodd" d="M36.3052 75.3328L35.9052 76.6554H36.7011L36.3052 75.3328ZM37.0109 77.689L36.8436 77.1271H35.7623L35.595 77.689H35.0156L35.9909 74.8162H36.6029L37.5866 77.689H37.0109Z" fill="#A4B0C2"/>
<path fill-rule="evenodd" clip-rule="evenodd" d="M39.168 77.6887V74.8159H39.7108V77.2005H40.8534V77.6887H39.168Z" fill="#A4B0C2"/>
<path fill-rule="evenodd" clip-rule="evenodd" d="M47.3254 76.887C47.2315 77.1312 46.9092 77.7619 46.0808 77.7619C45.3995 77.7619 44.7344 77.298 44.7344 76.2239C44.7344 75.5854 45.0974 74.7426 46.1011 74.7426C46.8438 74.7426 47.1499 75.219 47.2725 75.6296L46.7378 75.7684C46.705 75.455 46.4398 75.2349 46.1215 75.2349C45.6524 75.2349 45.3179 75.5931 45.3179 76.232C45.3179 76.6227 45.477 77.2534 46.1177 77.2534C46.4889 77.2534 46.7297 76.9684 46.8153 76.6753L47.3254 76.887Z" fill="#A4B0C2"/>
<path fill-rule="evenodd" clip-rule="evenodd" d="M50.1882 77.2615C50.6166 77.2615 51.0206 76.932 51.0206 76.2813C51.0206 75.7684 50.7514 75.2352 50.1801 75.2352C49.7067 75.2352 49.3558 75.6056 49.3558 76.2364C49.3558 76.6838 49.5722 77.2615 50.1882 77.2615ZM50.1841 74.7429C51.0616 74.7429 51.5635 75.4591 51.5635 76.2364C51.5635 76.8874 51.2085 77.762 50.172 77.762C49.323 77.762 48.8008 77.0623 48.8008 76.2563C48.8008 75.4142 49.3518 74.7429 50.1841 74.7429Z" fill="#A4B0C2"/>
<path fill-rule="evenodd" clip-rule="evenodd" d="M55.4396 77.6887C55.4396 77.6195 55.4928 75.3288 55.4928 75.3288L54.8683 77.6887H54.3827L53.7586 75.3288C53.7586 75.3288 53.8114 77.5952 53.8114 77.6887H53.2852V74.8159H54.0684L54.6316 76.9483L55.1867 74.8159H55.9662V77.6887H55.4396Z" fill="#A4B0C2"/>
<path fill-rule="evenodd" clip-rule="evenodd" d="M58.3783 76.2728H58.8517C59.2354 76.2728 59.4274 76.0939 59.4274 75.7562C59.4274 75.2923 59.0515 75.2761 58.7904 75.2761H58.3783V76.2728ZM58.9577 74.8162C59.5537 74.8162 59.9825 75.1825 59.9825 75.7724C59.9825 76.2934 59.68 76.7121 58.9296 76.7121H58.3783V77.6887H57.8398V74.8162H58.9577Z" fill="#A4B0C2"/>
<path fill-rule="evenodd" clip-rule="evenodd" d="M62.4302 75.3328L62.0302 76.6554H62.8257L62.4302 75.3328ZM63.1359 77.689L62.9686 77.1271H61.8873L61.72 77.689H61.1406L62.1159 74.8162H62.7279L63.7116 77.689H63.1359Z" fill="#A4B0C2"/>
<path fill-rule="evenodd" clip-rule="evenodd" d="M67.0478 77.6887L65.7867 75.6746C65.7867 75.6746 65.8196 77.6357 65.8196 77.6887H65.293V74.8159H65.7786L67.056 76.8422C67.056 76.8422 66.9947 74.8818 66.9906 74.8159H67.5213V77.6887H67.0478Z" fill="#A4B0C2"/>
<path fill-rule="evenodd" clip-rule="evenodd" d="M70.5951 76.5535V77.6887H70.0604V76.5535L69.0977 74.8159H69.7096L70.3341 76.0042L70.9622 74.8159H71.5664L70.5951 76.5535Z" fill="#A4B0C2"/>
<path fill-rule="evenodd" clip-rule="evenodd" d="M6.55685 48.5025L3.64487 44.1953L2.295 45.5223V48.5025H0V34.9271H2.295V42.5607L6.05566 38.8882H9.00594L5.32246 42.5607L9.37235 48.5025H6.55685Z" fill="#A4B0C2"/>
<path fill-rule="evenodd" clip-rule="evenodd" d="M15.7891 43.7144C15.4034 43.9066 14.8439 44.1179 13.957 44.253C12.8964 44.4066 11.8358 44.6183 11.8358 45.5793C11.8358 46.2141 12.2601 46.7527 13.4169 46.7527C14.4778 46.7527 15.7891 46.2141 15.7891 45.0026V43.7144ZM15.7891 48.5025L15.7312 47.7525C15.0949 48.2523 14.0728 48.7331 12.8964 48.7331C10.6979 48.7331 9.38672 47.4068 9.38672 45.791C9.38672 43.6948 10.9875 42.8682 12.8191 42.5414C14.2655 42.2723 15.1718 42.0416 15.7891 41.8299C15.7891 41.0992 15.5772 40.3878 14.1307 40.3878C12.3756 40.3878 12.1829 41.3299 12.1829 41.8299L9.83001 41.6955C9.86861 41.0611 10.004 38.5999 14.0536 38.5999C16.8884 38.5999 18.103 39.6382 18.103 41.3299V46.9448C18.103 47.6755 18.142 47.8869 18.5274 48.5025H15.7891Z" fill="#A4B0C2"/>
<path fill-rule="evenodd" clip-rule="evenodd" d="M19.5703 48.5024V46.7334L24.7773 40.9456H20.0915V38.8882H27.8245V40.6761L22.7332 46.4643H27.8245V48.5024H19.5703Z" fill="#A4B0C2"/>
<path fill-rule="evenodd" clip-rule="evenodd" d="M35.2077 43.7144C34.8219 43.9066 34.2622 44.1179 33.3755 44.253C32.3148 44.4066 31.2542 44.6183 31.2542 45.5793C31.2542 46.2141 31.6785 46.7527 32.8353 46.7527C33.8961 46.7527 35.2077 46.2141 35.2077 45.0026V43.7144ZM35.2077 48.5025L35.1497 47.7525C34.5134 48.2523 33.4912 48.7331 32.3148 48.7331C30.1163 48.7331 28.8047 47.4068 28.8047 45.791C28.8047 43.6948 30.4055 42.8682 32.2375 42.5414C33.6839 42.2723 34.5903 42.0416 35.2077 41.8299C35.2077 41.0992 34.9957 40.3878 33.5488 40.3878C31.7939 40.3878 31.6013 41.3299 31.6013 41.8299L29.2484 41.6955C29.287 41.0611 29.422 38.5999 33.4719 38.5999C36.3069 38.5999 37.5213 39.6382 37.5213 41.3299V46.9448C37.5213 47.6755 37.5602 47.8869 37.9459 48.5025H35.2077Z" fill="#A4B0C2"/>
<path fill-rule="evenodd" clip-rule="evenodd" d="M46.1545 48.5025L43.2425 44.1953L41.8923 45.5223V48.5025H39.5977V34.9271H41.8923V42.5607L45.6533 38.8882H48.6033L44.9201 42.5607L48.97 48.5025H46.1545Z" fill="#A4B0C2"/>
<path fill-rule="evenodd" clip-rule="evenodd" d="M56.3969 48.5025V42.8683C56.3969 41.4646 55.7027 40.792 54.5842 40.792C53.3308 40.792 52.1737 41.7341 52.1737 43.1762V48.5025H49.8594V34.9271H52.1737V39.8688C52.7521 39.2728 53.7938 38.5999 55.2208 38.5999C57.3224 38.5999 58.6726 39.7918 58.6726 42.0032V48.5025H56.3969Z" fill="#A4B0C2"/>
<path fill-rule="evenodd" clip-rule="evenodd" d="M21.4727 56.1063H22.8807V52.6837H25.1946V56.1063H27.258V57.7412H25.1946V62.5093C25.1946 62.8747 25.214 63.2978 25.426 63.5284C25.6962 63.8168 26.1974 63.8168 26.294 63.8168C26.6217 63.8168 26.9688 63.779 27.258 63.7016V65.6435C26.9499 65.682 26.3901 65.7975 25.5997 65.7975C23.5363 65.7975 22.8807 65.0476 22.8807 63.471V57.7412H21.4727V56.1063Z" fill="#A4B0C2"/>
<path fill-rule="evenodd" clip-rule="evenodd" d="M32.7132 63.8942C34.4102 63.8942 35.201 62.452 35.201 60.9903C35.201 59.4526 34.3716 57.8946 32.5977 57.8946C31.2475 57.8946 30.11 58.8755 30.11 60.8174C30.11 62.5094 31.0545 63.8942 32.7132 63.8942ZM32.7132 66.0093C29.2034 66.0093 27.6992 63.2212 27.6992 60.8752C27.6992 58.5679 29.2227 55.818 32.636 55.818C34.738 55.818 37.5925 57.2213 37.6114 60.8752C37.6114 63.4519 35.9917 66.0093 32.7132 66.0093Z" fill="#A4B0C2"/>
<path fill-rule="evenodd" clip-rule="evenodd" d="M45.5697 65.7206V64.74C45.0878 65.1823 44.1234 65.9515 42.4454 65.9515C40.8449 65.9515 40.0545 65.2593 39.6685 64.6826C39.148 63.9131 39.1094 63.0284 39.1094 62.1441V56.1063H41.4426V61.6443C41.4426 62.5672 41.6743 63.7787 43.333 63.7787C44.4512 63.7787 45.0299 63.048 45.2033 62.7019C45.5504 62.0286 45.5697 61.125 45.5697 60.3943V56.1063H47.8837V65.7206H45.5697Z" fill="#A4B0C2"/>
<path fill-rule="evenodd" clip-rule="evenodd" d="M52.2172 56.1062V57.4714C52.95 55.9523 54.628 55.8945 55.0906 55.8945H55.2833V58.2599C54.8014 58.2599 52.95 58.2602 52.3909 60.0292C52.2172 60.5671 52.2172 61.0479 52.2172 61.6054V65.7205H49.9805V56.1062H52.2172Z" fill="#A4B0C2"/>
<path fill-rule="evenodd" clip-rule="evenodd" d="M56.3789 56.1063H58.6739V65.7209H56.3789V56.1063ZM56.3789 52.2799H58.6739V54.6067H56.3789V52.2799Z" fill="#A4B0C2"/>
<path fill-rule="evenodd" clip-rule="evenodd" d="M67.0266 59.1254C66.5061 58.106 65.5223 57.664 64.4041 57.664C63.9601 57.664 62.803 57.7984 62.803 58.6638C62.803 59.2986 63.3817 59.4907 64.7705 59.7406L66.3323 60.0293C67.7983 60.2984 68.9165 61.1635 68.9165 62.7212C68.9165 64.4902 67.2389 66.0093 64.5775 66.0093C61.9164 66.0093 60.4894 64.8363 59.9492 64.2788L61.6848 62.8748C62.148 63.4904 63.0157 64.1056 64.4617 64.1056C65.8505 64.1056 66.3517 63.3945 66.3517 62.9714C66.3517 62.4136 65.8118 62.2018 64.9246 62.0479L63.7292 61.8365C62.977 61.7021 60.3732 61.2213 60.3732 58.9522C60.3732 57.0488 62.2056 55.818 64.5196 55.818C65.2717 55.818 67.2196 55.9335 68.666 57.6062L67.0266 59.1254Z" fill="#A4B0C2"/>
<path fill-rule="evenodd" clip-rule="evenodd" d="M72.7555 56.1064V57.1828C73.1605 56.6446 74.2983 55.818 75.7833 55.818C76.8826 55.818 77.9239 56.3177 78.4637 57.2794C79.081 56.4913 80.0645 55.818 81.5687 55.818C83.5163 55.818 84.8858 56.8371 84.8858 59.1443V65.7206H82.5908V59.8365C82.5908 59.4715 82.5135 57.9716 80.971 57.9716C80.6043 57.9716 79.7753 58.106 79.2544 58.9525C78.8108 59.6447 78.7918 60.4328 78.7918 61.202V65.7206H76.4968V59.8173C76.4968 59.0677 76.169 57.9908 74.9154 57.9908C74.6841 57.9908 74.1825 58.0483 73.7006 58.4521C72.7555 59.2598 72.7362 60.6057 72.7362 61.6828V65.7206H70.4219V56.1064H72.7555Z" fill="#A4B0C2"/>
</g>
<defs>
<clipPath id="clip0_4522_997">
<rect width="85" height="78" fill="white"/>
</clipPath>
</defs>
</svg>
