<svg width="20" height="17" viewBox="0 0 20 17" fill="none" xmlns="http://www.w3.org/2000/svg">
<path d="M16.107 4.68726C16.107 4.74012 16.107 4.79297 16.107 4.84582C16.0773 5.99204 15.5783 7.07879 14.7686 7.89139L14.035 8.628L13.1031 9.55951L6.64242 3.10172V16.014H0V0H11.3152C13.9226 0 16.0905 2.08103 16.107 4.68726Z" fill="#1261FC"/>
<path d="M16.107 4.68726C16.107 4.74012 16.107 4.79297 16.107 4.84582C16.0773 5.99204 15.5783 7.07879 14.7686 7.89139L14.035 8.628L13.1031 9.55951L6.64242 3.10172V16.014H0V0H11.3152C13.9226 0 16.0905 2.08103 16.107 4.68726Z" fill="#1261FC"/>
<path d="M20 16.014H7.08198L13.5393 9.55619L20 16.014Z" fill="#1261FC"/>
</svg>
