<svg xmlns="http://www.w3.org/2000/svg" width="124" height="34" fill="none"><path fill="#1261FC" d="M44.612 32.172a10.86 10.86 0 0 1-4.166-4.205c-.994-1.787-1.497-3.814-1.497-6.074q0-3.392 1.531-6.074a10.93 10.93 0 0 1 4.24-4.191c1.805-1 3.826-1.507 6.073-1.507 2.246 0 4.22.507 5.996 1.52a10.86 10.86 0 0 1 4.166 4.205c.994 1.788 1.498 3.814 1.498 6.074q0 3.391-1.532 6.075a10.93 10.93 0 0 1-4.24 4.19c-1.804 1-3.826 1.507-6.072 1.507s-4.22-.507-5.997-1.52m9.346-4.602a5.3 5.3 0 0 0 2.117-2.267q.735-1.468.735-3.369-.002-2.896-1.668-4.684-1.666-1.787-4.465-1.787c-1.865 0-2.315.267-3.233.8a5.3 5.3 0 0 0-2.117 2.268q-.735 1.468-.735 3.369 0 1.9.735 3.37.737 1.466 2.137 2.286c.933.548 2.022.815 3.254.815s2.314-.267 3.233-.8zm12.354-16.983h5.527v4.876h.382a8.4 8.4 0 0 1 .755-1.712 8 8 0 0 1 1.021-1.37 6.25 6.25 0 0 1 2.444-1.691 8 8 0 0 1 2.933-.555c2.349 0 4.22.726 5.623 2.17q2.103 2.17 2.103 6.054v14.888h-5.636V20.113c0-1.5-.313-2.644-.946-3.445q-.948-1.2-3.294-1.199c-1.566 0-1.682.158-2.458.48-.783.315-1.443.91-1.987 1.774q-.817 1.292-.817 3.581v11.957h-5.636V10.587zM92.45 6.382c-.694-.699-1.041-1.54-1.041-2.534s.347-1.794 1.041-2.493A3.42 3.42 0 0 1 94.97.308c.987 0 1.783.349 2.478 1.047q1.041 1.047 1.041 2.493c0 .966-.347 1.835-1.041 2.534-.695.698-1.518 1.048-2.478 1.048a3.46 3.46 0 0 1-2.519-1.048m-.252 4.205h5.637V33.24H92.2zm11.013 0h5.527v4.876h.381a8.3 8.3 0 0 1 .756-1.712 8 8 0 0 1 1.021-1.37 6.25 6.25 0 0 1 2.444-1.691 8 8 0 0 1 2.933-.555c2.349 0 4.22.726 5.623 2.17Q124 14.476 124 18.36v14.888h-5.636V20.113c0-1.5-.313-2.644-.946-3.445q-.948-1.2-3.295-1.199c-1.565 0-1.681.158-2.457.48-.783.315-1.443.91-1.988 1.774q-.816 1.292-.816 3.581v11.957h-5.636V10.587zm-70.035-.562v.329c-.062 2.376-1.09 4.63-2.757 6.314l-1.511 1.527-1.92 1.931L13.682 6.738v26.77H0V.307h23.307c5.37 0 9.835 4.314 9.87 9.717"/><path fill="#1261FC" d="M40.29 33.507H13.682l13.3-13.388z"/></svg>