<svg width="107" height="29" viewBox="0 0 107 29" fill="none" xmlns="http://www.w3.org/2000/svg">
<path d="M97.372 19.6225H94.1015L102.472 11.1909H92.9922V8.83789H106.23C106.398 8.83789 106.541 8.88363 106.657 8.97512C106.787 9.0666 106.878 9.17777 106.93 9.30849C106.995 9.4392 107.015 9.58301 106.989 9.73986C106.962 9.8967 106.891 10.034 106.775 10.1516L97.372 19.6225Z" fill="url(#paint0_linear_5108_252)"/>
<path d="M68.1032 9.78516H74.8736C75.3583 9.78516 75.8131 9.88036 76.2388 10.0709C76.6638 10.2494 77.0305 10.4993 77.3375 10.8207C77.6565 11.142 77.9046 11.517 78.0822 11.9455C78.09 11.9636 78.0979 11.9817 78.1057 12H75.2638C75.1415 11.9636 75.0115 11.9455 74.8736 11.9455H68.1032C67.9653 11.9455 67.8345 11.9636 67.7109 12H64.8555C64.8626 11.9817 64.8697 11.9636 64.8768 11.9455C65.0665 11.517 65.3146 11.142 65.6216 10.8207C65.9406 10.4993 66.313 10.2494 66.738 10.0709C67.1637 9.88036 67.6185 9.78516 68.1032 9.78516Z" fill="white"/>
<path d="M58.6416 12.0001V11.9814H63.764V9.83887H51.1797V11.9814H56.3021V12.0001H58.6416Z" fill="white"/>
<path d="M56.3008 14.7617H58.6403V19.6225H56.3008V14.7617Z" fill="white"/>
<path d="M50.084 12.0001V9.83887H47.957V12.0001H50.084Z" fill="white"/>
<path d="M47.957 14.7617H50.084V19.6225H47.957V14.7617Z" fill="white"/>
<path d="M47.1373 12.0001C47.0968 11.8536 47.0435 11.7104 46.9796 11.5707C46.755 11.0827 46.4124 10.672 45.9512 10.3388C45.4907 10.0055 44.9414 9.83887 44.3032 9.83887H32.6758V12.0001H34.8027V11.9814H44.3032C44.375 11.9814 44.4418 11.9876 44.5043 12.0001H47.1373Z" fill="white"/>
<path fill-rule="evenodd" clip-rule="evenodd" d="M32.6758 14.7617H46.5972C46.971 15.2295 47.1814 15.7428 47.2276 16.3016C47.2866 16.8729 47.2041 17.4026 46.9795 17.8906C46.755 18.3786 46.4124 18.7892 45.9512 19.1225C45.4907 19.4558 44.9414 19.6225 44.3032 19.6225H32.6758V14.7617ZM44.3032 17.4799H34.8027V15.8017H44.3032C44.5747 15.8017 44.7758 15.891 44.9058 16.0695C45.0473 16.2361 45.1183 16.4266 45.1183 16.6408C45.1183 16.8551 45.0473 17.0514 44.9058 17.23C44.7758 17.3966 44.5747 17.4799 44.3032 17.4799Z" fill="white"/>
<path d="M31.9394 11.9999C31.9367 11.9936 31.9339 11.9874 31.9312 11.9812C31.754 11.5526 31.5058 11.1777 31.1867 10.8563C30.8795 10.5349 30.5132 10.285 30.0878 10.1064C29.6624 9.91601 29.2075 9.8208 28.723 9.8208L17.8047 9.83863V19.6227H19.9316V11.9812H28.723C28.8039 11.9812 28.8821 11.9874 28.9575 11.9999H31.9394Z" fill="white"/>
<path d="M22.0922 14.7617H31.9209C31.7446 15.1772 31.5009 15.5417 31.1896 15.8552C30.8824 16.1647 30.5161 16.4147 30.0907 16.6051C29.6653 16.7836 29.2103 16.8729 28.7259 16.8729H27.4852L32.1113 19.6225H27.9815L21.9551 16.0338C21.8015 15.9505 21.701 15.8373 21.6538 15.6945C21.6065 15.5398 21.6006 15.391 21.6361 15.2482C21.6715 15.1054 21.7483 14.9864 21.8665 14.8911C21.9325 14.8313 22.0077 14.7881 22.0922 14.7617Z" fill="white"/>
<path d="M64.6094 14.7617H66.7364V15.1054H76.2371V14.7617H78.3641V19.6225H76.2371V17.2657H66.7364V19.6225H64.6094V14.7617Z" fill="white"/>
<path d="M79.4102 14.7617V16.1052C79.4102 16.5932 79.499 17.0514 79.6759 17.4799C79.865 17.9084 80.1137 18.2834 80.4207 18.6047C80.7398 18.9142 81.1122 19.1642 81.5371 19.3547C81.9628 19.5332 82.4177 19.6225 82.9023 19.6225H90.9846V17.4799H82.9023C82.5243 17.4799 82.1988 17.349 81.9273 17.0871C81.6672 16.8134 81.5371 16.486 81.5371 16.1052V14.7617H79.4102Z" fill="white"/>
<path d="M81.5372 12.0001V9.83887H79.4102V12.0001H81.5372Z" fill="white"/>
<path fill-rule="evenodd" clip-rule="evenodd" d="M5.30188 19.6229C4.62832 19.6229 3.99619 19.4979 3.40534 19.2479C2.82637 18.9861 2.31235 18.635 1.86329 18.1946C1.42609 17.7422 1.07751 17.2245 0.817554 16.6413C0.569392 16.0461 0.445312 15.4094 0.445312 14.7309C0.445312 14.0524 0.569392 13.4157 0.817554 12.8205C1.07751 12.2254 1.42609 11.7076 1.86329 11.2672C2.31235 10.8268 2.82637 10.4816 3.40534 10.2317C3.99619 9.9698 4.62832 9.83887 5.30188 9.83887H12.5512C13.2248 9.83887 13.857 9.9698 14.4478 10.2317C15.0386 10.4816 15.5526 10.8268 15.9898 11.2672C16.4389 11.7076 16.7875 12.2254 17.0356 12.8205C17.2955 13.4157 17.4256 14.0524 17.4256 14.7309C17.4256 15.4094 17.2955 16.0461 17.0356 16.6413C16.7875 17.2245 16.4389 17.7422 15.9898 18.1946C15.5526 18.635 15.0386 18.9861 14.4478 19.2479C13.857 19.4979 13.2248 19.6229 12.5512 19.6229H5.30188ZM12.5512 17.4804C12.9294 17.4804 13.2838 17.409 13.6147 17.2661C13.9456 17.1233 14.2351 16.927 14.4832 16.677C14.7314 16.427 14.9263 16.1354 15.0682 15.8021C15.2099 15.4689 15.2809 15.1118 15.2809 14.7309C15.2809 14.35 15.2099 13.9929 15.0682 13.6596C14.9263 13.3264 14.7314 13.0348 14.4832 12.7848C14.2351 12.5348 13.9456 12.3385 13.6147 12.1956C13.2838 12.0528 12.9294 11.9814 12.5512 11.9814H5.30188C4.92374 11.9814 4.56926 12.0528 4.23838 12.1956C3.90757 12.3385 3.61804 12.5348 3.36988 12.7848C3.12172 13.0348 2.92679 13.3264 2.78501 13.6596C2.64317 13.9929 2.57231 14.35 2.57231 14.7309C2.57231 15.1118 2.64317 15.4689 2.78501 15.8021C2.92679 16.1354 3.12172 16.427 3.36988 16.677C3.61804 16.927 3.90757 17.1233 4.23838 17.2661C4.56926 17.409 4.92374 17.4804 5.30188 17.4804H12.5512Z" fill="white"/>
<path d="M17.3803 14.0766L17.7988 14.0707V12.7466L17.0039 12.7417C17.0128 12.7622 17.0215 12.7829 17.0302 12.8036C17.2071 13.2086 17.3238 13.633 17.3803 14.0766Z" fill="url(#paint1_linear_5108_252)"/>
<path d="M3.47752 12.6597L14.4347 12.7262C14.4489 12.7399 14.4631 12.7539 14.4771 12.768C14.7252 13.0179 14.9202 13.3095 15.0619 13.6428C15.1258 13.7928 15.1752 13.9475 15.2103 14.1071L2.59766 14.2846C2.6312 14.0617 2.69161 13.8478 2.7788 13.6428C2.92058 13.3095 3.11558 13.0179 3.36374 12.768C3.4007 12.7307 3.43865 12.6946 3.47752 12.6597Z" fill="url(#paint2_linear_5108_252)"/>
<path d="M19.9336 14.0458V12.7573L96.8483 13.1439L19.9336 14.0458Z" fill="url(#paint3_linear_5108_252)"/>
<defs>
<linearGradient id="paint0_linear_5108_252" x1="92.1479" y1="9.54414" x2="104.128" y2="21.1409" gradientUnits="userSpaceOnUse">
<stop stop-color="#468CF4"/>
<stop offset="1" stop-color="#D605DA"/>
</linearGradient>
<linearGradient id="paint1_linear_5108_252" x1="74.411" y1="3.03398" x2="73.2136" y2="0.0519536" gradientUnits="userSpaceOnUse">
<stop stop-color="#468CF4"/>
<stop offset="0.725" stop-color="#D605DA"/>
<stop offset="1" stop-color="#D605DA"/>
</linearGradient>
<linearGradient id="paint2_linear_5108_252" x1="74.4102" y1="3.03399" x2="73.2127" y2="0.0519642" gradientUnits="userSpaceOnUse">
<stop stop-color="#468CF4"/>
<stop offset="0.725" stop-color="#D605DA"/>
<stop offset="1" stop-color="#D605DA"/>
</linearGradient>
<linearGradient id="paint3_linear_5108_252" x1="74.4121" y1="3.03406" x2="73.2147" y2="0.0520273" gradientUnits="userSpaceOnUse">
<stop stop-color="#468CF4"/>
<stop offset="0.725" stop-color="#D605DA"/>
<stop offset="1" stop-color="#D605DA"/>
</linearGradient>
</defs>
</svg>
