<svg xmlns="http://www.w3.org/2000/svg" width="150" height="51" fill="none"><path fill="#fff" d="M33.849 38.681a3.04 3.04 0 0 0-.786-1.6c-.492-.454-.177 1.392-1.007 1.204-.507-1.843-.742-3.746-1.32-5.572l-.883-.924c-.208 3.76 1.473 7.48-2.957 8.82-2.71.327-3.314 3.145-4.59 8.312 1.074-2.75 1.318-3.03 1.801-4.498 2.2-4.898 6.614-2.661 8.299 1.283 2.553 6.105 1.818-5.106 1.44-7.026m-19.755.827c-.582-1.62-1.328-4.375-1.39-6.263l-.879 1.145q.03.075.025.157c0 .062-.008.12-.013.18l-.001.019q-.015.194-.059.384a12.5 12.5 0 0 0-.079 2.621c.062.835-.911-.396-.918-.605-.456 1.311-1.226 3.202-1.21 3.962.04 1.968-.318 4.084-.053 6.012l.053.12c1.657-1.032 2.99-4.946 5.252-4.188 3.039 1.63 4.24.08 6.79 3.99-1.397-4.738-3.67-3.488-7.518-7.534"/><path fill="#fff" d="M22.937 41.472a8 8 0 0 1 1.803-1.524 4.9 4.9 0 0 1 1.996-.747.92.92 0 0 0 .649-.465c.477-.734.389-1.715.908-2.399 1.156-1.527.8-7.316.435-6.62-1.162 1.16-3.553 1.584-5.144 2.36-.396.194-.47 1.021-.818 1.209a10.5 10.5 0 0 0-1.6 1.007c-.404 2.214.805 1.812.604 2.617-.277 1.106-2.432.996-1.947 1.313a4.93 4.93 0 0 1 2.14 3.028c.06.24.017.598.322.66.293.057.48-.243.652-.44m-4.879-18.033c.181.545.954.522 1.227.455q.435-.119.886-.16s-.5-.476-.773-.794c-.272-.317-1.022-1.384-1.022-1.384s-.273.114-.341.272c-.046.16.272.363.182.636-.068.295-.364.454-.16.975"/><path fill="#fff" d="M14.149 6.151c-.73.123-1.55 1.143-2.148 2.237-.149.603.203 1.427-.235 1.92-.18.75-.6 1.167.006.799.145.813-1.464 2.798-.057 1.069.414-.169.472.352.382 1.2a1.42 1.42 0 0 0-1.114.52l-.09.097-.242.544c.431-.228.865-.452 1.293-.685a13.6 13.6 0 0 1-.613 3.48c-.16.568.293 1.21.36 1.8.16 1.363.19 1.099.872 2.234 1.008.403 3.313.007 4.267-1.014.59-.635 2.045-.885 2.045-.885-.318.295-.67 1.375-.21 2.015.152.21.398-.202.807-.202a1.68 1.68 0 0 1 1.21.403c.604.402 1.007.201 1.21 0 .204-.113.37-.49.847-.56.773-.136 1.091.182.978.296a1.1 1.1 0 0 1-.66.317q-.303.06-.613.09a5.4 5.4 0 0 0-.117.966c0 .43.23.578.253.805 0 .25.069.318.364.318s.84-.046.954.07c.113.115-.09.227.613.204.796-.023.91-.114.887-.613 0-.885.045-1.883-.66-2.519-.318-.295-.613 0-.682-.022a1.2 1.2 0 0 1-.045-.41v-.022a2.3 2.3 0 0 0-.068-.59q-.059-.24-.182-.455s-.068-.136.137-.07c.204.091.954.522 1.272.636.863.227 2.068.635 2.568 1.18 1 .909.5 1.906.204 2.156-.317.273-.772-.023-.932-.068-.181-.07-.568.046-.432.363.387.863.546.727.728 1.702.16.84.045 2.383-.091 2.497-.137.114-.137-.431-.454-1.407a2.85 2.85 0 0 0-.728-1.18.5.5 0 0 1-.113-.09.66.66 0 0 0-.5-.228c-.137.023-.114.227-.318.227-.182 0-.636.023-.773 0a1 1 0 0 0-.09-.227.24.24 0 0 0-.205-.227c-.204-.09-2.726 0-3.522.159a4 4 0 0 1-.318.09c-.318.137-.34.385-.409.41a10.5 10.5 0 0 1-1.66-.046 1.6 1.6 0 0 0-.728-.136c-.273.023-.84.113-1.068-.363a1.9 1.9 0 0 1-.09-1.022s-1.069 1.271-.524 2.088c.569.817 1.123.862 1.418 2.088.341 1.339 1.626 2.99 3.237 2.921 1.364-.068 1.413-.562 2.359-.218 2.217.804 4.028-1.538 4.165-1.561.473.039.943-.098 1.319-.384.343-.305.621-.674.82-1.086.68-1.46 1.287-3.011 1.385-4.55.909-.885 1.296-2.657 1.228-3.405q-.06-.714-.023-1.43c.204-.181.795.704.909 1.09q.027-.18.022-.363c-.022-.363-.227-.636-.227-1.022.023-.454-.545-.5-.841-.477-.25.091-.363-.136-.273-.317.25-.636-.136-.953.137-1.589.077-.23-.864-1.975-1.161-3.048.365.513.802.973 1.296 1.366a5.2 5.2 0 0 1-.52-1.386c0-.48.407-.202.73.082-.972-1.195-2.257-3.394.096-1.764-1.626-2.259-2.282-5.006-5.186-6.043-.591-.612.61-.486.904-.213 6.872 3.059 2.696-2.643-1.507-.237-1.793.61-3.683-.005-5.084 1.503-2.263-.434-4.537.513-6.769.192"/><path fill="#fff" d="M12.063 5.603a1.51 1.51 0 0 1 1.117-.844q.247-.055.499-.082c-1.944-.764 1.48-1.475 2.392-1.482 1.731-.572 4.017.967 5.441.43-.253-.345-.883-1.036-.164-1.253 1.972.853 2.37-.13 3.99.145.898.105-.577-.672-2.003-1.367a10 10 0 0 0-1.396-.217c-.134-.011-.169-.23-.109-.34a7 7 0 0 1-1.18-.197.17.17 0 0 1-.097-.153 11.94 11.94 0 0 0-5.59 1.086 26 26 0 0 0-3.095 1.77c.028.67-.772 1.373-1.233 1.82-.476.889-.98 2.134-.83 3.13a7.3 7.3 0 0 1 2.258-2.446"/><path fill="#090C21" fill-rule="evenodd" d="M42.432 40.817c-.824-1.48-2.882-1.5-4.29-2.134-1.771-.57-3.484-1.568-5.127-2.471a1.96 1.96 0 0 1-.75-.958c-.413-.973-.455-2.21-1.528-2.54.577 1.825.812 3.728 1.32 5.572.83.187.514-1.66 1.006-1.205.417.445.69 1.002.786 1.6.377 1.918 1.113 13.132-1.44 7.027-1.684-3.945-6.099-6.182-8.298-1.283-.484 1.468-.729 1.748-1.802 4.498 1.276-5.167 1.88-7.986 4.59-8.314 4.43-1.339 2.75-5.059 2.958-8.82l-.383-2.407-.153-.553.047-.112-.082-.512.043-.114a19.6 19.6 0 0 0 1.59-4.154l.16-.59q.067.035.123.059c.326.14.416.035.558-.127q.218-.78.545-1.521a6.9 6.9 0 0 0 .703-2.433c.003-.083.006-.165 0-.245v-.17c0-.423.002-.717.023-1.259.022-.466-.111-.95-.734-.822l-.039.005.068-.544c.051-.525.109-1.084.147-1.64a5 5 0 0 1-.305-.168.47.47 0 0 0 .26-.398 2.6 2.6 0 0 0-.16-.762c.106.08.176.1.188.032a8 8 0 0 1-.027-.466l-.023-.24.02-.193c.018-.944.167-1.912.278-2.863V6.57l-.005-.024a4 4 0 0 0-1.063-2.003c-.978-1.1-2.604-.952-3.365-2.233C26.594.619 24.059.433 21.794.19a6.3 6.3 0 0 1-1.08-.184c-.089-.027-.142.048-.157.14-.017.1.012.22.096.244q.581.149 1.18.198c-.06.108-.025.328.108.34q.705.06 1.396.216c1.425.696 2.9 1.474 2 1.367-1.62-.274-2.018.71-3.989-.145-.718.217-.089.909.164 1.254-1.423.54-3.708-.999-5.44-.428-.912.006-4.334.718-2.392 1.482a5 5 0 0 0-.5.081 1.53 1.53 0 0 0-1.116.845 7.3 7.3 0 0 0-2.259 2.447c-.149-.996.354-2.242.83-3.13.493-.478 1.372-1.246 1.217-1.958v-.01c-.013-.024-.036-.04-.042-.07a.3.3 0 0 0-.013-.052v-.004l-.007-.015-.013-.023c-.012-.01-.011-.012-.006-.007l-.021-.023-.089.041a.1.1 0 0 0-.04.047 9.45 9.45 0 0 0-2.854 3.61c-.919 2.858.519 5.532.903 8.509l.331-.223-.081.2q-.124.068-.245.14.193.924.247 1.868c-.5.09-.59.113-.568.612.045.659.432 1.34.478 2.157.059.878.299 1.736.704 2.52.34.59.546 1.497.954 1.997.25.34.5.295.864.272.5 1.271.469 1.94 1.15 3.144l.404.454v3.373c-.059.588-.837.627-1.21 1.41q-.002.174.003.361c.062 1.888.808 4.644 1.39 6.264 3.848 4.046 6.121 2.796 7.519 7.534-2.551-3.91-3.75-2.36-6.79-3.991-2.261-.758-3.594 3.157-5.251 4.188l-.038.025-.016-.145c-.264-1.928.094-4.044.053-6.012-.016-.76.754-2.65 1.21-3.962.006.21.98 1.44.919.605a12.5 12.5 0 0 1 .078-2.621q.044-.19.059-.385l.003-.019c.005-.06.01-.117.013-.18a.4.4 0 0 0-.025-.157c-.141-.352-.902.321-.921.46-.256.633-1.297.9-1.852 1.026-.31.07-.438.471-.41.819-.519.168-1.101.386-1.183.418-2.95 1.13-5.04 3.22-7.459 4.629.403 1.208 4.34-.905 6.312-1.58.457-.157 1.378-.692 1.668-.025.087.276.096.57.027.85a14.34 14.34 0 0 0 .509 6.273c.081.325.23.63.44.894 1.194 1.338 3.513-.895 4.53-1.532.701-.438 1.534-.768 2.346-.61.46.116.895.309 1.29.568 1.201.7 2.566-.28 3.438.799.276.342.38 2.422.707 2.716 1.334 1.196 2.62-1.456 3.353-2.424.631-.835 1.27-1.852 2.166-2.432.807-.525 1.619-.447 2.461-.035A8.8 8.8 0 0 1 31 46.439c.526.445 1.465 1.808 2.08 1.979 2.068.572 1.967-3.814 1.826-5.274.227-.939-1.245-4.964.194-4.623q.557.176 1.109.38c1.413.519 2.819 1.146 4.262 1.62.498.174 2.23 1.541 1.96.294M17.134 28.09c-.295-1.226-.848-1.271-1.417-2.088-.545-.817.523-2.088.523-2.088a1.93 1.93 0 0 0 .09 1.02c.228.478.795.385 1.068.364.25-.012.5.035.728.136q.827.09 1.658.045c.068-.024.091-.272.41-.409.09-.022.18-.045.317-.09.796-.159 3.318-.25 3.522-.159.137.023.182.113.204.227q.06.108.091.227c.137.023.59 0 .773 0 .204 0 .181-.204.318-.227a.67.67 0 0 1 .5.227.5.5 0 0 0 .113.09c.337.33.587.735.727 1.181.318.976.318 1.52.455 1.407.136-.114.25-1.658.091-2.497-.182-.976-.341-.84-.728-1.702-.136-.317.25-.432.432-.363.16.046.614.34.932.068.296-.25.796-1.247-.204-2.156-.5-.545-1.705-.953-2.568-1.18-.318-.114-1.068-.545-1.273-.636-.204-.066-.136.07-.136.07q.123.215.182.455.072.29.068.59v.02q-.012.207.046.408c.068.023.364-.272.682.023.705.635.66 1.634.66 2.52.022.498-.091.59-.887.612-.705.023-.5-.09-.613-.204s-.66-.067-.955-.067-.363-.068-.363-.318c-.023-.227-.254-.374-.254-.805a5.4 5.4 0 0 1 .117-.965q.309-.03.614-.091c.25-.029.482-.14.659-.317.113-.114-.205-.432-.978-.295-.477.067-.643.445-.848.559-.201.201-.603.401-1.208-.002a1.68 1.68 0 0 0-1.21-.401c-.41 0-.656.411-.807.202-.46-.64-.108-1.721.21-2.017 0 0-1.456.252-2.046.887-.954 1.021-3.258 1.416-4.266 1.012-.682-1.134-.712-.871-.871-2.233-.069-.59-.52-1.233-.361-1.8.356-1.13.562-2.3.614-3.482-.428.234-.863.457-1.294.686l.242-.545.09-.097a1.4 1.4 0 0 1 1.113-.517c.09-.848.032-1.369-.382-1.2-1.407 1.73.202-.256.057-1.07-.607.368-.186-.05-.005-.8.438-.493.086-1.317.235-1.921.598-1.095 1.417-2.115 2.147-2.237 2.232.32 4.506-.627 6.772-.193 1.4-1.508 3.29-.892 5.083-1.503 4.203-2.407 8.379 3.296 1.507.237-.294-.273-1.495-.4-.903.212 2.903 1.038 3.559 3.786 5.185 6.044-2.353-1.63-1.067.57-.096 1.765-.323-.285-.732-.563-.73-.082.106.485.281.952.52 1.388a6.7 6.7 0 0 1-1.296-1.366c.297 1.073 1.237 2.82 1.161 3.05-.272.635.114.952-.136 1.588-.091.181.023.409.272.318.296-.023.864.023.842.476 0 .385.204.659.226 1.022q.005.182-.022.363c-.114-.385-.704-1.271-.909-1.09q-.037.716.023 1.43c.068.75-.318 2.52-1.228 3.405-.098 1.538-.707 3.09-1.386 4.551a3.4 3.4 0 0 1-.82 1.086 1.92 1.92 0 0 1-1.317.385c-.137.022-1.95 2.366-4.165 1.56-.948-.344-.996.15-2.36.218-1.613.068-2.897-1.582-3.237-2.921m.901-6.266c.068-.159.34-.272.34-.272s.75 1.067 1.023 1.385c.273.317.772.796.772.796q-.45.04-.886.159c-.273.067-1.046.09-1.227-.455-.205-.521.09-.68.159-.975.09-.273-.227-.479-.181-.638m3.927 19.426a4.93 4.93 0 0 0-2.14-3.028c-.485-.317 1.67-.207 1.947-1.313.201-.805-1.008-.403-.605-2.617a10.5 10.5 0 0 1 1.601-1.007c.348-.188.422-1.015.818-1.208 1.59-.777 3.982-1.201 5.144-2.361.365-.696.72 5.093-.435 6.62-.52.684-.431 1.665-.908 2.4a.9.9 0 0 1-.649.464 4.9 4.9 0 0 0-1.996.747 8 8 0 0 0-1.803 1.524c-.172.196-.359.496-.652.438-.305-.06-.262-.42-.322-.659" clip-rule="evenodd"/><path fill="#090C21" fill-rule="evenodd" d="M23.628 26.916c.795-.703-.114-.544-1.183-.567s-2.274.046-2.82-.022a5.8 5.8 0 0 1-1.271-.34c-.387-.114.386.748.704.998a2.63 2.63 0 0 0 2.001.725c1.296 0 1.773-.068 2.569-.794M19.311 13.57c-.568.182-.864-.136-3-.136-2.138 0-3.138 1.27-3.138 1.27a.91.91 0 0 0-.137.953c.068.204-.16.769-.045.748.318-.09 1.318-1.474 2.933-1.655 1.636-.182 2.182.159 2.182.159a6.3 6.3 0 0 0-2.455.362 4.18 4.18 0 0 0-2.274 2.041c-.045.204.227.273.5.227.273-.068.591-.658.682-.658a5.2 5.2 0 0 0 1.296-.136c.728-.204 2.57-.113 2.57-.113s-.569.136-1.114.317a8.7 8.7 0 0 1-2.16.431c-.707 0-.591.227-.591.227s2.182.295 3.865-.34c1.683-.634 1.41-2.359 1.546-2.813.137-.431-.09-1.065-.66-.883m8.588 2.361c-.523-.5-1.432-1.224-2.297-1.338-.886-.114-2.5.476-2.5.476a.89.89 0 0 1 .545-.703c.523-.25 1.819-.25 2.319-.181.182.022.455.067.75.09h.023c.773.09 1.546.861 1.82.839.272-.045.135-.409.135-.409a2.65 2.65 0 0 0-.704-1.223c-.296-.25-.955-.295-1.433-.295-.204 0-.386.023-.59.023a3.5 3.5 0 0 1-.706-.023 5.9 5.9 0 0 0-2.046-.045c-1.25.204-.819 2.154-.819 2.154a.8.8 0 0 0 .08.584.8.8 0 0 0 .466.368c.455.137-.045.59.455.998.523.431 3.569.204 3.569.204a3 3 0 0 0-.636-.521c-.273-.159-1.07-.113-1.615-.181a7 7 0 0 1-1.16-.273q.295-.049.592-.023c.432.046 1.546.137 1.955-.067.23-.102.41-.29.5-.522q.427.193.797.477c.326.273.717.46 1.136.544.137-.045-.09-.477-.636-.953M54.33 30.525v-16.55h1.523q4.108.002 5.842 1.914t1.733 6.319a12.9 12.9 0 0 1-.76 4.773 5.36 5.36 0 0 1-2.285 2.774 4.9 4.9 0 0 1-1.606.595c-.861.135-1.733.194-2.605.175zm-4.28-17.518a34 34 0 0 1-1.222-.057v1.026q1.42.024 1.797.38.378.354.378 1.797v12.22q0 1.43-.377 1.803-.378.375-1.798.375v1.012q.844-.05 1.702-.076.857-.026 1.766-.026.857 0 2.52.05 1.664.052 2.457.052 4.734 0 7.294-2.405 2.56-2.406 2.56-6.85 0-4.395-2.7-6.876t-7.473-2.482q-.922-.001-2.56.037-1.638.039-2.367.039-1.32 0-1.978-.02m19.873 7.413q.333.254.333 1.241v7.257q0 1.14-.308 1.393-.307.254-1.79.38v.875q1.804-.076 2.482-.101t1.024-.026q.74 0 1.771.032t2.605.095v-.875q-1.997-.053-2.425-.35-.429-.296-.429-1.424v-3.369a8.2 8.2 0 0 1 .947-4.07q.947-1.69 2.201-1.69h.026q-.148.301-.237.626a2.4 2.4 0 0 0-.083.627c-.03.404.101.804.365 1.114a1.4 1.4 0 0 0 1.055.38 1.25 1.25 0 0 0 .985-.425c.26-.32.392-.723.37-1.132a2.03 2.03 0 0 0-.613-1.546 2.32 2.32 0 0 0-1.663-.581 2.84 2.84 0 0 0-1.978.867 6.6 6.6 0 0 0-1.529 2.462v-3.33q-1.19.168-2.418.26a55 55 0 0 1-2.482.133v.912q1.459.012 1.791.265m9.647 7.8a1.52 1.52 0 0 1 1.159.474c.305.348.463.8.44 1.26.021.464-.136.918-.44 1.272a1.48 1.48 0 0 1-1.159.487 1.54 1.54 0 0 1-1.171-.487 1.8 1.8 0 0 1-.454-1.272 1.74 1.74 0 0 1 .46-1.248 1.52 1.52 0 0 1 1.165-.485m13.494 2.28v-7.938l1.677-.002q2.521 0 3.583.936 1.061.937 1.061 3.115 0 2.131-1.017 3.01-1.018.879-3.563.879zm0-8.977v-7.508h1.652q2.393-.002 3.27.835.875.836.876 2.912 0 2.002-.896 2.881-.896.88-2.956.88zm-3.852-8.515a77 77 0 0 1-1.625-.057v1.026q1.383.037 1.78.329.395.291.396 1.595V28.37q0 1.43-.377 1.805-.378.374-1.798.374l.013 1.012a87 87 0 0 1 3.48-.075q.538 0 2.04.038 1.504.037 2.464.037 3.84 0 5.585-1.139t1.746-3.61q0-2.152-1.426-3.355t-4.177-1.367v-.076q2.341-.165 3.582-1.323a4.1 4.1 0 0 0 1.242-3.16q0-2.341-1.587-3.462-1.588-1.12-4.914-1.12-.088-.001-1.695.037-1.608.039-3.13.039-.793 0-1.6-.02m18.422 11.034 6.091-.151q0-2.013-.749-3.071a2.5 2.5 0 0 0-.945-.808 2.5 2.5 0 0 0-1.223-.25 2.666 2.666 0 0 0-2.246 1.14q-.85 1.14-.928 3.14m.013.887q.012 2.684 1.05 4.077a3.5 3.5 0 0 0 1.326 1.072 3.54 3.54 0 0 0 1.681.32 4.2 4.2 0 0 0 2.413-.683 4.2 4.2 0 0 0 1.542-1.988l.743.229a5.1 5.1 0 0 1-2.009 2.867 6.46 6.46 0 0 1-3.686.968q-2.904 0-4.555-1.702-1.651-1.703-1.651-4.716 0-2.939 1.721-4.73t4.536-1.791q2.623 0 4.134 1.545 1.51 1.545 1.509 4.241v.19zm11.096-4.508q.332.254.332 1.241l-.001 7.257q-.001 1.14-.308 1.392-.306.255-1.79.38v.876q1.804-.076 2.482-.102.678-.024 1.023-.025.741 0 1.773.032 1.03.03 2.603.095v-.875q-1.996-.054-2.425-.35-.428-.297-.428-1.424v-3.37a8.2 8.2 0 0 1 .947-4.07q.947-1.69 2.201-1.69h.026q-.148.302-.237.626a2.4 2.4 0 0 0-.084.628c-.029.404.102.803.365 1.114a1.4 1.4 0 0 0 1.056.38 1.24 1.24 0 0 0 .986-.425c.26-.32.392-.723.37-1.132a2.03 2.03 0 0 0-.613-1.546 2.32 2.32 0 0 0-1.663-.581 2.84 2.84 0 0 0-1.977.867 6.6 6.6 0 0 0-1.529 2.462v-3.33q-1.19.168-2.419.26a55 55 0 0 1-2.482.133v.912q1.46.012 1.792.265m14.735-.658a2.09 2.09 0 0 0-1.811.83q-.594.83-.595 2.512 0 1.736.589 2.57a2.08 2.08 0 0 0 1.817.837 2.12 2.12 0 0 0 1.836-.843q.608-.84.609-2.538 0-1.685-.609-2.526a2.13 2.13 0 0 0-1.836-.842m-2.38 12.423c-.43.15-.808.418-1.087.773-.254.331-.39.736-.384 1.152-.006.367.091.73.281 1.046s.464.574.793.746q1.076.637 3.02.64a7 7 0 0 0 3.385-.716q1.299-.717 1.299-1.819 0-1.353-3.8-1.556a62 62 0 0 1-3.507-.266m6.002-12.13c.345-.44.765-.817 1.241-1.115a2.7 2.7 0 0 1 1.305-.29c.316-.028.634.036.915.182q.142.122.213.293a.75.75 0 0 1 .049.358.86.86 0 0 1-.224.652.88.88 0 0 1-.646.221 2 2 0 0 1-.806-.189 2 2 0 0 0-.551-.19.9.9 0 0 0-.486.165 1.4 1.4 0 0 0-.435.455c.297.346.527.744.678 1.173.15.447.224.916.218 1.386q0 2.052-1.305 3.166t-3.712 1.114q-.101 0-.524-.012a24 24 0 0 0-.729-.013 2.14 2.14 0 0 0-1.14.245.83.83 0 0 0-.383.74q0 1.243 3.993 1.394l.471.024.259.014q2.737.1 3.934.849c.391.244.709.587.92.995s.306.864.276 1.32q0 1.94-1.957 3.198-1.958 1.26-5.069 1.26-2.47 0-3.986-.847-1.517-.846-1.516-2.216a2.4 2.4 0 0 1 .595-1.621 3.8 3.8 0 0 1 1.72-1.077 2.5 2.5 0 0 1-1.164-.875 2.42 2.42 0 0 1-.379-1.466 2.42 2.42 0 0 1 .571-1.404 3.54 3.54 0 0 1 1.65-1.005 3.68 3.68 0 0 1-1.989-1.31 3.7 3.7 0 0 1-.71-2.286 4.1 4.1 0 0 1 .338-1.764 4.1 4.1 0 0 1 1.063-1.453 5.3 5.3 0 0 1 3.654-1.241 6.8 6.8 0 0 1 2.079.298 4.3 4.3 0 0 1 1.568.867zm5.63-3.495a3.8 3.8 0 0 0-.513 1.928h-.002a3.82 3.82 0 0 0 1.93 3.34 3.9 3.9 0 0 0 1.966.518 3.9 3.9 0 0 0 1.968-.522 3.86 3.86 0 0 0 1.428-1.437A3.9 3.9 0 0 0 150 18.47a3.9 3.9 0 0 0-.513-1.911 3.7 3.7 0 0 0-1.418-1.402 4 4 0 0 0-3.919 0 3.7 3.7 0 0 0-1.421 1.402m.555 3.563a3.2 3.2 0 0 1-.439-1.637 3.17 3.17 0 0 1 .436-1.624 3.1 3.1 0 0 1 1.193-1.174 3.35 3.35 0 0 1 3.275.005c.495.277.906.682 1.187 1.172a3.28 3.28 0 0 1 0 3.25 3.16 3.16 0 0 1-1.187 1.18 3.33 3.33 0 0 1-3.272.008 3.16 3.16 0 0 1-1.193-1.18m2.018.49v-1.738h.965q.632.022.719.515.024.282.017.563-.019.338.076.662h.796v-.083a1.6 1.6 0 0 1-.093-.638v-.315a1.02 1.02 0 0 0-.675-1.05 1.04 1.04 0 0 0 .702-.967 1.14 1.14 0 0 0-.463-.98 2.2 2.2 0 0 0-1.303-.336h-1.514v4.367zm.856-2.397h-.856l.002-1.311h.757c.265-.024.53.03.763.156a.62.62 0 0 1 .212.53.52.52 0 0 1-.241.446c-.19.121-.411.184-.637.18" clip-rule="evenodd"/></svg>