<svg width="150" height="51" viewBox="0 0 150 51" fill="none" xmlns="http://www.w3.org/2000/svg">
<path d="M33.8486 38.6813C33.7532 38.0825 33.4797 37.5256 33.063 37.0811C32.5712 36.6268 32.8864 38.4731 32.0563 38.2855C31.5489 36.4417 31.3143 34.5387 30.7369 32.7134L29.8535 31.7892C29.6446 35.5499 31.3263 39.2693 26.8962 40.6081C24.1866 40.9357 23.5817 43.7535 22.3053 48.9206C23.3799 46.1703 23.6244 45.8917 24.1074 44.4231C26.3064 39.5252 30.7206 41.7617 32.4055 45.7058C34.9588 51.8112 34.2238 40.5997 33.8457 38.6803" fill="white"/>
<path d="M14.091 39.507C13.5087 37.8868 12.7631 35.132 12.7016 33.244L11.8221 34.3887C11.8411 34.4388 11.8495 34.4922 11.8468 34.5456C11.8468 34.6078 11.8387 34.6655 11.8338 34.7253C11.8325 34.7316 11.8333 34.738 11.8327 34.7445C11.8223 34.8738 11.8027 35.0025 11.774 35.1288C11.6555 35.9979 11.6291 36.8764 11.6952 37.7503C11.7567 38.5854 10.7839 37.3538 10.7765 37.1452C10.321 38.4563 9.55103 40.3473 9.56695 41.1068C9.60792 43.0749 9.2489 45.191 9.51359 47.1188C9.53125 47.1587 9.54891 47.1989 9.56731 47.2388C11.2242 46.2074 12.5574 42.2933 14.8186 43.0511C17.8575 44.6814 19.059 43.1316 21.6081 47.0414C20.212 42.3031 17.9395 43.553 14.091 39.507Z" fill="white"/>
<path d="M22.9374 41.4719C23.4587 40.8786 24.066 40.3648 24.7396 39.9476C25.3412 39.556 26.023 39.3008 26.7361 39.2007C26.8729 39.1773 27.0025 39.1234 27.1149 39.0429C27.2274 38.9624 27.3197 38.8574 27.3849 38.7363C27.8619 38.0023 27.7736 37.0206 28.2926 36.337C29.4485 34.8103 29.0927 29.0206 28.7276 29.7169C27.5658 30.877 25.1746 31.3013 23.5841 32.0779C23.1883 32.2709 23.1141 33.0982 22.7664 33.2859C22.2031 33.5729 21.6672 33.9098 21.1653 34.2926C20.7618 36.5071 21.9714 36.1046 21.7696 36.91C21.4929 38.0156 19.3384 37.9057 19.8229 38.2232C20.9062 38.9197 21.6735 40.0054 21.9629 41.251C22.0229 41.4908 21.9799 41.8492 22.2855 41.9104C22.5781 41.9682 22.7654 41.6682 22.9374 41.4719Z" fill="white"/>
<path d="M18.0575 23.4382C18.2395 23.9831 19.0116 23.9604 19.2847 23.8926C19.5748 23.8138 19.8714 23.7606 20.171 23.7336C20.171 23.7336 19.671 23.2568 19.3985 22.9394C19.1261 22.6221 18.3759 21.5549 18.3759 21.5549C18.3759 21.5549 18.1031 21.6685 18.0349 21.8272C17.9893 21.9862 18.3074 22.1904 18.2169 22.4627C18.1487 22.7576 17.8533 22.9167 18.0575 23.4382Z" fill="white"/>
<path d="M14.149 6.15139C13.4186 6.27442 12.5988 7.29435 12.0012 8.38839C11.8525 8.99098 12.2044 9.81481 11.7659 10.3087C11.5857 11.0585 11.1652 11.4751 11.7723 11.1067C11.9168 11.9204 10.3076 13.9054 11.7154 12.1756C12.1292 12.0074 12.1867 12.5282 12.0967 13.3762C11.8833 13.3733 11.6721 13.4186 11.4791 13.5086C11.2861 13.5986 11.1164 13.731 10.9829 13.8956C10.95 13.9306 10.9235 13.9603 10.8934 13.9928L10.6507 14.5374C11.0821 14.3087 11.5164 14.0854 11.9443 13.8516C11.8928 15.0334 11.6864 16.2036 11.3306 17.3329C11.1715 17.9002 11.6235 18.5426 11.6913 19.1323C11.8507 20.4955 11.8811 20.2309 12.5627 21.3658C13.5709 21.7688 15.8755 21.3728 16.8299 20.3522C17.4204 19.7167 18.8748 19.4672 18.8748 19.4672C18.5568 19.7621 18.2056 20.8419 18.6657 21.4815C18.8172 21.6912 19.0625 21.2802 19.472 21.2802C19.6905 21.2652 19.9097 21.2931 20.1172 21.3622C20.3247 21.4313 20.5164 21.5403 20.6812 21.6828C21.2862 22.0855 21.6894 21.8842 21.8911 21.6828C22.0957 21.5696 22.2611 21.1935 22.7392 21.1236C23.5124 20.9873 23.83 21.305 23.7166 21.4186C23.5398 21.5954 23.3074 21.7074 23.0576 21.736C22.8548 21.7767 22.6501 21.807 22.4441 21.8268C22.3761 22.1443 22.3368 22.4671 22.3268 22.7916C22.3268 23.2229 22.5579 23.3704 22.5805 23.5972C22.5805 23.8468 22.6488 23.915 22.9438 23.915C23.2389 23.915 23.7848 23.8695 23.8979 23.9849C24.0109 24.1002 23.8071 24.2117 24.5113 24.189C25.3068 24.1663 25.4202 24.0754 25.3975 23.5762C25.3975 22.6912 25.4432 21.6926 24.7382 21.0572C24.4201 20.7618 24.1251 21.0572 24.0562 21.0345C24.0176 20.9018 24.0023 20.7636 24.0109 20.6258V20.6031C24.0141 20.4043 23.9912 20.2059 23.9431 20.0128C23.9043 19.8536 23.8429 19.7006 23.7608 19.5584C23.7608 19.5584 23.6929 19.4217 23.8975 19.4885C24.1021 19.579 24.8516 20.0103 25.1697 20.1239C26.0333 20.3508 27.2379 20.759 27.7379 21.3039C28.7379 22.2127 28.2379 23.2103 27.9425 23.4602C27.6245 23.7325 27.17 23.4375 27.0103 23.3924C26.8287 23.3225 26.4425 23.4375 26.5785 23.7552C26.9647 24.6175 27.1241 24.4815 27.3061 25.4574C27.4651 26.2963 27.3513 27.8405 27.2149 27.9541C27.0785 28.0677 27.0785 27.5228 26.7605 26.5473C26.6196 26.1008 26.3699 25.6954 26.0333 25.3669C25.991 25.3426 25.9528 25.3121 25.9198 25.2764C25.8579 25.2052 25.7812 25.148 25.6949 25.1088C25.6086 25.0696 25.5148 25.0492 25.4198 25.0492C25.2831 25.0719 25.3064 25.2764 25.1018 25.2764C24.9198 25.2764 24.4658 25.2991 24.329 25.2764C24.3088 25.1971 24.2783 25.1207 24.2382 25.0492C24.2359 24.9939 24.2143 24.941 24.1772 24.8996C24.14 24.8582 24.0895 24.8308 24.0343 24.822C23.8297 24.7311 21.3077 24.822 20.5123 24.981C20.3756 25.0261 20.2851 25.0488 20.1943 25.0715C19.8763 25.2079 19.8533 25.456 19.7851 25.4802C19.2312 25.5091 18.6758 25.494 18.1243 25.435C17.8962 25.3333 17.647 25.2865 17.3971 25.2988C17.1243 25.3215 16.5564 25.412 16.3292 24.9356C16.2071 24.6093 16.1758 24.2566 16.2384 23.9143C16.2384 23.9143 15.1702 25.1851 15.7154 26.002C16.2836 26.8192 16.8377 26.8643 17.1331 28.0901C17.4741 29.4288 18.7586 31.0796 20.3699 31.0111C21.7336 30.9433 21.7834 30.4494 22.729 30.7934C24.946 31.5973 26.7573 29.2554 26.8944 29.232C27.3669 29.2708 27.8371 29.1337 28.2128 28.8475C28.5558 28.5427 28.8342 28.1738 29.0322 27.7619C29.7128 26.3012 30.3199 24.7507 30.4181 23.2113C31.327 22.3267 31.7136 20.5549 31.6457 19.8072C31.6054 19.3317 31.5979 18.8539 31.6231 18.3773C31.8274 18.1955 32.4182 19.0809 32.532 19.4665C32.5498 19.3464 32.5572 19.225 32.5542 19.1036C32.532 18.7405 32.3273 18.4682 32.3273 18.082C32.3496 17.6276 31.7817 17.5828 31.486 17.6055C31.2365 17.6961 31.1227 17.4692 31.2135 17.2878C31.4637 16.6524 31.0771 16.3347 31.3499 15.6992C31.4266 15.4696 30.486 13.7236 30.1888 12.6509C30.5541 13.164 30.9906 13.6237 31.4853 14.0165C31.2464 13.5814 31.0712 13.1149 30.9648 12.631C30.9648 12.1504 31.3715 12.4286 31.6948 12.7135C30.7234 11.5181 29.4379 9.31883 31.7906 10.9487C30.1651 8.69037 29.5089 5.94307 26.6054 4.90564C26.0138 4.29363 27.2145 4.4198 27.5089 4.69347C34.3807 7.75153 30.2047 2.04963 26.0018 4.45582C24.2085 5.06678 22.3191 4.45092 20.918 5.95879C18.655 5.52468 16.3808 6.47154 14.149 6.15139Z" fill="white"/>
<path d="M12.0627 5.60336C12.1668 5.3843 12.3226 5.1932 12.517 5.04616C12.7114 4.89913 12.9387 4.8005 13.1797 4.75853C13.3445 4.72231 13.5112 4.69511 13.679 4.67712C11.7355 3.91339 15.1589 3.20173 16.0706 3.19509C17.802 2.62291 20.088 4.16154 21.5123 3.62572C21.259 3.28038 20.629 2.58865 21.3484 2.37229C23.3198 3.2255 23.7177 2.24192 25.3379 2.517C26.2365 2.62186 24.7612 1.84485 23.335 1.14963C22.8751 1.04546 22.4085 0.973053 21.9385 0.932922C21.8053 0.921736 21.7703 0.70223 21.8304 0.593873C21.4323 0.560676 21.0377 0.494379 20.6509 0.395689C20.6215 0.382095 20.5967 0.360441 20.5794 0.333299C20.5621 0.306158 20.5531 0.274675 20.5533 0.242596C18.6283 0.148742 16.7093 0.521549 14.9631 1.32859C13.8916 1.84741 12.8576 2.43871 11.8684 3.09827C11.8963 3.76971 11.0959 4.47192 10.6351 4.91932C10.1585 5.80783 9.65527 7.05324 9.80476 8.04973C10.3566 7.0727 11.1292 6.23564 12.0627 5.60336Z" fill="white"/>
<path fill-rule="evenodd" clip-rule="evenodd" d="M42.432 40.8167C41.6076 39.3365 39.5505 39.3166 38.1423 38.6827C36.371 38.1129 34.6581 37.1147 33.0154 36.2117C32.669 35.979 32.4061 35.6437 32.2645 35.2538C31.8517 34.2813 31.81 33.0434 30.7369 32.7134C31.3143 34.5387 31.5489 36.4417 32.0563 38.2855C32.8864 38.4731 32.5712 36.6268 33.063 37.0811C33.4797 37.5256 33.7532 38.0825 33.8486 38.6813C34.2263 40.5993 34.962 51.8133 32.409 45.7079C30.7249 41.7634 26.3103 39.5262 24.111 44.4252C23.6269 45.8931 23.3823 46.1727 22.3088 48.9227C23.5852 43.7563 24.1898 40.9371 26.8997 40.6091C31.3298 39.2704 29.6485 35.5502 29.8574 31.7899L29.4736 29.3823L29.3213 28.829L29.3676 28.7174L29.286 28.205L29.3291 28.0911C30.0153 26.7701 30.5488 25.3766 30.9192 23.9373L31.0782 23.3469C31.1238 23.371 31.1637 23.3892 31.2023 23.406C31.5277 23.5458 31.6178 23.4409 31.7598 23.2791C31.9046 22.7598 32.0868 22.2514 32.3051 21.7579C32.6887 20.9964 32.9269 20.1715 33.0079 19.3245C33.0108 19.2423 33.0139 19.1595 33.0079 19.0798V18.9096C33.0079 18.4874 33.0104 18.1934 33.0305 17.6513C33.0528 17.185 32.9196 16.7009 32.2966 16.8289C32.2828 16.8316 32.2722 16.8306 32.2581 16.8341L32.3263 16.2895C32.3772 15.7652 32.4348 15.206 32.4726 14.6499C32.3687 14.5974 32.2673 14.5411 32.1676 14.4824C32.2432 14.4452 32.3073 14.3885 32.3531 14.3183C32.3989 14.2482 32.4248 14.1671 32.4281 14.0836C32.4125 13.8233 32.3585 13.5667 32.2677 13.322C32.3737 13.4027 32.4443 13.4223 32.4563 13.3538C32.4422 13.1993 32.4341 13.0441 32.4295 12.8878L32.4061 12.6488L32.4267 12.4551C32.4436 11.5114 32.5931 10.5428 32.7044 9.59249V6.56902C32.7026 6.561 32.7012 6.5526 32.6995 6.54455C32.5475 5.78956 32.1783 5.09408 31.6362 4.54174C30.6581 3.44142 29.0322 3.58995 28.2707 2.30858C26.5937 0.618251 24.0594 0.433346 21.7936 0.190422C21.4288 0.160379 21.0675 0.0985044 20.7137 0.00551989C20.6254 -0.0213941 20.5724 0.0541048 20.5565 0.145333C20.5395 0.245998 20.5689 0.365887 20.653 0.390005C21.0398 0.488691 21.4344 0.554873 21.8325 0.587839C21.7728 0.696196 21.8078 0.916049 21.9406 0.927235C22.4106 0.967369 22.8773 1.03978 23.3371 1.14394C24.7615 1.83951 26.2368 2.61827 25.3379 2.51131C23.7177 2.23658 23.3194 3.22016 21.3484 2.36626C20.63 2.58262 21.259 3.27504 21.5123 3.62002C20.0894 4.15937 17.8042 2.62142 16.0716 3.19185C15.1603 3.19814 11.738 3.91013 13.6801 4.67387C13.5122 4.69193 13.3455 4.71909 13.1808 4.75531C12.9397 4.79728 12.7124 4.89594 12.518 5.04305C12.3236 5.19015 12.1678 5.38132 12.0638 5.60049C11.1301 6.23266 10.3572 7.07011 9.80546 8.04721C9.65597 7.05069 10.1588 5.80531 10.6359 4.9168C11.1277 4.43863 12.0065 3.6707 11.8518 2.95941V2.94963C11.8394 2.92516 11.8164 2.90873 11.8097 2.87972C11.807 2.86183 11.8029 2.84418 11.7974 2.82694V2.82274C11.7949 2.8182 11.7903 2.80807 11.7903 2.80807C11.7861 2.80014 11.7815 2.79244 11.7765 2.785C11.7648 2.77451 11.7659 2.77311 11.7712 2.77801C11.7641 2.77031 11.7574 2.76228 11.75 2.75529L11.661 2.79618C11.6422 2.80631 11.6279 2.82302 11.621 2.84302C10.3844 3.79589 9.40409 5.03552 8.76692 6.45229C7.84818 9.31074 9.28601 11.9854 9.67013 14.9616C9.80157 14.8718 9.90616 14.8019 10.0012 14.7394L9.91957 14.9389C9.83795 14.9854 9.75526 15.0305 9.67504 15.0787C9.8038 15.6945 9.88646 16.3188 9.9224 16.9466C9.42241 17.0372 9.33159 17.0599 9.3542 17.5594C9.39945 18.2179 9.78636 18.8984 9.83161 19.7156C9.89084 20.5942 10.1306 21.4516 10.5362 22.2354C10.8768 22.8254 11.0818 23.7335 11.4903 24.233C11.7405 24.5731 11.9903 24.528 12.3539 24.5053C12.8536 25.7765 12.8228 26.4458 13.5044 27.6489L13.908 28.1033V31.476C13.849 32.0642 13.0712 32.1027 12.6981 32.8856C12.696 33.0017 12.6981 33.123 12.7013 33.2474C12.7631 35.1348 13.5087 37.891 14.091 39.5112C17.9395 43.5568 20.212 42.3073 21.6095 47.0449C19.059 43.1347 17.8593 44.6849 14.82 43.0539C12.5585 42.2961 11.2256 46.2105 9.56868 47.2423C9.55598 47.2504 9.5436 47.2595 9.5309 47.2668C9.52382 47.2192 9.52134 47.1699 9.51462 47.1216C9.25102 45.1945 9.60934 43.078 9.56833 41.1096C9.55245 40.3505 10.3224 38.4591 10.7779 37.148C10.7839 37.3576 11.7571 38.5886 11.6967 37.7531C11.6306 36.8792 11.6569 36.0003 11.7751 35.1316C11.804 35.0053 11.8236 34.8767 11.8338 34.7473C11.8338 34.741 11.8355 34.7347 11.8366 34.728C11.8415 34.6686 11.8479 34.6106 11.8496 34.5484C11.8523 34.4948 11.8439 34.4413 11.8249 34.3911C11.6836 34.0394 10.9231 34.7123 10.9037 34.8507C10.6479 35.4837 9.60722 35.7511 9.05207 35.8771C8.74113 35.9471 8.61428 36.3482 8.6422 36.6958C8.1231 36.8641 7.54074 37.0822 7.45947 37.1137C4.50818 38.2438 2.41876 40.3333 0 41.7428C0.403186 42.951 4.34072 40.838 6.31212 40.1629C6.76937 40.0064 7.69023 39.4713 7.97998 40.138C8.06698 40.4135 8.0764 40.7075 8.00719 40.9878C7.71029 43.0903 7.88402 45.2316 8.51602 47.2605C8.59723 47.5857 8.74689 47.8905 8.95526 48.1548C10.1496 49.4932 12.4687 47.2598 13.4857 46.6235C14.1875 46.1846 15.0197 45.8546 15.8324 46.0131C16.2914 46.1293 16.7273 46.3215 17.1218 46.5812C18.3233 47.2805 19.6876 46.3001 20.56 47.3799C20.8364 47.7222 20.9399 49.8022 21.2668 50.0959C22.6007 51.2918 23.8866 48.6402 24.6198 47.6721C25.2513 46.8374 25.8898 45.8196 26.7859 45.2396C27.5926 44.7153 28.405 44.793 29.2471 45.2046C29.8804 45.5431 30.4691 45.9575 30.9998 46.4387C31.5256 46.8843 32.4652 48.2472 33.08 48.4176C35.1475 48.9902 35.0465 44.6037 34.9055 43.1435C35.1327 42.2051 33.6613 38.1801 35.0998 38.5214C35.4709 38.6372 35.8421 38.766 36.209 38.9004C37.6225 39.4198 39.0279 40.0474 40.4715 40.5202C40.969 40.6949 42.7013 42.0623 42.4303 40.8149M17.1353 28.0907C16.8398 26.8649 16.2872 26.8199 15.7179 26.0026C15.1727 25.1855 16.2405 23.9145 16.2405 23.9145C16.1781 24.2569 16.2095 24.6096 16.3313 24.9359C16.5586 25.4126 17.1264 25.3203 17.3992 25.299C17.6492 25.2869 17.8986 25.3336 18.1268 25.4354C18.6775 25.4945 19.2319 25.5091 19.7851 25.4802C19.8533 25.456 19.8763 25.2079 20.1943 25.0715C20.2851 25.0488 20.3756 25.0261 20.5123 24.981C21.3077 24.822 23.8297 24.7311 24.0343 24.822C24.1707 24.8447 24.2156 24.9352 24.2382 25.0492C24.2783 25.1207 24.3088 25.1971 24.329 25.2764C24.4658 25.2991 24.9198 25.2764 25.1018 25.2764C25.3064 25.2764 25.2831 25.0719 25.4198 25.0492C25.5148 25.0492 25.6086 25.0696 25.6949 25.1088C25.7812 25.148 25.8579 25.2052 25.9198 25.2764C25.9528 25.3121 25.991 25.3426 26.0333 25.3669C26.3699 25.6954 26.6196 26.1008 26.7605 26.5473C27.0785 27.5228 27.0785 28.0677 27.2149 27.9541C27.3513 27.8405 27.4651 26.2963 27.3061 25.4574C27.1241 24.4815 26.9647 24.6175 26.5785 23.7552C26.4425 23.4375 26.8287 23.3225 27.0103 23.3924C27.17 23.4375 27.6245 23.7325 27.9425 23.4602C28.2379 23.2103 28.7379 22.2127 27.7379 21.3039C27.2379 20.759 26.0333 20.3508 25.1697 20.1239C24.8516 20.0103 24.1021 19.579 23.8975 19.4885C23.6929 19.4217 23.7608 19.5584 23.7608 19.5584C23.8429 19.7006 23.9043 19.8536 23.9431 20.0128C23.9912 20.2059 24.0141 20.4043 24.0109 20.6031L24.0117 20.6223C24.0031 20.7602 24.0185 20.8985 24.0573 21.0313C24.1254 21.0536 24.4205 20.7586 24.7393 21.0536C25.4439 21.6891 25.3983 22.688 25.3983 23.5734C25.4213 24.0725 25.3075 24.1634 24.512 24.1861C23.8074 24.2089 24.012 24.0952 23.899 23.9817C23.7859 23.8681 23.2385 23.915 22.9438 23.915C22.6488 23.915 22.5805 23.8468 22.5805 23.5972C22.5579 23.3704 22.3268 23.2229 22.3268 22.7916C22.3368 22.4671 22.3761 22.1443 22.4441 21.8268C22.6501 21.807 22.8548 21.7767 23.0576 21.736C23.3074 21.7074 23.5398 21.5954 23.7166 21.4186C23.83 21.305 23.5124 20.9873 22.7392 21.1236C22.2621 21.1914 22.0964 21.5689 21.8911 21.6828C21.6897 21.8845 21.2876 22.0844 20.6827 21.6814C20.5177 21.5388 20.3248 21.4313 20.1172 21.3622C19.9097 21.2931 19.6905 21.2652 19.472 21.2802C19.0625 21.2802 18.8172 21.6912 18.6657 21.4815C18.2063 20.8419 18.5582 19.7607 18.8762 19.4654C18.8762 19.4654 17.4204 19.7167 16.8299 20.3522C15.8759 21.3735 13.5719 21.7677 12.5642 21.3644C11.8822 20.2298 11.8518 20.4926 11.6928 19.1305C11.6245 18.5405 11.1726 17.8981 11.3316 17.3308C11.6876 16.2013 11.894 15.031 11.9458 13.8491C11.5178 14.0829 11.0832 14.3063 10.6521 14.5348L10.8941 13.9903C10.9238 13.9578 10.9503 13.9298 10.9832 13.8931C11.1169 13.7287 11.2868 13.5966 11.4798 13.5068C11.6728 13.4169 11.8833 13.3732 12.0967 13.3762C12.1867 12.5282 12.1292 12.0074 11.7154 12.1756C10.3076 13.9054 11.9168 11.9204 11.7723 11.1067C11.1652 11.4744 11.5861 11.0567 11.7666 10.3069C12.2051 9.81268 11.8528 8.9892 12.0016 8.3845C12.5995 7.28977 13.4193 6.26983 14.1493 6.14751C16.3812 6.4687 18.6551 5.5208 20.9205 5.95455C22.3215 4.44668 24.211 5.06324 26.0039 4.45155C30.2068 2.04504 34.3829 7.74764 27.5114 4.68923C27.2167 4.41557 26.016 4.28904 26.6078 4.9014C29.5114 5.93884 30.1669 8.68683 31.7927 10.9452C29.4404 9.31494 30.7259 11.5146 31.6973 12.7103C31.374 12.4254 30.9655 12.1472 30.9669 12.6278C31.073 13.1127 31.2483 13.5801 31.4874 14.0161C30.9928 13.6232 30.5563 13.1635 30.1909 12.6505C30.4884 13.7233 31.4277 15.4692 31.3524 15.6992C31.0796 16.3346 31.4659 16.6523 31.216 17.2878C31.1249 17.4695 31.2387 17.6967 31.4885 17.6059C31.7839 17.5831 32.3521 17.6286 32.3295 18.0823C32.3295 18.4667 32.5341 18.7408 32.5563 19.1039C32.5594 19.2253 32.5519 19.3466 32.5341 19.4668C32.4203 19.0823 31.8295 18.1958 31.6252 18.3773C31.6 18.854 31.6076 19.3318 31.6478 19.8076C31.7157 20.5566 31.3298 22.3273 30.4203 23.2123C30.3224 24.7503 29.7135 26.3026 29.0344 27.7632C28.8367 28.1754 28.5582 28.5446 28.2149 28.8492C27.8391 29.1352 27.3691 29.2723 26.8965 29.2337C26.7601 29.2558 24.9474 31.6001 22.7318 30.7937C21.7841 30.4497 21.7364 30.9436 20.3727 31.0118C18.7593 31.0796 17.4748 29.4298 17.1353 28.0907ZM18.036 21.8254C18.1038 21.6663 18.3766 21.5531 18.3766 21.5531C18.3766 21.5531 19.1264 22.6199 19.3992 22.9376C19.672 23.2553 20.171 23.7336 20.171 23.7336C19.8714 23.7606 19.5748 23.8138 19.2847 23.8926C19.0116 23.9604 18.2395 23.9831 18.0575 23.4382C17.8533 22.9167 18.1487 22.7576 18.2169 22.4627C18.3077 22.1904 17.9904 21.9841 18.036 21.8254ZM21.9629 41.251C21.6735 40.0054 20.9062 38.9197 19.8229 38.2232C19.3384 37.9057 21.4929 38.0156 21.7696 36.91C21.9714 36.1046 20.7618 36.5071 21.1653 34.2926C21.6672 33.9098 22.2031 33.5729 22.7664 33.2859C23.1141 33.0982 23.1883 32.2709 23.5841 32.0779C25.1746 31.3013 27.5658 30.877 28.7276 29.7169C29.0927 29.0206 29.4485 34.8103 28.2926 36.337C27.7736 37.0206 27.8619 38.0023 27.3849 38.7363C27.3197 38.8574 27.2274 38.9624 27.1149 39.0429C27.0025 39.1234 26.8729 39.1773 26.7361 39.2007C26.023 39.3008 25.3412 39.556 24.7396 39.9476C24.066 40.3648 23.4587 40.8786 22.9374 41.4719C22.7654 41.6682 22.5781 41.9682 22.2855 41.9104C21.9799 41.8492 22.0229 41.4908 21.9629 41.251Z" fill="#090C21"/>
<path fill-rule="evenodd" clip-rule="evenodd" d="M23.6276 26.9161C24.4234 26.2132 23.5141 26.3719 22.4452 26.3491C21.3763 26.3264 20.1714 26.3946 19.6258 26.3267C19.19 26.2617 18.7632 26.1476 18.3536 25.9866C17.9674 25.8734 18.7399 26.735 19.0583 26.9846C19.3221 27.237 19.6365 27.4319 19.9811 27.5569C20.3258 27.6818 20.6931 27.7339 21.0593 27.7098C22.3551 27.7098 22.8318 27.642 23.6276 26.9161Z" fill="#090C21"/>
<path fill-rule="evenodd" clip-rule="evenodd" d="M19.3112 13.5706C18.743 13.752 18.4473 13.4343 16.3101 13.4343C14.173 13.4343 13.1726 14.7041 13.1726 14.7041C13.0623 14.8345 12.991 14.9929 12.9669 15.1613C12.9428 15.3297 12.9668 15.5014 13.0362 15.657C13.1041 15.8611 12.8769 16.4259 12.9907 16.405C13.3087 16.3148 14.3094 14.931 15.9236 14.7499C17.5603 14.5682 18.1063 14.9086 18.1063 14.9086C17.2715 14.8667 16.4367 14.9901 15.6508 15.2714C14.6591 15.6427 13.8465 16.372 13.3769 17.3123C13.3316 17.5165 13.6044 17.5846 13.8772 17.5392C14.15 17.4714 14.4684 16.8814 14.5592 16.8814C14.9953 16.8898 15.4308 16.8441 15.8554 16.7454C16.5829 16.5413 18.4247 16.6318 18.4247 16.6318C18.4247 16.6318 17.8565 16.7681 17.3109 16.9495C16.6126 17.1841 15.8867 17.329 15.1511 17.3805C14.4444 17.3805 14.5596 17.6074 14.5596 17.6074C14.5596 17.6074 16.7423 17.902 18.425 17.2673C20.1077 16.6325 19.8346 14.9083 19.971 14.4539C20.1077 14.0229 19.8802 13.3888 19.3112 13.5706Z" fill="#090C21"/>
<path fill-rule="evenodd" clip-rule="evenodd" d="M27.899 15.9317C27.3764 15.4329 26.4668 14.7083 25.6022 14.594C24.7156 14.4804 23.1014 15.0704 23.1014 15.0704C23.1224 14.9163 23.1837 14.7704 23.2794 14.647C23.3751 14.5236 23.5017 14.4271 23.6466 14.3672C24.1696 14.1176 25.4658 14.1176 25.9658 14.1858C26.1478 14.2081 26.4209 14.2532 26.7163 14.2759H26.7389C27.5121 14.3668 28.2849 15.1375 28.5581 15.1148C28.8308 15.0697 28.6944 14.7062 28.6944 14.7062C28.5748 14.2432 28.3312 13.8206 27.9895 13.4829C27.694 13.2333 27.0354 13.1878 26.5573 13.1878C26.3527 13.1878 26.1711 13.2106 25.9661 13.2106C25.731 13.2269 25.4947 13.2193 25.2612 13.1878C24.5872 13.054 23.8946 13.0388 23.2152 13.1428C21.9643 13.3469 22.3964 15.2969 22.3964 15.2969C22.3461 15.4946 22.3748 15.7039 22.4763 15.8813C22.578 16.0586 22.7447 16.1905 22.942 16.2494C23.3968 16.3857 22.8968 16.839 23.3968 17.2473C23.9202 17.6783 26.9658 17.4514 26.9658 17.4514C26.778 17.2505 26.5641 17.0752 26.3297 16.9299C26.0569 16.7712 25.2608 16.8167 24.7152 16.7485C24.3217 16.69 23.9339 16.599 23.5558 16.4762C23.751 16.4427 23.9498 16.4351 24.147 16.4535C24.5792 16.4989 25.693 16.5898 26.1022 16.3857C26.3322 16.284 26.5122 16.0964 26.6029 15.8639C26.886 15.9919 27.1532 16.152 27.399 16.341C27.7253 16.6143 28.1163 16.8015 28.5354 16.8852C28.6722 16.8397 28.4446 16.4081 27.899 15.9317Z" fill="#090C21"/>
<path fill-rule="evenodd" clip-rule="evenodd" d="M54.3301 30.5246V13.9755H55.8526C58.5916 13.976 60.5386 14.6138 61.6946 15.889C62.8505 17.1642 63.4283 19.2703 63.4283 22.2075C63.4772 23.8317 63.2192 25.4506 62.6676 26.9812C62.2508 28.1379 61.4437 29.1173 60.3826 29.7546C59.8873 30.0459 59.3434 30.2474 58.7766 30.3496C57.9157 30.4854 57.0439 30.544 56.1724 30.5246H54.3301ZM50.0492 13.0067C49.6108 12.9937 49.2035 12.9748 48.8278 12.95V13.9755C49.775 13.9923 50.374 14.1189 50.6255 14.3553C50.8771 14.5917 51.0027 15.191 51.0027 16.1532V28.3721C51.0024 29.3255 50.8768 29.9269 50.6255 30.1763C50.3743 30.4258 49.775 30.5505 48.8278 30.5505V31.5627C49.3911 31.53 49.9586 31.5049 50.53 31.4874C51.1014 31.4699 51.6902 31.4612 52.296 31.4612C52.8674 31.4612 53.7077 31.4781 54.8166 31.5119C55.9255 31.5458 56.7442 31.5627 57.2728 31.5627C60.4293 31.5627 62.8604 30.761 64.5669 29.1575C66.2734 27.554 67.1265 25.2706 67.1265 22.3073C67.1265 19.3778 66.2264 17.0859 64.4265 15.4315C62.6266 13.7772 60.1356 12.95 56.9537 12.95C56.3395 12.9491 55.4864 12.9615 54.3941 12.9871C53.3019 13.0128 52.5128 13.0256 52.0267 13.0256C51.1467 13.0261 50.4876 13.0198 50.0492 13.0067ZM69.9231 20.4204C70.145 20.5888 70.2557 21.0035 70.2557 21.6615V28.9184C70.2557 29.6777 70.1531 30.1418 69.9482 30.3107C69.7434 30.4797 69.1465 30.6065 68.1575 30.6912V31.5662C69.3605 31.5154 70.1874 31.4808 70.6396 31.4647C71.0918 31.4486 71.4329 31.4395 71.6636 31.4395C72.1575 31.4395 72.7481 31.45 73.4352 31.471C74.1223 31.492 74.9906 31.5237 76.0397 31.5662V30.6912C74.709 30.6553 73.9008 30.5386 73.6149 30.3412C73.329 30.1438 73.1861 29.6691 73.1861 28.917V25.5483C73.1451 24.1336 73.4709 22.732 74.1333 21.4774C74.7642 20.3507 75.4976 19.7873 76.3341 19.7873H76.3599C76.2612 19.9882 76.1819 20.198 76.1232 20.4138C76.0676 20.6183 76.0397 20.8292 76.0397 21.041C76.0103 21.4452 76.1412 21.8448 76.4048 22.155C76.5442 22.2877 76.7098 22.39 76.8917 22.4554C77.0732 22.5208 77.2668 22.5479 77.4596 22.5348C77.6457 22.5417 77.8307 22.5072 78.0013 22.4336C78.1718 22.36 78.3236 22.2494 78.445 22.1099C78.705 21.7905 78.8367 21.3875 78.8154 20.978C78.8282 20.6922 78.7801 20.4069 78.6746 20.1406C78.5688 19.8743 78.4078 19.6329 78.2019 19.432C77.7472 19.0279 77.1493 18.8188 76.5389 18.8507C76.1678 18.8591 75.8019 18.9401 75.4626 19.0889C75.1233 19.2378 74.8169 19.4515 74.5614 19.718C73.8746 20.4174 73.3528 21.2581 73.0325 22.1802V18.8507C72.2386 18.9617 71.4322 19.0484 70.6138 19.1107C69.7954 19.173 68.9678 19.217 68.1317 19.2427V20.1548C69.104 20.1632 69.7013 20.2521 69.9231 20.4204ZM79.5705 28.2205C79.7867 28.2124 80.0018 28.2504 80.2017 28.3321C80.4016 28.4137 80.5814 28.5371 80.7286 28.6937C81.0339 29.042 81.1917 29.4933 81.1694 29.9537C81.1903 30.4176 81.0329 30.8721 80.7286 31.2256C80.5835 31.3858 80.4045 31.5124 80.2042 31.5967C80.0043 31.6809 79.7877 31.7207 79.5705 31.7132C79.3511 31.7201 79.1332 31.6801 78.9308 31.596C78.7288 31.5119 78.5472 31.3855 78.399 31.2256C78.0873 30.8756 77.9249 30.4197 77.9454 29.9537C77.927 29.4943 78.0922 29.0462 78.4054 28.7063C78.5529 28.5473 78.733 28.4215 78.934 28.3374C79.1349 28.2533 79.3525 28.2144 79.5705 28.2205ZM93.0625 30.499V22.5607L94.74 22.5589C96.421 22.5582 97.6152 22.8703 98.3228 23.4952C99.0305 24.1201 99.3843 25.1584 99.3843 26.6102C99.3847 28.031 99.0457 29.0343 98.3671 29.6202C97.6884 30.2061 96.5007 30.499 94.8037 30.499H93.0625ZM93.0625 21.5219V14.0137H94.7149C96.3103 14.0128 97.4001 14.2911 97.9842 14.8488C98.5684 15.4065 98.8607 16.3772 98.8607 17.7611C98.861 19.0956 98.5627 20.056 97.9651 20.6423C97.3675 21.2287 96.3821 21.5219 95.0086 21.5219H93.0625ZM89.2108 13.0067C88.6733 12.9937 88.1316 12.9748 87.586 12.95L87.5867 13.9755C88.5078 14.0007 89.1022 14.1096 89.3658 14.3045C89.6294 14.4995 89.7624 15.0315 89.7624 15.8995V28.3714C89.7628 29.3248 89.6368 29.9262 89.3849 30.1756C89.133 30.4251 88.5336 30.5498 87.5867 30.5498L87.5995 31.562C88.2226 31.5361 88.8283 31.5171 89.4164 31.5049C90.0044 31.4928 90.5589 31.4867 91.0793 31.4867C91.4385 31.487 92.1189 31.4996 93.1209 31.5245C94.1229 31.5495 94.9438 31.562 95.5839 31.562C98.1434 31.5627 100.005 31.183 101.169 30.4231C102.333 29.6631 102.915 28.4599 102.915 26.8135C102.915 25.3783 102.44 24.2599 101.489 23.4584C100.538 22.6569 99.1458 22.2012 97.3116 22.0913V22.0154C98.873 21.9048 100.067 21.4637 100.894 20.692C101.315 20.2821 101.643 19.7887 101.857 19.2441C102.071 18.6996 102.166 18.1164 102.136 17.5329C102.136 15.971 101.607 14.8167 100.549 14.07C99.4901 13.3234 97.8523 12.95 95.6348 12.95C95.5765 12.9491 95.0114 12.9615 93.9397 12.9871C92.8679 13.0128 91.8252 13.0256 90.8108 13.0256C90.2818 13.0261 89.7483 13.0198 89.2108 13.0067ZM107.633 24.0412L113.724 23.89C113.724 22.5481 113.475 21.5243 112.975 20.8187C112.735 20.4743 112.41 20.1964 112.03 20.0114C111.651 19.8264 111.23 19.7404 110.807 19.7617C110.367 19.753 109.931 19.8526 109.539 20.0515C109.147 20.2504 108.811 20.5424 108.561 20.9013C107.995 21.6615 107.685 22.7082 107.633 24.0412ZM107.646 24.9284C107.654 26.7174 108.004 28.0763 108.696 29.0052C109.041 29.4654 109.497 29.8334 110.022 30.0765C110.547 30.3195 111.125 30.43 111.703 30.3979C112.559 30.4194 113.401 30.1807 114.116 29.714C114.822 29.2218 115.36 28.5283 115.658 27.726L116.401 27.9545C116.092 29.114 115.381 30.1292 114.392 30.8221C113.291 31.5076 112.006 31.8453 110.706 31.7902C108.77 31.7902 107.251 31.2228 106.151 30.0881C105.05 28.9534 104.5 27.3812 104.5 25.3715C104.5 23.4129 105.073 21.8365 106.221 20.6423C107.368 19.4481 108.881 18.8509 110.757 18.8507C112.506 18.8507 113.884 19.3657 114.891 20.3956C115.898 21.4255 116.401 22.8394 116.4 24.6372V24.8262L107.646 24.9284ZM118.742 20.4204C118.964 20.5888 119.074 21.0035 119.074 21.6615L119.073 28.9181C119.072 29.6774 118.97 30.1414 118.765 30.3104C118.561 30.4793 117.964 30.6061 116.975 30.6908V31.5658C118.178 31.5151 119.005 31.4804 119.457 31.4643C119.909 31.4482 120.25 31.4391 120.48 31.4391C120.974 31.4391 121.565 31.4496 122.253 31.4706C122.94 31.4916 123.808 31.5234 124.856 31.5658V30.6908C123.525 30.6549 122.717 30.5382 122.431 30.3408C122.146 30.1434 122.003 29.6687 122.003 28.9167V25.5479C121.962 24.1332 122.288 22.7317 122.95 21.4771C123.581 20.3503 124.315 19.7869 125.151 19.7869H125.177C125.078 19.988 124.999 20.1978 124.94 20.4134C124.884 20.6181 124.856 20.8289 124.856 21.0406C124.827 21.4448 124.958 21.8444 125.221 22.1547C125.361 22.2874 125.527 22.3897 125.709 22.4552C125.891 22.5207 126.084 22.5478 126.277 22.5348C126.464 22.5419 126.649 22.5074 126.819 22.4338C126.99 22.3603 127.141 22.2495 127.263 22.1099C127.523 21.7905 127.655 21.3875 127.633 20.978C127.646 20.6922 127.598 20.4069 127.492 20.1406C127.387 19.8742 127.226 19.6328 127.02 19.432C126.565 19.0279 125.967 18.8188 125.357 18.8507C124.986 18.8591 124.62 18.9401 124.281 19.089C123.942 19.2378 123.636 19.4516 123.38 19.718C122.694 20.4173 122.171 21.258 121.851 22.1802V18.8507C121.058 18.9617 120.251 19.0484 119.432 19.1107C118.613 19.173 117.786 19.217 116.95 19.2427V20.1548C117.923 20.1632 118.52 20.2521 118.742 20.4204ZM133.477 19.7621C133.129 19.7382 132.78 19.8018 132.464 19.9468C132.147 20.0918 131.873 20.3136 131.666 20.5916C131.27 21.145 131.072 21.9826 131.071 23.1042C131.071 24.2611 131.268 25.1178 131.66 25.6743C131.866 25.9552 132.141 26.1795 132.459 26.3259C132.777 26.4724 133.127 26.5361 133.477 26.5111C133.83 26.5346 134.183 26.4696 134.504 26.3223C134.825 26.175 135.104 25.9501 135.313 25.6683C135.718 25.1083 135.921 24.2621 135.922 23.1298C135.922 22.0072 135.719 21.1652 135.313 20.6038C135.103 20.3227 134.825 20.0984 134.504 19.9516C134.183 19.8048 133.83 19.7385 133.477 19.7621ZM131.097 32.1853C130.667 32.3343 130.289 32.6026 130.01 32.9581C129.756 33.289 129.62 33.6942 129.626 34.1096C129.62 34.4774 129.717 34.8394 129.907 35.1558C130.097 35.4722 130.371 35.7301 130.7 35.9016C131.417 36.3269 132.424 36.54 133.72 36.5411C134.891 36.5897 136.056 36.3437 137.105 35.8257C137.971 35.3472 138.404 34.7431 138.404 34.0074C138.404 33.1051 137.137 32.5862 134.604 32.4506C133.17 32.375 132.001 32.2866 131.097 32.1853ZM137.099 20.055C137.444 19.6153 137.864 19.2382 138.34 18.9403C138.743 18.7357 139.192 18.6355 139.645 18.6491C139.961 18.6224 140.279 18.6859 140.56 18.8321C140.654 18.9113 140.727 19.012 140.773 19.1254C140.818 19.2389 140.835 19.3617 140.822 19.4831C140.831 19.6012 140.816 19.7198 140.777 19.8319C140.739 19.944 140.677 20.0472 140.598 20.1355C140.511 20.2134 140.408 20.2732 140.297 20.3111C140.187 20.349 140.069 20.3645 139.952 20.3564C139.673 20.3496 139.398 20.2852 139.146 20.1674C138.973 20.078 138.787 20.014 138.595 19.9773C138.421 19.9842 138.252 20.0414 138.109 20.1418C137.931 20.259 137.783 20.4146 137.674 20.5968C137.971 20.9433 138.201 21.3411 138.352 21.77C138.502 22.217 138.576 22.6855 138.57 23.1564C138.57 24.5242 138.135 25.5794 137.265 26.3221C136.395 27.0648 135.158 27.4363 133.553 27.4365C133.486 27.4365 133.31 27.4327 133.029 27.4239C132.748 27.4152 132.504 27.411 132.3 27.411C131.904 27.3857 131.509 27.4706 131.16 27.656C131.036 27.7349 130.934 27.845 130.867 27.9752C130.8 28.1054 130.769 28.2509 130.777 28.3969C130.777 29.2246 132.108 29.689 134.77 29.7903C134.953 29.7994 135.11 29.8076 135.241 29.8144C135.342 29.8197 135.428 29.8242 135.5 29.8277C137.325 29.8954 138.636 30.1784 139.434 30.6768C139.825 30.9206 140.143 31.2644 140.354 31.672C140.565 32.0797 140.66 32.536 140.63 32.9928C140.63 34.285 139.978 35.3507 138.673 36.19C137.368 37.0293 135.678 37.4493 133.604 37.45C131.957 37.45 130.628 37.1679 129.618 36.6034C128.607 36.0388 128.101 35.3 128.102 34.3868C128.093 33.7927 128.305 33.216 128.697 32.7656C129.161 32.2588 129.756 31.8867 130.417 31.6894C129.95 31.5184 129.545 31.2139 129.253 30.8144C128.973 30.378 128.84 29.8644 128.874 29.3483C128.909 28.8323 129.109 28.3404 129.445 27.9444C129.89 27.4639 130.461 27.1157 131.095 26.9392C130.303 26.7339 129.603 26.2724 129.106 25.6281C128.622 24.9645 128.372 24.161 128.396 23.3426C128.376 22.7375 128.491 22.1355 128.734 21.5795C128.976 21.0235 129.339 20.5273 129.797 20.1261C130.812 19.2697 132.118 18.8262 133.451 18.885C134.155 18.876 134.857 18.9765 135.53 19.1828C136.108 19.3591 136.643 19.6549 137.098 20.0505L137.099 20.055ZM142.729 16.5596C142.388 17.1464 142.212 17.8119 142.216 18.4884L142.214 18.4888C142.21 19.1569 142.382 19.8145 142.713 20.397C143.053 20.9913 143.547 21.4852 144.144 21.8278C144.741 22.1705 145.419 22.3495 146.11 22.3465C146.801 22.3492 147.481 22.1689 148.078 21.8243C148.675 21.4796 149.168 20.9832 149.506 20.3865C149.833 19.7999 150.003 19.1404 150 18.4706C149.996 17.8007 149.82 17.1429 149.487 16.5596C149.152 15.9734 148.662 15.4887 148.069 15.1578C147.472 14.8224 146.796 14.6461 146.11 14.6461C145.423 14.6461 144.747 14.8224 144.15 15.1578C143.556 15.4879 143.064 15.9727 142.729 16.5596ZM143.284 20.1233C142.992 19.6262 142.84 19.061 142.845 18.4863C142.841 17.9162 142.992 17.3556 143.281 16.8623C143.563 16.3706 143.975 15.9644 144.474 15.6877C144.974 15.4091 145.538 15.2632 146.112 15.2641C146.686 15.265 147.25 15.4128 147.749 15.693C148.244 15.9702 148.655 16.3751 148.936 16.8648C149.219 17.361 149.367 17.9208 149.367 18.4902C149.367 19.0596 149.219 19.6194 148.936 20.1156C148.655 20.6071 148.244 21.0145 147.749 21.2951C147.251 21.5781 146.687 21.7277 146.114 21.7291C145.54 21.7304 144.976 21.5835 144.477 21.3028C143.979 21.0232 143.567 20.6157 143.284 20.1233ZM145.302 20.6133V18.8745L146.267 18.8759C146.688 18.8897 146.928 19.0612 146.986 19.3904C147.002 19.5777 147.008 19.7657 147.003 19.9535C146.99 20.1766 147.016 20.4002 147.079 20.6147H147.875V20.5321C147.801 20.3279 147.769 20.111 147.782 19.8944V19.5794C147.801 19.3553 147.746 19.1311 147.624 18.9413C147.502 18.7516 147.32 18.6068 147.107 18.5294C147.309 18.4575 147.484 18.3266 147.61 18.154C147.735 17.9814 147.805 17.7752 147.809 17.5627C147.82 17.3742 147.783 17.1859 147.702 17.0149C147.621 16.8438 147.499 16.6953 147.346 16.5827C146.958 16.3364 146.502 16.2183 146.043 16.2456H144.529V20.6133H145.302ZM146.158 18.2161H145.302L145.304 16.9047H146.061C146.326 16.8812 146.591 16.9355 146.824 17.0608C146.9 17.1257 146.958 17.2078 146.996 17.3001C147.032 17.3925 147.047 17.4922 147.036 17.591C147.037 17.6795 147.016 17.7668 146.973 17.8448C146.931 17.9228 146.87 17.9889 146.795 18.0369C146.605 18.1581 146.384 18.2205 146.158 18.2161Z" fill="#090C21"/>
</svg>
