<svg width="205" height="60" viewBox="0 0 205 60" fill="none" xmlns="http://www.w3.org/2000/svg">
<path d="M202.928 27.1587C201.659 33.5869 197.138 38.7464 190.548 42.9601C183.959 47.1738 169.68 48.8308 169.68 48.8308L166.146 46.3318C166.146 46.3318 166.646 46.2088 167.469 46.0012C167.488 45.9935 167.511 45.9935 167.531 45.9858C170.768 45.1669 178.753 43.0985 181.352 41.922C190.06 37.9659 202.928 27.1587 202.928 27.1587Z" fill="white"/>
<path d="M184.089 48.5538C190.802 46.7545 197.684 42.437 197.684 42.437C197.684 42.437 192.805 52.1946 185.074 53.0174C177.342 53.8401 173.225 50.4107 173.225 50.4107C173.225 50.4107 180.81 49.4342 184.089 48.5538Z" fill="white"/>
<path d="M197.551 27.8158C195.191 30.0534 192.534 31.9257 189.693 33.4482C184.576 36.1932 173.419 41.9601 165.157 44.6437C164.845 44.7513 164.53 44.8474 164.226 44.9359C163.334 44.6052 162.262 44.1823 161.008 43.6441C154.734 40.9605 152.754 38.3347 136.795 27.389C109.44 8.63116 118.61 0 118.61 0C118.61 0 127.76 22.441 162.385 43.0328C167.375 40.7914 184.318 32.9214 191.2 26.2434C197.932 19.7152 204.618 10.6111 204.618 10.6111C204.618 10.6111 207.474 18.4042 197.547 27.8196L197.551 27.8158Z" fill="white"/>
<path d="M140.01 34.1826C159.54 45.4204 160.963 44.8822 160.963 44.8822C160.963 44.8822 156.584 47.9117 133.259 36.6316C131.744 35.9011 130.214 35.2014 128.691 34.494C125.627 33.0753 117.757 28.085 116.98 14.0176C116.98 14.0176 118.188 21.6299 140.01 34.1826Z" fill="white"/>
<path d="M119.818 33.6177C119.818 33.6177 126.131 42.6256 144.312 45.5898C161.655 48.4194 163.75 47.5237 163.75 47.5237C163.75 47.5237 148.856 53.8865 134.208 48.0696C119.845 42.3642 119.03 37.1355 119.818 33.6177Z" fill="white"/>
<path d="M164.615 49.688C164.615 49.688 149.756 56.097 139.279 53.5096C128.807 50.9221 128.676 49.5381 128.676 49.5381C128.676 49.5381 130.237 60.6875 146.822 59.1958C160.947 57.927 164.619 49.688 164.619 49.688H164.615Z" fill="white"/>
<path d="M11.8491 45.4705C11.5377 45.2321 11.1994 45.0361 10.838 44.8823C10.4727 44.7285 9.98831 44.5901 9.38086 44.4709C8.77341 44.3517 8.01602 44.2941 7.11254 44.2941C6.39744 44.2941 5.77846 44.3018 5.25559 44.3133C4.72888 44.3248 4.2829 44.371 3.91382 44.444C3.54474 44.5171 3.24486 44.6362 3.02187 44.8054C2.79888 44.9746 2.63356 45.2052 2.52976 45.5051C2.42595 45.8012 2.37597 46.1895 2.37597 46.6662C2.46055 46.9046 2.61434 47.1006 2.83348 47.2544C3.05263 47.4082 3.41017 47.5466 3.90997 47.6658C4.40977 47.785 5.11334 47.8426 6.02451 47.8426C7.18943 47.8426 8.14674 47.9734 8.90413 48.2309C9.66152 48.4885 10.2536 48.8076 10.6842 49.1844C11.1148 49.5612 11.4147 49.9495 11.5915 50.3532C11.7684 50.7569 11.853 51.1067 11.853 51.4028C11.853 52.287 11.6992 53.0367 11.3954 53.6442C11.0917 54.2516 10.6419 54.7399 10.046 55.1051C9.45007 55.4704 8.7119 55.7356 7.82764 55.8971C6.94338 56.0586 5.91302 56.1393 4.74426 56.1393C4.14834 56.1393 3.57165 56.0817 3.01033 55.9625C2.44902 55.8433 1.94153 55.7049 1.48787 55.5511C1.0342 55.3973 0.542091 55.1974 0.00768923 54.9513V52.5831C0.319103 52.8291 0.653585 53.029 1.01882 53.1828C1.38022 53.3366 1.86848 53.475 2.47593 53.5942C3.08338 53.7134 3.84077 53.771 4.74426 53.771C5.45935 53.771 6.07834 53.7634 6.60121 53.7518C7.12407 53.7403 7.57389 53.6942 7.94298 53.6211C8.31206 53.5481 8.61194 53.4289 8.83493 53.2597C9.05791 53.0905 9.22323 52.8599 9.32704 52.56C9.43084 52.264 9.48082 51.8756 9.48082 51.3989C9.48082 51.3143 9.46544 51.2336 9.43469 51.1644C9.40393 51.0952 9.35011 51.0183 9.26552 50.9299C9.18094 50.8414 9.0656 50.7607 8.90798 50.6761C8.75419 50.5954 8.55043 50.5185 8.29668 50.4493C8.04678 50.3801 7.73152 50.3224 7.35859 50.2763C6.98567 50.2302 6.53585 50.2071 6.01682 50.2071C5.20945 50.2071 4.50205 50.1494 3.8946 50.0302C3.28715 49.911 2.76043 49.7534 2.31446 49.5535C1.86848 49.3536 1.49556 49.1306 1.19952 48.8807C0.903485 48.6308 0.665119 48.3732 0.492111 48.1079C0.315258 47.8426 0.192231 47.5851 0.115338 47.3352C0.0384462 47.0853 0 46.8584 0 46.6623C0 45.7781 0.153785 45.0322 0.457509 44.4209C0.761234 43.8135 1.21105 43.3252 1.80697 42.96C2.40288 42.5947 3.14105 42.3295 4.02531 42.168C4.90957 42.0065 5.93993 41.9258 7.10869 41.9258C7.70461 41.9258 8.2813 41.9835 8.84262 42.1026C9.40393 42.2218 9.91142 42.3602 10.3651 42.514C10.8187 42.6678 11.3109 42.8677 11.8453 43.1022V45.4705H11.8491Z" fill="white"/>
<path d="M17.7355 47.842H19.9807C21.3456 47.842 22.499 48.8532 22.672 50.2065H17.7355V56.1272H15.3672V41.9175H17.7355V47.8382V47.842Z" fill="white"/>
<path d="M26.3273 41.9209H23.959V56.1306H26.3273V41.9209Z" fill="white"/>
<path d="M37.8473 42.1829C38.7316 42.3598 39.4736 42.6635 40.0656 43.1057C40.6616 43.5439 41.1114 44.1475 41.4151 44.9165C41.7188 45.6854 41.8726 46.6581 41.8726 47.8422V51.4023C41.8726 52.5865 41.6266 53.5207 41.1344 54.2127C40.6423 54.9048 39.9503 55.3969 39.0622 55.6929C38.1741 55.989 37.136 56.1389 35.9557 56.1389C34.7754 56.1389 33.7259 55.989 32.8378 55.6929C31.9497 55.3969 31.2576 54.9009 30.7655 54.2127C30.2734 53.5207 30.0273 52.5865 30.0273 51.4023C30.0273 50.5181 30.1619 49.7684 30.4272 49.1609C30.6963 48.5535 31.0539 48.0652 31.5075 47.7C31.9612 47.3347 32.4687 47.0695 33.03 46.908C33.5913 46.7465 34.1718 46.6658 34.7639 46.6658C35.356 46.6658 35.8789 46.7234 36.321 46.8426C36.7631 46.9618 37.1322 47.1002 37.4321 47.254C37.7281 47.4078 38.028 47.6077 38.324 47.8422V50.2105C38.028 49.9721 37.7281 49.7761 37.4321 49.6223C37.136 49.4685 36.7631 49.3301 36.321 49.2109C35.8789 49.0917 35.3598 49.0341 34.7639 49.0341C34.4679 49.0341 34.2064 49.0533 33.9796 49.0879C33.7566 49.1225 33.5605 49.1725 33.3952 49.2378C33.2299 49.3032 33.0877 49.3801 32.9723 49.4723C32.857 49.5646 32.7609 49.6684 32.6917 49.7799C32.6186 49.8914 32.5609 50.0106 32.5187 50.1375C32.4764 50.2643 32.4456 50.395 32.4302 50.5335C32.4149 50.6719 32.4033 50.818 32.3995 50.964C32.3956 51.1101 32.3956 51.2601 32.3956 51.4062C32.3956 51.7022 32.4187 51.9944 32.461 52.2751C32.5033 52.5557 32.6302 52.8095 32.8416 53.0325C33.0531 53.2554 33.4029 53.4361 33.8873 53.5745C34.3718 53.7091 35.0638 53.7783 35.9557 53.7783C36.8477 53.7783 37.5282 53.7091 38.0126 53.5745C38.497 53.44 38.8469 53.2593 39.0583 53.0325C39.2698 52.8095 39.3967 52.5557 39.439 52.2751C39.4813 51.9944 39.5043 51.7061 39.5043 51.4062V47.8461C39.5043 46.9618 39.3928 46.2736 39.166 45.7892C38.9392 45.3048 38.6201 44.9549 38.2048 44.7435C37.7896 44.532 37.2898 44.4051 36.7093 44.3628C36.1288 44.3206 35.479 44.2975 34.7678 44.2975C33.8604 44.2975 33.1069 44.3552 32.4994 44.4743C31.892 44.5935 31.4076 44.7319 31.0423 44.8857C30.6771 45.0395 30.3426 45.2394 30.0312 45.4739V43.1057C30.3541 42.8673 30.7002 42.6712 31.0654 42.5174C31.4306 42.3636 31.9189 42.2252 32.5263 42.1061C33.1338 41.9869 33.8796 41.9292 34.7678 41.9292C35.9365 41.9292 36.963 42.0176 37.8511 42.1906L37.8473 42.1829Z" fill="white"/>
<path d="M54.5278 45.4701C54.2049 45.2317 53.8589 45.0356 53.4859 44.8819C53.1168 44.7281 52.6286 44.5897 52.025 44.4705C51.4214 44.3513 50.6755 44.2936 49.7913 44.2936C49.4952 44.2936 49.203 44.236 48.9224 44.1168C48.6417 43.9976 48.388 43.8592 48.165 43.7054C47.942 43.5516 47.6921 43.3517 47.423 43.1057V56.1389H45.0547V43.1057C45.5583 42.8673 46.0274 42.6712 46.4657 42.5174C46.9039 42.3636 47.4076 42.2252 47.9766 42.1061C48.5456 41.9869 49.1492 41.9292 49.7913 41.9292C50.6832 41.9292 51.4329 41.983 52.0365 42.0868C52.6401 42.1945 53.1284 42.3137 53.4936 42.4482C53.8589 42.5828 54.2049 42.7558 54.5278 42.9672V45.4739V45.4701Z" fill="white"/>
<path d="M59.7726 41.9214V56.1349H57.4043V41.9214H59.7726Z" fill="white"/>
<path d="M69.2681 41.9214H69.5064C71.521 41.9214 73.0435 42.3135 74.0738 43.1017V56.085C74.0738 56.1196 74.0585 56.1349 74.0239 56.1349H71.7555C71.7209 56.1349 71.7056 56.1196 71.7056 56.085V53.5475C71.0597 53.6936 70.3253 53.7667 69.5064 53.7667H69.2681C67.3535 53.7667 65.6311 53.19 64.1047 52.0404C62.8552 50.9447 62.2324 49.5914 62.2324 47.9882V47.5807C62.2324 45.9275 62.9744 44.5242 64.4623 43.367C65.9694 42.402 67.5726 41.9214 69.2681 41.9214ZM64.6007 47.769C64.6007 49.4799 65.6426 50.6256 67.7225 51.21C68.3223 51.3369 68.8452 51.3984 69.2873 51.3984C70.0985 51.3984 70.9059 51.3253 71.7056 51.1792V44.5088C70.9597 44.3627 70.1677 44.2897 69.3373 44.2897C67.4919 44.2897 66.0886 44.8894 65.1236 46.0928C64.7737 46.6464 64.5969 47.2077 64.5969 47.769H64.6007Z" fill="white"/>
<path d="M83.7585 56.1349C82.5705 56.1349 81.5286 55.8889 80.6405 55.3968C79.7524 54.9047 79.0604 54.2126 78.5682 53.3245C78.0761 52.4364 77.8301 51.3984 77.8301 50.2065V41.9214H80.1984V50.2065C80.1984 52.5787 81.3864 53.7667 83.7585 53.7667C84.4659 53.7667 85.0426 53.8051 85.4924 53.8858C85.9422 53.9666 86.2921 54.0627 86.542 54.1819C86.7919 54.301 86.9726 54.4164 87.0802 54.5356C87.1879 54.6509 87.2648 54.7893 87.3032 54.9469V41.9214H89.6715V56.1349H83.7546H83.7585Z" fill="white"/>
<path d="M97.2577 55.8696C96.3735 55.6927 95.6315 55.389 95.0394 54.9469C94.4435 54.5086 93.9937 53.905 93.6899 53.1361C93.3862 52.371 93.2324 51.3906 93.2324 50.2026V46.654C93.2324 45.4699 93.4785 44.5357 93.9706 43.8436C94.4627 43.1516 95.1547 42.6595 96.0428 42.3635C96.9309 42.0674 97.969 41.9175 99.1608 41.9175C100.353 41.9175 101.379 42.0674 102.267 42.3635C103.155 42.6595 103.847 43.1554 104.34 43.8436C104.832 44.5357 105.078 45.4699 105.078 46.654C105.078 47.5383 104.943 48.288 104.678 48.8955C104.413 49.5029 104.051 49.9912 103.598 50.3564C103.144 50.7217 102.636 50.9869 102.075 51.1484C101.514 51.3099 100.937 51.3906 100.341 51.3906C99.7452 51.3906 99.2262 51.3329 98.784 51.2138C98.3419 51.0946 97.9728 50.9562 97.6729 50.8024C97.3769 50.6486 97.0809 50.4487 96.7925 50.2026V47.8343C97.0847 48.0804 97.3769 48.2803 97.6729 48.4341C97.969 48.5879 98.3419 48.7263 98.784 48.8455C99.2262 48.9647 99.7452 49.0223 100.341 49.0223C100.637 49.0223 100.899 49.0031 101.125 48.9685C101.348 48.9339 101.544 48.8839 101.71 48.8186C101.875 48.7571 102.017 48.6802 102.133 48.584C102.248 48.4918 102.344 48.388 102.417 48.2765C102.49 48.165 102.548 48.0458 102.59 47.9189C102.633 47.7921 102.663 47.6613 102.679 47.5229C102.694 47.3845 102.706 47.2384 102.709 47.0923C102.709 46.9424 102.713 46.7963 102.713 46.6502C102.713 46.3542 102.69 46.0658 102.648 45.7813C102.606 45.5007 102.479 45.2469 102.267 45.0239C102.056 44.8009 101.706 44.6202 101.222 44.4857C100.737 44.3511 100.049 44.2819 99.1647 44.2819C98.2804 44.2819 97.5845 44.3511 97.0963 44.4857C96.6118 44.6202 96.262 44.8009 96.0505 45.0239C95.8391 45.2469 95.7122 45.5007 95.6699 45.7813C95.6276 46.062 95.6045 46.3503 95.6045 46.6502V50.1988C95.6045 51.0907 95.716 51.7789 95.9429 52.2672C96.1659 52.7516 96.4888 53.1015 96.904 53.3129C97.3192 53.5244 97.819 53.6513 98.3996 53.6935C98.9801 53.7358 99.6299 53.7589 100.341 53.7589C101.245 53.7589 102.002 53.7012 102.609 53.582C103.217 53.4629 103.701 53.3245 104.067 53.1707C104.432 53.0169 104.766 52.817 105.078 52.5709V54.9392C104.543 55.1852 104.047 55.3852 103.598 55.539C103.144 55.6927 102.636 55.8311 102.075 55.9503C101.514 56.0695 100.937 56.1272 100.341 56.1272C99.1724 56.1272 98.1458 56.0388 97.2577 55.8657V55.8696Z" fill="white"/>
<path d="M60.2563 24.5207C60.2563 25.8202 59.8487 26.7852 59.0375 27.4118C58.2263 28.0385 57.1152 28.3538 55.7081 28.3538C54.67 28.3538 53.7435 28.1615 52.9207 27.7732C52.4017 28.1615 51.7289 28.3538 50.9023 28.3538C50.6101 28.3538 50.3102 28.3076 49.995 28.2154C49.6836 28.1231 49.3875 27.9924 49.1107 27.8194C48.8916 28.9189 48.461 29.8301 47.8189 30.5567C47.173 31.2834 46.3695 31.8178 45.4084 32.1599C44.4434 32.5021 43.3823 32.6713 42.2173 32.6713C41.0524 32.6713 40.0259 32.4714 39.1878 32.0677C38.3496 31.664 37.7153 31.1027 37.2885 30.3837C36.8618 29.6648 36.6465 28.8228 36.6465 27.8655C36.6465 27.4003 36.6849 26.912 36.7657 26.393C36.8464 25.874 36.9425 25.4703 37.054 25.1743L38.8533 24.5245L39.0609 24.6168C38.9225 25.4203 38.8533 26.1393 38.8533 26.7775C38.8533 27.9386 39.1416 28.8267 39.7183 29.4456C40.295 30.0646 41.2869 30.376 42.6979 30.376C44.6164 30.376 46.012 29.8109 46.8885 28.6806C47.0116 28.2615 47.0731 27.8694 47.0731 27.4964C47.0731 26.9082 46.9654 26.3007 46.7463 25.6741C46.5271 25.0474 46.1965 24.2323 45.7467 23.2251L47.7651 21.7872H47.9035C47.9497 21.8794 48.0496 22.1832 48.2072 22.6907C48.3303 23.0943 48.4687 23.5057 48.6263 23.9325C48.7801 24.3592 48.9185 24.6783 49.0454 24.8975C49.2453 25.3012 49.5067 25.5933 49.822 25.7779C50.1372 25.9624 50.5217 26.0547 50.9715 26.0547C51.1714 26.0547 51.3675 26.0355 51.5521 25.997C51.7366 25.9586 51.8865 25.9009 51.9942 25.824C52.1018 25.6856 52.2364 25.3511 52.4017 24.8244C52.5632 24.2977 52.7285 23.7402 52.9015 23.152L55.2237 22.7791L55.3159 22.8714C54.8815 24.217 54.5355 25.2012 54.2702 25.8202C54.8469 25.974 55.3928 26.0509 55.9119 26.0509C56.8692 26.0509 57.5535 25.9586 57.9649 25.774C58.0264 25.6049 58.0571 25.3857 58.0571 25.1243C58.0571 24.6591 57.961 24.1401 57.7688 23.5711C57.5766 22.9982 57.2998 22.3254 56.9461 21.5526L58.9222 20.0456L59.0914 20.0686C59.8757 21.9871 60.2678 23.475 60.2678 24.5245L60.2563 24.5207ZM52.5247 19.1113L50.4141 17.6504L51.7135 15.7011L53.8012 17.139L52.5247 19.1113ZM53.8242 16.1856L51.7135 14.7015L53.0361 12.7754L55.1237 14.1902L53.8242 16.1856ZM55.7965 19.1113L53.7089 17.6504L55.0314 15.7011L57.1191 17.139L55.7965 19.1113Z" fill="white"/>
<path d="M59.8827 30.8335L60.025 30.6259C61.3399 30.3952 62.4932 30.0531 63.4852 29.6033C64.4771 29.1534 65.2421 28.6729 65.7727 28.1654C66.3033 27.654 66.5685 27.2042 66.5685 26.8198C66.5378 26.4161 66.3648 25.8317 66.0457 25.0666C65.7266 24.3015 65.3459 23.5172 64.8961 22.7099L66.5685 20.876H66.7685C67.2452 21.791 67.6258 22.7368 67.9065 23.721C68.191 24.7052 68.3294 25.551 68.3294 26.2623C68.3294 27.1273 68.1141 27.9654 67.6796 28.769C67.3682 29.3418 66.8953 29.8801 66.2533 30.3837C65.6112 30.8874 64.85 31.3218 63.9657 31.6947C63.0815 32.0677 62.1319 32.3445 61.1092 32.529L59.8789 30.8335H59.8827Z" fill="white"/>
<path d="M73.5547 31.3908C72.5627 30.9871 71.8284 30.4335 71.3479 29.7299C70.8673 29.0264 70.6289 28.2113 70.6289 27.2809C70.6289 26.8311 70.6635 26.3813 70.7327 25.9238C70.8019 25.4662 70.8903 25.0549 70.998 24.6819L72.8549 24.0322L73.0625 24.1475C72.9088 24.9818 72.8319 25.6739 72.8319 26.2121C72.8319 26.9541 72.9741 27.5808 73.2625 28.0921C73.5508 28.6035 74.0545 28.9956 74.7734 29.2763C75.4962 29.5531 76.4843 29.6953 77.7376 29.6953C78.6834 29.6953 79.5869 29.5992 80.4481 29.407C81.3093 29.2147 82.0513 28.961 82.6818 28.6534C83.3085 28.3459 83.7621 28.0268 84.0428 27.7038C84.0735 27.5808 84.0889 27.4962 84.0889 27.4501C84.0889 27.2194 83.9582 27.0156 83.6929 26.8465C83.4276 26.6773 82.9624 26.4735 82.2935 26.2429C81.5322 25.9814 80.9594 25.7546 80.5788 25.5701C80.1982 25.3855 79.8867 25.1202 79.6445 24.7819C79.4023 24.4436 79.2831 23.9784 79.2831 23.3902C79.2831 22.6328 79.4907 21.8331 79.9098 20.9873C80.3289 20.1453 80.9094 19.4417 81.6514 18.8766C82.3934 18.3114 83.2392 18.0308 84.1812 18.0308C84.6464 18.0308 85.0885 18.0884 85.5153 18.2038C85.942 18.3191 86.3149 18.4614 86.6417 18.6344L86.2034 20.7681L86.1112 20.8373C85.8036 20.6835 85.4614 20.5605 85.0847 20.4644C84.7079 20.3721 84.358 20.326 84.0389 20.326C83.5161 20.326 83.0239 20.4567 82.5664 20.722C82.1051 20.9834 81.736 21.3141 81.463 21.7101C81.1862 22.1061 81.0478 22.4636 81.0478 22.7904C81.0478 22.9749 81.1401 23.1479 81.3246 23.3017C81.5092 23.4555 81.7668 23.6016 82.0936 23.7323C82.4242 23.863 82.9432 24.0437 83.6468 24.2783C84.3811 24.5397 84.9386 24.7896 85.3153 25.0203C85.6921 25.251 85.9497 25.4855 86.0843 25.7161C86.2227 25.9468 86.2919 26.2198 86.2919 26.5274C86.2919 27.5193 85.8767 28.4304 85.0501 29.2686C84.2235 30.1029 83.1162 30.768 81.7322 31.2639C80.3481 31.7599 78.8487 32.0059 77.2416 32.0059C75.773 32.0059 74.5427 31.806 73.5508 31.4023L73.5547 31.3908ZM75.9691 37.1462L73.8584 35.6852L75.1579 33.736L77.2455 35.1739L75.9691 37.1462ZM79.287 37.1462L77.1994 35.6852L78.4988 33.736L80.5865 35.1739L79.287 37.1462Z" fill="white"/>
<path d="M105.077 12.5215V23.7094C105.077 24.9319 104.862 25.8969 104.428 26.6005C103.993 27.3041 103.259 27.8154 102.221 28.1307C101.183 28.4498 99.7218 28.6074 97.834 28.6074H96.327C93.728 28.6074 91.7672 28.2614 90.4408 27.5732C89.1183 26.885 88.457 25.797 88.457 24.313C88.457 23.3364 88.5801 22.4406 88.83 21.6217L90.5254 20.972L90.71 21.0873C90.5716 21.8447 90.5024 22.5175 90.5024 23.1058C90.5024 23.9554 90.7407 24.6128 91.2175 25.078C91.6942 25.5432 92.4016 25.8662 93.3474 26.0546C94.2893 26.2391 95.5427 26.3314 97.0997 26.3314H98.5722C99.5372 26.3314 100.398 26.2737 101.156 26.1584C101.913 26.043 102.432 25.8931 102.713 25.7047C102.821 25.2395 102.878 24.6282 102.878 23.8708V12.9598L104.904 12.4023L105.081 12.5177L105.077 12.5215ZM94.793 20.7375C95.2582 20.7375 95.6119 20.7298 95.8618 20.7144C95.7234 20.4991 95.608 20.2646 95.5234 20.0185C95.4388 19.7725 95.3966 19.5303 95.3966 19.2996C95.3966 18.7267 95.5773 18.2654 95.9425 17.9194C96.3039 17.5695 96.7883 17.3965 97.3919 17.3965C97.8725 17.3965 98.4223 17.5195 99.0413 17.7694L98.6914 18.9997C98.2723 18.8613 97.9109 18.7921 97.5995 18.7921C96.9805 18.7921 96.673 19.0612 96.673 19.6033C96.673 19.8032 96.7153 19.9993 96.7998 20.1838C96.8844 20.3684 97.0036 20.5337 97.1612 20.6721C97.8417 20.626 98.553 20.5645 99.295 20.4876L99.4103 21.764C98.1877 21.9178 96.696 22.0254 94.9314 22.0908L94.793 20.7452V20.7375Z" fill="white"/>
</svg>
