<svg width="195" height="33" viewBox="0 0 195 33" fill="none" xmlns="http://www.w3.org/2000/svg">
<path d="M45.4629 4.96484H59.5909L63.5271 8.90104L63.5573 20.4528L59.6211 24.3588H45.4705V4.9724L45.4629 4.96484ZM58.0421 21.4425L60.2558 19.2289L60.2029 10.0872L58.0421 7.87355H48.7645L48.8174 21.4425H58.0421Z" fill="white"/>
<path d="M68.3162 4.96484H84.7107V7.87355H71.6102L71.6631 13.1621H81.6584V15.9877H71.6329L71.6631 21.4425H85.0129L84.9827 24.3512H68.3086V4.96484H68.3162Z" fill="white"/>
<path d="M87.7041 20.4143L87.6738 8.86252L91.6327 4.95654H105.035V7.86525H93.1513L90.9603 10.0789L90.9905 19.2206L93.1513 21.4342H101.152L103.366 19.2206L103.336 15.8132H96.3546L96.3848 13.1009H106.66L106.63 20.4369L102.693 24.3429H91.6176L87.6814 20.4067L87.7041 20.4143Z" fill="white"/>
<path d="M110.996 4.96484H127.39V7.87355H114.29L114.343 13.1621H124.338V15.9877H114.313L114.343 21.4425H127.693L127.662 24.3512H110.988V4.96484H110.996Z" fill="white"/>
<path d="M131.432 4.96484H136.97L145.801 21.0043H146.3L146.247 4.96484H149.458V24.3512H144.003L135.141 8.31175H134.673L134.643 24.3512H131.432V4.96484Z" fill="white"/>
<path d="M161.178 23.2708L168.929 4.96484H173.78L181.728 23.2708L181.675 24.3512H178.547L171.619 7.87355H171.068L164.2 24.3512H161.125L161.178 23.2708ZM166.776 16.6223H175.941L177.134 19.5311H165.613L166.776 16.6223Z" fill="white"/>
<path d="M183.946 21.6608H187.822L187.792 7.64615H183.916V4.95654H194.969V7.64615H191.093L191.124 21.6608H194.999L194.969 24.3505H183.916L183.946 21.6608Z" fill="white"/>
<path d="M0 1.77544L23.7683 0L30.2128 3.20336L34.9272 15.911L30.7643 23.0808L0 32.842V1.783V1.77544ZM26.8735 19.4921L29.548 15.5257L26.1482 4.91837L22.3706 3.00693L6.73159 4.60105L8.4617 24.4558L26.8735 19.4921Z" fill="#FDEB27"/>
</svg>
