<svg width="162" height="24" viewBox="0 0 162 24" fill="none" xmlns="http://www.w3.org/2000/svg">
<path fill-rule="evenodd" clip-rule="evenodd" d="M117.537 8.96751C118.498 7.79694 119.601 7.3451 121.105 7.52529V8.97397C119.452 8.81248 117.537 10.0684 117.537 11.7309V17.3903H115.936V7.52529H117.537V8.96751ZM108.551 4.19173V4.19377C111.897 4.30223 113.588 8.60237 110.594 10.4172C110.749 10.4723 110.936 10.5484 111.166 10.6542C115.04 12.2304 113.541 17.3577 109.377 17.39C109.363 17.3903 109.35 17.3903 109.337 17.3903H102.817V4.19173H108.551ZM104.418 10.083H108.371C109.178 9.97931 109.823 9.72092 110.215 9.31056C111.48 7.98495 110.688 5.60743 108.422 5.60743H104.418V10.083ZM104.418 15.9746H109.377C111.643 15.9746 112.395 13.5968 111.129 12.2712C110.607 11.7241 109.696 11.4987 108.49 11.4987H104.418V15.9746ZM146.026 12.963C146.356 14.7939 147.878 16.1796 149.703 16.1796C150.786 16.1796 151.762 15.6924 152.445 14.9142L153.596 15.7744C152.631 16.8246 151.244 17.4835 149.703 17.4835C146.789 17.4835 144.422 15.124 144.422 12.2181C144.422 9.31192 146.629 6.95242 149.544 6.95242C152.458 6.95242 154.62 9.31192 154.62 12.2181C154.62 12.4707 154.602 12.7196 154.567 12.963H146.026ZM153.033 11.528C152.759 9.66993 151.387 8.25626 149.544 8.25626C147.7 8.25626 146.293 9.66993 146.011 11.528H153.033ZM158.432 8.96751C159.393 7.79694 160.497 7.3451 162 7.52529V8.97397C160.347 8.81248 158.432 10.0684 158.432 11.7309V17.3903H156.831V7.52529H158.432V8.96751ZM136.287 12.7539L141.868 7.52597H144.21L139.62 11.8265L143.982 17.3903H142.003L138.479 12.8954L136.287 14.9489V17.3903H134.686V3.47368H136.287V12.7539ZM127.347 6.95242C130.261 6.95242 132.628 9.31192 132.628 12.2181C132.628 15.124 130.261 17.4835 127.347 17.4835C124.432 17.4835 122.066 15.124 122.066 12.2181C122.066 9.31192 124.432 6.95242 127.347 6.95242ZM127.347 8.25626C125.281 8.25626 123.603 10.0313 123.603 12.2181C123.603 14.4046 125.281 16.1796 127.347 16.1796C129.413 16.1796 131.091 14.4046 131.091 12.2181C131.091 10.0313 129.413 8.25626 127.347 8.25626Z" fill="white" fill-opacity="0.8"/>
<path fill-rule="evenodd" clip-rule="evenodd" d="M41.8318 3.63309C44.7256 3.63309 47.0718 6.02353 47.0718 8.90899V8.91273C47.0718 11.7982 44.7256 14.2971 41.8318 14.2971H39.4869V17.1169H36.5955V3.63309H41.8318ZM44.2032 8.90934C44.2032 7.47595 43.1364 6.26288 41.6986 6.26288H39.4869V11.6673H41.6986C43.1364 11.6673 44.2032 10.614 44.2032 8.91239V8.90934ZM53.4018 6.90478C56.2725 6.90478 58.6031 9.22892 58.6031 12.0913C58.6031 14.9539 56.2725 17.2777 53.4018 17.2777C50.5308 17.2777 48.2001 14.9539 48.2001 12.0913C48.2001 9.22892 50.5308 6.90478 53.4018 6.90478ZM53.4018 9.16058C51.9417 9.16058 50.849 10.4736 50.849 12.0913C50.849 13.7089 51.9417 15.0223 53.4018 15.0223C54.8616 15.0223 55.906 13.7089 55.906 12.0913C55.906 10.4736 54.8616 9.16058 53.4018 9.16058ZM67.7117 16.5509C66.934 17.0126 66.0257 17.2777 65.0557 17.2777C62.185 17.2777 59.8544 14.9539 59.8544 12.0913C59.8544 9.22892 62.185 6.90478 65.0557 6.90478C66.0213 6.90478 66.9258 7.16793 67.7012 7.62589C68.0222 7.81322 68.6505 8.29872 69.035 8.95353L67.3103 10.6334C66.8534 9.75352 66.0369 9.16058 65.0557 9.16058C63.5959 9.16058 62.5206 10.4736 62.5206 12.0913C62.5206 13.7089 63.5959 15.0223 65.0557 15.0223C66.0369 15.0223 66.8534 14.429 67.3103 13.5495L69.0326 15.2266C68.6478 15.8794 68.0212 16.3628 67.7009 16.5498L67.7117 16.5509ZM73.0085 11.2406L74.4085 9.48697L76.7657 7.10333H80.1815L75.4825 11.9063L80.5802 17.1169H77.1644L73.7747 13.6521L73.2313 14.0815L73.2245 17.1169H70.6847V3.63309H73.2245V8.43471L73.0085 11.2406ZM85.5604 17.324C82.6782 17.2686 80.3588 14.9539 80.3588 12.0913C80.3588 9.22892 82.6898 6.90478 85.5604 6.90478C88.4311 6.90478 90.7621 9.22892 90.7621 12.0913C90.7621 12.3809 90.738 12.6652 90.6921 12.9419H82.9306C83.26 14.1455 84.3591 15.0223 85.5958 15.0529C86.7635 15.0508 87.7328 14.7731 88.5048 14.0989L90.0499 15.6972C89.9646 15.7886 89.8763 15.8753 89.785 15.9576C88.7334 16.9082 87.2923 17.3257 85.5604 17.324ZM88.1577 11.2406C87.8283 10.0374 86.7533 9.12081 85.5604 9.12081C84.3676 9.12081 83.26 10.0374 82.9306 11.2406H88.1577ZM99.3382 16.422L98.9846 16.61C96.4902 17.9856 93.1576 17.4328 93.0211 14.0989L93 13.4498V9.15888H91.3585V7.11455H93.0676L93.2585 3.63309H95.4669V7.11455H98.0281V9.15888H95.4669V13.6314H95.4747C95.4635 15.3701 96.854 15.176 97.6097 14.6986L99.3382 16.422Z" fill="white"/>
<path fill-rule="evenodd" clip-rule="evenodd" d="M14.5683 20.0231C13.2931 20.6315 11.8663 20.9578 10.362 20.9578H4.2453L1.49516 23.7425C1.24586 23.9954 0.86963 24.0687 0.542217 23.9325C0.214804 23.7963 0 23.47 0 23.1146V1.35308C0 0.608432 0.596243 0 1.33829 0H10.3959C11.8565 0.00518918 13.2443 0.31654 14.4901 0.900972C14.4901 0.900972 14.4947 0.900972 14.4999 0.905513C18.1737 2.5414 20.7383 6.2121 20.7383 10.4763C20.7383 14.5563 18.3983 18.0908 14.9835 19.8233L14.5683 20.0231ZM16.4097 0.487135C17.3822 0.165405 18.4178 0 19.497 0C25.2134 0 29.859 4.69816 29.859 10.4763C29.859 16.2603 25.2134 20.9578 19.497 20.9578C18.4028 20.9578 17.3477 20.7827 16.3609 20.4564L16.3511 20.4519C19.7808 18.4313 22.0818 14.7068 22.0818 10.4523C22.0818 6.22183 19.8049 2.51675 16.4097 0.487135ZM13.3074 2.10292C10.7721 3.99697 9.13567 7.04432 9.13567 10.4763C9.13567 13.933 10.7871 16.9952 13.3465 18.8841C13.3614 18.8886 13.3712 18.8938 13.3855 18.9087C13.767 19.2201 14.6412 18.5773 14.4849 18.3146C14.4849 18.3094 14.4804 18.3048 14.4752 18.2997C12.0179 16.3965 10.4304 13.597 10.4304 10.4815C10.4304 7.36086 12.0179 4.55675 14.4752 2.65297C14.4901 2.64324 14.4999 2.62897 14.5045 2.61405C14.5338 2.38054 13.987 1.95697 13.5958 1.99135C13.4936 2.00108 13.3953 2.03481 13.3074 2.10292Z" fill="white"/>
</svg>
