<svg width="34" height="34" viewBox="0 0 34 34" fill="none" xmlns="http://www.w3.org/2000/svg">
<g clip-path="url(#clip0_1220_16406)">
<path d="M30.2225 4.72168H10.3892V29.2772H30.2225C31.2244 29.2772 32.1853 28.8792 32.8938 28.1707C33.6023 27.4623 34.0003 26.5014 34.0003 25.4995V8.49946C34.0003 7.49753 33.6023 6.53664 32.8938 5.82816C32.1853 5.11969 31.2244 4.72168 30.2225 4.72168Z" fill="#8D1B3D"/>
<path d="M10.3889 26.5487L15.3897 25.185L10.3889 23.8202L15.3897 22.4565L10.3889 21.0917L15.3897 19.728L10.3889 18.3632L15.3897 16.9995L10.3889 15.6357L15.3897 14.2719L10.3889 12.9072L15.3897 11.5434L10.3889 10.1787L15.3897 8.81396L10.3889 7.45018L15.3897 6.0864L10.3889 4.72168H3.77778C2.77585 4.72168 1.81496 5.11969 1.10649 5.82816C0.398015 6.53664 0 7.49753 0 8.49946L0 25.4995C0 26.5014 0.398015 27.4623 1.10649 28.1707C1.81496 28.8792 2.77585 29.2772 3.77778 29.2772H10.3889L15.3897 27.9135L10.3889 26.5487Z" fill="#EEEEEE"/>
</g>
<defs>
<clipPath id="clip0_1220_16406">
<rect width="34" height="34" fill="white"/>
</clipPath>
</defs>
</svg>
