<svg width="106" height="31" viewBox="0 0 106 31" fill="none" xmlns="http://www.w3.org/2000/svg">
<path d="M104.929 14.043C104.273 17.3668 101.935 20.0347 98.5277 22.2135C95.1204 24.3923 87.7371 25.2491 87.7371 25.2491L85.9102 23.9569C85.9102 23.9569 86.1686 23.8933 86.594 23.786C86.6039 23.782 86.6159 23.782 86.6258 23.778C88.2997 23.3546 92.4287 22.285 93.7725 21.6767C98.2753 19.6311 104.929 14.043 104.929 14.043Z" fill="#090C21"/>
<path d="M95.1883 25.1062C98.6593 24.1758 102.218 21.9434 102.218 21.9434C102.218 21.9434 99.695 26.9888 95.6972 27.4142C91.6994 27.8396 89.5703 26.0664 89.5703 26.0664C89.5703 26.0664 93.4926 25.5614 95.1883 25.1062Z" fill="#090C21"/>
<path d="M102.149 14.3829C100.928 15.5399 99.5546 16.508 98.0855 17.2952C95.4395 18.7146 89.6705 21.6966 85.3983 23.0842C85.2373 23.1398 85.0743 23.1895 84.9173 23.2353C84.456 23.0643 83.9014 22.8456 83.2533 22.5673C80.009 21.1797 78.9852 19.8219 70.7332 14.1622C56.5888 4.46297 61.3301 0 61.3301 0C61.3301 0 66.0615 11.6037 83.965 22.2512C86.5454 21.0922 95.3063 17.0229 98.8648 13.5698C102.346 10.1943 105.803 5.48677 105.803 5.48677C105.803 5.48677 107.28 9.51636 102.147 14.3849L102.149 14.3829Z" fill="#090C21"/>
<path d="M72.3962 17.6749C82.495 23.4857 83.2305 23.2074 83.2305 23.2074C83.2305 23.2074 80.9662 24.7739 68.9053 18.9412C68.122 18.5635 67.3308 18.2017 66.5436 17.8359C64.9592 17.1024 60.8898 14.522 60.4883 7.24805C60.4883 7.24805 61.1125 11.1842 72.3962 17.6749Z" fill="#090C21"/>
<path d="M61.9544 17.3828C61.9544 17.3828 65.2186 22.0406 74.6197 23.5733C83.5874 25.0365 84.6708 24.5733 84.6708 24.5733C84.6708 24.5733 76.9695 27.8633 69.3953 24.8555C61.9683 21.9054 61.5469 19.2018 61.9544 17.3828Z" fill="#090C21"/>
<path d="M85.1186 25.6923C85.1186 25.6923 77.4351 29.0062 72.0179 27.6683C66.6028 26.3304 66.5352 25.6147 66.5352 25.6147C66.5352 25.6147 67.3423 31.3798 75.9183 30.6085C83.2221 29.9525 85.1206 25.6923 85.1206 25.6923H85.1186Z" fill="#090C21"/>
<path d="M6.12689 23.5116C5.96586 23.3884 5.79092 23.287 5.60405 23.2074C5.4152 23.1279 5.16472 23.0564 4.85062 22.9947C4.53652 22.9331 4.14489 22.9033 3.67772 22.9033C3.30796 22.9033 2.9879 22.9073 2.71754 22.9132C2.44519 22.9192 2.21459 22.9431 2.02374 22.9808C1.8329 23.0186 1.67784 23.0802 1.56254 23.1677C1.44723 23.2552 1.36175 23.3744 1.30808 23.5295C1.2544 23.6826 1.22856 23.8834 1.22856 24.1299C1.27229 24.2531 1.35181 24.3545 1.46513 24.434C1.57844 24.5135 1.76332 24.5851 2.02175 24.6467C2.28019 24.7084 2.64398 24.7382 3.11513 24.7382C3.71748 24.7382 4.21248 24.8058 4.60411 24.939C4.99574 25.0722 5.30188 25.2372 5.52454 25.432C5.74719 25.6268 5.90225 25.8276 5.99369 26.0363C6.08514 26.2451 6.12888 26.426 6.12888 26.579C6.12888 27.0363 6.04936 27.4239 5.89231 27.738C5.73526 28.0521 5.50267 28.3046 5.19454 28.4934C4.8864 28.6823 4.50471 28.8195 4.04748 28.903C3.59025 28.9864 3.05748 29.0282 2.45314 29.0282C2.14501 29.0282 1.84681 28.9984 1.55657 28.9367C1.26633 28.8751 1.00392 28.8036 0.76934 28.724C0.534761 28.6445 0.280302 28.5411 0.00397592 28.4139V27.1893C0.165001 27.3166 0.337953 27.4199 0.526809 27.4995C0.713677 27.579 0.966148 27.6505 1.28025 27.7122C1.59434 27.7738 1.98597 27.8036 2.45314 27.8036C2.8229 27.8036 3.14296 27.7996 3.41332 27.7937C3.68369 27.7877 3.91628 27.7639 4.10712 27.7261C4.29797 27.6883 4.45303 27.6267 4.56833 27.5392C4.68363 27.4517 4.76911 27.3325 4.82279 27.1774C4.87646 27.0243 4.90231 26.8235 4.90231 26.577C4.90231 26.5333 4.89435 26.4916 4.87845 26.4558C4.86255 26.42 4.83471 26.3802 4.79098 26.3345C4.74724 26.2888 4.68761 26.247 4.6061 26.2033C4.52658 26.1616 4.42122 26.1218 4.29001 26.086C4.1608 26.0502 3.99778 26.0204 3.80495 25.9966C3.61212 25.9727 3.37953 25.9608 3.11115 25.9608C2.69368 25.9608 2.3279 25.931 2.0138 25.8693C1.6997 25.8077 1.42735 25.7262 1.19675 25.6228C0.966148 25.5194 0.773316 25.4041 0.620243 25.2749C0.46717 25.1457 0.343917 25.0125 0.254459 24.8753C0.163013 24.7382 0.0993979 24.605 0.0596387 24.4758C0.0198796 24.3466 0 24.2293 0 24.1279C0 23.6706 0.0795183 23.285 0.236567 22.9689C0.393616 22.6548 0.626207 22.4023 0.93434 22.2135C1.24247 22.0246 1.62416 21.8874 2.08139 21.804C2.53862 21.7205 3.0714 21.6787 3.67573 21.6787C3.98387 21.6787 4.28206 21.7085 4.5723 21.7702C4.86255 21.8318 5.12496 21.9033 5.35954 21.9829C5.59411 22.0624 5.84857 22.1658 6.1249 22.287V23.5116H6.12689Z" fill="#090C21"/>
<path d="M9.16989 24.7378H10.3309C11.0366 24.7378 11.633 25.2606 11.7224 25.9604H9.16989V29.0218H7.94531V21.6743H9.16989V24.7358V24.7378Z" fill="#090C21"/>
<path d="M13.6152 21.6763H12.3906V29.0238H13.6152V21.6763Z" fill="#090C21"/>
<path d="M19.5709 21.8119C20.0281 21.9033 20.4118 22.0604 20.7179 22.289C21.026 22.5156 21.2586 22.8277 21.4157 23.2253C21.5727 23.6229 21.6522 24.1259 21.6522 24.7381V26.579C21.6522 27.1913 21.525 27.6744 21.2706 28.0322C21.0161 28.39 20.6583 28.6445 20.199 28.7976C19.7398 28.9506 19.2031 29.0282 18.5928 29.0282C17.9825 29.0282 17.4398 28.9506 16.9805 28.7976C16.5213 28.6445 16.1635 28.388 15.909 28.0322C15.6546 27.6744 15.5273 27.1913 15.5273 26.579C15.5273 26.1218 15.5969 25.7341 15.7341 25.42C15.8732 25.1059 16.0581 24.8534 16.2927 24.6646C16.5273 24.4757 16.7897 24.3386 17.0799 24.2551C17.3702 24.1716 17.6704 24.1298 17.9765 24.1298C18.2827 24.1298 18.553 24.1596 18.7816 24.2213C19.0102 24.2829 19.2011 24.3545 19.3562 24.434C19.5092 24.5135 19.6643 24.6169 19.8174 24.7381V25.9627C19.6643 25.8395 19.5092 25.7381 19.3562 25.6586C19.2031 25.5791 19.0102 25.5075 18.7816 25.4459C18.553 25.3842 18.2846 25.3544 17.9765 25.3544C17.8234 25.3544 17.6883 25.3644 17.571 25.3822C17.4557 25.4001 17.3543 25.426 17.2688 25.4598C17.1833 25.4936 17.1098 25.5333 17.0501 25.581C16.9905 25.6287 16.9408 25.6824 16.905 25.7401C16.8672 25.7977 16.8374 25.8594 16.8155 25.925C16.7937 25.9906 16.7778 26.0581 16.7698 26.1297C16.7619 26.2013 16.7559 26.2768 16.7539 26.3524C16.7519 26.4279 16.7519 26.5054 16.7519 26.581C16.7519 26.7341 16.7639 26.8851 16.7857 27.0303C16.8076 27.1754 16.8732 27.3066 16.9825 27.4219C17.0919 27.5372 17.2728 27.6306 17.5233 27.7022C17.7737 27.7718 18.1316 27.8076 18.5928 27.8076C19.054 27.8076 19.4059 27.7718 19.6563 27.7022C19.9068 27.6326 20.0877 27.5392 20.1971 27.4219C20.3064 27.3066 20.372 27.1754 20.3939 27.0303C20.4157 26.8851 20.4277 26.736 20.4277 26.581V24.7401C20.4277 24.2829 20.37 23.9271 20.2527 23.6766C20.1354 23.4261 19.9704 23.2452 19.7557 23.1358C19.541 23.0265 19.2826 22.9609 18.9824 22.939C18.6822 22.9172 18.3463 22.9052 17.9785 22.9052C17.5093 22.9052 17.1197 22.9351 16.8056 22.9967C16.4915 23.0583 16.241 23.1299 16.0522 23.2094C15.8633 23.2889 15.6904 23.3923 15.5293 23.5136V22.289C15.6963 22.1657 15.8752 22.0643 16.0641 21.9848C16.2529 21.9053 16.5054 21.8337 16.8195 21.7721C17.1336 21.7105 17.5193 21.6807 17.9785 21.6807C18.5828 21.6807 19.1136 21.7264 19.5728 21.8158L19.5709 21.8119Z" fill="#090C21"/>
<path d="M28.1952 23.5116C28.0282 23.3883 27.8493 23.2869 27.6565 23.2074C27.4656 23.1279 27.2132 23.0563 26.901 22.9947C26.5889 22.9331 26.2033 22.9033 25.746 22.9033C25.593 22.9033 25.4419 22.8734 25.2968 22.8118C25.1516 22.7502 25.0204 22.6786 24.9051 22.5991C24.7898 22.5196 24.6606 22.4162 24.5215 22.289V29.0282H23.2969V22.289C23.5573 22.1657 23.7998 22.0643 24.0265 21.9848C24.2531 21.9053 24.5135 21.8337 24.8077 21.7721C25.1019 21.7105 25.4141 21.6807 25.746 21.6807C26.2072 21.6807 26.5949 21.7085 26.907 21.7622C27.2191 21.8178 27.4716 21.8795 27.6604 21.949C27.8493 22.0186 28.0282 22.1081 28.1952 22.2174V23.5136V23.5116Z" fill="#090C21"/>
<path d="M30.9043 21.6768V29.0262H29.6797V21.6768H30.9043Z" fill="#090C21"/>
<path d="M35.8177 21.6768H35.9409C36.9826 21.6768 37.7698 21.8795 38.3026 22.2871V29.0004C38.3026 29.0183 38.2946 29.0262 38.2768 29.0262H37.1039C37.086 29.0262 37.078 29.0183 37.078 29.0004V27.6883C36.744 27.7639 36.3643 27.8017 35.9409 27.8017H35.8177C34.8276 27.8017 33.937 27.5035 33.1478 26.9091C32.5017 26.3425 32.1797 25.6427 32.1797 24.8138V24.603C32.1797 23.7482 32.5634 23.0226 33.3327 22.4242C34.112 21.9253 34.941 21.6768 35.8177 21.6768ZM33.4043 24.7004C33.4043 25.5851 33.943 26.1775 35.0185 26.4797C35.3286 26.5453 35.599 26.5771 35.8276 26.5771C36.2471 26.5771 36.6645 26.5393 37.078 26.4638V23.0147C36.6924 22.9391 36.2828 22.9013 35.8534 22.9013C34.8992 22.9013 34.1736 23.2115 33.6746 23.8337C33.4937 24.12 33.4023 24.4102 33.4023 24.7004H33.4043Z" fill="#090C21"/>
<path d="M43.3115 29.0262C42.6972 29.0262 42.1585 28.899 41.6993 28.6446C41.2401 28.3901 40.8822 28.0323 40.6278 27.573C40.3733 27.1138 40.2461 26.5771 40.2461 25.9608V21.6768H41.4707V25.9608C41.4707 27.1874 42.085 27.8017 43.3115 27.8017C43.6773 27.8017 43.9755 27.8215 44.2081 27.8633C44.4407 27.905 44.6216 27.9547 44.7508 28.0164C44.88 28.078 44.9735 28.1376 45.0291 28.1993C45.0848 28.2589 45.1245 28.3305 45.1444 28.412V21.6768H46.369V29.0262H43.3095H43.3115Z" fill="#090C21"/>
<path d="M50.2884 28.8886C49.8312 28.7972 49.4475 28.6401 49.1414 28.4115C48.8332 28.1849 48.6006 27.8728 48.4436 27.4752C48.2865 27.0796 48.207 26.5726 48.207 25.9584V24.1235C48.207 23.5112 48.3343 23.0281 48.5887 22.6703C48.8432 22.3125 49.201 22.058 49.6602 21.9049C50.1194 21.7518 50.6562 21.6743 51.2725 21.6743C51.8887 21.6743 52.4195 21.7518 52.8787 21.9049C53.3379 22.058 53.6958 22.3144 53.9502 22.6703C54.2047 23.0281 54.3319 23.5112 54.3319 24.1235C54.3319 24.5807 54.2624 24.9684 54.1252 25.2825C53.988 25.5966 53.8011 25.849 53.5666 26.0379C53.332 26.2267 53.0696 26.3639 52.7793 26.4474C52.4891 26.5309 52.1909 26.5726 51.8828 26.5726C51.5746 26.5726 51.3063 26.5428 51.0776 26.4812C50.849 26.4196 50.6582 26.348 50.5031 26.2685C50.35 26.189 50.197 26.0856 50.0479 25.9584V24.7338C50.199 24.861 50.35 24.9644 50.5031 25.0439C50.6562 25.1234 50.849 25.195 51.0776 25.2566C51.3063 25.3182 51.5746 25.3481 51.8828 25.3481C52.0358 25.3481 52.171 25.3381 52.2883 25.3202C52.4036 25.3023 52.505 25.2765 52.5905 25.2427C52.676 25.2109 52.7495 25.1711 52.8092 25.1214C52.8688 25.0737 52.9185 25.0201 52.9563 24.9624C52.994 24.9047 53.0239 24.8431 53.0457 24.7775C53.0676 24.7119 53.0835 24.6443 53.0914 24.5728C53.0994 24.5012 53.1054 24.4257 53.1074 24.3501C53.1074 24.2726 53.1093 24.197 53.1093 24.1215C53.1093 23.9684 53.0974 23.8193 53.0755 23.6722C53.0537 23.5271 52.9881 23.3959 52.8787 23.2806C52.7694 23.1653 52.5885 23.0719 52.338 23.0023C52.0875 22.9327 51.7317 22.8969 51.2745 22.8969C50.8172 22.8969 50.4574 22.9327 50.2049 23.0023C49.9544 23.0719 49.7735 23.1653 49.6642 23.2806C49.5549 23.3959 49.4893 23.5271 49.4674 23.6722C49.4455 23.8173 49.4336 23.9664 49.4336 24.1215V25.9564C49.4336 26.4176 49.4912 26.7734 49.6085 27.0259C49.7238 27.2764 49.8908 27.4573 50.1055 27.5666C50.3202 27.676 50.5787 27.7416 50.8788 27.7634C51.179 27.7853 51.515 27.7972 51.8828 27.7972C52.3499 27.7972 52.7416 27.7674 53.0557 27.7058C53.3698 27.6442 53.6202 27.5726 53.8091 27.4931C53.998 27.4136 54.1709 27.3102 54.3319 27.183V28.4075C54.0556 28.5348 53.7992 28.6381 53.5666 28.7177C53.332 28.7972 53.0696 28.8687 52.7793 28.9304C52.4891 28.992 52.1909 29.0218 51.8828 29.0218C51.2784 29.0218 50.7476 28.9761 50.2884 28.8866V28.8886Z" fill="#090C21"/>
<path d="M31.1573 12.6792C31.1573 13.3511 30.9465 13.8501 30.5271 14.1741C30.1076 14.4982 29.5331 14.6612 28.8055 14.6612C28.2688 14.6612 27.7897 14.5618 27.3642 14.361C27.0959 14.5618 26.748 14.6612 26.3206 14.6612C26.1695 14.6612 26.0144 14.6373 25.8514 14.5896C25.6904 14.5419 25.5373 14.4743 25.3942 14.3848C25.2809 14.9534 25.0582 15.4245 24.7262 15.8003C24.3923 16.176 23.9768 16.4523 23.4798 16.6292C22.9808 16.8062 22.4321 16.8936 21.8298 16.8936C21.2274 16.8936 20.6966 16.7903 20.2633 16.5815C19.8299 16.3728 19.5019 16.0826 19.2812 15.7108C19.0605 15.3391 18.9492 14.9037 18.9492 14.4087C18.9492 14.1682 18.9691 13.9157 19.0108 13.6473C19.0526 13.3789 19.1023 13.1702 19.1599 13.0171L20.0903 12.6812L20.1977 12.7289C20.1261 13.1444 20.0903 13.5161 20.0903 13.8461C20.0903 14.4465 20.2394 14.9057 20.5376 15.2257C20.8358 15.5458 21.3487 15.7068 22.0783 15.7068C23.0703 15.7068 23.7919 15.4146 24.2451 14.8301C24.3088 14.6135 24.3406 14.4107 24.3406 14.2178C24.3406 13.9137 24.2849 13.5996 24.1716 13.2756C24.0583 12.9515 23.8873 12.5301 23.6547 12.0092L24.6984 11.2657H24.77C24.7938 11.3134 24.8455 11.4705 24.927 11.7329C24.9906 11.9416 25.0622 12.1543 25.1437 12.375C25.2232 12.5957 25.2948 12.7607 25.3604 12.874C25.4638 13.0827 25.5989 13.2338 25.762 13.3292C25.925 13.4247 26.1238 13.4724 26.3564 13.4724C26.4597 13.4724 26.5611 13.4624 26.6565 13.4425C26.752 13.4227 26.8295 13.3928 26.8851 13.3531C26.9408 13.2815 27.0104 13.1086 27.0959 12.8362C27.1794 12.5639 27.2648 12.2756 27.3543 11.9715L28.555 11.7786L28.6027 11.8263C28.3781 12.5221 28.1992 13.031 28.062 13.3511C28.3602 13.4306 28.6425 13.4704 28.9109 13.4704C29.4059 13.4704 29.7597 13.4227 29.9724 13.3272C30.0043 13.2398 30.0202 13.1265 30.0202 12.9913C30.0202 12.7507 29.9705 12.4824 29.8711 12.1881C29.7717 11.8919 29.6285 11.544 29.4456 11.1445L30.4675 10.3652L30.5549 10.3771C30.9605 11.3691 31.1632 12.1384 31.1632 12.6812L31.1573 12.6792ZM27.1595 9.88211L26.0681 9.12669L26.74 8.11879L27.8195 8.86229L27.1595 9.88211ZM27.8314 8.36928L26.74 7.60192L27.4239 6.60596L28.5033 7.33753L27.8314 8.36928ZM28.8512 9.88211L27.7718 9.12669L28.4556 8.11879L29.5351 8.86229L28.8512 9.88211Z" fill="#090C21"/>
<path d="M30.9629 15.9432L31.0365 15.8359C31.7164 15.7166 32.3127 15.5397 32.8256 15.3071C33.3385 15.0745 33.7341 14.826 34.0085 14.5636C34.2828 14.2992 34.42 14.0666 34.42 13.8678C34.4041 13.6591 34.3146 13.3569 34.1496 12.9613C33.9846 12.5657 33.7878 12.1602 33.5552 11.7427L34.42 10.7944H34.5234C34.7699 11.2676 34.9667 11.7566 35.1118 12.2655C35.2589 12.7744 35.3305 13.2118 35.3305 13.5796C35.3305 14.0269 35.2191 14.4602 34.9945 14.8757C34.8335 15.1719 34.589 15.4502 34.257 15.7107C33.925 15.9711 33.5314 16.1957 33.0741 16.3885C32.6169 16.5814 32.1259 16.7245 31.5971 16.8199L30.9609 15.9432H30.9629Z" fill="#090C21"/>
<path d="M38.0324 16.2314C37.5195 16.0227 37.1398 15.7364 36.8913 15.3726C36.6428 15.0088 36.5195 14.5874 36.5195 14.1063C36.5195 13.8737 36.5374 13.6411 36.5732 13.4045C36.609 13.168 36.6547 12.9552 36.7104 12.7624L37.6706 12.4264L37.7779 12.4861C37.6984 12.9175 37.6586 13.2753 37.6586 13.5536C37.6586 13.9373 37.7322 14.2613 37.8813 14.5257C38.0304 14.7901 38.2908 14.9929 38.6625 15.138C39.0363 15.2812 39.5472 15.3547 40.1953 15.3547C40.6843 15.3547 41.1515 15.305 41.5968 15.2056C42.0421 15.1062 42.4258 14.975 42.7518 14.816C43.0758 14.6569 43.3104 14.4919 43.4555 14.3249C43.4714 14.2613 43.4794 14.2176 43.4794 14.1937C43.4794 14.0745 43.4118 13.9691 43.2746 13.8816C43.1374 13.7942 42.8969 13.6888 42.551 13.5695C42.1574 13.4343 41.8612 13.3171 41.6644 13.2216C41.4676 13.1262 41.3065 12.989 41.1813 12.8141C41.0561 12.6392 40.9944 12.3986 40.9944 12.0945C40.9944 11.7028 41.1018 11.2893 41.3185 10.852C41.5351 10.4166 41.8353 10.0528 42.219 9.76059C42.6027 9.46836 43.04 9.32324 43.5271 9.32324C43.7676 9.32324 43.9962 9.35306 44.2169 9.4127C44.4376 9.47234 44.6304 9.54589 44.7994 9.63535L44.5728 10.7387L44.525 10.7745C44.366 10.6949 44.1891 10.6313 43.9943 10.5816C43.7994 10.5339 43.6185 10.5101 43.4535 10.5101C43.1832 10.5101 42.9287 10.5776 42.6921 10.7148C42.4536 10.85 42.2627 11.021 42.1216 11.2257C41.9785 11.4305 41.9069 11.6154 41.9069 11.7843C41.9069 11.8798 41.9546 11.9692 42.05 12.0487C42.1455 12.1283 42.2786 12.2038 42.4476 12.2714C42.6186 12.339 42.887 12.4324 43.2508 12.5537C43.6305 12.6889 43.9187 12.8181 44.1135 12.9374C44.3084 13.0566 44.4415 13.1779 44.5111 13.2972C44.5827 13.4164 44.6185 13.5576 44.6185 13.7166C44.6185 14.2295 44.4038 14.7007 43.9764 15.134C43.549 15.5654 42.9764 15.9093 42.2608 16.1658C41.5451 16.4222 40.7698 16.5495 39.9388 16.5495C39.1794 16.5495 38.5433 16.4461 38.0304 16.2374L38.0324 16.2314ZM39.2808 19.2074L38.1894 18.4519L38.8613 17.4441L39.9408 18.1875L39.2808 19.2074ZM40.9964 19.2074L39.917 18.4519L40.5889 17.4441L41.6683 18.1875L40.9964 19.2074Z" fill="#090C21"/>
<path d="M54.3322 6.47471V12.2597C54.3322 12.8918 54.2209 13.3908 53.9963 13.7546C53.7716 14.1184 53.3919 14.3828 52.8552 14.5458C52.3184 14.7108 51.563 14.7923 50.5869 14.7923H49.8076C48.4638 14.7923 47.4499 14.6134 46.7641 14.2576C46.0802 13.9017 45.7383 13.3391 45.7383 12.5718C45.7383 12.0668 45.8019 11.6036 45.9311 11.1802L46.8078 10.8442L46.9032 10.9039C46.8317 11.2955 46.7959 11.6434 46.7959 11.9476C46.7959 12.3869 46.9191 12.7268 47.1656 12.9674C47.4121 13.2079 47.7779 13.3749 48.267 13.4723C48.754 13.5677 49.4021 13.6155 50.2072 13.6155H50.9686C51.4676 13.6155 51.9129 13.5856 52.3045 13.526C52.6961 13.4664 52.9645 13.3888 53.1096 13.2914C53.1653 13.0509 53.1951 12.7348 53.1951 12.3432V6.70134L54.2428 6.41309L54.3342 6.47273L54.3322 6.47471ZM49.0144 10.723C49.255 10.723 49.4379 10.719 49.5671 10.7111C49.4955 10.5997 49.4359 10.4785 49.3921 10.3512C49.3484 10.224 49.3265 10.0988 49.3265 9.97948C49.3265 9.68328 49.42 9.44472 49.6088 9.26581C49.7957 9.0849 50.0462 8.99544 50.3583 8.99544C50.6068 8.99544 50.8911 9.05906 51.2111 9.18828L51.0302 9.82442C50.8135 9.75286 50.6267 9.71707 50.4656 9.71707C50.1456 9.71707 49.9865 9.85623 49.9865 10.1365C49.9865 10.2399 50.0084 10.3413 50.0522 10.4367C50.0959 10.5321 50.1575 10.6176 50.239 10.6892C50.5909 10.6653 50.9587 10.6335 51.3423 10.5938L51.402 11.2538C50.7698 11.3333 49.9985 11.3889 49.086 11.4227L49.0144 10.727V10.723Z" fill="#090C21"/>
</svg>
