<svg width="162" height="38" viewBox="0 0 162 38" fill="none" xmlns="http://www.w3.org/2000/svg">
<path d="M38.8849 18.5411C37.2138 16.7014 35.07 15.7011 33.256 15.0451C34.0915 13.2238 34.7256 11.4539 35.1946 9.64362C35.759 7.50719 35.8799 4.59757 34.513 2.83495C33.7837 1.8785 32.6917 1.37646 31.3686 1.37646C28.2721 1.4864 25.6628 3.14276 23.2477 4.82477C22.2876 5.5137 21.3274 6.29425 20.1584 7.3313C16.0429 3.62281 12.4076 1.67329 9.05447 1.38014H8.89322C7.57394 1.37646 6.48919 1.8785 5.75993 2.83128C4.40034 4.59757 4.51394 7.50719 5.07829 9.64727C5.53272 11.4172 6.17404 13.2238 7.00225 15.0157C4.72649 15.8843 2.84651 17.057 1.4063 18.5154C0.299563 19.7614 -0.162186 21.1648 0.0503652 22.6086C0.299563 24.3054 1.46493 25.9947 3.20565 27.2076V27.2186L3.67473 27.5374C4.23542 27.8892 4.81444 28.219 5.41544 28.5232C5.06364 29.7947 4.85475 31.0444 4.77413 32.2464C4.74848 33.866 5.16992 35.1157 6.02745 35.9915C6.83367 36.8123 7.99172 37.2411 9.36597 37.2411C10.2125 37.2411 11.1213 37.0761 11.9899 36.761C14.7053 35.8046 17.3696 34.2216 20.1254 31.9129C22.8667 34.2178 25.5345 35.8009 28.261 36.7574C29.1258 37.0725 30.0348 37.2374 30.8849 37.2374C32.2555 37.2374 33.4099 36.8087 34.2161 35.9915C35.0773 35.1157 35.5025 33.8624 35.4767 32.2609C35.4401 31.0774 35.2422 29.8424 34.8574 28.5012C35.4291 28.2081 36.0008 27.8855 36.5725 27.5301C38.5771 26.2842 39.9366 24.4446 40.2078 22.605C40.4167 21.1648 39.9587 19.7614 38.8776 18.5338M17.0471 31.4292C13.9981 33.7744 11.1836 35.1339 9.02882 35.2989C8.05401 35.2475 7.36872 34.9288 6.93995 34.3278C6.22534 33.3311 6.17037 31.5537 6.77138 29.1425C9.70312 30.4068 13.016 31.1433 17.0507 31.4292M14.2107 26.0094C15.1709 27.105 16.087 28.0944 16.9848 28.9959C13.3935 28.7468 10.0549 28.0614 7.40536 27.0317C7.92575 25.5257 8.51576 24.265 8.84191 23.6127C9.27069 22.748 9.7471 21.8611 10.3334 20.8827C11.4402 22.5244 12.7118 24.2064 14.2143 26.013M9.71044 15.5838C10.8318 15.2504 12.0009 14.9681 13.1919 14.7556C12.928 15.0854 11.4475 17.0496 10.9674 17.7202C10.5167 16.9946 10.0989 16.2837 9.71412 15.5838M30.5478 15.5838C30.141 16.3094 29.7232 17.0203 29.2835 17.7239C28.5872 16.7198 27.847 15.7231 27.0701 14.7556C28.261 14.9718 29.4191 15.2504 30.5514 15.5838M31.1818 14.4002L31.1415 14.3891C29.4667 13.9275 27.715 13.5903 25.9523 13.3632L25.8534 13.2495L25.6225 12.9747C25.6225 12.9747 21.7489 8.84108 21.0306 8.17414C22.0054 7.35329 22.9839 6.60939 23.9551 5.94245C25.89 4.61223 28.906 3.06215 31.0535 3.06215C32.1639 3.06215 33.6517 3.39194 33.7617 6.27225C33.6517 8.47097 32.7612 11.2926 31.1782 14.3965M24.3325 13.2202C19.0481 12.916 16.2226 13.2019 15.922 13.2202C16.142 12.9747 19.0004 9.95143 20.1218 8.94369C20.8914 9.63262 23.7205 12.5386 24.3325 13.2202ZM14.6358 12.971L14.4305 13.2092L14.3023 13.3704C12.4113 13.5866 10.6523 13.9201 9.0618 14.3599C7.48232 11.2597 6.59547 8.45631 6.49286 6.23195C6.59914 3.38828 8.08333 3.05115 9.19739 3.05115C11.3486 3.05115 14.3573 4.60124 16.2885 5.93146C17.267 6.60573 18.2638 7.35695 19.2349 8.17781C18.0732 9.24785 14.6394 12.971 14.6394 12.971M14.863 14.4844C18.8245 14.0777 21.8918 14.118 25.3989 14.4808L25.9743 15.199C26.9051 16.3643 27.7846 17.5736 28.5945 18.7939C26.2052 22.4035 23.2257 25.9397 20.1254 28.8236C17.0361 25.9434 14.0567 22.4071 11.66 18.7939C12.1951 17.9987 14.3609 15.1037 14.8667 14.4844M29.9284 20.8827C30.5075 21.8611 30.9876 22.748 31.4127 23.6091C31.7389 24.2578 32.3288 25.5183 32.8565 27.0281C30.2033 28.0614 26.8611 28.7468 23.2697 28.9995C24.1602 28.1055 25.0691 27.1234 26.0365 26.024C27.5611 24.1843 28.8364 22.4987 29.9248 20.8827M7.61792 16.3094C8.20793 17.4636 8.85291 18.596 9.58218 19.743C8.04302 22.1176 6.89231 24.3346 6.08608 26.4784C4.6422 25.7894 3.47684 24.9869 2.62663 24.1001C1.81673 23.0667 1.54188 22.0517 1.81673 21.0439C2.28216 19.3693 4.43697 17.6175 7.61792 16.3094ZM33.4942 29.1352C34.0952 31.5464 34.0402 33.3347 33.3292 34.3241C32.9005 34.9177 32.2225 35.2403 31.2588 35.2989C29.104 35.1486 26.2821 33.7854 23.2148 31.4254C27.2532 31.1397 30.5661 30.3995 33.4942 29.1352ZM30.6578 19.7614C31.398 18.5924 32.0686 17.4307 32.6367 16.2947C34.4763 17.0496 37.8001 18.7133 38.4415 21.0256C38.7163 22.0297 38.4451 23.0448 37.6023 24.1295L37.5767 24.1587C36.7228 25.0272 35.572 25.8078 34.1649 26.4784C33.6664 25.2178 33.0801 24.0269 32.5597 23.0081C32.0137 21.982 31.3906 20.9194 30.654 19.7577" fill="white"/>
<path d="M52.0938 24.9284C52.5555 25.0277 53.0649 25.1087 53.6292 25.1896C54.1092 25.2484 54.6809 25.3109 55.3259 25.3588C55.9818 25.4028 56.7001 25.4286 57.4806 25.4286C58.3344 25.4286 59.016 25.3992 59.5144 25.344C60.0201 25.2851 60.3939 25.1896 60.6504 25.0498C60.9105 24.9137 61.0718 24.7224 61.1452 24.4871C61.2147 24.2481 61.255 23.9502 61.255 23.5824C61.255 23.3911 61.2403 23.222 61.2147 23.0638C61.1855 22.9093 61.1305 22.7622 61.0243 22.6335C60.929 22.5085 60.7787 22.3981 60.5881 22.3062C60.3939 22.2142 60.1338 22.1444 59.8149 22.1002L56.3556 21.5118C55.5604 21.3867 54.8971 21.2212 54.3511 21.0117C53.8124 20.8056 53.3726 20.5261 53.0428 20.1804C52.7168 19.8274 52.4823 19.4045 52.3429 18.8969C52.2037 18.3857 52.1267 17.7642 52.1267 17.0286C52.1267 15.4472 52.7021 14.2703 53.86 13.4942C55.0107 12.7109 56.656 12.3247 58.7962 12.3247C59.5475 12.3247 60.24 12.3652 60.8702 12.4498C61.5042 12.5307 62.0502 12.6263 62.5267 12.7256C63.0654 12.8469 63.56 12.972 64.0108 13.1117V15.5538C63.5123 15.4729 62.9921 15.4067 62.4461 15.3515C61.9769 15.3 61.4492 15.2559 60.8702 15.2044C60.295 15.1602 59.7013 15.1345 59.1113 15.1345C58.437 15.1345 57.8654 15.164 57.4147 15.2081C56.9713 15.2633 56.6157 15.3552 56.3556 15.4729C56.0955 15.5979 55.9122 15.7598 55.806 15.9546C55.707 16.1496 55.652 16.396 55.652 16.6866C55.652 16.9109 55.6704 17.1168 55.718 17.297C55.7546 17.4809 55.8426 17.6427 55.9782 17.7826C56.1174 17.9223 56.3043 18.0474 56.5498 18.154C56.7843 18.2607 57.1105 18.3453 57.5136 18.4115L61.1049 19.0219C61.801 19.1506 62.3947 19.3125 62.8784 19.5074C63.3622 19.7097 63.7579 19.9781 64.0621 20.3202C64.3625 20.6622 64.5825 21.0961 64.7181 21.6295C64.8537 22.1553 64.9196 22.8027 64.9196 23.5713C64.9196 24.3401 64.8463 24.9652 64.6851 25.5426C64.5165 26.1237 64.194 26.6129 63.6993 27.0138C63.2155 27.4146 62.5156 27.7198 61.6178 27.9368C60.7201 28.1539 59.5328 28.2532 58.0633 28.2532C57.2497 28.2532 56.4839 28.2016 55.7583 28.1061C55.0438 27.9994 54.4098 27.8891 53.8674 27.764C53.2334 27.6243 52.6362 27.4624 52.0975 27.2822V24.9101L52.0938 24.9284Z" fill="white"/>
<path d="M69.2422 5.63062H72.9652V18.2601H75.4131L79.7226 12.7581H83.9625L78.3228 19.7864L83.9918 27.8296H79.752L74.9698 21.0699H72.9652V27.8296H69.2422V5.63062Z" fill="white"/>
<path d="M87.254 32.1556C87.5727 32.185 88.0638 32.1997 88.7088 32.1997C89.0642 32.1997 89.372 32.163 89.6432 32.1004C89.9035 32.0342 90.1342 31.9239 90.3284 31.7731C90.5227 31.6223 90.6949 31.4274 90.8488 31.2067C90.9991 30.975 91.1383 30.6955 91.2776 30.3645L92.2926 27.8305H90.6913L84.9453 12.7627H89.0789L93.3223 24.8442H93.447L97.7051 12.7627H101.806L94.7296 30.9567C94.4364 31.6996 94.1359 32.3247 93.8244 32.8397C93.5203 33.3472 93.1831 33.7591 92.824 34.0754C92.4649 34.388 92.0728 34.6161 91.6551 34.7632C91.23 34.9029 90.7646 34.9802 90.2662 34.9802C89.6908 34.9802 89.1925 34.9544 88.7565 34.9065C88.3276 34.8551 87.9575 34.7963 87.6497 34.7374C87.3089 34.6565 87.0047 34.5719 86.741 34.4762V32.1225C86.8911 32.1372 87.0561 32.1519 87.2467 32.163" fill="white"/>
<path d="M105.869 31.5966C106.243 31.6702 106.679 31.7364 107.173 31.7768C107.587 31.8283 108.09 31.8688 108.683 31.9019C109.273 31.9387 109.929 31.9534 110.644 31.9534C111.523 31.9534 112.238 31.9239 112.784 31.8614C113.33 31.7952 113.758 31.6922 114.07 31.5304C114.374 31.3685 114.587 31.159 114.704 30.8868C114.818 30.6146 114.873 30.2762 114.873 29.8681V27.2348C114.403 27.415 113.912 27.5767 113.388 27.7276C112.927 27.8489 112.41 27.963 111.835 28.0586C111.248 28.1652 110.64 28.2094 110.006 28.2094C108.918 28.2094 107.972 28.0732 107.181 27.8011C106.396 27.529 105.744 27.0803 105.242 26.4514C104.74 25.8225 104.359 25.0023 104.121 23.9836C103.883 22.9648 103.762 21.7108 103.762 20.2249C103.762 19.0002 103.89 17.9116 104.15 16.9444C104.41 15.9808 104.795 15.1644 105.301 14.4913C105.806 13.8182 106.429 13.307 107.181 12.9466C107.925 12.5899 108.786 12.4133 109.76 12.4133C110.585 12.4133 111.336 12.4869 112.022 12.6377C112.703 12.7885 113.297 12.954 113.795 13.1379C114.37 13.3548 114.891 13.6012 115.364 13.866L115.785 12.7517H118.599V30.0776C118.599 30.9824 118.46 31.7474 118.17 32.3726C117.881 33.0015 117.456 33.5017 116.87 33.8842C116.291 34.2704 115.569 34.5498 114.704 34.7153C113.839 34.8846 112.828 34.9655 111.681 34.9655C110.951 34.9655 110.241 34.9139 109.552 34.8293C108.866 34.7338 108.247 34.6382 107.686 34.5167C107.045 34.3954 106.437 34.2519 105.872 34.0754V31.5929L105.869 31.5966ZM111.318 25.1678C111.758 25.1678 112.186 25.1495 112.611 25.1164C113.037 25.0796 113.41 25.0465 113.74 24.995C114.14 24.9435 114.521 24.881 114.869 24.8111V16.1794C114.462 16.0506 114.022 15.9293 113.553 15.8226C113.157 15.7271 112.703 15.6424 112.194 15.5652C111.677 15.4843 111.153 15.4438 110.607 15.4438C110.061 15.4438 109.592 15.5285 109.218 15.6902C108.844 15.8557 108.536 16.1205 108.309 16.503C108.086 16.8892 107.914 17.3894 107.818 18.0183C107.712 18.6472 107.668 19.4269 107.668 20.361C107.668 21.2179 107.697 21.9535 107.76 22.5603C107.826 23.1782 107.976 23.671 108.214 24.0571C108.46 24.4434 108.819 24.7228 109.313 24.8994C109.797 25.0759 110.468 25.1642 111.314 25.1642" fill="white"/>
<path d="M122.836 20.1307C122.836 18.5602 123.056 17.2693 123.506 16.2616C123.957 15.2466 124.551 14.4485 125.295 13.8747C126.035 13.2937 126.882 12.8928 127.831 12.6721C128.78 12.4478 129.754 12.3301 130.762 12.3301C132.023 12.3301 133.067 12.4919 133.895 12.8008C134.724 13.1171 135.388 13.5548 135.881 14.1248C136.373 14.6913 136.717 15.3679 136.912 16.1586C137.113 16.953 137.212 17.821 137.212 18.7772C137.212 19.2186 137.193 19.682 137.157 20.1638C137.116 20.6419 137.065 21.1273 137.006 21.6349H126.658C126.669 22.3115 126.753 22.878 126.903 23.3414C127.054 23.7974 127.303 24.1799 127.647 24.4667C128.003 24.7609 128.468 24.9743 129.047 25.0994C129.626 25.228 130.348 25.2905 131.213 25.2905C131.95 25.2905 132.631 25.2758 133.261 25.2465C133.895 25.2096 134.46 25.1729 134.936 25.1214C135.508 25.0699 136.009 25.0148 136.471 24.9375V27.3097C135.94 27.4899 135.361 27.6517 134.731 27.7914C134.2 27.9165 133.58 28.0268 132.869 28.1335C132.158 28.2292 131.404 28.2805 130.601 28.2805C129.37 28.2805 128.27 28.1445 127.318 27.8576C126.357 27.5781 125.548 27.1185 124.884 26.4785C124.221 25.8312 123.708 24.9926 123.364 23.9556C123.012 22.9184 122.84 21.6459 122.84 20.1416M133.786 19.0971V18.5566C133.786 17.9792 133.745 17.4826 133.672 17.056C133.591 16.6295 133.434 16.28 133.192 16.0004C132.954 15.721 132.613 15.5188 132.177 15.3826C131.737 15.2466 131.151 15.1804 130.418 15.1804C129.637 15.1804 129 15.2613 128.501 15.4304C128.007 15.5996 127.622 15.846 127.34 16.177C127.065 16.5044 126.874 16.9089 126.779 17.4017C126.68 17.8872 126.625 18.4499 126.625 19.0935H133.786V19.0971Z" fill="white"/>
<path d="M141.109 12.7604H143.84L144.294 13.8747C144.869 13.5879 145.492 13.3268 146.174 13.0987C146.76 12.9148 147.434 12.7383 148.192 12.5765C148.959 12.4147 149.769 12.3301 150.638 12.3301C152.269 12.3301 153.478 12.7162 154.25 13.4959C155.023 14.2719 155.416 15.4893 155.416 17.1442V27.832H151.693V17.5599C151.693 17.17 151.664 16.839 151.608 16.5522C151.553 16.2727 151.429 16.0446 151.238 15.8682C151.055 15.6916 150.784 15.5628 150.428 15.4708C150.073 15.3864 149.601 15.3459 149.011 15.3459C148.383 15.3459 147.819 15.3753 147.306 15.4526C146.796 15.5261 146.361 15.5996 145.998 15.6732C145.572 15.7725 145.184 15.8755 144.836 15.9895V27.832H141.113V12.7641L141.109 12.7604Z" fill="white"/>
<path d="M158.233 9.72973C157.932 9.72973 157.643 9.67089 157.372 9.56055C157.1 9.44655 156.866 9.29575 156.66 9.09349C156.459 8.8912 156.293 8.66318 156.184 8.40206C156.071 8.13725 156.008 7.85408 156.008 7.55985C156.008 7.26562 156.067 6.96773 156.184 6.71028C156.293 6.44548 156.459 6.21379 156.66 6.01151C156.866 5.80922 157.1 5.65843 157.372 5.54443C157.643 5.43409 157.932 5.37524 158.233 5.37524C158.548 5.37524 158.833 5.43409 159.102 5.54443C159.373 5.65843 159.606 5.81658 159.812 6.01519C160.017 6.2101 160.171 6.4418 160.288 6.7066C160.402 6.96404 160.456 7.24723 160.456 7.55617C160.456 7.8651 160.402 8.13358 160.288 8.39838C160.175 8.65951 160.017 8.8912 159.812 9.0898C159.606 9.28473 159.373 9.44286 159.102 9.55688C158.829 9.66722 158.548 9.72606 158.233 9.72606M158.237 9.18542C158.468 9.18542 158.68 9.14496 158.885 9.0567C159.087 8.9758 159.259 8.85442 159.417 8.71098C159.57 8.56021 159.691 8.39103 159.776 8.18874C159.86 7.98648 159.904 7.77316 159.904 7.5525C159.904 7.33182 159.86 7.11483 159.776 6.91992C159.691 6.71764 159.57 6.54478 159.417 6.39399C159.262 6.24689 159.087 6.1292 158.885 6.04829C158.68 5.95634 158.464 5.91956 158.237 5.91956C158.008 5.91956 157.786 5.96001 157.588 6.04829C157.383 6.1292 157.206 6.25056 157.053 6.39399C156.902 6.54478 156.778 6.72132 156.696 6.91992C156.606 7.11483 156.562 7.32815 156.562 7.5525C156.562 7.77684 156.606 7.99015 156.696 8.18874C156.778 8.39103 156.902 8.56021 157.053 8.71098C157.206 8.8581 157.383 8.9758 157.588 9.0567C157.79 9.14865 158.002 9.18542 158.237 9.18542ZM158.273 8.70731C158.097 8.70731 157.939 8.67789 157.804 8.61537C157.675 8.56021 157.547 8.46826 157.448 8.35057C157.349 8.22553 157.284 8.10048 157.244 7.9644C157.202 7.82833 157.185 7.68857 157.185 7.54881C157.185 7.39435 157.21 7.2546 157.25 7.12219C157.294 6.98243 157.357 6.86107 157.452 6.75074C157.551 6.62938 157.672 6.53375 157.811 6.47858C157.95 6.41974 158.111 6.38664 158.302 6.38664C158.401 6.38664 158.504 6.39768 158.588 6.41606C158.68 6.43445 158.768 6.4749 158.859 6.52639C158.957 6.58524 159.039 6.66247 159.116 6.74705C159.186 6.84268 159.236 6.94198 159.266 7.06702L158.812 7.18839C158.797 7.13691 158.771 7.08909 158.739 7.03761C158.705 6.98612 158.657 6.94566 158.61 6.91256C158.569 6.87578 158.514 6.84636 158.46 6.83164C158.401 6.81326 158.346 6.80223 158.283 6.80223C158.185 6.80223 158.105 6.82062 158.023 6.86107C157.95 6.89784 157.884 6.94566 157.822 7.01553C157.767 7.08542 157.731 7.16632 157.712 7.26195C157.693 7.3539 157.683 7.44584 157.683 7.53779C157.683 7.6334 157.693 7.7327 157.719 7.81729C157.746 7.91291 157.775 7.98648 157.826 8.0637C157.88 8.13358 157.947 8.18507 158.02 8.21817C158.101 8.25494 158.185 8.27333 158.291 8.27333C158.426 8.27333 158.54 8.23655 158.621 8.17772C158.672 8.14094 158.705 8.10415 158.735 8.05635C158.76 8.01589 158.789 7.9644 158.804 7.91659L159.27 8.01589C159.232 8.12623 159.188 8.21817 159.123 8.30643C159.058 8.38734 158.995 8.45723 158.907 8.51607C158.823 8.57492 158.731 8.61537 158.632 8.64479C158.537 8.68157 158.416 8.69628 158.281 8.69628" fill="white"/>
</svg>
