<svg width="129" height="43" viewBox="0 0 129 43" fill="none" xmlns="http://www.w3.org/2000/svg">
<path d="M33.1138 22.3685C31.8463 20.9733 30.2203 20.2145 28.8445 19.717C29.4782 18.3356 29.9591 16.9932 30.3148 15.6202C30.7429 13.9998 30.8346 11.7929 29.7978 10.4561C29.2447 9.73063 28.4164 9.34985 27.413 9.34985C25.0643 9.43324 23.0853 10.6895 21.2536 11.9653C20.5254 12.4878 19.7972 13.0798 18.9105 13.8664C15.7891 11.0536 13.0318 9.57499 10.4886 9.35263H10.3663C9.36564 9.34985 8.5429 9.73063 7.98978 10.4533C6.95858 11.7929 7.04474 13.9998 7.47279 15.6229C7.81745 16.9654 8.30386 18.3356 8.93203 19.6948C7.20595 20.3535 5.78006 21.2429 4.68771 22.3491C3.8483 23.2941 3.49808 24.3586 3.65929 25.4537C3.8483 26.7405 4.73219 28.0218 6.05246 28.9418V28.9501L6.40823 29.1919C6.8335 29.4588 7.27266 29.7089 7.7285 29.9396C7.46167 30.9041 7.30324 31.8518 7.24209 32.7635C7.22263 33.992 7.54227 34.9397 8.19268 35.604C8.80417 36.2266 9.6825 36.5518 10.7248 36.5518C11.3669 36.5518 12.0562 36.4267 12.7149 36.1877C14.7746 35.4623 16.7953 34.2616 18.8855 32.5105C20.9645 34.2588 22.988 35.4595 25.056 36.1849C25.712 36.4239 26.4013 36.549 27.0461 36.549C28.0857 36.549 28.9612 36.2238 29.5727 35.604C30.2259 34.9397 30.5483 33.9892 30.5289 32.7746C30.5011 31.8768 30.351 30.9402 30.0591 29.9229C30.4927 29.7006 30.9263 29.456 31.3599 29.1864C32.8803 28.2414 33.9115 26.8461 34.1172 25.4509C34.2756 24.3586 33.9282 23.2941 33.1082 22.363M16.5507 32.1437C14.2381 33.9225 12.1035 34.9536 10.4691 35.0787C9.72975 35.0398 9.20998 34.798 8.88478 34.3422C8.34277 33.5862 8.30108 32.2382 8.75692 30.4093C10.9805 31.3682 13.4932 31.9269 16.5535 32.1437M14.3993 28.0329C15.1276 28.864 15.8224 29.6144 16.5034 30.2981C13.7795 30.1091 11.2474 29.5894 9.23778 28.8084C9.63247 27.6661 10.08 26.7099 10.3273 26.2152C10.6526 25.5593 11.0139 24.8867 11.4586 24.1446C12.298 25.3897 13.2625 26.6655 14.4021 28.0357M10.9861 20.1256C11.8366 19.8726 12.7233 19.6586 13.6266 19.4974C13.4265 19.7476 12.3036 21.2373 11.9395 21.746C11.5976 21.1956 11.2807 20.6564 10.9889 20.1256M26.7904 20.1256C26.4819 20.6759 26.165 21.2151 25.8315 21.7487C25.3034 20.9872 24.7419 20.2312 24.1527 19.4974C25.056 19.6614 25.9343 19.8726 26.7932 20.1256M27.2713 19.2278L27.2407 19.2195C25.9705 18.8693 24.6418 18.6136 23.3049 18.4413L23.2299 18.3551L23.0547 18.1466C23.0547 18.1466 20.1168 15.0115 19.572 14.5056C20.3114 13.883 21.0535 13.3188 21.7901 12.813C23.2576 11.8041 25.5452 10.6284 27.174 10.6284C28.0162 10.6284 29.1447 10.8785 29.228 13.0631C29.1447 14.7308 28.4692 16.8709 27.2685 19.225M22.0764 18.3329C18.0683 18.1022 15.9253 18.319 15.6974 18.3329C15.8641 18.1466 18.0322 15.8536 18.8827 15.0893C19.4664 15.6118 21.6122 17.8159 22.0764 18.3329ZM14.7218 18.1439L14.5661 18.3245L14.4688 18.4468C13.0346 18.6108 11.7004 18.8637 10.4941 19.1972C9.29615 16.8459 8.62351 14.7196 8.54568 13.0326C8.62629 10.8757 9.75199 10.62 10.597 10.62C12.2285 10.62 14.5105 11.7957 15.9753 12.8046C16.7175 13.316 17.4735 13.8858 18.21 14.5084C17.3289 15.32 14.7245 18.1439 14.7245 18.1439M14.8941 19.2917C17.8987 18.9832 20.2252 19.0138 22.8852 19.289L23.3216 19.8337C24.0276 20.7176 24.6947 21.6348 25.3089 22.5603C23.4967 25.298 21.2369 27.9801 18.8855 30.1675C16.5423 27.9829 14.2826 25.3008 12.4648 22.5603C12.8706 21.9572 14.5133 19.7615 14.8969 19.2917M26.3207 24.1446C26.7598 24.8867 27.124 25.5593 27.4464 26.2124C27.6938 26.7044 28.1413 27.6605 28.5415 28.8056C26.5291 29.5894 23.9942 30.1091 21.2703 30.3009C21.9457 29.6228 22.635 28.8779 23.3688 28.0441C24.5251 26.6488 25.4924 25.3703 26.3179 24.1446M9.39899 20.6759C9.84649 21.5514 10.3357 22.4102 10.8888 23.2802C9.72141 25.0812 8.84865 26.7628 8.23715 28.3887C7.14202 27.8662 6.25814 27.2575 5.61329 26.5849C4.99902 25.8011 4.79056 25.0312 4.99902 24.2669C5.35202 22.9967 6.98637 21.6681 9.39899 20.6759ZM29.0251 30.4038C29.481 32.2326 29.4393 33.589 28.9001 34.3394C28.5749 34.7896 28.0606 35.0342 27.3296 35.0787C25.6953 34.9648 23.5551 33.9308 21.2286 32.1409C24.2916 31.9241 26.8043 31.3627 29.0251 30.4038ZM26.8738 23.2941C27.4353 22.4074 27.9439 21.5264 28.3747 20.6648C29.77 21.2373 32.2911 22.4992 32.7775 24.253C32.9859 25.0145 32.7803 25.7844 32.141 26.6071L32.1215 26.6293C31.4739 27.2881 30.6011 27.8801 29.5338 28.3887C29.1558 27.4326 28.7111 26.5293 28.3164 25.7566C27.9022 24.9784 27.4297 24.1724 26.871 23.2913" fill="#A4B0C2"/>
<path d="M43.1367 28.1552C43.4869 28.2303 43.8733 28.2914 44.3013 28.3526C44.6654 28.397 45.099 28.4443 45.5881 28.4804C46.0857 28.5138 46.6304 28.5332 47.2224 28.5332C47.87 28.5332 48.387 28.511 48.765 28.4693C49.1485 28.4248 49.432 28.3526 49.6266 28.247C49.8239 28.1441 49.9462 27.9996 50.0018 27.8217C50.0546 27.641 50.0852 27.4159 50.0852 27.138C50.0852 26.9934 50.0741 26.8656 50.0546 26.7461C50.0324 26.6293 49.9907 26.5182 49.9101 26.4209C49.8378 26.3264 49.7239 26.243 49.5794 26.1735C49.432 26.104 49.2347 26.0512 48.9929 26.0179L46.3692 25.5732C45.766 25.4787 45.263 25.3536 44.8488 25.1952C44.4403 25.0395 44.1067 24.8283 43.8566 24.567C43.6092 24.3002 43.4313 23.9806 43.3257 23.597C43.2201 23.2107 43.1617 22.741 43.1617 22.1851C43.1617 20.99 43.5981 20.1005 44.4764 19.5141C45.3491 18.9221 46.5971 18.6302 48.2202 18.6302C48.79 18.6302 49.3153 18.6608 49.7934 18.7247C50.2742 18.7859 50.6883 18.8582 51.0497 18.9332C51.4582 19.0249 51.8334 19.1194 52.1753 19.225V21.0706C51.7973 21.0094 51.4026 20.9594 50.9885 20.9177C50.6327 20.8788 50.2325 20.8454 49.7934 20.8065C49.357 20.7732 48.9067 20.7537 48.4593 20.7537C47.9478 20.7537 47.5143 20.7759 47.1724 20.8093C46.8361 20.851 46.5665 20.9205 46.3692 21.0094C46.1718 21.1039 46.0328 21.2262 45.9522 21.3735C45.8772 21.5208 45.8355 21.707 45.8355 21.9266C45.8355 22.0962 45.8494 22.2518 45.8855 22.388C45.9133 22.527 45.98 22.6493 46.0829 22.7549C46.1885 22.8605 46.3302 22.955 46.5165 23.0356C46.6943 23.1162 46.9417 23.1801 47.2474 23.2301L49.9712 23.6915C50.4993 23.7888 50.9496 23.9111 51.3165 24.0584C51.6834 24.2113 51.9835 24.4142 52.2142 24.6727C52.4421 24.9311 52.6089 25.2591 52.7117 25.6621C52.8146 26.0596 52.8646 26.5487 52.8646 27.1296C52.8646 27.7105 52.809 28.183 52.6867 28.6194C52.5589 29.0585 52.3143 29.4282 51.9391 29.7311C51.5722 30.0341 51.0413 30.2648 50.3604 30.4288C49.6794 30.5928 48.7789 30.6678 47.6643 30.6678C47.0473 30.6678 46.4664 30.6289 45.9161 30.5566C45.3741 30.476 44.8933 30.3926 44.4819 30.2981C44.0011 30.1925 43.5481 30.0702 43.1395 29.934V28.1413L43.1367 28.1552Z" fill="#A4B0C2"/>
<path d="M56.1406 13.5718H58.9645V23.1162H60.8211L64.0897 18.9582H67.3054L63.028 24.2697L67.3277 30.3482H64.1119L60.4848 25.2397H58.9645V30.3482H56.1406V13.5718Z" fill="#A4B0C2"/>
<path d="M69.8018 33.6168C70.0436 33.639 70.416 33.6502 70.9052 33.6502C71.1748 33.6502 71.4083 33.6224 71.614 33.5751C71.8113 33.5251 71.9864 33.4417 72.1337 33.3277C72.281 33.2138 72.4117 33.0665 72.5284 32.8997C72.6423 32.7246 72.748 32.5134 72.8536 32.2632L73.6235 30.3482H72.4089L68.0508 18.9611H71.1859L74.4045 28.0914H74.499L77.7286 18.9611H80.8388L75.4718 32.7107C75.2494 33.2722 75.0215 33.7447 74.7853 34.1338C74.5546 34.5173 74.2989 34.8286 74.0265 35.0676C73.7541 35.3039 73.4567 35.4762 73.1399 35.5874C72.8174 35.693 72.4645 35.7514 72.0865 35.7514C71.6501 35.7514 71.2721 35.7319 70.9413 35.6958C70.6162 35.6569 70.3354 35.6124 70.102 35.5679C69.8435 35.5068 69.6128 35.4429 69.4127 35.3706V33.5918C69.5266 33.6029 69.6517 33.614 69.7962 33.6224" fill="#A4B0C2"/>
<path d="M83.9185 33.197C84.202 33.2526 84.5327 33.3026 84.9079 33.3332C85.222 33.3721 85.6028 33.4027 86.053 33.4277C86.5005 33.4555 86.998 33.4666 87.54 33.4666C88.2071 33.4666 88.749 33.4444 89.1632 33.3971C89.5773 33.3471 89.9025 33.2693 90.1387 33.147C90.3694 33.0247 90.5306 32.8663 90.6196 32.6606C90.7057 32.4549 90.7474 32.1992 90.7474 31.8907V29.9007C90.3917 30.0369 90.0192 30.1591 89.6218 30.2731C89.2716 30.3648 88.8797 30.451 88.4433 30.5232C87.9986 30.6039 87.5372 30.6372 87.0564 30.6372C86.2309 30.6372 85.5138 30.5344 84.9135 30.3287C84.3187 30.123 83.824 29.7839 83.4432 29.3087C83.0624 28.8334 82.7733 28.2136 82.5927 27.4437C82.412 26.6738 82.3203 25.726 82.3203 24.6031C82.3203 23.6776 82.4176 22.8549 82.6149 22.1239C82.8123 21.3957 83.1041 20.7787 83.4877 20.2701C83.8712 19.7614 84.3437 19.3751 84.9135 19.1027C85.4777 18.8331 86.1309 18.6997 86.8702 18.6997C87.4955 18.6997 88.0653 18.7553 88.5851 18.8693C89.102 18.9832 89.5523 19.1083 89.9303 19.2472C90.3667 19.4112 90.7613 19.5975 91.1199 19.7976L91.4395 18.9554H93.5741V32.0491C93.5741 32.7329 93.4685 33.311 93.2489 33.7835C93.0293 34.2588 92.7069 34.6368 92.2622 34.9258C91.8231 35.2176 91.2755 35.4289 90.6196 35.554C89.9636 35.6818 89.1965 35.743 88.3266 35.743C87.7735 35.743 87.2343 35.704 86.7118 35.6401C86.192 35.5678 85.7223 35.4956 85.297 35.4039C84.8106 35.3121 84.3493 35.2037 83.9212 35.0703V33.1942L83.9185 33.197ZM88.0514 28.3386C88.3849 28.3386 88.7101 28.3247 89.0325 28.2997C89.355 28.2719 89.6385 28.2469 89.8886 28.208C90.1916 28.1691 90.4806 28.1219 90.7447 28.069V21.5458C90.4361 21.4485 90.1026 21.3568 89.7469 21.2762C89.4467 21.2039 89.102 21.14 88.7157 21.0816C88.3238 21.0205 87.9263 20.9899 87.5122 20.9899C87.0981 20.9899 86.7423 21.0539 86.4588 21.1761C86.1753 21.3012 85.9419 21.5013 85.7695 21.7904C85.6 22.0822 85.4694 22.4602 85.3971 22.9355C85.3165 23.4108 85.2831 24 85.2831 24.706C85.2831 25.3536 85.3054 25.9095 85.3526 26.3681C85.4027 26.835 85.5166 27.2074 85.6973 27.4993C85.8835 27.7911 86.1559 28.0023 86.5311 28.1357C86.898 28.2692 87.4066 28.3359 88.0486 28.3359" fill="#A4B0C2"/>
<path d="M96.7891 24.5282C96.7891 23.3413 96.9558 22.3658 97.2977 21.6042C97.6396 20.8371 98.0898 20.234 98.654 19.8004C99.2155 19.3613 99.8575 19.0583 100.577 18.8915C101.297 18.722 102.037 18.6331 102.801 18.6331C103.757 18.6331 104.549 18.7553 105.177 18.9888C105.805 19.2278 106.308 19.5586 106.684 19.9894C107.056 20.4174 107.317 20.9288 107.465 21.5264C107.618 22.1268 107.693 22.7827 107.693 23.5053C107.693 23.8389 107.679 24.1891 107.651 24.5532C107.62 24.9145 107.581 25.2814 107.537 25.6649H99.688C99.6963 26.1763 99.7602 26.6044 99.8742 26.9546C99.9881 27.2992 100.177 27.5883 100.438 27.8051C100.708 28.0274 101.061 28.1886 101.5 28.2831C101.939 28.3804 102.487 28.4276 103.143 28.4276C103.701 28.4276 104.218 28.4165 104.696 28.3943C105.177 28.3665 105.605 28.3387 105.967 28.2998C106.4 28.2609 106.781 28.2192 107.131 28.1608V29.9535C106.728 30.0897 106.289 30.212 105.811 30.3176C105.408 30.4121 104.938 30.4955 104.399 30.5761C103.86 30.6484 103.287 30.6873 102.679 30.6873C101.745 30.6873 100.911 30.5845 100.188 30.3677C99.4601 30.1564 98.8458 29.809 98.3427 29.3254C97.8397 28.8362 97.4506 28.2025 97.1893 27.4187C96.9225 26.6349 96.7918 25.6733 96.7918 24.5365M105.094 23.7471V23.3386C105.094 22.9022 105.063 22.527 105.008 22.2046C104.947 21.8822 104.827 21.6181 104.644 21.4069C104.463 21.1957 104.204 21.0428 103.874 20.94C103.54 20.8371 103.096 20.7871 102.54 20.7871C101.948 20.7871 101.464 20.8482 101.086 20.9761C100.711 21.1039 100.419 21.2902 100.205 21.5403C99.9965 21.7877 99.852 22.0934 99.7797 22.4658C99.7046 22.8327 99.663 23.258 99.663 23.7444H105.094V23.7471Z" fill="#A4B0C2"/>
<path d="M110.648 18.9582H112.719L113.064 19.8004C113.5 19.5836 113.973 19.3863 114.49 19.2139C114.934 19.075 115.446 18.9416 116.021 18.8193C116.602 18.697 117.216 18.6331 117.875 18.6331C119.112 18.6331 120.029 18.9249 120.615 19.5141C121.202 20.1006 121.499 21.0206 121.499 22.2713V30.3482H118.675V22.5854C118.675 22.2907 118.653 22.0406 118.611 21.8238C118.57 21.6126 118.475 21.4402 118.331 21.3068C118.192 21.1734 117.986 21.0761 117.716 21.0067C117.447 20.9427 117.088 20.9122 116.641 20.9122C116.166 20.9122 115.738 20.9344 115.348 20.9928C114.962 21.0483 114.631 21.1039 114.356 21.1595C114.034 21.2346 113.739 21.3124 113.475 21.3986V30.3482H110.651V18.961L110.648 18.9582Z" fill="#A4B0C2"/>
<path d="M123.632 16.6708C123.404 16.6708 123.185 16.6263 122.979 16.543C122.774 16.4568 122.596 16.3428 122.44 16.19C122.287 16.0371 122.162 15.8648 122.079 15.6674C121.993 15.4673 121.945 15.2533 121.945 15.031C121.945 14.8086 121.99 14.5835 122.079 14.3889C122.162 14.1888 122.287 14.0137 122.44 13.8608C122.596 13.708 122.774 13.594 122.979 13.5079C123.185 13.4245 123.404 13.38 123.632 13.38C123.871 13.38 124.088 13.4245 124.291 13.5079C124.497 13.594 124.675 13.7135 124.83 13.8636C124.986 14.0109 125.103 14.186 125.192 14.3861C125.278 14.5807 125.319 14.7947 125.319 15.0282C125.319 15.2617 125.278 15.4646 125.192 15.6647C125.105 15.862 124.986 16.0371 124.83 16.1872C124.675 16.3345 124.497 16.454 124.291 16.5402C124.085 16.6236 123.871 16.668 123.632 16.668M123.635 16.2595C123.81 16.2595 123.971 16.2289 124.127 16.1622C124.28 16.101 124.411 16.0093 124.53 15.9009C124.647 15.787 124.739 15.6591 124.803 15.5062C124.866 15.3534 124.9 15.1922 124.9 15.0254C124.9 14.8586 124.866 14.6947 124.803 14.5474C124.739 14.3945 124.647 14.2639 124.53 14.1499C124.413 14.0387 124.28 13.9498 124.127 13.8886C123.971 13.8191 123.808 13.7914 123.635 13.7914C123.463 13.7914 123.293 13.8219 123.143 13.8886C122.988 13.9498 122.854 14.0415 122.737 14.1499C122.623 14.2639 122.529 14.3973 122.468 14.5474C122.398 14.6947 122.365 14.8559 122.365 15.0254C122.365 15.1949 122.398 15.3562 122.468 15.5062C122.529 15.6591 122.623 15.787 122.737 15.9009C122.854 16.0121 122.988 16.101 123.143 16.1622C123.296 16.2317 123.457 16.2595 123.635 16.2595ZM123.663 15.8981C123.53 15.8981 123.41 15.8759 123.307 15.8287C123.21 15.787 123.113 15.7175 123.038 15.6285C122.963 15.534 122.913 15.4395 122.882 15.3367C122.851 15.2339 122.837 15.1282 122.837 15.0226C122.837 14.9059 122.857 14.8003 122.888 14.7002C122.921 14.5946 122.968 14.5029 123.04 14.4195C123.115 14.3278 123.207 14.2555 123.313 14.2138C123.418 14.1694 123.541 14.1443 123.685 14.1443C123.76 14.1443 123.838 14.1527 123.902 14.1666C123.971 14.1805 124.038 14.211 124.108 14.25C124.183 14.2944 124.244 14.3528 124.302 14.4167C124.355 14.489 124.394 14.564 124.416 14.6585L124.072 14.7502C124.06 14.7113 124.041 14.6752 124.016 14.6363C123.991 14.5974 123.955 14.5668 123.919 14.5418C123.888 14.514 123.846 14.4918 123.805 14.4806C123.76 14.4667 123.719 14.4584 123.671 14.4584C123.596 14.4584 123.535 14.4723 123.474 14.5029C123.418 14.5307 123.368 14.5668 123.321 14.6196C123.279 14.6724 123.252 14.7336 123.238 14.8058C123.224 14.8753 123.215 14.9448 123.215 15.0143C123.215 15.0866 123.224 15.1616 123.243 15.2255C123.263 15.2978 123.285 15.3534 123.324 15.4117C123.366 15.4646 123.416 15.5035 123.471 15.5285C123.532 15.5563 123.596 15.5702 123.677 15.5702C123.78 15.5702 123.866 15.5424 123.927 15.4979C123.966 15.4701 123.991 15.4423 124.013 15.4062C124.033 15.3756 124.055 15.3367 124.066 15.3006L124.419 15.3756C124.391 15.459 124.358 15.5285 124.308 15.5952C124.258 15.6563 124.211 15.7091 124.144 15.7536C124.08 15.7981 124.01 15.8287 123.935 15.8509C123.863 15.8787 123.771 15.8898 123.669 15.8898" fill="#A4B0C2"/>
</svg>
