<svg width="98" height="37" viewBox="0 0 98 37" fill="none" xmlns="http://www.w3.org/2000/svg">
<g clip-path="url(#clip0_4522_884)">
<path d="M18.3959 0C28.5564 0 36.7918 8.23906 36.7918 18.4041C36.7918 28.5692 28.5564 36.8618 18.3959 36.8618C8.23537 36.8618 0 28.5692 0 18.4041C0 8.23906 8.23537 0 18.3959 0ZM18.3959 34.0263C26.9521 34.0263 33.9575 27.0177 33.9575 18.4041C33.9575 9.84408 26.9521 2.83552 18.3959 2.83552C9.78619 2.83552 2.78078 9.84408 2.78078 18.4041C2.78078 27.0177 9.78619 34.0263 18.3959 34.0263Z" fill="#A4B0C2"/>
<path d="M43.7876 6.63405V22.9517C43.7876 23.6472 43.1994 24.2357 42.5042 24.2357H40.8464V0.856008H42.5042C42.932 0.856008 43.3063 1.07001 43.5737 1.39101L66.1407 31.8327V2.19352C66.1407 1.49801 66.729 0.909508 67.4242 0.909508H69.1354V36.1663H66.3546C65.9268 36.1663 65.5525 36.0058 65.3386 35.6848L43.7876 6.63405Z" fill="#A4B0C2"/>
<path d="M76.5571 36.1663C75.8085 36.1663 75.2737 35.6313 75.2737 34.8823V33.4377H95.9691C96.6643 33.4377 97.2525 33.9727 97.2525 34.7218V36.1663H76.5571ZM95.4878 16.6386V18.0831C95.4878 18.8321 94.8996 19.3671 94.1509 19.3671H75.2737V17.9226C75.2737 17.1736 75.8085 16.6386 76.5571 16.6386H95.4878ZM75.2737 3.58453V2.08652C75.2737 1.39101 75.8085 0.802508 76.5571 0.802508H97.2525V2.30052C97.2525 2.99602 96.6643 3.58453 95.9691 3.58453H75.2737Z" fill="#A4B0C2"/>
<path d="M10.1857 15.5406C10.1857 15.3956 10.287 15.2817 10.4288 15.2817H14.278V15.582C14.278 15.7166 14.1666 15.8306 14.0349 15.8306H10.1857V15.5406ZM12.2521 22.1171H11.9583V17.3116C11.9583 17.1769 12.0698 17.063 12.2116 17.063H12.4952V21.8685C12.4952 22.0135 12.3838 22.1171 12.2521 22.1171Z" fill="#A4B0C2"/>
<path d="M16.1122 22.1171V15.2817H16.406C16.5478 15.2817 16.6592 15.3956 16.6592 15.5302V21.8685C16.6592 22.0135 16.5478 22.1171 16.406 22.1171H16.1122ZM20.6097 18.3265V15.5302C20.6097 15.3956 20.7211 15.2817 20.8629 15.2817H21.1567V22.1171H20.8629C20.7211 22.1171 20.6097 22.0135 20.6097 21.8685V18.8961H18.8269C18.6952 18.8961 18.5838 18.7822 18.5838 18.6372V18.3265H20.6097Z" fill="#A4B0C2"/>
<path d="M23.1167 22.1171C22.9749 22.1171 22.8736 22.0135 22.8736 21.8685V21.5889H26.7937C26.9254 21.5889 27.0368 21.6924 27.0368 21.8374V22.1171H23.1167ZM26.7025 18.3369V18.6165C26.7025 18.7615 26.5911 18.8651 26.4493 18.8651H22.8736V18.5854C22.8736 18.4404 22.9749 18.3369 23.1167 18.3369H26.7025ZM22.8736 15.8098V15.5199C22.8736 15.3852 22.9749 15.2713 23.1167 15.2713H27.0368V15.5613C27.0368 15.6959 26.9254 15.8098 26.7937 15.8098H22.8736Z" fill="#A4B0C2"/>
</g>
<defs>
<clipPath id="clip0_4522_884">
<rect width="97.2525" height="36.8618" fill="white"/>
</clipPath>
</defs>
</svg>
